<svg width="220" height="221" viewBox="0 0 220 221" fill="none" xmlns="http://www.w3.org/2000/svg">
<circle cx="110" cy="110.5" r="110" fill="#334A52"/>
<path d="M138.975 137.272C142.56 137.272 145.466 134.366 145.466 130.782C145.466 127.197 142.56 124.291 138.975 124.291C135.391 124.291 132.485 127.197 132.485 130.782C132.485 134.366 135.391 137.272 138.975 137.272Z" fill="white"/>
<path fill-rule="evenodd" clip-rule="evenodd" d="M138.975 142.372C134.745 142.372 126.284 144.459 125.994 148.631C128.892 152.745 133.644 155.411 138.975 155.411C144.307 155.411 149.058 152.745 151.956 148.631C151.666 144.459 143.205 142.372 138.975 142.372Z" fill="white"/>
<path fill-rule="evenodd" clip-rule="evenodd" d="M144.77 105.226V77.2943L101.307 58.3446L57.8448 77.2943V105.748C57.8448 132.057 76.3889 156.686 101.307 162.655C104.495 161.902 107.566 160.801 110.58 159.468C113.773 164.035 118.023 167.763 122.966 170.336C127.91 172.909 133.402 174.25 138.975 174.245C158.157 174.245 173.745 158.656 173.745 139.475C173.745 122.264 161.228 108.008 144.77 105.226ZM104.205 139.475C104.205 142.72 104.669 145.907 105.538 148.863C104.147 149.5 102.756 150.138 101.307 150.601C82.9373 144.806 69.4349 126.03 69.4349 105.748V84.8858L101.307 70.9777L133.18 84.8858V105.226C116.722 108.008 104.205 122.264 104.205 139.475ZM138.975 162.655C126.168 162.655 115.795 152.282 115.795 139.475C115.795 126.668 126.168 116.295 138.975 116.295C151.782 116.295 162.155 126.668 162.155 139.475C162.155 152.282 151.782 162.655 138.975 162.655Z" fill="white"/>
</svg>
