<svg width="220" height="220" viewBox="0 0 220 220" fill="none" xmlns="http://www.w3.org/2000/svg">
<circle cx="110" cy="110" r="110" fill="#007595"/>
<path d="M139.08 132.548H93.0667L83.6169 140.615L74.1671 132.548H54.2625V138.08C54.2625 145.13 59.1326 150.874 65.1551 150.987C65.7152 154.472 67.0705 157.62 69.1102 160.084C72.1273 163.728 76.5134 165.738 81.4596 165.738H111.883C116.83 165.738 121.216 163.728 124.233 160.079C126.272 157.616 127.628 154.467 128.188 150.982C131.387 150.925 134.261 149.277 136.255 146.688C138.117 144.207 139.11 141.182 139.08 138.08V132.548Z" fill="white"/>
<path d="M74.7755 125.173L83.61 131.67L92.5228 125.173H139.08V123.329C139.078 121.204 138.343 119.145 136.999 117.5C135.656 115.854 133.786 114.722 131.705 114.294C131.516 107.451 128.709 101.723 123.521 97.6989C118.722 93.9559 112.31 91.9829 104.969 91.9829H88.3741C72.6505 91.9829 61.9998 100.919 61.638 114.294C59.557 114.722 57.6871 115.854 56.3436 117.5C55.0001 119.145 54.2651 121.204 54.2625 123.329V125.173H74.7755Z" fill="white"/>
<path d="M157.307 73.5442H140.115L142.171 65.3251L152.449 61.7895L150.144 55.1055L135.854 59.7151L132.514 73.5442H98.5154V80.9196H102.837L103.266 84.6074H104.969C113.958 84.6074 121.946 87.1197 128.045 91.8722C131.437 94.4859 134.187 97.8404 136.084 101.679C137.253 104.061 138.086 106.594 138.557 109.205C141.992 111.319 144.539 114.612 145.722 118.468C146.905 122.324 146.643 126.479 144.985 130.156C145.957 132.685 146.455 135.371 146.456 138.08C146.456 143.229 144.704 148.136 141.524 151.897C139.555 154.242 137.034 156.06 134.187 157.187C133.217 159.951 131.772 162.525 129.916 164.793C129.644 165.12 129.366 165.44 129.08 165.749H146.456C150.144 165.749 151.757 163.905 152.218 160.448L160.608 80.9312H164.895V73.5442H157.307Z" fill="white"/>
</svg>
