<svg width="154" height="48" viewBox="0 0 154 48" fill="none" xmlns="http://www.w3.org/2000/svg">
<path d="M14.0128 47.1443C15.9609 46.9827 45.0405 44.5787 43.9473 44.6032C45.915 44.3845 46.5131 44.2804 47.1509 44.2278C47.5662 44.1977 47.9816 44.2052 48.3969 44.1526C51.8754 43.7166 51.334 44.1827 51.1337 40.755V40.5746C50.308 31.9253 49.4995 23.251 48.7084 14.5516C48.6639 14.1457 48.4637 13.6571 49.0051 13.4617C50.889 12.7851 49.9396 11.9583 48.9383 11.2066C50.889 10.6654 50.4439 9.86112 49.3166 9.03428C49.8432 8.69602 50.4514 9.06434 50.837 8.43293C51.2227 7.80153 50.1992 7.54596 50.3549 6.92958C51.0966 6.98972 52.0237 7.4332 51.8383 6.02005C51.7938 5.68931 51.7048 5.32851 52.1943 5.62918C53.4106 6.39589 53.3142 5.11052 53.6777 4.35885C54.5157 6.41844 56.2735 5.92985 57.6308 6.26059C60.0561 6.8469 60.1525 6.74918 60.553 4.25361C61.1389 0.262208 61.8361 0.961268 57.7272 0.209591C55.3069 -0.217988 55.3019 -0.188919 54.8891 2.23171L54.8866 2.24663C54.805 2.73522 54.5528 3.56207 54.4564 3.4869C52.4836 1.84825 53.2401 4.47911 52.5355 4.72717C51.9125 4.59187 51.4378 3.65979 50.8148 4.14838C50.1918 4.63697 51.0225 5.34354 50.8148 6.09522C50.2214 6.16287 49.413 5.65925 48.9977 6.23052C48.4711 6.97468 49.7319 7.2979 49.6578 8.04958C49.1238 8.31267 48.3228 7.95186 48.0483 8.65092C47.7146 9.53038 48.8568 9.54542 49.0348 10.1543C47.2251 11.154 47.2251 11.154 48.8938 12.6574C48.1515 13.005 47.3567 13.2235 46.5427 13.3038L46.5425 13.3038C40.1122 13.9052 33.682 14.5065 27.2591 15.1755C26.3543 15.2732 25.8722 15.1304 25.8722 14.1607C25.85 13.627 25.7016 13.0858 25.7016 12.5521C25.7832 10.9886 25.0193 10.5978 23.6101 10.7406C16.2428 11.4822 8.87298 12.1988 1.50071 12.8904C0.321445 12.9956 -0.0938938 13.5368 0.0173577 14.6493C0.158276 16.0249 0.254694 17.4004 0.388196 18.776C0.944453 24.6165 1.56004 30.4646 2.04955 36.3427C2.18305 37.9889 2.92473 38.2444 4.27458 37.9889C4.96434 37.8611 5.68376 37.8611 6.38836 37.7483C7.39704 37.598 7.87171 37.8761 7.93105 39.0412C8.04971 41.3789 8.42055 43.7016 8.55405 46.0318C8.62822 47.2345 9.12514 47.6178 10.208 47.475C11.2908 47.3322 12.3811 47.2796 14.0128 47.1443Z" fill="#153748"/>
<path d="M26.777 33.1856C27.363 34.689 26.4136 35.0197 24.9451 35.1475C18.1662 35.7338 11.3947 36.3427 4.63057 37.0568C3.14722 37.2071 2.90988 36.7561 2.79863 35.3805C2.23495 28.6154 1.56003 21.8955 0.862852 15.1604C0.759017 14.1607 0.981521 13.7623 1.99762 13.6571C9.23638 12.9956 16.4776 12.3066 23.7213 11.59C24.6707 11.4998 24.8339 11.9282 24.9006 12.6799C25.5014 19.4375 26.117 26.1875 26.777 33.1856Z" fill="white"/>
<path d="M25.2937 35.9819C27.8822 35.6586 27.8451 35.6361 27.5632 32.9225C27.0218 27.6608 26.5916 22.3991 26.0354 17.1749C25.9167 16.0775 26.473 16.0173 27.2369 15.9422C33.0813 15.3934 38.9109 14.7921 44.7405 14.2659C47.8629 13.9878 47.8258 14.0479 48.1299 17.3177C48.8864 25.3757 49.68 33.4312 50.5107 41.4841C50.6516 42.7996 50.3772 43.2356 49.0273 43.3408C41.4177 43.9421 33.8156 44.6487 26.2134 45.3102C21.1403 45.7537 16.0672 46.1445 11.0016 46.6632C9.68141 46.806 9.21415 46.5354 9.2364 45.1598C9.2364 43.5437 9.02132 41.9276 8.89523 40.319C8.97682 39.0713 10.0226 39.0713 10.8088 38.8683C15.5703 37.5679 20.458 36.8613 25.2937 35.9819Z" fill="#2AC2E5"/>
<path d="M25.2937 35.9819C20.5321 37.4251 15.6519 38.3647 10.831 39.5373C10.1252 39.6022 9.45046 39.8622 8.8804 40.289C8.78399 39.7027 8.69499 39.1239 8.59115 38.5376C8.45765 37.7859 8.71724 37.4477 9.496 37.38C14.7767 36.9365 20.0426 36.4554 25.2937 35.9819Z" fill="#2AC2E5"/>
<path d="M56.7111 0.585434C57.7495 1.57013 60.0116 0.217113 59.9522 2.31429C59.9522 3.32154 60.7829 5.8171 58.2835 5.52395C57.3045 5.4112 55.1091 6.27562 55.3168 4.02059C55.4206 2.91563 54.9608 1.22436 56.7111 0.585434Z" fill="#2AC2E5"/>
<path d="M11.7358 28.7808C10.0893 29.5325 9.77782 28.3599 9.68882 26.8039C9.58498 25.0675 9.44406 23.3312 9.25123 21.6098C9.15481 20.7228 9.49598 20.4748 10.3192 20.4147C12.4998 20.2568 14.6729 20.0388 16.846 19.7908C17.5061 19.7156 17.7879 19.7908 17.8473 20.5424C18.0104 22.6922 18.2033 24.842 18.4925 26.9843C18.6334 28.0141 18.1736 28.2171 17.3429 28.2772C15.5703 28.4351 13.8051 28.6004 11.7358 28.7808Z" fill="#153748"/>
<path d="M28.7722 19.3322C30.4632 18.1897 32.436 18.6708 34.2754 18.4077C37.4275 17.9492 40.6316 17.8063 43.8059 17.4906C44.9036 17.3779 45.4599 17.7237 45.5563 18.9038C45.8975 23.0831 46.1719 27.2775 46.7282 31.4267C46.9877 33.4262 46.2386 34.0125 44.5031 34.0501C44.15 34.0766 43.7985 34.1218 43.4499 34.1854C40.1421 34.7792 36.7748 35.2152 33.5041 35.7864C32.6914 35.9517 31.8544 35.9517 31.0417 35.7864C30.5949 35.7307 30.1828 35.514 29.8806 35.1759C29.5783 34.8378 29.406 34.4009 29.3952 33.9448C29.2839 31.7349 28.8018 29.5475 28.8834 27.3526C29.0021 24.6842 28.0676 22.0157 28.7722 19.3322Z" fill="#1D3A49"/>
<path d="M34.4831 38.3196C32.9997 39.8229 33.289 42.1531 31.2716 42.3486C28.2307 42.6417 24.6707 44.2052 22.9203 39.6275L34.4831 38.3196Z" fill="#183747"/>
<path d="M28.7722 19.3322C28.8538 24.2407 29.6473 29.104 29.9589 33.9824C30.033 35.1475 30.7005 35.3054 31.6647 35.2152C34.8391 34.9095 38.011 34.6088 41.1804 34.3132C41.9221 34.2455 42.6638 34.2305 43.4648 34.1854C39.3336 35.4181 35.0913 36.1322 30.8563 36.9741C29.5806 37.2297 28.9576 36.508 28.8167 35.14C28.3494 30.7352 28.7425 26.2852 28.1566 21.8879C28.0271 20.9874 28.2479 20.0711 28.7722 19.3322V19.3322Z" fill="#2AC2E5"/>
<path d="M45.9123 31.5545C46.1941 32.6068 45.9123 33.0579 44.6515 33.1706C40.4091 33.5164 36.1741 33.9899 31.9317 34.4259C31.19 34.5011 30.7376 34.4259 30.6634 33.4562C30.3371 29.2694 29.9737 25.0901 29.5435 20.9108C29.4322 19.8735 29.7957 19.5352 30.7376 19.4525C34.98 19.0717 39.2224 18.6683 43.4648 18.2423C44.3177 18.1521 44.7701 18.325 44.8443 19.3247C45.1632 23.4139 45.5489 27.4729 45.9123 31.5545Z" fill="#FFFFFC"/>
<path d="M40.3423 26.4281C40.1272 27.3075 41.3436 29.0289 39.2891 28.638C37.9615 28.3824 35.8033 30.5773 35.3434 27.8337C34.713 24.0753 34.9429 24.143 38.4436 23.692C41.1507 23.3462 39.8825 25.4208 40.3423 26.4281Z" fill="#193949"/>
<path d="M59.875 27.25C59.875 25.5333 60.2583 24 61.025 22.65C61.8083 21.2833 62.8667 20.225 64.2 19.475C65.55 18.7083 67.0583 18.325 68.725 18.325C70.675 18.325 72.3833 18.825 73.85 19.825C75.3167 20.825 76.3417 22.2083 76.925 23.975H72.9C72.5 23.1417 71.9333 22.5167 71.2 22.1C70.4833 21.6833 69.65 21.475 68.7 21.475C67.6833 21.475 66.775 21.7167 65.975 22.2C65.1917 22.6667 64.575 23.3333 64.125 24.2C63.6917 25.0667 63.475 26.0833 63.475 27.25C63.475 28.4 63.6917 29.4167 64.125 30.3C64.575 31.1667 65.1917 31.8417 65.975 32.325C66.775 32.7917 67.6833 33.025 68.7 33.025C69.65 33.025 70.4833 32.8167 71.2 32.4C71.9333 31.9667 72.5 31.3333 72.9 30.5H76.925C76.3417 32.2833 75.3167 33.675 73.85 34.675C72.4 35.6583 70.6917 36.15 68.725 36.15C67.0583 36.15 65.55 35.775 64.2 35.025C62.8667 34.2583 61.8083 33.2 61.025 31.85C60.2583 30.5 59.875 28.9667 59.875 27.25ZM81.6895 20.5C81.0728 20.5 80.5561 20.3083 80.1395 19.925C79.7395 19.525 79.5395 19.0333 79.5395 18.45C79.5395 17.8667 79.7395 17.3833 80.1395 17C80.5561 16.6 81.0728 16.4 81.6895 16.4C82.3061 16.4 82.8145 16.6 83.2145 17C83.6311 17.3833 83.8395 17.8667 83.8395 18.45C83.8395 19.0333 83.6311 19.525 83.2145 19.925C82.8145 20.3083 82.3061 20.5 81.6895 20.5ZM83.4145 22.15V36H79.9145V22.15H83.4145ZM94.5475 21.95C96.1975 21.95 97.5308 22.475 98.5475 23.525C99.5641 24.5583 100.072 26.0083 100.072 27.875V36H96.5725V28.35C96.5725 27.25 96.2975 26.4083 95.7475 25.825C95.1975 25.225 94.4475 24.925 93.4975 24.925C92.5308 24.925 91.7641 25.225 91.1975 25.825C90.6475 26.4083 90.3725 27.25 90.3725 28.35V36H86.8725V22.15H90.3725V23.875C90.8391 23.275 91.4308 22.8083 92.1475 22.475C92.8808 22.125 93.6808 21.95 94.5475 21.95ZM105.176 20.5C104.559 20.5 104.042 20.3083 103.626 19.925C103.226 19.525 103.026 19.0333 103.026 18.45C103.026 17.8667 103.226 17.3833 103.626 17C104.042 16.6 104.559 16.4 105.176 16.4C105.792 16.4 106.301 16.6 106.701 17C107.117 17.3833 107.326 17.8667 107.326 18.45C107.326 19.0333 107.117 19.525 106.701 19.925C106.301 20.3083 105.792 20.5 105.176 20.5ZM106.901 22.15V36H103.401V22.15H106.901ZM113.859 24.175C114.309 23.5083 114.925 22.9667 115.709 22.55C116.509 22.1333 117.417 21.925 118.434 21.925C119.617 21.925 120.684 22.2167 121.634 22.8C122.6 23.3833 123.359 24.2167 123.909 25.3C124.475 26.3667 124.759 27.6083 124.759 29.025C124.759 30.4417 124.475 31.7 123.909 32.8C123.359 33.8833 122.6 34.725 121.634 35.325C120.684 35.925 119.617 36.225 118.434 36.225C117.4 36.225 116.492 36.025 115.709 35.625C114.942 35.2083 114.325 34.675 113.859 34.025V36H110.359V17.5H113.859V24.175ZM121.184 29.025C121.184 28.1917 121.009 27.475 120.659 26.875C120.325 26.2583 119.875 25.7917 119.309 25.475C118.759 25.1583 118.159 25 117.509 25C116.875 25 116.275 25.1667 115.709 25.5C115.159 25.8167 114.709 26.2833 114.359 26.9C114.025 27.5167 113.859 28.2417 113.859 29.075C113.859 29.9083 114.025 30.6333 114.359 31.25C114.709 31.8667 115.159 32.3417 115.709 32.675C116.275 32.9917 116.875 33.15 117.509 33.15C118.159 33.15 118.759 32.9833 119.309 32.65C119.875 32.3167 120.325 31.8417 120.659 31.225C121.009 30.6083 121.184 29.875 121.184 29.025ZM133.452 36.225C132.119 36.225 130.919 35.9333 129.852 35.35C128.785 34.75 127.944 33.9083 127.327 32.825C126.727 31.7417 126.427 30.4917 126.427 29.075C126.427 27.6583 126.735 26.4083 127.352 25.325C127.985 24.2417 128.844 23.4083 129.927 22.825C131.01 22.225 132.219 21.925 133.552 21.925C134.885 21.925 136.094 22.225 137.177 22.825C138.26 23.4083 139.11 24.2417 139.727 25.325C140.36 26.4083 140.677 27.6583 140.677 29.075C140.677 30.4917 140.352 31.7417 139.702 32.825C139.069 33.9083 138.202 34.75 137.102 35.35C136.019 35.9333 134.802 36.225 133.452 36.225ZM133.452 33.175C134.085 33.175 134.677 33.025 135.227 32.725C135.794 32.4083 136.244 31.9417 136.577 31.325C136.91 30.7083 137.077 29.9583 137.077 29.075C137.077 27.7583 136.727 26.75 136.027 26.05C135.344 25.3333 134.502 24.975 133.502 24.975C132.502 24.975 131.66 25.3333 130.977 26.05C130.31 26.75 129.977 27.7583 129.977 29.075C129.977 30.3917 130.302 31.4083 130.952 32.125C131.619 32.825 132.452 33.175 133.452 33.175ZM147.32 25.025V31.725C147.32 32.1917 147.428 32.5333 147.645 32.75C147.878 32.95 148.261 33.05 148.795 33.05H150.42V36H148.22C145.27 36 143.795 34.5667 143.795 31.7V25.025H142.145V22.15H143.795V18.725H147.32V22.15H150.42V25.025H147.32Z" fill="black"/>
</svg>
