<svg width="210" height="78" viewBox="0 0 210 78" fill="none" xmlns="http://www.w3.org/2000/svg">
<g clip-path="url(#clip0)">
<path d="M105.929 29.7052C104.496 31.2322 103.276 32.5255 102.039 33.851C100.482 35.5029 98.936 37.1708 97.3301 38.7784C96.8524 39.2578 96.8564 39.556 97.2217 40.0918C99.5582 43.5365 101.863 47.0054 104.283 50.6274C102.401 50.6274 100.622 50.6274 98.8436 50.6274C98.4743 50.6274 98.2695 50.2245 98.0728 49.9385C95.7363 46.4817 93.4199 43.0087 91.0713 39.556C90.8345 39.2054 90.8947 39.0403 91.1516 38.7502C93.8441 35.9219 96.5299 33.0882 99.209 30.2491C99.3587 30.0758 99.5436 29.9365 99.7513 29.8406C99.959 29.7447 100.185 29.6944 100.413 29.6931C102.152 29.7133 103.882 29.7052 105.929 29.7052Z" fill="#0B132B"/>
<path d="M90.5655 39.7735C90.5655 42.8328 90.5655 45.8921 90.5655 48.9514C90.5655 50.2729 90.1641 50.6516 88.8553 50.6476C87.7633 50.6476 86.286 51.0505 85.6757 50.4864C84.9772 49.8539 85.471 48.3511 85.467 47.227C85.4429 42.0338 85.467 36.8405 85.467 31.6432C85.467 30.1202 85.8684 29.7093 87.4181 29.7012C88.1246 29.7012 88.8392 29.7496 89.5418 29.7012C90.3447 29.6327 90.6217 29.8382 90.6016 30.7165C90.5294 33.7221 90.5655 36.7478 90.5655 39.7735Z" fill="#0B132B"/>
<path d="M143.607 39.8863C143.607 37.8719 143.607 35.8977 143.607 33.9034C143.607 32.2596 144.064 31.7962 145.666 31.8043C147.717 31.8043 147.754 31.4377 147.738 33.8752C147.738 35.7043 147.738 35.7043 149.564 35.7043H149.669C152.005 35.7043 152.39 36.1999 151.965 38.5568C151.961 38.6631 151.936 38.7675 151.889 38.8633C151.843 38.959 151.778 39.044 151.697 39.1127C151.616 39.1814 151.521 39.2323 151.419 39.2622C151.318 39.292 151.211 39.3002 151.106 39.286C150.219 39.286 149.331 39.286 148.448 39.286C147.998 39.286 147.713 39.3344 147.725 39.9065C147.766 41.9209 147.77 43.9636 147.766 45.9902C147.766 46.7959 148.135 47.1666 148.934 47.1263C149.644 47.0941 150.351 47.0578 151.062 47.0699C151.656 47.0699 152.314 47.0699 152.503 47.8475C152.808 49.1247 152.503 50.3857 151.7 50.571C149.452 51.0827 147.192 51.1996 145.196 49.7653C143.992 48.8869 143.639 47.5252 143.623 46.0949C143.594 44.0281 143.623 41.9653 143.623 39.8984L143.607 39.8863Z" fill="#0B132B"/>
<path d="M111.839 40.3376C111.839 43.3633 111.815 46.381 111.839 49.4148C111.839 50.3092 111.622 50.6839 110.635 50.6758C107.728 50.6476 107.728 50.6758 107.728 47.7508V31.8285C107.728 30.2169 108.214 29.7455 109.799 29.7415C111.807 29.7415 111.807 29.7415 111.807 31.7842L111.839 40.3376Z" fill="#0B132B"/>
<path d="M131.679 44.7452C131.783 43.3029 131.571 41.5221 131.799 39.7534C132.177 36.8566 134.208 35.7688 136.248 35.5552C137.451 35.4785 138.658 35.4785 139.861 35.5552C140.487 35.5552 141.065 35.7768 141.302 36.4376C141.595 37.2104 141.583 38.0661 141.27 38.8308C141.125 39.1692 140.748 39.1249 140.427 39.1289C139.399 39.1289 138.367 39.1289 137.344 39.1692C136.32 39.2095 135.838 39.7171 135.854 40.7808C135.894 43.601 135.854 46.4213 135.854 49.2133C135.854 50.567 135.766 50.6597 134.409 50.6476C131.366 50.6234 131.687 51.0787 131.675 47.9522C131.679 46.9934 131.679 46.0345 131.679 44.7452Z" fill="#0B132B"/>
<path d="M186.129 43.178C186.129 45.273 186.109 47.3721 186.129 49.4671C186.129 50.3011 185.896 50.7483 184.977 50.6758C184.378 50.6133 183.774 50.6133 183.174 50.6758C182.187 50.7806 181.97 50.2971 181.97 49.4188C181.994 45.5107 181.97 41.6067 181.97 37.6986C181.97 35.9299 184.11 34.7857 185.659 35.6842C186.113 35.9501 186.105 36.361 186.105 36.7921C186.125 38.9154 186.129 41.0467 186.129 43.178Z" fill="#0B132B"/>
<path d="M209.615 43.2223C209.615 45.3214 209.615 47.4164 209.615 49.5155C209.615 50.3011 209.386 50.7241 208.519 50.6637C207.811 50.6194 207.102 50.6194 206.395 50.6637C205.749 50.6959 205.471 50.3857 205.471 49.7894C205.471 45.6316 205.471 41.4697 205.471 37.2998C205.471 36.2563 206.106 35.6882 207.109 35.5472C207.462 35.5129 207.816 35.5048 208.169 35.523C209.414 35.523 209.595 35.7043 209.599 36.9211C209.619 39.0322 209.615 41.1273 209.615 43.2223Z" fill="#0B132B"/>
<path d="M64.6111 6.59129C65.1502 6.58782 65.6846 6.69337 66.1822 6.90166C66.6798 7.10996 67.1306 7.41671 67.5075 7.80363C67.8844 8.19055 68.1798 8.6497 68.3761 9.15369C68.5723 9.65768 68.6654 10.1962 68.6498 10.7371C68.6381 11.8124 68.2032 12.8396 67.4398 13.5943C66.6764 14.3491 65.6466 14.7703 64.5749 14.766C64.0355 14.7726 63.5002 14.6701 63.0011 14.4645C62.5021 14.2589 62.0494 13.9545 61.6702 13.5694C61.2909 13.1843 60.9929 12.7265 60.794 12.2232C60.595 11.72 60.4992 11.1816 60.5122 10.6404C60.4985 10.0994 60.5957 9.5614 60.7977 9.05967C60.9997 8.55795 61.3022 8.1032 61.6865 7.72359C62.0708 7.34399 62.5286 7.04762 63.0317 6.85285C63.5348 6.65808 64.0723 6.56905 64.6111 6.59129Z" fill="#2AC2E5"/>
<path d="M207.555 34.1975C206.026 34.1975 205.146 33.3232 205.146 31.7399C205.146 30.1565 206.122 29.1613 207.611 29.1372C208.984 29.109 209.984 30.1887 209.996 31.7076C210.008 33.2265 209.129 34.4151 207.555 34.1975Z" fill="#2BC2E4"/>
<path d="M186.422 31.6794C186.422 33.3836 185.671 34.1935 184.082 34.1975C182.492 34.2015 181.713 33.4401 181.709 31.8043C181.705 30.1686 182.632 29.117 184.098 29.109C185.427 29.1049 186.418 30.2169 186.422 31.6794Z" fill="#F9CD10"/>
<path d="M138.986 64.4185C138.986 64.91 138.986 65.4015 138.986 65.8931C138.986 66.3201 139.074 66.6988 138.379 66.6988C137.685 66.6988 137.629 66.4289 137.649 65.8931C137.685 64.9301 137.649 63.9672 137.673 63.0084C137.673 62.7022 137.432 62.2026 137.958 62.126C138.484 62.0495 139.018 61.84 139.395 62.4524C139.773 63.0648 140.242 63.7376 140.832 64.628C140.832 63.8907 140.832 63.4193 140.832 62.9399C140.832 62.4604 140.768 62.0495 141.503 62.0616C142.238 62.0736 142.117 62.4645 142.113 62.8875C142.113 63.8826 142.113 64.8818 142.113 65.8769C142.113 66.1428 142.354 66.6183 141.88 66.6626C141.406 66.7069 140.885 66.9285 140.531 66.3725C140.094 65.6956 139.644 65.0268 139.198 64.358L138.986 64.4185Z" fill="#0B132B"/>
<path d="M133.803 64.3862V65.7762C133.803 66.2557 133.939 66.715 133.108 66.719C132.277 66.723 132.233 66.3604 132.305 65.7682C132.402 65.0631 132.193 64.8012 131.41 64.7851C130.539 64.7851 130.491 65.188 130.563 65.8205C130.635 66.4531 130.539 66.719 129.8 66.7109C129.062 66.7029 129.118 66.3322 129.126 65.8447C129.126 64.8133 129.154 63.7779 129.126 62.7465C129.126 62.2388 129.274 62.0495 129.788 62.0696C130.302 62.0898 130.643 62.0898 130.567 62.7384C130.491 63.3871 130.499 63.8947 131.454 63.8343C132.153 63.79 132.418 63.6087 132.305 62.9237C132.205 62.3073 132.39 62.0454 133.108 62.0535C133.827 62.0616 133.851 62.3597 133.815 62.8915C133.779 63.4233 133.803 63.8907 133.803 64.3862Z" fill="#0B132B"/>
<path d="M70.4885 2.22797C70.4885 0.910513 71.2713 0.0322068 72.4958 -2.45641e-05C73.0856 -0.0142062 73.6573 0.205293 74.0871 0.610964C74.5168 1.01663 74.7701 1.57584 74.7921 2.16754C74.79 2.45197 74.7319 2.73318 74.621 2.99495C74.5101 3.25672 74.3487 3.49388 74.146 3.69275C73.9434 3.89162 73.7035 4.04827 73.4403 4.15368C73.177 4.25909 72.8956 4.31116 72.6122 4.3069C72.3315 4.33185 72.0488 4.29564 71.7834 4.20073C71.518 4.10582 71.2762 3.95446 71.0745 3.75702C70.8728 3.55958 70.716 3.32073 70.6148 3.05681C70.5137 2.7929 70.4706 2.51016 70.4885 2.22797Z" fill="#29C3E4"/>
<path d="M153.944 31.5384C154.687 29.4111 155.345 27.5095 156.012 25.628C156.046 25.4716 156.137 25.3334 156.267 25.2398C156.396 25.1462 156.555 25.1037 156.714 25.1203C157.417 25.1445 158.123 25.1203 159.011 25.1203C157.975 27.1791 157.043 29.1493 156.012 31.0428C155.574 31.8527 154.727 31.1677 153.944 31.5384Z" fill="#0B132B"/>
<path d="M147.396 65.4821C147.746 66.727 146.826 66.6666 146.112 66.7834C144.317 67.0735 142.876 65.8608 143.04 64.1969C143.129 63.3347 143.478 62.5853 144.333 62.2751C144.781 62.1018 145.259 62.0224 145.738 62.0418C146.217 62.0612 146.687 62.179 147.119 62.3879C147.541 62.5853 147.232 62.7908 147.171 62.9681C147.051 63.3226 146.914 63.5925 146.417 63.2944C146.172 63.1423 145.882 63.0831 145.597 63.1275C145.313 63.1718 145.054 63.3168 144.867 63.5361C144.686 63.7535 144.573 64.0195 144.541 64.3011C144.51 64.5827 144.562 64.8673 144.69 65.1195C144.769 65.3006 144.902 65.4522 145.072 65.5527C145.241 65.6533 145.438 65.6976 145.634 65.6795C146.176 65.6795 145.979 65.2404 145.991 64.9704C146.019 64.2331 146.569 64.487 146.931 64.4829C147.762 64.4628 147.264 65.1638 147.396 65.4821Z" fill="#0B132B"/>
<path d="M171.46 62.0696C171.753 62.102 172.043 62.1572 172.327 62.2348C172.56 62.3073 172.977 62.396 172.728 62.7908C172.56 63.0527 172.612 63.653 171.97 63.4032C171.568 63.2501 170.97 62.8955 170.765 63.4032C170.621 63.8061 171.323 63.9108 171.681 64.0881C172.287 64.3903 172.829 64.7811 172.724 65.5143C172.62 66.2476 172.11 66.5498 171.42 66.723C170.759 66.8435 170.078 66.7621 169.465 66.4893C169.063 66.3524 168.866 66.1832 169.119 65.7359C169.316 65.3935 169.404 64.9302 169.922 65.3774C170.044 65.4546 170.181 65.5041 170.324 65.5224C170.625 65.5909 171.014 65.7561 171.151 65.3653C171.287 64.9745 170.846 64.9624 170.633 64.8133C170.6 64.7988 170.567 64.7867 170.532 64.7771C169.77 64.4588 168.886 64.1405 169.176 63.0889C169.453 62.1623 170.332 62.0454 171.46 62.0696Z" fill="#0B132B"/>
<path d="M102.067 64.3379C102.067 62.0736 102.067 62.0736 104.316 62.0817C104.524 62.0817 104.737 62.0817 104.95 62.0817C105.351 62.0817 105.379 62.3476 105.391 62.6538C105.403 62.96 105.247 63.101 104.946 63.093C104.645 63.0849 104.376 63.093 104.095 63.093C103.814 63.093 103.509 63.0607 103.493 63.4958C103.476 63.931 103.802 63.8746 104.075 63.8987C104.215 63.8987 104.36 63.8987 104.5 63.8987C104.813 63.8987 105.038 63.9269 105.034 64.3459C105.03 64.765 104.821 64.777 104.508 64.8214C104.127 64.8737 103.412 64.5071 103.521 65.3209C103.601 65.9414 104.219 65.5063 104.576 65.6231C104.716 65.6513 104.859 65.6513 104.998 65.6231C105.399 65.5869 105.48 65.7843 105.468 66.1308C105.456 66.4772 105.468 66.6988 105.066 66.6908C104.215 66.6706 103.368 66.6706 102.517 66.6908C102.116 66.6908 102.075 66.4652 102.083 66.1509C102.075 65.5466 102.067 64.9422 102.067 64.3379Z" fill="#0B132B"/>
<path d="M175.667 62.0454C175.989 62.09 176.308 62.1518 176.623 62.2308C176.892 62.3114 177.181 62.4685 176.968 62.8391C176.811 63.1091 176.795 63.6006 176.257 63.3951C176.166 63.343 176.069 63.3024 175.968 63.2743C175.635 63.2461 175.165 62.9681 175.013 63.3548C174.86 63.7416 175.414 63.8585 175.691 63.9874C176.494 64.35 177.233 64.7448 176.896 65.7803C176.558 66.8157 175.655 66.8237 174.792 66.7754C174.41 66.7221 174.036 66.6192 173.68 66.4692C173.238 66.3242 173.178 66.0663 173.431 65.6634C173.616 65.3733 173.684 64.9422 174.154 65.3572C174.244 65.4126 174.343 65.4508 174.447 65.47C174.784 65.5828 175.25 65.7722 175.41 65.4217C175.631 64.9584 175.069 64.91 174.796 64.7811C174.085 64.4426 173.238 64.1687 173.455 63.1695C173.672 62.1703 174.603 62.0857 175.667 62.0454Z" fill="#0B132B"/>
<path d="M154.482 66.8802C154.161 66.7915 153.751 66.6868 153.35 66.5659C152.948 66.445 152.627 66.2839 152.924 65.7601C153.137 65.3572 153.298 65.1034 153.767 65.4459C153.949 65.5567 154.154 65.6243 154.366 65.6433C154.566 65.6674 154.831 65.7279 154.932 65.4821C155.072 65.1517 154.771 65.0792 154.558 64.9624C154.273 64.8214 153.972 64.7126 153.695 64.5595C153.201 64.2855 152.844 63.9189 152.936 63.2864C152.977 63.021 153.101 62.7754 153.289 62.5845C153.477 62.3936 153.72 62.267 153.984 62.2227C154.638 62.022 155.337 62.022 155.992 62.2227C156.261 62.3033 156.794 62.3114 156.493 62.8835C156.321 63.2058 156.252 63.6892 155.69 63.3871C155.593 63.3199 155.482 63.2746 155.365 63.2541C155.072 63.2299 154.675 62.9721 154.538 63.3871C154.422 63.7295 154.855 63.79 155.076 63.9189C155.134 63.9607 155.196 63.9958 155.261 64.0236C156.004 64.3016 156.678 64.7126 156.489 65.6151C156.289 66.6062 155.413 66.7391 154.482 66.8802Z" fill="#0B132B"/>
<path d="M189.148 64.4144C189.148 62.0414 189.148 62.0334 191.557 62.0898C191.934 62.0898 192.464 61.8883 192.448 62.6256C192.432 63.3629 191.858 63.0285 191.517 63.093C191.306 63.1158 191.094 63.1226 190.882 63.1131C190.605 63.1373 190.553 63.3428 190.557 63.5724C190.561 63.802 190.702 63.8786 190.903 63.8826C191.188 63.8826 191.469 63.8826 191.754 63.8826C192.039 63.8826 192.155 64.0357 192.155 64.3379C192.155 64.6401 192.079 64.8093 191.754 64.7972C191.428 64.7851 191.188 64.7972 190.903 64.7972C190.617 64.7972 190.565 64.9946 190.549 65.2283C190.533 65.462 190.682 65.603 190.931 65.603C191.332 65.603 191.709 65.603 192.099 65.603C192.488 65.603 192.565 65.7923 192.565 66.1267C192.565 66.4611 192.528 66.6747 192.123 66.6706C191.272 66.6706 190.421 66.6505 189.57 66.6706C189.132 66.6706 189.168 66.4007 189.168 66.1066C189.152 65.5546 189.148 64.9825 189.148 64.4144Z" fill="#0B132B"/>
<path d="M112.907 66.6827C111.16 66.6827 111.16 66.6827 111.16 64.906C111.16 64.7247 111.16 64.5474 111.16 64.3701C111.225 63.6369 110.819 62.5853 111.333 62.2429C112.052 61.7675 113.116 62.126 114.031 62.0898C114.456 62.0696 114.432 62.3718 114.432 62.6659C114.432 62.96 114.316 63.1131 113.999 63.101C113.682 63.0889 113.292 63.101 112.939 63.101C112.698 63.101 112.537 63.1897 112.537 63.4636C112.513 63.8061 112.694 63.8988 112.987 63.8907C113.092 63.8745 113.199 63.8745 113.304 63.8907C113.613 63.9834 114.151 63.6087 114.179 64.2936C114.212 65.0671 113.617 64.7206 113.268 64.7811C112.919 64.8415 112.497 64.6804 112.541 65.2686C112.578 65.7964 112.999 65.5667 113.268 65.603C113.55 65.6272 113.833 65.6272 114.115 65.603C114.517 65.603 114.549 65.8407 114.561 66.1549C114.573 66.4692 114.46 66.6827 114.079 66.6626C113.698 66.6424 113.296 66.6787 112.907 66.6827Z" fill="#0B132B"/>
<path d="M105.885 62.1985C108.009 61.4975 107.491 63.5039 108.27 64.3339C108.471 63.7376 108.671 63.1937 108.844 62.6377C108.92 62.4 108.944 62.118 109.245 62.1059C109.547 62.0938 110.024 62.0092 110.273 62.1744C110.63 62.404 110.217 62.7384 110.125 63.0043C109.775 64.0357 109.358 65.047 108.984 66.0703C108.84 66.4732 108.671 66.719 108.182 66.6988C107.994 66.7146 107.808 66.6592 107.659 66.5436C107.51 66.4279 107.41 66.2605 107.379 66.0744C106.925 64.7891 106.387 63.5281 105.885 62.1985Z" fill="#0B132B"/>
<path d="M124.051 62.2388C123.769 62.7733 123.449 63.2876 123.096 63.7779C122.502 64.499 122.466 65.3209 122.526 66.1751C122.558 66.6223 122.341 66.7593 121.968 66.6747C121.594 66.5901 120.988 66.9486 121.072 66.3241C121.293 64.7126 120.426 63.5039 119.679 62.2227C120.884 61.7876 121.474 62.263 121.783 63.5039C122.337 62.6296 122.71 61.574 124.051 62.2388Z" fill="#0B132B"/>
<path d="M126.46 62.0736C126.922 62.0736 127.383 62.0736 127.845 62.0736C128.198 62.0736 128.451 62.122 128.463 62.5853C128.475 63.0486 128.251 63.1574 127.877 63.105C127.127 62.9922 127.074 63.4394 127.11 64.0035C127.139 64.6441 127.082 65.2887 127.11 65.9253C127.139 66.5619 126.946 66.6988 126.344 66.7311C125.741 66.7633 125.661 66.4571 125.681 65.9696C125.709 65.4015 125.681 64.8294 125.681 64.2613C125.713 63.5845 125.762 62.9358 124.746 63.1171C124.381 63.1816 124.376 62.8996 124.372 62.6337C124.372 62.3033 124.445 62.0817 124.838 62.0938C125.384 62.0857 125.918 62.0777 126.46 62.0736Z" fill="#0B132B"/>
<path d="M90.8787 64.9744C89.2527 64.9744 87.6268 64.9744 86.0009 64.9744C85.7078 64.9744 85.2422 65.1839 85.2542 64.5474C85.2542 64.0075 85.6557 64.1445 85.9286 64.1445C89.2527 64.1445 92.5768 64.1445 95.9009 64.1445C96.2101 64.1445 96.5513 64.0679 96.5392 64.5877C96.5272 65.1074 96.1378 64.9905 95.8648 64.9905C94.2027 64.9785 92.5407 64.9744 90.8787 64.9744Z" fill="#0B132B"/>
<path d="M203.874 64.9744C202.244 64.9744 200.614 64.9744 198.984 64.9744C198.723 64.9744 198.309 65.1719 198.285 64.6199C198.261 64.068 198.687 64.1445 199 64.1445C202.26 64.1445 205.518 64.1445 208.776 64.1445C209.121 64.1445 209.522 64.0559 209.478 64.636C209.434 65.2162 209.02 64.9744 208.759 64.9744C207.13 64.9825 205.5 64.9744 203.874 64.9744Z" fill="#0B132B"/>
<path d="M185.13 64.3701C185.13 63.8746 185.158 63.379 185.13 62.8835C185.101 62.3879 185.166 62.0334 185.844 62.0575C186.45 62.0575 186.647 62.267 186.603 62.8633C186.559 63.3226 186.603 63.7859 186.603 64.2452C186.559 65.0913 186.482 65.9253 187.783 65.6312C188.185 65.5385 188.321 65.7883 188.317 66.1872C188.313 66.586 188.189 66.7109 187.827 66.6868C187.722 66.6807 187.616 66.6807 187.51 66.6868C185.13 66.7391 185.13 66.7391 185.13 64.3701Z" fill="#0B132B"/>
<path d="M136.364 64.5273C136.364 64.9503 136.364 65.3774 136.364 65.8004C136.364 66.308 136.44 66.727 135.646 66.715C134.851 66.7029 134.895 66.3403 134.907 65.8004C134.927 64.773 134.943 63.7416 134.907 62.7183C134.879 62.0616 135.256 62.0898 135.71 62.0656C136.163 62.0414 136.408 62.2026 136.376 62.7223C136.336 63.3186 136.364 63.9229 136.364 64.5273Z" fill="#0B132B"/>
<path d="M150.476 64.346C150.476 63.8504 150.508 63.3508 150.476 62.8553C150.423 62.259 150.624 62.0495 151.242 62.0495C151.861 62.0495 151.917 62.3436 151.905 62.8553C151.881 63.9189 151.873 64.9866 151.905 66.0502C151.905 66.5578 151.772 66.7432 151.254 66.715C150.797 66.6908 150.407 66.715 150.451 66.0663C150.512 65.4861 150.471 64.914 150.476 64.346Z" fill="#0B132B"/>
<path d="M177.899 64.4104C177.899 63.9149 177.899 63.4153 177.899 62.9157C177.899 62.4161 177.899 62.0374 178.598 62.0495C179.232 62.0495 179.369 62.3073 179.348 62.8794C179.312 63.9471 179.308 65.0188 179.348 66.1026C179.373 66.6908 179.071 66.723 178.63 66.7109C178.188 66.6989 177.827 66.7673 177.895 66.1388C177.935 65.5546 177.899 64.9825 177.899 64.4104Z" fill="#0B132B"/>
<path d="M68.6056 33.3152C66.8385 28.3123 63.9181 23.7994 60.0826 20.1446C54.2534 14.5686 47.2359 11.6839 39.2669 10.9264C34.4277 10.4599 29.5576 10.41 24.7099 10.7774C21.3657 11.0312 17.9854 11.1319 14.7457 12.119C6.42338 14.6653 0.0241033 23.3677 1.5691e-05 32.1105C1.5691e-05 41.6228 1.5691e-05 51.1351 1.5691e-05 60.6434C-0.0263928 63.1315 0.392413 65.6042 1.23651 67.9438C3.2117 73.3264 8.96463 77.718 14.6533 77.859C18.7683 77.9597 22.8833 77.8791 27.0023 77.8791C31.4306 78.0974 35.8686 78.0193 40.2866 77.6454C43.855 77.3665 47.3492 76.4738 50.6162 75.0065C56.3049 72.4401 60.745 68.387 64.4184 63.3951C68.5193 57.8854 70.657 51.1529 70.4885 44.2779C70.4713 40.5441 69.835 36.8392 68.6056 33.3152ZM37.3961 62.4483C34.9592 64.8899 30.7439 64.8375 28.1986 62.3234C24.0435 58.222 19.9165 54.0923 15.7533 50.011C14.6453 48.9273 13.6055 47.8354 13.2322 46.2803C12.638 43.8186 13.1599 41.5946 14.9143 39.7776C19.3357 35.2115 23.7879 30.6655 28.2709 26.1397C28.8364 25.5447 29.5246 25.081 30.2874 24.781C31.0503 24.4811 31.8692 24.3521 32.6869 24.4032C35.4169 24.4032 37.7734 25.91 38.7088 28.3032C39.7446 30.9703 39.3432 33.4401 37.388 35.5069C35.4329 37.5737 33.4377 39.5358 31.4504 41.5503C30.4147 42.5978 29.8807 43.8025 30.2461 45.3012C30.4869 46.2359 31.1413 46.8806 31.7997 47.5252C33.6866 49.3825 35.5855 51.2278 37.4442 53.1133C38.0648 53.7221 38.557 54.45 38.8916 55.2536C39.2262 56.0572 39.3963 56.9201 39.3918 57.7911C39.3873 58.662 39.2083 59.5231 38.8654 60.3232C38.5226 61.1233 38.0229 61.846 37.3961 62.4483Z" fill="#2AC2E5"/>
<path d="M178.79 36.0468C177.682 31.6673 175.013 29.7012 170.5 29.7012C167.807 29.7012 165.109 29.7294 162.411 29.7012C161.608 29.7012 161.387 29.8825 161.399 30.6963C161.447 33.8309 161.419 36.9613 161.419 40.0958C161.419 43.319 161.439 46.5058 161.419 49.7088C161.419 50.422 161.58 50.704 162.355 50.6919C165.165 50.6476 167.975 50.7644 170.761 50.6476C174.499 50.4945 177.281 49.0038 178.489 45.3173C179.481 42.3213 179.585 39.1012 178.79 36.0468ZM173.832 43.605C173.598 44.4847 173.073 45.2588 172.344 45.8009C171.615 46.3431 170.725 46.6214 169.818 46.5905C168.931 46.5905 168.043 46.5502 167.16 46.5905C166.53 46.6348 166.401 46.393 166.413 45.8129C166.446 43.9314 166.413 42.0499 166.413 40.1724C166.413 38.2949 166.438 36.4053 166.413 34.5319C166.413 33.9437 166.55 33.7261 167.168 33.7543C168.156 33.8067 169.151 33.7543 170.139 33.7785C172.062 33.8389 173.351 34.8018 173.853 36.6632C174.48 38.9352 174.473 41.3367 173.832 43.605Z" fill="#0B132B"/>
<path d="M202.384 44.4914C202.384 42.0176 202.384 39.9871 202.384 37.9605C202.384 36.6833 202.035 36.1394 200.819 35.946C198.093 35.5432 195.347 35.1725 192.613 35.8776C190.714 36.3691 189.349 37.4327 188.719 39.3948C188.185 41.019 188.007 42.7395 188.197 44.439C188.598 47.9805 189.911 49.3825 193.335 50.2608C194.732 50.6194 196.146 50.4663 197.555 50.4784C198.269 50.4784 198.406 50.6879 198.193 51.3607C197.884 52.3559 197.081 52.4767 196.27 52.5251C194.325 52.6192 192.376 52.5558 190.441 52.3357C190.1 52.2995 189.69 52.1987 189.465 52.5613C189.02 53.2785 189.12 54.0722 189.309 54.8296C189.383 55.1488 189.557 55.4355 189.807 55.6468C190.057 55.8581 190.368 55.9827 190.694 56.002C192.754 56.3586 194.854 56.4264 196.932 56.2035C199.57 55.8812 201.569 55.1278 202.192 51.5138C202.609 49.0239 202.252 46.526 202.384 44.4914ZM198.322 43.0208C198.322 44.016 198.322 45.0071 198.322 46.0022C198.322 46.3125 198.398 46.7315 197.92 46.7355C196.551 46.7355 195.17 46.9934 193.825 46.53C193.49 46.4199 193.191 46.2185 192.963 45.9482C192.735 45.6779 192.586 45.3493 192.532 44.999C192.262 43.6397 192.277 42.2387 192.577 40.8855C192.644 40.46 192.858 40.0717 193.181 39.7887C193.505 39.5058 193.918 39.3464 194.347 39.3384C195.471 39.2498 196.607 39.2981 197.735 39.2739C198.205 39.2739 198.322 39.4996 198.314 39.9347C198.297 40.9621 198.322 41.9935 198.322 43.0208Z" fill="#0B132B"/>
<path d="M128.901 44.7734C128.901 43.4922 128.929 42.207 128.901 40.9258C128.825 38.0411 127.472 36.3328 124.686 35.7486C122.626 35.3135 120.514 35.4142 118.443 35.6237C116.468 35.8212 116.006 36.6471 116.235 38.5971C116.331 39.4029 116.785 39.6728 117.467 39.5157C118.832 39.2055 120.209 39.2941 121.586 39.2739C122.256 39.2535 122.926 39.271 123.594 39.3263C123.864 39.3264 124.124 39.4284 124.322 39.612C124.521 39.7956 124.643 40.0474 124.666 40.3174C124.666 40.9016 124.043 40.7445 123.682 40.8775C123.443 40.9405 123.2 40.9889 122.955 41.0225C121.35 41.3932 119.683 41.4858 118.138 42.1023C116.701 42.6784 115.504 43.5083 115.227 45.1763C114.782 47.8354 116.03 49.7854 118.616 50.4341C121.594 51.1834 124.593 50.8813 127.572 50.4018C128.471 50.2608 128.913 49.5638 128.901 48.617C128.893 47.3358 128.901 46.0546 128.901 44.7734ZM124.782 44.8218C124.662 47.4889 125.396 47.0095 122.221 47.2391C121.585 47.2 120.952 47.1206 120.326 47.0014C119.824 46.8886 119.282 46.6348 119.33 45.9499C119.37 45.3375 119.832 45.1441 120.35 45.0635C121.627 44.8218 122.907 44.6002 124.176 44.3141C124.686 44.1933 124.802 44.3544 124.782 44.8218Z" fill="#0B132B"/>
<path d="M166.076 62.0736C164.523 62.0374 163.479 62.9237 163.423 64.3218C163.417 64.6587 163.481 64.9931 163.609 65.3045C163.737 65.616 163.927 65.8978 164.168 66.1329C164.408 66.3679 164.694 66.5511 165.008 66.6713C165.322 66.7915 165.656 66.8461 165.992 66.8318C166.633 66.8437 167.254 66.6012 167.718 66.157C168.183 65.7127 168.454 65.1024 168.473 64.4588C168.493 63.0607 167.529 62.1059 166.076 62.0736ZM165.948 65.6312C165.113 65.6312 165.056 64.9986 164.928 64.491C164.988 63.7738 165.213 63.1614 165.936 63.1574C166.658 63.1534 167.032 63.7779 167.004 64.4588C166.983 65.0631 166.751 65.6312 165.948 65.6312Z" fill="#0B132B"/>
<path d="M184.238 65.6997C184.018 64.7373 183.945 63.747 184.021 62.7626C184.021 62.6256 183.761 62.4363 183.58 62.3597C182.673 61.9374 181.639 61.8839 180.693 62.2106C180.159 62.4 180.573 63.3669 180.485 63.9793C180.475 64.1202 180.475 64.2615 180.485 64.4024C180.485 66.9245 180.581 67.0171 182.893 66.6747C183.137 66.635 183.375 66.5688 183.604 66.4773C183.957 66.3322 184.319 65.9857 184.238 65.6997ZM182.295 63.0688C182.56 63.0889 182.616 63.2984 182.697 63.4717C182.677 63.7457 182.572 63.9028 182.319 63.931C182.066 63.9592 181.918 63.8423 181.942 63.5724C181.966 63.3025 181.902 63.0366 182.295 63.0688ZM182.319 65.6473C181.962 65.6755 181.954 65.4418 181.95 65.184C181.946 64.9261 182.026 64.7166 182.351 64.7448C182.411 64.739 182.471 64.7467 182.527 64.7672C182.584 64.7878 182.635 64.8207 182.677 64.8636C182.719 64.9064 182.75 64.9582 182.77 65.015C182.789 65.0719 182.796 65.1323 182.789 65.192C182.79 65.2535 182.779 65.3146 182.755 65.3715C182.732 65.4283 182.697 65.4797 182.653 65.5224C182.609 65.5652 182.557 65.5983 182.499 65.6198C182.442 65.6413 182.38 65.6506 182.319 65.6473Z" fill="#0B132B"/>
<path d="M119.073 66.0502C118.672 65.4458 118.186 64.9785 118.957 64.1526C119.615 63.4394 119.029 62.3597 118.009 62.1905C117.387 62.0857 116.741 62.1381 116.106 62.0777C115.552 62.0253 115.468 62.2993 115.48 62.7706C115.504 63.8383 115.512 64.906 115.48 65.9736C115.46 66.5054 115.585 66.7351 116.171 66.6988C116.652 66.6706 117.01 66.6585 116.925 66.022C116.926 65.6805 116.954 65.3396 117.01 65.0027C117.548 66.1831 117.973 67.1259 119.37 66.5498C119.234 66.3483 119.166 66.1952 119.073 66.0502ZM117.186 64.0881C116.813 64.0438 116.921 63.7295 116.917 63.5079C116.913 63.2863 116.97 63.0809 117.267 63.105C117.327 63.116 117.385 63.1392 117.436 63.1732C117.488 63.2073 117.532 63.2515 117.565 63.3031C117.599 63.3548 117.622 63.4128 117.633 63.4736C117.644 63.5345 117.642 63.5968 117.628 63.657C117.628 63.9551 117.483 64.1203 117.186 64.0881Z" fill="#0B132B"/>
<path d="M162.387 62.4483C161.968 62.2142 161.505 62.0694 161.028 62.0229C160.55 61.9765 160.069 62.0294 159.613 62.1784C158.93 62.3718 159.46 63.3025 159.328 63.8867C159.308 64.0634 159.308 64.2418 159.328 64.4185C159.328 65.0228 159.328 65.6272 159.328 66.2275C159.328 66.6102 159.48 66.7633 159.825 66.6868C160.171 66.6102 160.733 66.9325 160.661 66.4088C160.5 65.2928 161.319 65.3895 161.917 65.2001C162.191 65.111 162.435 64.9489 162.623 64.731C162.812 64.5132 162.937 64.2479 162.987 63.9637C163.037 63.6795 163.008 63.3871 162.904 63.118C162.801 62.8489 162.626 62.6132 162.399 62.4363L162.387 62.4483ZM160.986 64.346C160.56 64.3137 160.725 63.9431 160.681 63.7013C160.701 63.4395 160.62 63.0849 161.042 63.101C161.463 63.1171 161.544 63.4032 161.536 63.7537C161.528 64.1042 161.387 64.3782 160.986 64.346Z" fill="#0B132B"/>
</g>
<defs>
<clipPath id="clip0">
<rect width="210" height="78" fill="white"/>
</clipPath>
</defs>
</svg>
