<svg width="220" height="220" viewBox="0 0 220 220" fill="none" xmlns="http://www.w3.org/2000/svg">
<circle cx="110" cy="110" r="110" fill="#00523C"/>
<g clip-path="url(#clip0)">
<path d="M69.8563 150.987C69.8563 150.009 70.2448 149.071 70.9364 148.379C71.628 147.687 72.566 147.299 73.544 147.299H147.299C148.277 147.299 149.215 147.687 149.906 148.379C150.598 149.071 150.987 150.009 150.987 150.987C150.987 151.965 150.598 152.903 149.906 153.594C149.215 154.286 148.277 154.674 147.299 154.674H73.544C72.566 154.674 71.628 154.286 70.9364 153.594C70.2448 152.903 69.8563 151.965 69.8563 150.987ZM154.608 73.5442L154.785 73.5516C156.163 73.6454 157.51 74.0034 158.753 74.6062C159.648 75.0228 160.417 75.6692 160.98 76.4796C161.474 77.2172 162.05 78.5226 162.05 80.9197V125.106L162.042 125.283C161.948 126.661 161.59 128.008 160.988 129.251C160.571 130.146 159.924 130.915 159.114 131.479C158.377 131.973 157.071 132.548 154.674 132.548H66.2349L66.0579 132.541C64.68 132.446 63.333 132.088 62.0899 131.486C61.1951 131.069 60.4266 130.423 59.8625 129.613C59.3684 128.875 58.7931 127.57 58.7931 125.173V80.986L58.8005 80.809C58.8943 79.431 59.2523 78.0838 59.8552 76.841C60.272 75.9462 60.9184 75.1777 61.7285 74.6136C62.4661 74.1195 63.7715 73.5442 66.1686 73.5442H154.608ZM154.674 66.1687H66.1686C51.4176 66.1687 51.4176 80.9197 51.4176 80.9197V125.173C51.4176 139.923 66.1686 139.923 66.1686 139.923H154.674C169.425 139.923 169.425 125.173 169.425 125.173V80.9197C169.425 66.1687 154.674 66.1687 154.674 66.1687Z" fill="white"/>
</g>
<defs>
<clipPath id="clip0">
<rect width="118.008" height="118.008" fill="white" transform="translate(51.4176 51.4177)"/>
</clipPath>
</defs>
</svg>
