<svg width="60" height="60" viewBox="0 0 60 60" fill="none" xmlns="http://www.w3.org/2000/svg">
<path d="M40.158 9.42901C40.4144 9.27849 40.6385 9.07864 40.8172 8.84101C40.996 8.60338 41.1258 8.33267 41.1993 8.04455C41.2728 7.75642 41.2884 7.45659 41.2453 7.16239C41.2022 6.86818 41.1012 6.58544 40.9482 6.3305C40.7951 6.07556 40.5931 5.85349 40.3537 5.67711C40.1143 5.50074 39.8423 5.37357 39.5535 5.30294C39.2646 5.23232 38.9647 5.21965 38.6709 5.26566C38.3771 5.31167 38.0954 5.41545 37.842 5.57101C33.801 7.99501 30.822 10.926 28.902 14.976C27.012 18.966 26.25 23.841 26.25 30V46.32L18.09 38.16C17.884 37.9389 17.6356 37.7616 17.3596 37.6387C17.0836 37.5157 16.7857 37.4496 16.4836 37.4442C16.1815 37.4389 15.8814 37.4945 15.6012 37.6076C15.321 37.7208 15.0665 37.8892 14.8529 38.1029C14.6392 38.3166 14.4708 38.5711 14.3576 38.8512C14.2445 39.1314 14.1889 39.4315 14.1942 39.7336C14.1996 40.0357 14.2657 40.3336 14.3887 40.6096C14.5116 40.8856 14.6889 41.134 14.91 41.34L26.91 53.34C27.3319 53.7614 27.9038 53.998 28.5 53.998C29.0963 53.998 29.6681 53.7614 30.09 53.34L42.09 41.34C42.4874 40.9135 42.7038 40.3493 42.6935 39.7664C42.6832 39.1835 42.4471 38.6274 42.0349 38.2151C41.6226 37.8029 41.0665 37.5668 40.4836 37.5565C39.9007 37.5462 39.3365 37.7626 38.91 38.16L30.75 46.32V30C30.75 24.159 31.485 20.037 32.97 16.902C34.428 13.824 36.699 11.505 40.158 9.43201V9.42901Z" fill="#2AC2E5"/>
</svg>
