<svg width="50" height="50" viewBox="0 0 50 50" fill="none" xmlns="http://www.w3.org/2000/svg">
<g clip-path="url(#clip0)">
<path d="M3.12499 3.40244C-0.804174 7.48369 -7.04825e-06 11.8191 -7.04825e-06 24.9899C-7.04825e-06 35.9274 -1.90834 46.892 8.07916 49.4733C11.1979 50.2754 38.8312 50.2754 41.9458 49.4691C46.1042 48.3962 49.4875 45.0233 49.95 39.142C50.0146 38.3212 50.0146 11.6733 49.9479 10.8358C49.4562 4.57119 45.6 0.960778 40.5187 0.229528C39.3542 0.0607778 39.1208 0.0107778 33.1458 0.000361137C11.9521 0.0107778 7.30624 -0.932972 3.12499 3.40244Z" fill="url(#paint0_linear)"/>
<path d="M24.9958 6.53979C17.4313 6.53979 10.2479 5.86687 7.50417 12.9085C6.37084 15.8169 6.53542 19.594 6.53542 25.0023C6.53542 29.7481 6.38334 34.2085 7.50417 37.094C10.2417 44.1398 17.4833 43.4648 24.9917 43.4648C32.2354 43.4648 39.7042 44.219 42.4813 37.094C43.6167 34.1565 43.45 30.4356 43.45 25.0023C43.45 17.7898 43.8479 13.1335 40.35 9.63771C36.8083 6.09604 32.0188 6.53979 24.9875 6.53979H24.9958ZM23.3417 9.86687C39.1208 9.84187 41.1292 8.08771 40.0208 32.4565C39.6271 41.0752 33.0646 40.1294 24.9979 40.1294C10.2896 40.1294 9.86667 39.7085 9.86667 24.994C9.86667 10.1085 11.0333 9.87521 23.3417 9.86271V9.86687ZM34.85 12.9315C33.6271 12.9315 32.6354 13.9231 32.6354 15.146C32.6354 16.369 33.6271 17.3606 34.85 17.3606C36.0729 17.3606 37.0646 16.369 37.0646 15.146C37.0646 13.9231 36.0729 12.9315 34.85 12.9315ZM24.9958 15.521C19.7604 15.521 15.5167 19.7669 15.5167 25.0023C15.5167 30.2377 19.7604 34.4815 24.9958 34.4815C30.2313 34.4815 34.4729 30.2377 34.4729 25.0023C34.4729 19.7669 30.2313 15.521 24.9958 15.521ZM24.9958 18.8481C33.1313 18.8481 33.1417 31.1565 24.9958 31.1565C16.8625 31.1565 16.85 18.8481 24.9958 18.8481Z" fill="white"/>
</g>
<defs>
<linearGradient id="paint0_linear" x1="3.22087" y1="46.8068" x2="49.6906" y2="6.58781" gradientUnits="userSpaceOnUse">
<stop stop-color="#FFDD55"/>
<stop offset="0.5" stop-color="#FF543E"/>
<stop offset="1" stop-color="#C837AB"/>
</linearGradient>
<clipPath id="clip0">
<rect width="50" height="50" fill="white"/>
</clipPath>
</defs>
</svg>
