<svg width="50" height="50" viewBox="0 0 50 50" fill="none" xmlns="http://www.w3.org/2000/svg">
<g clip-path="url(#clip0)">
<path d="M25 49.999C38.8071 49.999 50 38.8061 50 24.999C50 11.1919 38.8071 -0.000976562 25 -0.000976562C11.1929 -0.000976562 0 11.1919 0 24.999C0 38.8061 11.1929 49.999 25 49.999Z" fill="#007AB9"/>
<path d="M39.9373 27.0111V37.3181H33.9615V27.7019C33.9615 25.2873 33.0988 23.6384 30.9352 23.6384C29.284 23.6384 28.3031 24.7485 27.87 25.8234C27.7127 26.2076 27.6721 26.741 27.6721 27.2798V37.3176H21.696C21.696 37.3176 21.7762 21.0309 21.696 19.3451H27.6726V21.8919C27.6605 21.912 27.6436 21.9316 27.6329 21.9508H27.6726V21.8919C28.4667 20.67 29.883 18.923 33.0582 18.923C36.9897 18.923 39.9373 21.4917 39.9373 27.0111ZM15.4444 10.6816C13.4002 10.6816 12.0628 12.0235 12.0628 13.7865C12.0628 15.512 13.3614 16.8926 15.366 16.8926H15.4047C17.489 16.8926 18.785 15.512 18.785 13.7865C18.7453 12.0235 17.489 10.6816 15.4444 10.6816ZM12.418 37.3181H18.3919V19.3451H12.418V37.3181Z" fill="white"/>
</g>
<defs>
<clipPath id="clip0">
<rect width="50" height="50" fill="white"/>
</clipPath>
</defs>
</svg>
