<svg width="220" height="221" viewBox="0 0 220 221" fill="none" xmlns="http://www.w3.org/2000/svg">
<circle cx="110" cy="110.5" r="110" fill="#2AC2E5"/>
<path d="M162.4 93.3596H127.63V58.5895H162.4V93.3596ZM136.322 84.6671H153.708V67.282H136.322V84.6671Z" fill="white"/>
<path d="M114.591 106.398V80.3208H79.821V141.169H140.669V106.398H114.591ZM88.5136 89.0133H105.899V106.398H88.5136V89.0133ZM105.899 132.476H88.5136V115.091H105.899V132.476ZM131.976 132.476H114.591V115.091H131.976V132.476Z" fill="white"/>
<path d="M153.708 162.9H66.7823C64.4776 162.898 62.2679 161.981 60.6382 160.351C59.0086 158.722 58.092 156.512 58.0897 154.207V67.282C58.092 64.9773 59.0086 62.7677 60.6382 61.138C62.2679 59.5083 64.4776 58.5918 66.7823 58.5895H110.245V67.282H66.7823V154.207H153.708V110.745H162.4V154.207C162.398 156.512 161.481 158.722 159.852 160.351C158.222 161.981 156.012 162.898 153.708 162.9Z" fill="white"/>
</svg>
