<svg width="220" height="220" viewBox="0 0 220 220" fill="none" xmlns="http://www.w3.org/2000/svg">
<circle cx="110" cy="110" r="110" fill="#7E2D00"/>
<path d="M88.295 117.797H117.797V125.173H88.295V117.797Z" fill="white"/>
<path d="M88.295 99.3584H132.548V106.734H88.295V99.3584Z" fill="white"/>
<path d="M88.295 136.236H106.734V143.611H88.295V136.236Z" fill="white"/>
<path d="M143.611 69.8564H132.548V66.1687C132.548 64.2126 131.771 62.3366 130.388 60.9534C129.004 59.5703 127.129 58.7932 125.172 58.7932H95.6705C93.7144 58.7932 91.8384 59.5703 90.4552 60.9534C89.0721 62.3366 88.295 64.2126 88.295 66.1687V69.8564H77.2318C75.2757 69.8564 73.3997 70.6335 72.0166 72.0167C70.6334 73.3998 69.8563 75.2758 69.8563 77.2319V154.674C69.8563 156.631 70.6334 158.507 72.0166 159.89C73.3997 161.273 75.2757 162.05 77.2318 162.05H143.611C145.567 162.05 147.443 161.273 148.826 159.89C150.21 158.507 150.987 156.631 150.987 154.674V77.2319C150.987 75.2758 150.21 73.3998 148.826 72.0167C147.443 70.6335 145.567 69.8564 143.611 69.8564ZM95.6705 66.1687H125.172V80.9197H95.6705V66.1687ZM143.611 154.674H77.2318V77.2319H88.295V88.2951H132.548V77.2319H143.611V154.674Z" fill="white"/>
</svg>
