<svg width="50" height="50" viewBox="0 0 50 50" fill="none" xmlns="http://www.w3.org/2000/svg">
<g clip-path="url(#clip0)">
<path d="M25.0008 49.9996C38.8078 49.9996 50.0006 38.8068 50.0006 24.9998C50.0006 11.1928 38.8078 0 25.0008 0C11.1938 0 0.00100708 11.1928 0.00100708 24.9998C0.00100708 38.8068 11.1938 49.9996 25.0008 49.9996Z" fill="#55ACEE"/>
<path d="M40.3135 17.9668C39.2422 18.4418 38.0897 18.7631 36.8811 18.9066C38.1151 18.1673 39.0621 16.9975 39.5091 15.6013C38.3544 16.2862 37.075 16.7831 35.7144 17.051C34.6244 15.8901 33.0713 15.1646 31.3516 15.1646C28.052 15.1646 25.3759 17.8406 25.3759 21.1402C25.3759 21.6086 25.429 22.0645 25.5315 22.5021C20.5652 22.253 16.1618 19.8741 13.2143 16.2577C12.7 17.1401 12.405 18.1673 12.405 19.2623C12.405 21.3349 13.4607 23.1648 15.0633 24.2361C14.0842 24.2053 13.1621 23.9366 12.3569 23.4879C12.3564 23.5133 12.3564 23.5387 12.3564 23.5636C12.3564 26.459 14.4171 28.8739 17.1502 29.4225C16.6493 29.5598 16.1203 29.6324 15.5762 29.6324C15.1903 29.6324 14.8164 29.5954 14.4518 29.5259C15.2121 31.8994 17.4185 33.6272 20.034 33.6757C17.9885 35.2787 15.4122 36.2337 12.6118 36.2337C12.1305 36.2337 11.6536 36.2057 11.187 36.15C13.8302 37.8461 16.972 38.835 20.3464 38.835C31.3378 38.835 37.3486 29.7296 37.3486 21.8323C37.3486 21.5734 37.3428 21.3153 37.3312 21.0595C38.4997 20.2173 39.5127 19.1651 40.3135 17.9668Z" fill="white"/>
</g>
<defs>
<clipPath id="clip0">
<rect width="50" height="50" fill="white"/>
</clipPath>
</defs>
</svg>
