<svg width="135" height="38" viewBox="0 0 135 38" fill="none" xmlns="http://www.w3.org/2000/svg">
<path d="M40.875 21.25C40.875 19.5333 41.2583 18 42.025 16.65C42.8083 15.2833 43.8667 14.225 45.2 13.475C46.55 12.7083 48.0583 12.325 49.725 12.325C51.675 12.325 53.3833 12.825 54.85 13.825C56.3167 14.825 57.3417 16.2083 57.925 17.975H53.9C53.5 17.1417 52.9333 16.5167 52.2 16.1C51.4833 15.6833 50.65 15.475 49.7 15.475C48.6833 15.475 47.775 15.7167 46.975 16.2C46.1917 16.6667 45.575 17.3333 45.125 18.2C44.6917 19.0667 44.475 20.0833 44.475 21.25C44.475 22.4 44.6917 23.4167 45.125 24.3C45.575 25.1667 46.1917 25.8417 46.975 26.325C47.775 26.7917 48.6833 27.025 49.7 27.025C50.65 27.025 51.4833 26.8167 52.2 26.4C52.9333 25.9667 53.5 25.3333 53.9 24.5H57.925C57.3417 26.2833 56.3167 27.675 54.85 28.675C53.4 29.6583 51.6917 30.15 49.725 30.15C48.0583 30.15 46.55 29.775 45.2 29.025C43.8667 28.2583 42.8083 27.2 42.025 25.85C41.2583 24.5 40.875 22.9667 40.875 21.25ZM62.6895 14.5C62.0728 14.5 61.5561 14.3083 61.1395 13.925C60.7395 13.525 60.5395 13.0333 60.5395 12.45C60.5395 11.8667 60.7395 11.3833 61.1395 11C61.5561 10.6 62.0728 10.4 62.6895 10.4C63.3061 10.4 63.8145 10.6 64.2145 11C64.6311 11.3833 64.8395 11.8667 64.8395 12.45C64.8395 13.0333 64.6311 13.525 64.2145 13.925C63.8145 14.3083 63.3061 14.5 62.6895 14.5ZM64.4145 16.15V30H60.9145V16.15H64.4145ZM75.5475 15.95C77.1975 15.95 78.5308 16.475 79.5475 17.525C80.5641 18.5583 81.0725 20.0083 81.0725 21.875V30H77.5725V22.35C77.5725 21.25 77.2975 20.4083 76.7475 19.825C76.1975 19.225 75.4475 18.925 74.4975 18.925C73.5308 18.925 72.7641 19.225 72.1975 19.825C71.6475 20.4083 71.3725 21.25 71.3725 22.35V30H67.8725V16.15H71.3725V17.875C71.8391 17.275 72.4308 16.8083 73.1475 16.475C73.8808 16.125 74.6808 15.95 75.5475 15.95ZM86.1758 14.5C85.5591 14.5 85.0424 14.3083 84.6258 13.925C84.2258 13.525 84.0258 13.0333 84.0258 12.45C84.0258 11.8667 84.2258 11.3833 84.6258 11C85.0424 10.6 85.5591 10.4 86.1758 10.4C86.7924 10.4 87.3008 10.6 87.7008 11C88.1174 11.3833 88.3258 11.8667 88.3258 12.45C88.3258 13.0333 88.1174 13.525 87.7008 13.925C87.3008 14.3083 86.7924 14.5 86.1758 14.5ZM87.9008 16.15V30H84.4008V16.15H87.9008ZM94.8588 18.175C95.3088 17.5083 95.9255 16.9667 96.7088 16.55C97.5088 16.1333 98.4171 15.925 99.4338 15.925C100.617 15.925 101.684 16.2167 102.634 16.8C103.6 17.3833 104.359 18.2167 104.909 19.3C105.475 20.3667 105.759 21.6083 105.759 23.025C105.759 24.4417 105.475 25.7 104.909 26.8C104.359 27.8833 103.6 28.725 102.634 29.325C101.684 29.925 100.617 30.225 99.4338 30.225C98.4005 30.225 97.4921 30.025 96.7088 29.625C95.9421 29.2083 95.3255 28.675 94.8588 28.025V30H91.3588V11.5H94.8588V18.175ZM102.184 23.025C102.184 22.1917 102.009 21.475 101.659 20.875C101.325 20.2583 100.875 19.7917 100.309 19.475C99.7588 19.1583 99.1588 19 98.5088 19C97.8755 19 97.2755 19.1667 96.7088 19.5C96.1588 19.8167 95.7088 20.2833 95.3588 20.9C95.0255 21.5167 94.8588 22.2417 94.8588 23.075C94.8588 23.9083 95.0255 24.6333 95.3588 25.25C95.7088 25.8667 96.1588 26.3417 96.7088 26.675C97.2755 26.9917 97.8755 27.15 98.5088 27.15C99.1588 27.15 99.7588 26.9833 100.309 26.65C100.875 26.3167 101.325 25.8417 101.659 25.225C102.009 24.6083 102.184 23.875 102.184 23.025ZM114.452 30.225C113.119 30.225 111.919 29.9333 110.852 29.35C109.785 28.75 108.944 27.9083 108.327 26.825C107.727 25.7417 107.427 24.4917 107.427 23.075C107.427 21.6583 107.735 20.4083 108.352 19.325C108.985 18.2417 109.844 17.4083 110.927 16.825C112.01 16.225 113.219 15.925 114.552 15.925C115.885 15.925 117.094 16.225 118.177 16.825C119.26 17.4083 120.11 18.2417 120.727 19.325C121.36 20.4083 121.677 21.6583 121.677 23.075C121.677 24.4917 121.352 25.7417 120.702 26.825C120.069 27.9083 119.202 28.75 118.102 29.35C117.019 29.9333 115.802 30.225 114.452 30.225ZM114.452 27.175C115.085 27.175 115.677 27.025 116.227 26.725C116.794 26.4083 117.244 25.9417 117.577 25.325C117.91 24.7083 118.077 23.9583 118.077 23.075C118.077 21.7583 117.727 20.75 117.027 20.05C116.344 19.3333 115.502 18.975 114.502 18.975C113.502 18.975 112.66 19.3333 111.977 20.05C111.31 20.75 110.977 21.7583 110.977 23.075C110.977 24.3917 111.302 25.4083 111.952 26.125C112.619 26.825 113.452 27.175 114.452 27.175ZM128.32 19.025V25.725C128.32 26.1917 128.428 26.5333 128.645 26.75C128.878 26.95 129.261 27.05 129.795 27.05H131.42V30H129.22C126.27 30 124.795 28.5667 124.795 25.7V19.025H123.145V16.15H124.795V12.725H128.32V16.15H131.42V19.025H128.32Z" fill="black"/>
<g clip-path="url(#clip0)">
<path d="M17.5282 0.029433C19.5796 0.029433 21.6341 -0.0501412 23.6811 0.0534142C25.5328 0.147159 27.2059 0.894938 28.6836 2.04931C29.473 2.66224 30.179 3.38079 30.7827 4.18582C31.367 4.96521 31.7622 5.84924 32.1552 6.73219C32.2699 6.99053 32.3783 7.10063 32.6396 7.12134C32.884 7.14096 33.124 7.24452 33.3662 7.2467C34.4126 7.25433 34.7472 8.01737 34.8715 8.85562C35.0532 10.0362 35.0967 11.233 34.5741 12.3689C34.4604 12.6141 34.3383 12.7689 34.0546 12.8289C33.5235 12.9379 32.8861 12.9717 32.5079 13.2998C32.1531 13.6104 32.1042 14.2721 31.8705 14.7561C30.2877 18.0928 27.7339 20.1301 24.1496 20.7427C22.6241 21.0032 21.0795 20.8092 19.5445 20.8517C18.8731 20.8702 18.2007 20.8517 17.5261 20.8452C17.4188 20.7235 17.3607 20.5645 17.3636 20.4004C17.3466 19.3932 17.337 18.386 17.3699 17.3777C17.3715 17.2506 17.4108 17.127 17.4826 17.0234C17.695 16.8403 17.9489 16.8828 18.1922 16.8817C19.656 16.8817 21.1199 16.8817 22.5848 16.8817C22.8133 16.9005 23.0433 16.8836 23.2668 16.8316C26.2732 16.5187 28.3798 14.0977 28.7771 11.5873C29.3805 7.7721 27.0157 4.66544 23.5345 4.0343C23.2715 3.99908 23.006 3.98777 22.741 4.00051C19.3416 4.00051 15.9518 4.00051 12.5577 3.9907C12.2942 3.9907 11.9468 4.14658 11.7811 3.75525C11.9936 3.52197 12.2666 3.57103 12.5247 3.56885C13.8293 3.56122 15.1348 3.56885 16.4404 3.56885C17.353 3.56885 17.353 3.56885 17.354 2.65647C17.354 2.02315 17.354 1.38982 17.354 0.756501C17.3689 0.499247 17.3519 0.239814 17.5282 0.029433Z" fill="#329CFE"/>
<path d="M17.5356 17.0441C17.5356 18.3115 17.5356 19.5789 17.5356 20.8462C15.7658 20.8462 13.9949 20.8866 12.2241 20.8397C9.66069 20.771 7.41709 19.8685 5.49961 18.0764C4.96208 17.5739 4.4373 17.055 4.08355 16.4413C3.4929 15.4123 2.81621 14.4084 2.54957 13.2115C2.15333 12.6152 2.12465 11.9187 2.08853 11.2418C2.03222 10.0678 2.05453 8.89268 2.39129 7.75357C2.44643 7.54122 2.46406 7.32045 2.44334 7.10172C3.07542 6.99272 3.08073 6.38555 3.24432 5.95934C3.60338 5.01426 4.17491 4.22397 4.8208 3.50018C5.8357 2.34336 7.08228 1.42528 8.47515 0.808827C9.56933 0.332473 10.706 0.026167 11.9064 0.0283471C13.781 0.0283471 15.6578 0.0283471 17.5367 0.0283471C17.5367 1.09878 17.5154 2.17031 17.543 3.23965C17.5526 3.65932 17.4134 3.75852 17.0257 3.75307C15.4694 3.73236 13.9131 3.74108 12.3568 3.74544C12.1677 3.74544 11.9648 3.68331 11.7959 3.83373C11.644 4.05174 11.4029 4.05174 11.183 4.10407C8.28606 4.75265 6.33884 7.03414 6.10407 10.0721C6.06019 10.8343 6.16529 11.5978 6.4132 12.3176C7.28324 15.094 9.66494 16.8806 12.5172 16.8959C13.6529 16.8959 13.6773 16.934 13.6348 18.084C13.6263 18.3358 13.4393 18.6879 13.7527 18.8176C14.0077 18.9267 14.1606 18.5898 14.3327 18.423C14.6801 18.0873 15.0084 17.7319 15.3483 17.3897C15.8827 16.8446 16.8175 16.7008 17.5356 17.0441Z" fill="#453F78"/>
<path d="M11.5898 23.3599C12.4971 22.986 13.4563 22.841 14.4156 22.7146C15.8338 22.5282 17.2636 22.4105 18.6914 22.5097C20.3401 22.6187 22.0069 22.7593 23.561 23.3632C25.5465 24.1349 26.9944 25.6021 28.0334 27.4847C28.7972 28.8701 29.5142 30.2818 29.8021 31.8721C29.8147 31.906 29.8253 31.9406 29.834 31.9757C29.8903 32.9459 30.0029 33.4484 28.6782 33.1802C27.4154 32.926 26.2024 32.4586 25.0886 31.7969C24.8146 31.6334 24.7699 31.737 24.6966 31.9561C24.277 33.1813 23.6747 34.2921 22.7346 35.1848C21.2654 36.5779 19.5731 37.3933 17.5292 37.3093C17.3168 37.0456 17.3656 36.7251 17.3656 36.421C17.3614 32.9698 17.3614 29.518 17.3656 26.0654C17.3656 25.8474 17.3656 25.6294 17.3656 25.4114C17.3263 24.6015 16.9683 24.2123 16.1716 24.1916C15.0211 24.16 13.8706 24.1851 12.7201 24.1807C12.4546 24.1807 12.189 24.2003 11.9277 24.1284C11.5123 24.015 11.4305 23.8177 11.5898 23.3599Z" fill="#329CFE"/>
<path d="M11.5899 23.3599C11.5059 23.8853 11.78 24.0227 12.2273 24.0139C13.502 24.003 14.7768 24.0139 16.0441 24.0085C17.1065 24.0085 17.5314 24.4271 17.5314 25.504C17.5314 29.4384 17.5314 33.3721 17.5314 37.305C16.4607 37.4034 15.3847 37.1895 14.4273 36.688C13.1377 36.0111 11.9595 35.1042 11.1798 33.771C10.894 33.2838 10.5881 32.8249 10.5222 32.2319C10.5086 32.1149 10.4599 32.0052 10.3828 31.9179C10.3057 31.8306 10.2041 31.77 10.092 31.7446C9.85936 30.3581 9.63096 28.9715 9.38344 27.5337C8.51128 28.8701 8.44436 30.3003 8.62389 31.7762C8.64938 31.9866 8.77367 32.1926 8.61858 32.3997C7.82609 32.851 6.938 33.0189 6.07965 33.2576C5.50813 33.4168 5.26911 33.1235 5.20324 32.5153C5.10763 31.6367 5.4975 30.8889 5.76308 30.1172C5.96525 29.4812 6.21382 28.8617 6.5067 28.2641C6.78427 27.7163 7.10398 27.1922 7.46278 26.6966C8.49853 25.3067 9.73825 24.1317 11.3381 23.4264C11.4205 23.3985 11.5046 23.3763 11.5899 23.3599Z" fill="#453F78"/>
<path d="M2.44334 7.10172C2.7036 7.14859 2.67704 7.32736 2.61756 7.51158C2.2415 8.6932 2.21069 9.9097 2.23087 11.1393C2.24256 11.8489 2.47096 12.5149 2.54957 13.2104C1.9876 13.0807 1.42245 12.9717 0.860491 12.8321C0.790961 12.818 0.725747 12.7869 0.670303 12.7416C0.614859 12.6963 0.570795 12.638 0.541797 12.5716C-0.178451 10.991 -0.173139 9.41045 0.489744 7.81134C0.570479 7.62385 0.668212 7.49959 0.849868 7.45816C1.38102 7.3339 1.91218 7.21944 2.44334 7.10172Z" fill="#191923"/>
<path d="M8.61533 32.3997C8.27114 31.3402 8.371 30.2654 8.5091 29.1884C8.59621 28.4897 9.05406 27.949 9.26865 27.3048C9.27656 27.2689 9.29766 27.2376 9.32754 27.2173C9.35742 27.197 9.39379 27.1893 9.42906 27.1958C9.53529 27.2111 9.5576 27.3048 9.5661 27.3964C9.68614 28.7415 9.99102 30.055 10.1897 31.386C10.2067 31.495 10.1281 31.6236 10.0941 31.7424C9.62474 32.0136 9.12915 32.2339 8.61533 32.3997V32.3997Z" fill="#191923"/>
<path d="M6.29322 12.3405C5.5496 9.9424 6.09138 7.81679 7.68166 5.96261C8.76416 4.70032 10.1792 4.05065 11.7917 3.83482C15.3979 3.83482 19.0045 3.83482 22.6114 3.83482C24.1278 3.81952 25.5998 4.36008 26.7624 5.35923C27.9251 6.35838 28.702 7.75051 28.9534 9.2851C29.4899 12.4692 27.8401 15.3698 24.9899 16.558C24.4874 16.7672 23.9648 16.9558 23.4028 16.934C22.4011 17.0343 21.3972 16.9602 20.3944 16.9765C19.5827 16.9896 18.7711 16.9765 17.9606 16.9831C17.6493 16.9831 17.4294 16.8872 17.405 16.5471C17.3795 16.0958 17.2627 15.7012 16.9482 15.3687C16.8821 15.3066 16.8383 15.2235 16.8237 15.1328C16.809 15.0421 16.8244 14.949 16.8675 14.8684C17.0661 14.6602 17.3285 14.7299 17.5686 14.7027C18.4652 14.6002 19.1355 14.1664 19.5041 13.3009C19.604 13.0676 19.69 12.8223 19.5116 12.5814C19.0484 12.3896 18.5682 12.5247 18.0976 12.4964C17.4974 12.4604 17.388 12.3765 17.3838 11.7508C17.3721 10.0285 17.3838 8.30623 17.3838 6.58285C17.3838 5.90593 17.3689 5.86123 16.7262 5.79692C15.6153 5.68416 14.4965 5.68197 13.3852 5.79038C12.5109 5.87758 11.6292 5.80455 10.7549 6.04C9.56408 6.36702 8.52407 6.9611 7.79639 7.91381C7.35341 8.47229 6.9788 9.08438 6.68096 9.73638C6.39945 10.3904 6.37396 11.1066 6.48125 11.8195C6.51312 12.031 6.5981 12.2588 6.29322 12.3405Z" fill="white"/>
<path d="M6.29312 12.3405C6.34237 12.3027 6.37949 12.2506 6.39974 12.191C6.41999 12.1314 6.42244 12.0669 6.40678 12.0059C6.26289 11.54 6.22028 11.0475 6.28195 10.5629C6.34362 10.0783 6.50807 9.6135 6.76372 9.20118C6.99637 8.81203 7.30125 8.51662 7.45104 8.02719C7.53561 7.8006 7.66985 7.59702 7.84338 7.4322C8.0169 7.26737 8.22506 7.14572 8.45173 7.07666C8.57353 7.04558 8.68411 6.97939 8.77043 6.8859C9.49811 6.02039 10.5551 5.83617 11.5324 5.73807C13.1651 5.57032 14.8073 5.52188 16.4467 5.59309C16.7261 5.60617 17.0023 5.67376 17.2817 5.7021C17.6227 5.73153 17.5366 5.99314 17.5377 6.19153C17.543 7.96832 17.5377 9.74621 17.5377 11.523C17.5377 12.4648 17.4315 12.3231 18.3695 12.3591C18.8358 12.3765 19.316 12.2239 19.7685 12.455C19.5635 12.6501 19.3075 12.6098 19.0632 12.6109C18.021 12.6109 16.9789 12.6109 15.9357 12.6109C15.3854 12.6109 15.309 12.746 15.5108 13.2649C15.7217 13.7904 16.1113 14.2195 16.6071 14.4727C16.7718 14.5632 16.9853 14.6013 17.0395 14.8346C16.7526 15.0646 16.9821 15.2281 17.1308 15.3513C17.2873 15.4689 17.4085 15.6292 17.4806 15.814C17.5527 15.9988 17.5729 16.2007 17.5388 16.3966C17.4867 16.8021 17.6832 16.9297 18.0646 16.9275C19.845 16.9177 21.6265 16.9275 23.407 16.9275C23.1945 17.0638 22.9619 17.0202 22.7345 17.0212C21.0029 17.0292 19.271 17.0351 17.5388 17.0387C17.5048 17.0321 17.4686 17.0278 17.4325 17.0191C15.907 16.6125 15.1432 17.744 14.2764 18.6672C14.2254 18.7409 14.1681 18.8098 14.1054 18.8732C13.9683 18.9724 13.8568 19.1621 13.6464 19.0651C13.4361 18.9681 13.4414 18.7871 13.4425 18.6018C13.4425 18.2203 13.4297 17.8388 13.4605 17.4584C13.4892 17.1019 13.3777 16.9875 13.0197 17.0049C11.7088 17.0681 10.4468 16.8523 9.29202 16.1699C7.80585 15.2979 6.75947 14.0617 6.29312 12.3405Z" fill="white"/>
<path d="M12.4291 27.6678C12.4291 26.9625 12.7796 26.6115 13.4691 26.6181C14.0852 26.6246 14.5654 27.0792 14.5484 27.6416C14.5282 28.2499 14.0353 28.7927 13.4978 28.7971C12.854 28.8026 12.4291 28.3502 12.4291 27.6678Z" fill="#F39237"/>
<path d="M21.565 10.2269C21.574 9.71318 21.7816 9.22416 22.142 8.86744C22.5024 8.51072 22.9861 8.31551 23.4867 8.32476C23.9874 8.33401 24.464 8.54696 24.8116 8.91677C25.1593 9.28658 25.3495 9.78294 25.3405 10.2967C25.3341 11.3159 24.4556 12.2021 23.4697 12.1836C22.3777 12.1639 21.5555 11.3191 21.565 10.2269Z" fill="#F39237"/>
<path d="M17.0353 14.8367C16.1196 14.5097 15.4503 13.9331 15.2294 12.9128C15.1582 12.5858 15.2017 12.431 15.5959 12.4386C16.9854 12.4637 18.3759 12.4506 19.7654 12.4517C19.8632 13.69 18.8657 14.7975 17.6174 14.8324C17.422 14.8389 17.2286 14.8357 17.0353 14.8367Z" fill="#329CFE"/>
<path d="M11.592 12.1847C10.4861 12.1618 9.66282 11.3268 9.67344 10.2389C9.67241 9.98033 9.72162 9.72414 9.81819 9.48531C9.91475 9.24647 10.0567 9.02979 10.2359 8.84791C10.415 8.66603 10.6276 8.52261 10.8614 8.42603C11.0951 8.32945 11.3453 8.28164 11.5973 8.28541C11.8492 8.28918 12.098 8.34444 12.3289 8.44797C12.5598 8.55149 12.7683 8.70121 12.9421 8.88837C13.116 9.07552 13.2518 9.29636 13.3415 9.53798C13.4313 9.7796 13.4732 10.0372 13.4648 10.2956C13.4425 11.3366 12.5799 12.2086 11.592 12.1847Z" fill="#BF1363"/>
</g>
<defs>
<clipPath id="clip0">
<rect width="35" height="37.3333" fill="white"/>
</clipPath>
</defs>
</svg>
