<svg width="249" height="111" viewBox="0 0 249 111" fill="none" xmlns="http://www.w3.org/2000/svg">
<g clip-path="url(#clip0)">
<path d="M46.0741 0.0772405C51.4661 0.0772405 56.8666 -0.131642 62.2474 0.140191C67.1145 0.386272 71.5125 2.34919 75.3967 5.37941C77.4717 6.98837 79.3274 8.87454 80.9144 10.9878C82.4502 13.0337 83.489 15.3542 84.5221 17.672C84.8237 18.3501 85.1085 18.6391 85.7954 18.6935C86.4377 18.745 87.0688 19.0168 87.7054 19.0226C90.4559 19.0426 91.3355 21.0456 91.6622 23.246C92.1397 26.3449 92.2542 29.4867 90.8803 32.4683C90.5815 33.1121 90.2604 33.5184 89.5149 33.6758C88.1187 33.9619 86.4433 34.0506 85.4492 34.9119C84.5165 35.7274 84.3881 37.4643 83.7738 38.7347C79.6132 47.4935 72.9003 52.8414 63.4789 54.4495C59.469 55.1334 55.409 54.6241 51.374 54.7357C49.6092 54.7843 47.8417 54.7357 46.0685 54.7185C45.7864 54.3992 45.6337 53.9817 45.6413 53.551C45.5966 50.9071 45.5715 48.2632 45.658 45.6164C45.662 45.2828 45.7653 44.9583 45.954 44.6864C46.5125 44.2057 47.1799 44.3173 47.8193 44.3145C51.6672 44.3145 55.5151 44.3145 59.3657 44.3145C59.9664 44.3638 60.5708 44.3195 61.1584 44.1828C69.0608 43.3616 74.5981 37.0064 75.6424 30.4166C77.2285 20.4018 71.0127 12.2468 61.8621 10.59C61.1707 10.4976 60.4727 10.4679 59.7762 10.5013C50.8407 10.5013 41.9302 10.5013 33.0086 10.4756C32.3161 10.4756 31.403 10.8847 30.9674 9.8575C31.5259 9.24516 32.2435 9.37392 32.9221 9.3682C36.3511 9.34817 39.7829 9.3682 43.2147 9.3682C45.6133 9.3682 45.6133 9.3682 45.6161 6.97321C45.6161 5.31074 45.6161 3.64827 45.6161 1.98579C45.6552 1.3105 45.6106 0.62949 46.0741 0.0772405Z" fill="#329CFE"/>
<path d="M46.0935 44.7408C46.0935 48.0677 46.0935 51.3945 46.0935 54.7214C41.4415 54.7214 36.7866 54.8272 32.1317 54.7042C25.3937 54.5239 19.4963 52.1547 14.456 47.4506C13.0431 46.1315 11.6637 44.7694 10.7338 43.1585C9.18127 40.4573 7.40253 37.822 6.70165 34.6801C5.6601 33.115 5.5847 31.2865 5.48976 29.5096C5.34177 26.4279 5.40041 23.3433 6.28559 20.3531C6.43055 19.7957 6.47689 19.2162 6.42241 18.642C8.08387 18.3559 8.09783 16.7621 8.52786 15.6433C9.47167 13.1624 10.974 11.0879 12.6717 9.18795C15.3395 6.15131 18.6162 3.74136 22.2775 2.12316C25.1536 0.872732 28.1414 0.0686789 31.2968 0.0744017C36.2244 0.0744017 41.1576 0.0744017 46.0963 0.0744017C46.0963 2.88429 46.0405 5.69705 46.1131 8.50408C46.1382 9.60572 45.7724 9.8661 44.7532 9.8518C40.6624 9.79743 36.5716 9.82032 32.4808 9.83177C31.9837 9.83177 31.4504 9.66867 31.0064 10.0635C30.6071 10.6358 29.9732 10.6358 29.3952 10.7732C21.7804 12.4757 16.662 18.4646 16.0449 26.4393C15.9296 28.44 16.2058 30.4441 16.8575 32.3338C19.1444 39.6218 25.4049 44.3116 32.9024 44.3517C35.8874 44.3517 35.9517 44.4518 35.84 47.4706C35.8176 48.1316 35.3262 49.0558 36.1499 49.3963C36.8201 49.6824 37.2222 48.7983 37.6746 48.3605C38.5877 47.4792 39.4505 46.5464 40.3441 45.6479C41.7486 44.2172 44.2059 43.8395 46.0935 44.7408Z" fill="#453F78"/>
<path d="M30.5 60.8827C32.8847 59.9013 35.4062 59.5207 37.9277 59.1888C41.6555 58.6995 45.414 58.3904 49.167 58.6508C53.5007 58.937 56.5353 58.6508 60.5353 61.063C62 61.9463 64 64 66.0353 67.063C68.043 70.6998 73.0353 62.563 85.5353 65.563C85.6191 65.6589 85.5962 65.7426 85.6191 65.8348C85.6191 66.063 87.0353 68.563 82.5353 68.563C79.4896 68.1293 71.5353 76.063 66.0353 81.063C65.4294 81.6138 65.2772 82.5 64.9522 83.4477C63.8492 86.6639 62.2659 89.5797 59.7947 91.9231C55.9329 95.58 51.4846 97.7203 46.1121 97.5C45.5536 96.8075 45.6821 95.9663 45.6821 95.168C45.6709 86.1088 45.6709 77.0477 45.6821 67.9847C45.6821 67.4124 45.6821 66.8401 45.6821 66.2679C45.5788 64.1418 44.6377 63.1203 42.5435 63.066C39.5193 62.983 36.4952 63.0488 33.4711 63.0374C32.773 63.0374 32.0749 63.0889 31.388 62.9C30.2962 62.6024 30.0811 62.0845 30.5 60.8827Z" fill="#329CFE"/>
<path d="M30.4647 61.3197C30.2441 62.6989 30.9645 63.0595 32.1401 63.0366C35.4909 63.008 38.8418 63.0366 42.1731 63.0223C44.9654 63.0223 46.0824 64.121 46.0824 66.9481C46.0824 77.2758 46.0824 87.6017 46.0824 97.9256C43.268 98.1838 40.4398 97.6224 37.9231 96.306C34.5332 94.5291 31.4364 92.1484 29.3868 88.6489C28.6357 87.3699 27.8315 86.1652 27.6584 84.6086C27.6226 84.3016 27.4945 84.0135 27.2919 83.7844C27.0893 83.5552 26.8221 83.3963 26.5275 83.3296C25.9159 79.6899 25.3156 76.0502 24.6649 72.276C22.3724 75.7841 22.1965 79.5382 22.6684 83.4126C22.7354 83.9648 23.0621 84.5056 22.6544 85.0493C20.5713 86.2339 18.2369 86.6746 15.9807 87.3012C14.4784 87.719 13.8501 86.9493 13.677 85.3526C13.4257 83.0463 14.4505 81.0834 15.1486 79.0575C15.68 77.3881 16.3334 75.762 17.1032 74.1932C17.8328 72.7553 18.6732 71.3794 19.6164 70.0785C22.3389 66.4302 25.5976 63.3456 29.8029 61.4943C30.0195 61.4211 30.2406 61.3628 30.4647 61.3197Z" fill="#453F78"/>
<path d="M6.42245 18.642C7.10658 18.765 7.03677 19.2343 6.8804 19.7179C5.8919 22.8196 5.81092 26.013 5.86398 29.2406C5.89469 31.1034 6.49505 32.8517 6.70168 34.6773C5.22452 34.3368 3.73899 34.0506 2.26183 33.6844C2.07906 33.6472 1.90764 33.5657 1.7619 33.4467C1.61617 33.3277 1.50034 33.1747 1.42412 33.0005C-0.469105 28.8515 -0.455143 24.7024 1.28729 20.5048C1.49951 20.0126 1.75641 19.6864 2.2339 19.5777C3.63008 19.2515 5.02627 18.951 6.42245 18.642Z" fill="#191923"/>
<path d="M22.646 85.0493C21.7413 82.268 22.0038 79.4467 22.3668 76.6196C22.5958 74.7855 23.7993 73.3662 24.3633 71.6751C24.3841 71.581 24.4396 71.4987 24.5181 71.4454C24.5967 71.3921 24.6923 71.3719 24.785 71.389C25.0642 71.4291 25.1229 71.6751 25.1452 71.9155C25.4607 75.4465 26.2622 78.8944 26.7843 82.3882C26.829 82.6743 26.6224 83.012 26.533 83.3239C25.2993 84.0358 23.9967 84.614 22.646 85.0493V85.0493Z" fill="#191923"/>
<path d="M16.5421 32.3938C14.5875 26.0988 16.0116 20.519 20.1918 15.6518C23.0372 12.3383 26.7566 10.6329 30.9954 10.0664C40.4746 10.0664 49.9546 10.0664 59.4356 10.0664C63.4217 10.0262 67.2909 11.4452 70.347 14.0679C73.403 16.6907 75.4452 20.345 76.106 24.3733C77.5162 32.7315 73.1797 40.3457 65.6877 43.4646C64.367 44.014 62.9931 44.509 61.516 44.4518C58.8828 44.715 56.244 44.5204 53.608 44.5634C51.4746 44.5977 49.3412 44.5634 47.2107 44.5805C46.3925 44.5805 45.8145 44.3287 45.7503 43.436C45.6832 42.2513 45.3761 41.2155 44.5495 40.3428C44.3759 40.1798 44.2606 39.9617 44.2222 39.7236C44.1837 39.4855 44.2242 39.2411 44.3373 39.0294C44.8595 38.4829 45.5492 38.666 46.1803 38.5945C48.537 38.3255 50.299 37.1867 51.268 34.9147C51.5305 34.3024 51.7566 33.6586 51.2875 33.0262C50.0701 32.5226 48.8079 32.8774 47.5709 32.803C45.9932 32.7086 45.7056 32.4883 45.6944 30.8458C45.6637 26.3248 45.6944 21.8038 45.6944 17.2799C45.6944 15.503 45.6553 15.3857 43.9659 15.2169C41.046 14.9209 38.105 14.9151 35.184 15.1997C32.8858 15.4286 30.5682 15.2369 28.2701 15.855C25.1398 16.7134 22.4061 18.2728 20.4933 20.7737C19.3289 22.2397 18.3443 23.8464 17.5614 25.558C16.8214 27.2748 16.7544 29.1547 17.0364 31.0261C17.1202 31.5812 17.3436 32.1792 16.5421 32.3938Z" fill="white"/>
<path d="M16.5419 32.3939C16.6713 32.2945 16.7689 32.1579 16.8222 32.0014C16.8754 31.8449 16.8818 31.6757 16.8407 31.5154C16.4624 30.2926 16.3504 28.9996 16.5125 27.7276C16.6746 26.4555 17.1069 25.2354 17.7789 24.1531C18.3904 23.1315 19.1918 22.3561 19.5856 21.0713C19.8079 20.4765 20.1607 19.9421 20.6169 19.5095C21.073 19.0768 21.6201 18.7575 22.216 18.5762C22.5361 18.4946 22.8268 18.3209 23.0537 18.0754C24.9664 15.8035 27.7449 15.3199 30.3138 15.0624C34.6054 14.6221 38.9221 14.4949 43.2313 14.6818C43.9657 14.7162 44.6917 14.8936 45.4261 14.968C46.3224 15.0452 46.0963 15.732 46.0991 16.2527C46.113 20.9168 46.0991 25.5838 46.0991 30.2478C46.0991 32.7201 45.8198 32.3481 48.2855 32.4425C49.5113 32.4883 50.7735 32.0877 51.963 32.6943C51.4241 33.2065 50.7511 33.1006 50.1089 33.1035C47.3696 33.1035 44.6303 33.1035 41.8882 33.1035C40.4417 33.1035 40.2407 33.4583 40.7712 34.8203C41.3257 36.1997 42.3496 37.3262 43.6529 37.9908C44.0858 38.2283 44.647 38.3284 44.7894 38.9408C44.0355 39.5445 44.6386 39.9737 45.0296 40.2971C45.4409 40.6059 45.7595 41.0267 45.949 41.5118C46.1386 41.9969 46.1915 42.5268 46.1018 43.0411C45.965 44.1056 46.4816 44.4404 47.4841 44.4346C52.1641 44.4089 56.8469 44.4346 61.5269 44.4346C60.9684 44.7923 60.3569 44.6779 59.7593 44.6807C55.2077 44.7017 50.6553 44.717 46.1018 44.7265C46.0125 44.7093 45.9175 44.6979 45.8226 44.675C41.8128 43.6077 39.8051 46.5778 37.5265 49.0014C37.3924 49.1948 37.2419 49.3758 37.0769 49.5422C36.7167 49.8026 36.4235 50.3005 35.8706 50.0458C35.3177 49.7912 35.3317 49.3162 35.3345 48.8297C35.3345 47.8283 35.301 46.8268 35.382 45.8281C35.4574 44.8925 35.1642 44.592 34.2231 44.6378C30.7774 44.8038 27.46 44.2372 24.4247 42.446C20.5182 40.1569 17.7677 36.912 16.5419 32.3939Z" fill="white"/>
<path d="M32.6707 72.628C32.6707 70.7766 33.5921 69.8553 35.4044 69.8724C37.0239 69.8896 38.2861 71.0828 38.2414 72.5593C38.1884 74.1559 36.8927 75.5809 35.4798 75.5924C33.7876 75.6067 32.6707 74.4192 32.6707 72.628Z" fill="#F39237"/>
<path d="M56.6852 26.8456C56.7089 25.4971 57.2544 24.2134 58.2017 23.277C59.149 22.3406 60.4205 21.8282 61.7365 21.8525C63.0525 21.8768 64.3052 22.4358 65.219 23.4065C66.1328 24.3772 66.6329 25.6802 66.6092 27.0287C66.5924 29.7042 64.2832 32.0305 61.6918 31.9818C58.8213 31.9303 56.66 29.7127 56.6852 26.8456Z" fill="#F39237"/>
<path d="M44.7784 38.9465C42.3714 38.0881 40.6122 36.5744 40.0314 33.8961C39.8443 33.0377 39.9588 32.6314 40.9947 32.6514C44.6471 32.7172 48.3023 32.6829 51.9547 32.6857C52.2116 35.9363 49.5896 38.8435 46.3086 38.935C45.7948 38.9522 45.2866 38.9436 44.7784 38.9465Z" fill="#329CFE"/>
<path d="M30.4703 31.9847C27.5634 31.9246 25.3993 29.7328 25.4273 26.8771C25.4246 26.1983 25.5539 25.5258 25.8077 24.8989C26.0616 24.272 26.4348 23.7032 26.9056 23.2257C27.3765 22.7483 27.9354 22.3718 28.5499 22.1183C29.1643 21.8648 29.8219 21.7393 30.4842 21.7492C31.1465 21.7591 31.8003 21.9041 32.4072 22.1759C33.0142 22.4476 33.5622 22.8407 34.0193 23.3319C34.4763 23.8232 34.8332 24.4029 35.0691 25.0372C35.305 25.6714 35.4152 26.3475 35.3932 27.0259C35.3346 29.7585 33.0672 32.0476 30.4703 31.9847Z" fill="#BF1363"/>
</g>
<ellipse cx="46" cy="106.5" rx="19" ry="4.5" fill="#EFEFEF"/>
<rect x="174" y="77" width="15" height="24" rx="3" fill="#0B132B"/>
<rect x="149" y="98" width="67" height="4" fill="#0B132B"/>
<rect x="114" width="135" height="85" rx="3" fill="#1C2541"/>
<g clip-path="url(#clip1)">
<path d="M167.075 30.3663C167.268 30.3651 167.459 30.403 167.636 30.4778C167.814 30.5525 167.975 30.6626 168.11 30.8015C168.244 30.9404 168.35 31.1053 168.42 31.2862C168.49 31.4671 168.523 31.6604 168.518 31.8546C168.514 32.2406 168.358 32.6093 168.086 32.8803C167.813 33.1512 167.445 33.3024 167.062 33.3008C166.87 33.3032 166.679 33.2664 166.5 33.1926C166.322 33.1188 166.16 33.0095 166.025 32.8713C165.89 32.7331 165.783 32.5687 165.712 32.3881C165.641 32.2074 165.607 32.0142 165.611 31.8199C165.607 31.6257 165.641 31.4325 165.713 31.2524C165.786 31.0723 165.894 30.9091 166.031 30.7728C166.168 30.6365 166.332 30.5302 166.511 30.4602C166.691 30.3903 166.883 30.3584 167.075 30.3663V30.3663Z" fill="#2AC2E5"/>
<path d="M169.174 28.8C169.174 28.3271 169.454 28.0118 169.891 28.0002C170.102 27.9951 170.306 28.0739 170.46 28.2196C170.613 28.3652 170.704 28.5659 170.711 28.7783C170.711 28.8804 170.69 28.9814 170.65 29.0754C170.611 29.1693 170.553 29.2545 170.481 29.3258C170.408 29.3972 170.323 29.4535 170.229 29.4913C170.135 29.5291 170.034 29.5478 169.933 29.5463C169.833 29.5553 169.732 29.5423 169.637 29.5082C169.542 29.4741 169.456 29.4198 169.384 29.3489C169.312 29.278 169.256 29.1923 169.22 29.0976C169.183 29.0028 169.168 28.9013 169.174 28.8V28.8Z" fill="#29C3E4"/>
<path d="M168.502 39.9595C167.871 38.1636 166.828 36.5436 165.458 35.2316C163.376 33.23 160.87 32.1944 158.024 31.9225C156.296 31.7551 154.556 31.7371 152.825 31.869C151.631 31.9601 150.423 31.9963 149.266 32.3506C146.294 33.2647 144.009 36.3886 144 39.5271C144 42.9417 144 46.3564 144 49.7696C143.99 50.6628 144.14 51.5504 144.442 52.3903C145.147 54.3225 147.202 55.899 149.233 55.9496C150.703 55.9858 152.173 55.9568 153.644 55.9568C155.225 56.0352 156.81 56.0072 158.388 55.8729C159.662 55.7728 160.91 55.4524 162.077 54.9256C164.109 54.0044 165.695 52.5494 167.006 50.7575C168.471 48.7796 169.235 46.3628 169.174 43.8948C169.168 42.5545 168.941 41.2246 168.502 39.9595ZM157.356 50.4176C156.485 51.294 154.98 51.2752 154.071 50.3727C152.587 48.9004 151.113 47.418 149.626 45.9529C149.23 45.5639 148.859 45.1719 148.726 44.6136C148.513 43.73 148.7 42.9316 149.326 42.2794C150.906 40.6402 152.496 39.0083 154.097 37.3837C154.299 37.1701 154.544 37.0037 154.817 36.896C155.089 36.7883 155.382 36.742 155.674 36.7603C156.649 36.7603 157.49 37.3013 157.825 38.1603C158.194 39.1178 158.051 40.0043 157.353 40.7463C156.655 41.4882 155.942 42.1926 155.232 42.9157C154.862 43.2917 154.672 43.7242 154.802 44.2622C154.888 44.5977 155.122 44.8291 155.357 45.0605C156.031 45.7273 156.709 46.3897 157.373 47.0665C157.594 47.2851 157.77 47.5464 157.89 47.8349C158.009 48.1233 158.07 48.4331 158.068 48.7457C158.067 49.0584 158.003 49.3675 157.88 49.6547C157.758 49.9419 157.58 50.2013 157.356 50.4176Z" fill="#2AC2E5"/>
<path d="M180.832 44.6635C180.32 45.2116 179.884 45.6759 179.443 46.1517C178.886 46.7447 178.334 47.3434 177.761 47.9205C177.59 48.0926 177.592 48.1996 177.722 48.392C178.557 49.6285 179.38 50.8738 180.244 52.174C179.572 52.174 178.937 52.174 178.301 52.174C178.169 52.174 178.096 52.0294 178.026 51.9267C177.192 50.6858 176.364 49.4391 175.526 48.1996C175.441 48.0738 175.462 48.0145 175.554 47.9104C176.516 46.8951 177.475 45.8779 178.432 44.8587C178.485 44.7965 178.551 44.7465 178.626 44.712C178.7 44.6776 178.78 44.6596 178.862 44.6591C179.483 44.6664 180.101 44.6635 180.832 44.6635Z" fill="white"/>
<path d="M194.288 48.3182C194.288 47.595 194.288 46.8864 194.288 46.1705C194.288 45.5804 194.452 45.4141 195.024 45.417C195.756 45.417 195.769 45.2853 195.763 46.1603C195.763 46.817 195.763 46.817 196.416 46.817H196.453C197.288 46.817 197.425 46.9948 197.273 47.8409C197.272 47.8791 197.263 47.9166 197.246 47.9509C197.23 47.9853 197.206 48.0158 197.177 48.0405C197.148 48.0651 197.115 48.0834 197.078 48.0941C197.042 48.1049 197.004 48.1078 196.966 48.1027C196.65 48.1027 196.333 48.1027 196.017 48.1027C195.857 48.1027 195.755 48.12 195.759 48.3254C195.773 49.0486 195.775 49.7818 195.773 50.5093C195.773 50.7986 195.905 50.9316 196.191 50.9172C196.445 50.9056 196.697 50.8926 196.951 50.8969C197.163 50.8969 197.398 50.8969 197.465 51.176C197.574 51.6345 197.465 52.0872 197.179 52.1537C196.376 52.3374 195.568 52.3793 194.856 51.8645C194.426 51.5492 194.3 51.0603 194.294 50.5469C194.284 49.805 194.294 49.0645 194.294 48.3225L194.288 48.3182Z" fill="white"/>
<path d="M182.942 48.4802C182.942 49.5663 182.934 50.6496 182.942 51.7386C182.942 52.0597 182.865 52.1942 182.512 52.1913C181.474 52.1812 181.474 52.1913 181.474 51.1413V45.4256C181.474 44.8471 181.648 44.6779 182.214 44.6765C182.931 44.6765 182.931 44.6765 182.931 45.4097L182.942 48.4802Z" fill="white"/>
<path d="M190.028 50.0624C190.066 49.5447 189.99 48.9054 190.071 48.2705C190.206 47.2306 190.932 46.8401 191.66 46.7635C192.09 46.7359 192.521 46.7359 192.95 46.7635C193.174 46.7635 193.38 46.843 193.465 47.0802C193.57 47.3576 193.566 47.6648 193.454 47.9393C193.402 48.0608 193.267 48.0449 193.152 48.0463C192.785 48.0463 192.417 48.0463 192.051 48.0608C191.686 48.0752 191.514 48.2575 191.519 48.6393C191.534 49.6517 191.519 50.6641 191.519 51.6664C191.519 52.1523 191.488 52.1856 191.003 52.1812C189.916 52.1725 190.031 52.336 190.027 51.2137C190.028 50.8695 190.028 50.5252 190.028 50.0624Z" fill="white"/>
<path d="M209.475 49.4998C209.475 50.2519 209.468 51.0054 209.475 51.7574C209.475 52.0568 209.392 52.2174 209.063 52.1913C208.849 52.1689 208.633 52.1689 208.419 52.1913C208.067 52.2289 207.989 52.0554 207.989 51.7401C207.998 50.3372 207.989 48.9358 207.989 47.5329C207.989 46.8979 208.753 46.4872 209.307 46.8097C209.469 46.9052 209.466 47.0527 209.466 47.2074C209.473 47.9696 209.475 48.7347 209.475 49.4998Z" fill="white"/>
<path d="M217.862 49.5157C217.862 50.2692 217.862 51.0213 217.862 51.7748C217.862 52.0569 217.781 52.2087 217.471 52.187C217.218 52.1711 216.965 52.1711 216.712 52.187C216.482 52.1986 216.383 52.0872 216.383 51.8732C216.383 50.3806 216.383 48.8866 216.383 47.3897C216.383 47.0151 216.609 46.8112 216.968 46.7606C217.093 46.7483 217.22 46.7454 217.346 46.7519C217.791 46.7519 217.855 46.817 217.857 47.2538C217.864 48.0116 217.862 48.7637 217.862 49.5157Z" fill="white"/>
<path d="M217.127 46.276C216.581 46.276 216.267 45.9622 216.267 45.3938C216.267 44.8254 216.615 44.4682 217.147 44.4595C217.637 44.4494 217.994 44.837 217.999 45.3822C218.003 45.9275 217.689 46.3541 217.127 46.276Z" fill="#2BC2E4"/>
<path d="M209.579 45.3721C209.579 45.9839 209.311 46.2746 208.743 46.2761C208.176 46.2775 207.897 46.0042 207.896 45.417C207.895 44.8298 208.226 44.4523 208.749 44.4494C209.224 44.448 209.578 44.8471 209.579 45.3721Z" fill="#F9CD10"/>
<path d="M197.98 45.3215C198.245 44.5579 198.48 43.8752 198.718 43.1998C198.731 43.1437 198.763 43.0941 198.809 43.0605C198.856 43.0268 198.913 43.0116 198.969 43.0176C199.22 43.0262 199.473 43.0176 199.789 43.0176C199.42 43.7566 199.087 44.4638 198.718 45.1436C198.562 45.4343 198.26 45.1884 197.98 45.3215Z" fill="white"/>
<path d="M206.854 46.9399C206.458 45.3678 205.504 44.662 203.893 44.662C202.931 44.662 201.967 44.6721 201.004 44.662C200.717 44.662 200.638 44.7271 200.642 45.0192C200.66 46.1444 200.65 47.2682 200.65 48.3934C200.65 49.5504 200.657 50.6944 200.65 51.8442C200.65 52.1002 200.707 52.2014 200.984 52.1971C201.987 52.1812 202.991 52.2231 203.986 52.1812C205.321 52.1262 206.315 51.5911 206.746 50.2678C207.1 49.1923 207.138 48.0363 206.854 46.9399ZM205.083 49.6531C204.999 49.9689 204.812 50.2468 204.551 50.4414C204.291 50.636 203.973 50.7359 203.649 50.7248C203.332 50.7248 203.015 50.7103 202.7 50.7248C202.475 50.7407 202.429 50.6539 202.433 50.4457C202.445 49.7703 202.433 49.0948 202.433 48.4209C202.433 47.7469 202.442 47.0686 202.433 46.3961C202.433 46.1849 202.482 46.1068 202.703 46.1169C203.056 46.1357 203.411 46.1169 203.764 46.1256C204.451 46.1473 204.911 46.493 205.09 47.1612C205.314 47.9768 205.312 48.8388 205.083 49.6531Z" fill="white"/>
<path d="M215.28 49.9713C215.28 49.0833 215.28 48.3544 215.28 47.6269C215.28 47.1684 215.155 46.9732 214.721 46.9037C213.747 46.7591 212.767 46.626 211.79 46.8791C211.112 47.0556 210.625 47.4374 210.399 48.1417C210.209 48.7248 210.145 49.3424 210.213 49.9525C210.356 51.2238 210.825 51.7271 212.048 52.0424C212.547 52.1711 213.052 52.1161 213.555 52.1205C213.81 52.1205 213.859 52.1957 213.783 52.4372C213.673 52.7944 213.386 52.8378 213.096 52.8552C212.402 52.889 211.706 52.8662 211.015 52.7872C210.893 52.7742 210.746 52.738 210.666 52.8682C210.507 53.1256 210.543 53.4106 210.61 53.6825C210.637 53.797 210.699 53.9 210.788 53.9758C210.877 54.0517 210.988 54.0964 211.105 54.1033C211.841 54.2313 212.591 54.2556 213.333 54.1756C214.275 54.0599 214.989 53.7895 215.211 52.4922C215.36 51.5984 215.233 50.7017 215.28 49.9713ZM213.829 49.4434C213.829 49.8006 213.829 50.1564 213.829 50.5137C213.829 50.625 213.856 50.7754 213.686 50.7769C213.197 50.7769 212.704 50.8694 212.223 50.7031C212.103 50.6636 211.997 50.5913 211.915 50.4943C211.834 50.3972 211.78 50.2793 211.762 50.1535C211.665 49.6656 211.67 49.1626 211.777 48.6769C211.801 48.5241 211.878 48.3847 211.993 48.2832C212.109 48.1816 212.256 48.1244 212.41 48.1215C212.811 48.0897 213.217 48.107 213.62 48.0984C213.787 48.0984 213.829 48.1794 213.826 48.3356C213.82 48.7044 213.829 49.0746 213.829 49.4434Z" fill="white"/>
<path d="M189.036 50.0725C189.036 49.6126 189.046 49.1512 189.036 48.6913C189.009 47.6558 188.526 47.0426 187.531 46.8329C186.795 46.6767 186.041 46.7128 185.301 46.788C184.596 46.8589 184.431 47.1554 184.512 47.8554C184.547 48.1446 184.709 48.2415 184.953 48.1851C185.44 48.0738 185.932 48.1056 186.424 48.0984C186.663 48.091 186.902 48.0973 187.141 48.1172C187.237 48.1172 187.33 48.1538 187.401 48.2197C187.472 48.2856 187.515 48.376 187.523 48.4729C187.523 48.6827 187.301 48.6262 187.172 48.674C187.087 48.6966 187 48.714 186.913 48.726C186.339 48.8591 185.744 48.8924 185.192 49.1136C184.679 49.3205 184.251 49.6184 184.153 50.2172C183.993 51.1717 184.439 51.8717 185.363 52.1046C186.427 52.3736 187.498 52.2651 188.561 52.093C188.883 52.0424 189.04 51.7922 189.036 51.4523C189.033 50.9924 189.036 50.5324 189.036 50.0725ZM187.565 50.0899C187.522 51.0473 187.784 50.8752 186.65 50.9577C186.423 50.9436 186.197 50.9151 185.973 50.8723C185.794 50.8318 185.601 50.7407 185.618 50.4948C185.632 50.275 185.797 50.2056 185.982 50.1767C186.438 50.0899 186.895 50.0103 187.348 49.9077C187.531 49.8643 187.572 49.9221 187.565 50.0899Z" fill="white"/>
<path d="M175.345 48.2777C175.345 49.3759 175.345 50.4741 175.345 51.5723C175.345 52.0467 175.201 52.1826 174.734 52.1812C174.344 52.1812 173.816 52.3258 173.598 52.1233C173.349 51.8963 173.525 51.3568 173.524 50.9533C173.515 49.0891 173.524 47.2248 173.524 45.3591C173.524 44.8124 173.667 44.6649 174.221 44.662C174.473 44.662 174.728 44.6793 174.979 44.662C175.266 44.6374 175.365 44.7112 175.358 45.0264C175.332 46.1054 175.345 47.1915 175.345 48.2777Z" fill="white"/>
<path d="M175.635 38.51C175.635 38.81 175.537 39.0517 175.34 39.235C175.143 39.4183 174.848 39.51 174.455 39.51H173.75V41H173.4V37.505H174.455C174.845 37.505 175.138 37.5967 175.335 37.78C175.535 37.9633 175.635 38.2067 175.635 38.51ZM174.455 39.21C175.002 39.21 175.275 38.9767 175.275 38.51C175.275 38.2767 175.21 38.1 175.08 37.98C174.95 37.86 174.742 37.8 174.455 37.8H173.75V39.21H174.455ZM177.592 41.04C177.336 41.04 177.104 40.9833 176.897 40.87C176.694 40.7533 176.532 40.59 176.412 40.38C176.296 40.1667 176.237 39.9183 176.237 39.635C176.237 39.3517 176.297 39.105 176.417 38.895C176.537 38.6817 176.701 38.5183 176.907 38.405C177.114 38.2883 177.346 38.23 177.602 38.23C177.859 38.23 178.091 38.2883 178.297 38.405C178.507 38.5183 178.671 38.6817 178.787 38.895C178.907 39.105 178.967 39.3517 178.967 39.635C178.967 39.915 178.907 40.1617 178.787 40.375C178.667 40.5883 178.502 40.7533 178.292 40.87C178.082 40.9833 177.849 41.04 177.592 41.04ZM177.592 40.735C177.772 40.735 177.939 40.695 178.092 40.615C178.246 40.5317 178.369 40.4083 178.462 40.245C178.559 40.0783 178.607 39.875 178.607 39.635C178.607 39.395 178.561 39.1933 178.467 39.03C178.374 38.8633 178.251 38.74 178.097 38.66C177.944 38.5767 177.777 38.535 177.597 38.535C177.417 38.535 177.251 38.5767 177.097 38.66C176.944 38.74 176.821 38.8633 176.727 39.03C176.637 39.1933 176.592 39.395 176.592 39.635C176.592 39.875 176.637 40.0783 176.727 40.245C176.821 40.4083 176.942 40.5317 177.092 40.615C177.246 40.695 177.412 40.735 177.592 40.735ZM183.38 38.27L182.525 41H182.175L181.42 38.71L180.665 41H180.31L179.455 38.27H179.81L180.49 40.645L181.255 38.27H181.605L182.36 40.65L183.035 38.27H183.38ZM186.502 39.495C186.502 39.615 186.499 39.7067 186.492 39.77H184.227C184.237 39.9767 184.287 40.1533 184.377 40.3C184.467 40.4467 184.586 40.5583 184.732 40.635C184.879 40.7083 185.039 40.745 185.212 40.745C185.439 40.745 185.629 40.69 185.782 40.58C185.939 40.47 186.042 40.3217 186.092 40.135H186.462C186.396 40.4017 186.252 40.62 186.032 40.79C185.816 40.9567 185.542 41.04 185.212 41.04C184.956 41.04 184.726 40.9833 184.522 40.87C184.319 40.7533 184.159 40.59 184.042 40.38C183.929 40.1667 183.872 39.9183 183.872 39.635C183.872 39.3517 183.929 39.1033 184.042 38.89C184.156 38.6767 184.314 38.5133 184.517 38.4C184.721 38.2867 184.952 38.23 185.212 38.23C185.472 38.23 185.699 38.2867 185.892 38.4C186.089 38.5133 186.239 38.6667 186.342 38.86C186.449 39.05 186.502 39.2617 186.502 39.495ZM186.147 39.485C186.151 39.2817 186.109 39.1083 186.022 38.965C185.939 38.8217 185.824 38.7133 185.677 38.64C185.531 38.5667 185.371 38.53 185.197 38.53C184.937 38.53 184.716 38.6133 184.532 38.78C184.349 38.9467 184.247 39.1817 184.227 39.485H186.147ZM187.668 38.755C187.744 38.585 187.861 38.4533 188.018 38.36C188.178 38.2667 188.373 38.22 188.603 38.22V38.585H188.508C188.254 38.585 188.051 38.6533 187.898 38.79C187.744 38.9267 187.668 39.155 187.668 39.475V41H187.318V38.27H187.668V38.755ZM191.774 39.495C191.774 39.615 191.771 39.7067 191.764 39.77H189.499C189.509 39.9767 189.559 40.1533 189.649 40.3C189.739 40.4467 189.858 40.5583 190.004 40.635C190.151 40.7083 190.311 40.745 190.484 40.745C190.711 40.745 190.901 40.69 191.054 40.58C191.211 40.47 191.314 40.3217 191.364 40.135H191.734C191.668 40.4017 191.524 40.62 191.304 40.79C191.088 40.9567 190.814 41.04 190.484 41.04C190.228 41.04 189.998 40.9833 189.794 40.87C189.591 40.7533 189.431 40.59 189.314 40.38C189.201 40.1667 189.144 39.9183 189.144 39.635C189.144 39.3517 189.201 39.1033 189.314 38.89C189.428 38.6767 189.586 38.5133 189.789 38.4C189.993 38.2867 190.224 38.23 190.484 38.23C190.744 38.23 190.971 38.2867 191.164 38.4C191.361 38.5133 191.511 38.6667 191.614 38.86C191.721 39.05 191.774 39.2617 191.774 39.495ZM191.419 39.485C191.423 39.2817 191.381 39.1083 191.294 38.965C191.211 38.8217 191.096 38.7133 190.949 38.64C190.803 38.5667 190.643 38.53 190.469 38.53C190.209 38.53 189.988 38.6133 189.804 38.78C189.621 38.9467 189.519 39.1817 189.499 39.485H191.419ZM192.43 39.63C192.43 39.35 192.486 39.105 192.6 38.895C192.713 38.6817 192.868 38.5183 193.065 38.405C193.265 38.2883 193.49 38.23 193.74 38.23C193.98 38.23 194.196 38.2883 194.39 38.405C194.583 38.5217 194.725 38.6733 194.815 38.86V37.3H195.165V41H194.815V40.39C194.731 40.58 194.595 40.7367 194.405 40.86C194.215 40.98 193.991 41.04 193.735 41.04C193.485 41.04 193.26 40.9817 193.06 40.865C192.863 40.7483 192.708 40.5833 192.595 40.37C192.485 40.1567 192.43 39.91 192.43 39.63ZM194.815 39.635C194.815 39.415 194.77 39.2217 194.68 39.055C194.59 38.8883 194.466 38.76 194.31 38.67C194.156 38.58 193.986 38.535 193.8 38.535C193.606 38.535 193.433 38.5783 193.28 38.665C193.126 38.7517 193.005 38.8783 192.915 39.045C192.828 39.2083 192.785 39.4033 192.785 39.63C192.785 39.8533 192.828 40.05 192.915 40.22C193.005 40.3867 193.126 40.515 193.28 40.605C193.433 40.6917 193.606 40.735 193.8 40.735C193.986 40.735 194.156 40.69 194.31 40.6C194.466 40.51 194.59 40.3817 194.68 40.215C194.77 40.0483 194.815 39.855 194.815 39.635ZM199.321 39.195C199.517 39.2317 199.684 39.3317 199.821 39.495C199.957 39.6583 200.026 39.8483 200.026 40.065C200.026 40.2417 199.981 40.4017 199.891 40.545C199.804 40.685 199.676 40.7967 199.506 40.88C199.336 40.96 199.132 41 198.896 41H197.686V37.505H198.861C199.214 37.505 199.482 37.5867 199.666 37.75C199.852 37.9133 199.946 38.125 199.946 38.385C199.946 38.6017 199.887 38.7783 199.771 38.915C199.654 39.0483 199.504 39.1417 199.321 39.195ZM198.036 39.05H198.851C199.087 39.05 199.269 38.995 199.396 38.885C199.526 38.7717 199.591 38.6167 199.591 38.42C199.591 38.2267 199.526 38.075 199.396 37.965C199.269 37.855 199.082 37.8 198.836 37.8H198.036V39.05ZM198.871 40.705C199.124 40.705 199.321 40.645 199.461 40.525C199.604 40.405 199.676 40.24 199.676 40.03C199.676 39.82 199.601 39.6533 199.451 39.53C199.304 39.4033 199.106 39.34 198.856 39.34H198.036V40.705H198.871ZM203.094 38.27L201.474 42.285H201.109L201.639 40.985L200.519 38.27H200.904L201.834 40.6L202.734 38.27H203.094Z" fill="white"/>
</g>
<defs>
<clipPath id="clip0">
<rect width="92" height="98" fill="white"/>
</clipPath>
<clipPath id="clip1">
<rect width="75" height="28" fill="white" transform="translate(144 28)"/>
</clipPath>
</defs>
</svg>
