<svg width="339" height="402" viewBox="0 0 339 402" fill="none" xmlns="http://www.w3.org/2000/svg">
<g clip-path="url(#clip0)">
<path d="M352.196 360.476C351.241 364.883 348.852 368.851 345.406 371.755C341.96 374.66 337.65 376.337 333.154 376.524C329.99 376.486 326.851 375.96 323.849 374.964C321.99 374.418 320.151 373.817 318.331 373.162C313.76 371.527 309.32 369.544 305.05 367.232C300.684 365.372 297.199 361.903 295.313 357.541C294.686 355.235 294.506 352.83 294.783 350.455L294.817 349.076C292.682 348.016 290.856 346.421 289.517 344.446C288.02 341.816 287.18 338.862 287.069 335.834C286.961 335.023 286.897 334.258 286.759 333.528C284.466 333.447 282.198 333.016 280.036 332.249C276.901 331.226 274.07 329.436 271.8 327.042C269.53 324.648 267.891 321.725 267.031 318.535C264.766 319.083 262.469 319.484 260.153 319.736C259.049 319.895 257.924 319.796 256.865 319.448C256.27 319.234 255.716 318.919 255.227 318.518C253.985 317.402 253.23 315.842 253.123 314.173C251.716 302.003 251.819 289.703 253.428 277.554C252.565 277.552 251.7 277.642 250.81 277.631C249.509 277.655 248.214 277.46 246.979 277.054C246.417 276.854 245.881 276.589 245.383 276.263C243.404 274.993 240.457 271.705 242.789 264.291C248.276 246.915 256.364 230.471 266.776 215.521C270.067 210.183 274.577 205.704 279.933 202.454C288.155 198.12 297.73 199.189 305.346 200.388C301.192 186.88 299.687 172.689 300.915 158.599C291.058 162.749 280.829 165.948 270.369 168.152C265.903 169.078 261.352 169.727 256.787 170.246C256.649 170.336 256.506 170.419 256.358 170.493C241.953 175.594 228.883 183.897 218.129 194.777C219.341 196.636 220.418 198.694 221.503 200.476L223.414 203.73C226.867 209.012 229.805 214.616 232.186 220.464C237.669 234.342 238.122 248.233 233.497 259.613C230.689 265.713 226.91 271.316 222.308 276.203C221.622 277.139 220.757 277.929 219.764 278.527C218.77 279.125 217.668 279.518 216.521 279.683C215.525 279.755 214.524 279.615 213.585 279.275C211.96 278.607 210.519 277.558 209.384 276.215L208.733 275.455C206.165 280.959 202.392 285.813 197.695 289.657C193.969 292.896 189.985 295.824 185.783 298.412C184.944 299.012 183.989 299.428 182.98 299.634C181.971 299.841 180.93 299.832 179.925 299.609L179.515 299.461C178.039 298.92 176.778 297.913 175.924 296.591C173.569 298.846 171.064 300.939 168.425 302.854C166.299 304.59 163.667 305.585 160.929 305.688C159.943 305.665 158.968 305.481 158.042 305.142C156.712 304.627 155.457 303.936 154.311 303.087L153.725 302.659L153.483 302.819C152.376 303.348 151.339 304.013 150.395 304.798C147.974 307.006 144.868 308.311 141.602 308.493C140.431 308.448 139.276 308.219 138.176 307.816C137.191 307.452 136.237 307.005 135.327 306.48C133.003 305.186 130.761 303.748 128.615 302.175L120.165 309.364C118.395 311.144 116.234 312.483 113.854 313.273C111.223 313.922 108.457 313.726 105.946 312.712C104.945 312.345 103.966 311.92 103.013 311.439C99.4629 309.677 96.0882 307.581 92.9345 305.179C88.6025 306.383 83.9969 306.114 79.8387 304.414C75.6805 302.714 72.2044 299.68 69.9545 295.786C68.5147 292.977 67.5213 289.959 67.0104 286.841C65.6489 280.21 64.9833 273.452 65.0245 266.679C64.6461 261.91 66.1514 257.179 69.2167 253.504C70.9435 251.848 72.9742 250.543 75.1961 249.661L76.3948 249.072C76.3539 246.675 76.9213 244.305 78.044 242.185C79.7038 239.567 81.988 237.404 84.6902 235.892C85.3809 235.43 85.9973 235.003 86.5865 234.566C82.5497 226 84.1964 215.525 90.6483 210.028C89.144 208.282 87.746 206.446 86.4618 204.531C85.916 203.836 85.5196 203.034 85.2977 202.178C85.0758 201.321 85.033 200.427 85.1721 199.553C85.6016 197.949 86.628 196.571 88.04 195.701C98.0656 188.72 108.916 183.013 120.341 178.711C119.938 177.947 119.461 177.219 119.067 176.428C118.067 174.793 117.56 172.903 117.606 170.985C117.829 168.654 119.327 164.495 126.963 163.072C144.856 159.805 163.136 159.282 181.176 161.521L184.112 161.93C183.212 161.605 182.284 161.271 181.383 160.946C169.071 156.552 157.351 150.646 146.491 143.365C145.498 142.698 144.524 141.976 143.541 141.282C134.401 140.236 125.207 139.72 116.006 139.739C111.444 139.734 106.335 139.964 103.095 142.538C102.544 142.977 101.891 143.267 101.196 143.38C100.502 143.493 99.7911 143.424 99.1316 143.181C98.4131 142.934 97.7829 142.482 97.319 141.879C96.9812 141.457 96.7302 140.971 96.5808 140.451C96.4314 139.931 96.3864 139.386 96.4484 138.848C96.5104 138.309 96.6783 137.789 96.9423 137.315C97.2062 136.842 97.5611 136.426 97.9863 136.091C103.315 131.827 110.061 131.506 115.991 131.479C121.259 131.491 126.56 131.67 131.839 131.995C129.514 129.89 127.239 127.648 124.819 125.292C124.469 125.213 124.129 125.091 123.809 124.928C109.643 118.326 93.8975 115.868 78.3844 117.836C77.7335 117.931 77.0695 117.862 76.4526 117.634C75.7476 117.375 75.1256 116.93 74.6523 116.346C74.179 115.762 73.8718 115.061 73.7632 114.316C73.6239 113.232 73.9192 112.137 74.5842 111.269C75.2493 110.402 76.2299 109.834 77.3112 109.689C89.1368 108.166 101.142 108.983 112.646 112.094C112.104 111.683 111.662 111.154 111.353 110.547C99.2588 101.776 85.4749 95.6198 70.8738 92.4675C69.8584 92.1897 68.9883 91.5327 68.4421 90.6314C67.896 89.7301 67.7153 88.653 67.9371 87.6211C68.159 86.5892 68.7666 85.6809 69.6351 85.0827C70.5036 84.4845 71.5671 84.2418 72.6074 84.4045C87.7909 87.6992 102.156 94.0108 114.855 102.966C115.282 102.966 115.707 103.025 116.118 103.143C113.816 93.1734 112.827 82.9429 113.176 72.7118C113.227 71.6233 113.703 70.5979 114.501 69.8562C115.299 69.1145 116.355 68.7157 117.442 68.7457C117.982 68.7629 118.513 68.8872 119.005 69.1116C119.497 69.3359 119.939 69.6557 120.307 70.0526C120.674 70.4494 120.959 70.9154 121.146 71.4237C121.332 71.9319 121.416 72.4723 121.393 73.0136C120.904 87.6174 123.349 102.166 128.58 115.795C128.74 116.249 128.818 116.727 128.811 117.208C130.6 119.089 132.463 120.936 134.374 122.737C133.271 111.469 133.876 100.096 136.168 89.0037C136.393 87.9368 137.031 87.0024 137.943 86.4061C138.854 85.8098 139.965 85.6005 141.029 85.8241C142.093 86.0477 143.025 86.686 143.618 87.5985C144.212 88.511 144.419 89.6231 144.194 90.69C141.457 103.747 141.234 117.204 143.538 130.336C143.561 130.56 143.553 130.786 143.512 131.007C145.151 132.278 146.8 133.521 148.359 134.671C148.061 127.13 148.977 119.589 151.072 112.337C151.367 111.283 152.067 110.389 153.018 109.85C153.969 109.312 155.094 109.174 156.146 109.466C157.189 109.772 158.07 110.475 158.604 111.423C159.137 112.371 159.28 113.491 159.003 114.545C156.609 123.038 156.071 131.945 157.426 140.658C190.884 160.415 230.4 167.267 268.581 159.934C299.288 153.53 329.479 137.263 363.554 108.761C364.395 108.06 365.48 107.722 366.568 107.822C367.657 107.921 368.661 108.45 369.36 109.292C370.058 110.134 370.394 111.22 370.293 112.312C370.191 113.403 369.662 114.41 368.82 115.111C350.786 130.707 330.87 143.972 309.542 154.597C307.54 169.301 308.804 184.262 313.243 198.41C315.442 198.213 317.693 198.127 319.815 198.057C321.248 198.017 322.562 197.965 323.61 197.879C329.897 197.276 336.226 197.278 342.51 197.887C357.359 199.466 369.783 205.55 377.607 214.985C381.669 220.243 384.872 226.114 387.097 232.379C387.685 233.5 387.99 234.748 387.988 236.015C387.986 237.282 387.675 238.53 387.083 239.65C386.491 240.771 385.635 241.73 384.59 242.446C383.545 243.161 382.342 243.61 381.086 243.755L380.117 243.962C383.813 248.833 386.353 254.485 387.545 260.489C388.662 265.329 389.363 270.257 389.638 275.218C389.763 276.212 389.684 277.222 389.406 278.185C389.128 279.148 388.657 280.044 388.021 280.819C386.791 282.044 385.156 282.774 383.426 282.873C384.318 286.059 384.983 289.305 385.415 292.587C385.954 295.295 385.591 298.108 384.381 300.593C383.082 302.675 381.19 304.32 378.949 305.313L378.28 305.629L378.191 305.875C378.145 307.106 378.25 308.338 378.504 309.543C379.328 312.719 379.02 316.085 377.633 319.061C376.449 320.914 374.836 322.454 372.932 323.551C370.706 325.034 368.376 326.354 365.959 327.5L368.687 338.5C369.393 340.886 369.541 343.404 369.119 345.859C368.002 349.469 365.599 352.543 362.368 354.495C359.176 356.81 355.77 358.813 352.196 360.476ZM215.434 270.635L215.854 271.095C215.895 270.997 215.931 270.896 215.962 270.794C219.923 266.518 223.18 261.639 225.611 256.339C229.506 246.983 229.053 235.319 224.355 223.455C222.159 218.109 219.449 212.991 216.263 208.172C215.636 207.173 214.915 205.924 214.141 204.563C213.024 202.615 211.573 200.051 210.136 198.049C209.913 197.984 209.694 197.905 209.481 197.813C209.017 197.358 208.669 196.798 208.466 196.18L207.882 195.661C207.377 195.51 206.913 195.248 206.524 194.893C201.775 193.182 192.238 198 188.191 202.385C185.67 205.171 183.85 208.521 182.885 212.153C181.919 215.786 181.836 219.596 182.641 223.264C184.161 228.124 186.473 232.696 189.482 236.798C197.159 248.795 205.841 260.114 215.434 270.635ZM121.238 229.367C119.899 231.654 119.422 234.345 119.893 236.951C120.348 244.845 121.349 252.935 125.251 259.565C126.056 261.052 127.205 262.325 128.6 263.276C130.381 264.114 132.318 264.569 134.286 264.614C141.707 265.252 149.18 264.975 156.538 263.79C157.687 263.436 158.788 262.94 159.815 262.311C159.751 260.431 159.872 258.548 160.175 256.691C158.246 256.935 156.289 256.767 154.432 256.198L154.05 256.06C151.52 255.046 149.265 253.449 147.465 251.4C142.461 246.173 138.733 239.857 136.57 232.943C136.344 232.236 136.171 231.512 136.054 230.779C132.472 231.151 128.855 230.974 125.328 230.253C124.056 230.104 122.615 229.739 121.238 229.367ZM91.1254 241.395C90.4991 241.85 89.8356 242.322 89.229 242.721C87.7071 243.574 86.3828 244.741 85.3437 246.144C84.6101 248.228 84.5507 250.489 85.1738 252.607C87.5591 264.229 93.9521 274.631 103.232 281.992C104.168 282.886 105.324 283.516 106.583 283.818C107.542 283.744 108.482 283.508 109.363 283.119C110.057 282.9 110.771 282.754 111.494 282.681C110.109 280.05 108.964 277.299 108.073 274.461C107.485 272.808 107.277 271.042 107.467 269.296C107.857 267.571 108.624 265.953 109.713 264.56C110.801 263.167 112.185 262.032 113.763 261.238C114.555 260.751 115.382 260.338 116.219 259.897C115.311 257.896 114.573 255.82 114.015 253.693C112.002 253.596 110.018 253.183 108.134 252.47C106.933 252.038 105.732 251.605 104.692 250.983C99.6164 248.67 95.0378 245.393 91.2095 241.333L91.1254 241.395ZM149.748 224.181C148.101 225.559 146.351 226.81 144.515 227.922C144.469 228.081 144.413 228.236 144.348 228.388C144.141 228.621 144.032 228.925 144.042 229.236C144.097 229.667 144.203 230.089 144.359 230.494C146.128 236.182 149.198 241.375 153.326 245.659C154.316 246.777 155.52 247.684 156.867 248.326C158.931 248.717 161.068 248.398 162.93 247.419C163.444 246.346 164.025 245.306 164.668 244.304C166.088 241.876 168.065 239.822 170.435 238.313C172.52 237.207 174.771 236.451 177.1 236.077L178.914 235.834L179.105 235.903C177.142 232.516 175.675 228.864 174.749 225.058C174.124 222.378 173.872 219.623 173.998 216.873C170.321 216.879 166.679 216.186 163.263 214.829C161.571 214.219 159.934 213.629 158.464 212.914C156.808 217.46 153.829 221.406 149.912 224.24L149.748 224.181ZM192.317 283.36C198.417 277.983 201.699 272.982 202.353 268.086C195.686 260.183 189.501 251.884 183.833 243.233L180.552 243.782L178.753 244.154C177.309 244.37 175.906 244.802 174.59 245.437C173.354 246.291 172.32 247.407 171.563 248.705C169.702 251.692 168.514 255.047 168.082 258.539C167.649 262.03 167.983 265.573 169.059 268.919C170.616 272.989 172.676 276.847 175.189 280.403L182.059 290.948C185.667 288.686 189.096 286.149 192.317 283.36ZM161.125 297.441C161.794 297.466 163.196 296.487 163.663 296.13C166.394 294.171 168.962 291.995 171.343 289.622L168.346 285.018C165.446 280.901 163.077 276.433 161.297 271.719C161.202 271.468 161.172 271.21 161.104 270.969C159.996 271.451 158.835 271.801 157.646 272.011C153.628 272.674 149.575 273.093 145.507 273.264C145.448 273.428 145.399 273.565 145.33 273.757C143.535 278.737 147.43 284.53 149.205 286.963C151.923 290.514 155.17 293.624 158.834 296.183C159.5 296.761 160.281 297.19 161.125 297.441ZM139.264 299.149C140.034 299.611 140.887 299.919 141.775 300.054C142.72 300.085 144.066 299.086 145.579 298.054L147.27 296.87C145.711 295.303 144.251 293.641 142.896 291.893C137.909 285.366 135.971 278.763 137.362 273.019C136.207 272.974 135.052 272.928 133.889 272.818C131.637 272.708 129.412 272.291 127.274 271.579C126.423 271.27 125.603 270.881 124.824 270.418C123.35 269.531 122.038 268.399 120.942 267.072C120.047 267.452 119.172 267.88 118.322 268.353C116.086 269.681 115.917 270.578 115.917 270.578C115.961 271.128 116.077 271.669 116.262 272.187C120.208 283.793 128.437 293.44 139.264 299.149ZM106.697 303.955C108.189 304.884 109.928 305.338 111.685 305.257C112.84 304.751 113.887 304.026 114.767 303.122L122.177 296.764C120.273 294.892 118.501 292.89 116.874 290.772C116.103 290.812 115.331 290.813 114.561 290.773C113.745 290.706 112.923 290.742 112.116 290.882C110.247 291.61 108.248 291.942 106.245 291.858C105.203 291.811 104.175 291.607 103.194 291.253C101.404 290.547 99.7424 289.551 98.2743 288.306C94.3383 285.22 90.8343 281.618 87.8564 277.596C86.7463 278.922 86.1418 280.6 86.1507 282.33C86.5807 285.866 88.2414 289.136 90.8409 291.563C95.2795 296.679 100.663 300.886 106.697 303.955ZM73.4219 266.737C73.3838 272.879 73.9757 279.008 75.1881 285.027C75.5149 287.345 76.1891 289.599 77.1879 291.714C77.9805 293.063 79.0319 294.24 80.2814 295.179C81.531 296.117 82.9541 296.798 84.4685 297.182C80.528 293.279 78.1309 288.078 77.7192 282.538C77.7302 280.282 78.2254 278.054 79.1712 276.005C80.117 273.956 81.4913 272.134 83.2008 270.662C80.9069 266.497 79.1277 262.066 77.9024 257.469C76.9095 257.885 75.9924 258.463 75.1887 259.181C73.7642 261.425 73.1324 264.083 73.3946 266.727L73.4219 266.737ZM95.9894 216.343C91.8812 219.871 91.8113 226.74 94.1465 231.384C97.3714 236.9 102.338 241.181 108.264 243.551C109.603 244.189 111.002 244.693 112.44 245.056C112.127 242.501 111.916 239.92 111.786 237.369C111.407 233.691 111.931 229.974 113.313 226.542C107.099 223.934 101.36 220.31 96.3329 215.817C96.2449 216.012 96.1188 216.187 95.9621 216.333L95.9894 216.343ZM94.2576 201.466C102.118 212.263 113.761 219.682 126.858 222.24C130.739 223.22 134.818 223.082 138.627 221.843C140.847 220.82 142.909 219.48 144.747 217.865C149.074 214.415 150.915 211.616 150.756 209.147C140.475 203.43 131.603 195.48 124.789 185.879C114.029 189.819 103.786 195.057 94.2849 201.476L94.2576 201.466ZM128.53 171.304C126.879 171.606 126.089 172.001 125.9 171.841C126.021 172.176 126.173 172.5 126.354 172.808C133.847 187.31 146.148 198.738 161.146 205.131C165.669 207.039 172.309 209.834 175.502 208.078C176.933 203.801 179.28 199.887 182.377 196.612C187.91 190.957 195.16 187.304 202.986 186.229C201.398 181.349 198.412 177.047 194.399 173.86C190.148 171.404 185.379 169.982 180.477 169.709C163.186 167.583 145.667 168.121 128.53 171.304ZM198.954 167.123C206.599 172.351 210.101 181.373 212.585 188.513C219.326 181.753 226.917 175.904 235.167 171.112C222.071 170.755 209.06 168.909 196.385 165.61C197.276 166.052 198.135 166.557 198.954 167.123ZM309.121 360.042C314.548 362.962 320.259 365.32 326.165 367.08C328.364 367.821 330.663 368.222 332.983 368.269C334.549 368.196 336.085 367.812 337.503 367.139C338.92 366.466 340.191 365.518 341.241 364.35C336.622 365.749 331.697 365.759 327.077 364.379C326.399 364.181 325.734 363.941 325.085 363.661C323.081 362.588 321.334 361.091 319.966 359.274C318.598 357.458 317.64 355.364 317.159 353.138C312.439 353.214 307.728 352.73 303.123 351.698C303.028 352.764 303.11 353.838 303.365 354.877C304.637 357.208 306.668 359.031 309.121 360.042ZM296.571 339.845C298.064 341.48 300.04 342.592 302.21 343.021C313.59 346.302 325.765 345.469 336.607 340.668C337.791 340.278 338.861 339.601 339.722 338.699C340.099 337.794 340.339 336.839 340.435 335.864C340.601 335.153 340.85 334.465 341.175 333.812C338.167 333.833 335.165 333.569 332.208 333.023C331.336 332.871 330.479 332.645 329.646 332.347C328.825 332.056 328.045 331.661 327.325 331.171C325.982 330.017 324.911 328.58 324.188 326.962C323.465 325.344 323.108 323.585 323.143 321.811C323.111 320.872 323.097 319.97 323.12 319.051C320.906 318.876 318.709 318.539 316.545 318.043C314.801 320.814 312.523 323.21 309.844 325.088C305.441 328.533 300.415 331.089 295.043 332.617C295.161 333.402 295.27 334.214 295.343 334.951C295.413 336.65 295.83 338.316 296.571 339.845ZM375.222 297.942C375.978 297.59 376.665 297.104 377.249 296.508C377.435 295.574 377.446 294.614 377.283 293.676C376.795 290.325 376.049 287.017 375.051 283.782L369.622 284.299C364.62 284.962 359.555 284.986 354.549 284.371L353.839 284.116C353.712 285.306 353.464 286.48 353.1 287.621C351.76 291.526 350.188 295.347 348.391 299.064C348.555 299.123 348.719 299.182 348.796 299.395C352.275 303.432 359.389 302.687 362.284 302.184C366.785 301.436 371.148 300.006 375.222 297.942ZM345.644 281.441C343.994 280.624 342.423 279.654 340.953 278.545C340.255 280.361 339.178 282.008 337.794 283.374C335.637 285.298 333.03 286.645 330.216 287.29C323.283 289.304 315.981 289.678 308.884 288.384C308.147 288.252 307.418 288.072 306.704 287.846C305.385 291.201 303.541 294.325 301.242 297.101C300.389 298.185 299.446 299.175 298.521 300.202C299.932 302.45 302.091 304.126 304.617 304.933C311.787 308.228 319.479 311.185 327.191 310.748C328.894 310.7 330.562 310.24 332.052 309.408C333.607 308.227 334.901 306.735 335.851 305.027C339.875 298.752 343.122 292.01 345.52 284.952C345.716 283.792 345.757 282.611 345.644 281.441ZM329.546 260.738C329.522 258.385 329.907 256.044 330.682 253.82L331.293 252.124L331.372 251.905C327.491 252.085 323.604 251.725 319.824 250.836C318.95 250.521 318.104 250.216 317.231 249.901C315.426 249.295 313.681 248.522 312.02 247.591C309.314 252.294 305.639 256.367 301.24 259.536C304.514 263.115 306.627 267.606 307.299 272.417C307.704 274.548 307.957 276.705 308.056 278.873C308.148 279.01 308.23 279.153 308.303 279.302C308.415 279.588 308.623 279.827 308.892 279.978C309.279 280.18 309.692 280.329 310.12 280.42C315.964 281.463 321.972 281.153 327.683 279.514C329.293 279.207 330.804 278.509 332.085 277.483C333.409 275.848 334.143 273.813 334.165 271.709C333.444 270.751 332.773 269.756 332.156 268.728C330.648 266.319 329.752 263.576 329.546 260.738ZM275.211 316.629C276.392 321.908 282.433 325.167 287.526 325.24C293.951 324.955 300.104 322.539 305.017 318.372C306.214 317.484 307.326 316.487 308.341 315.395C305.912 314.52 303.569 313.491 301.264 312.444C297.863 311.081 294.834 308.93 292.424 306.167C287.195 310.404 281.31 313.756 275.004 316.09C275.004 316.09 275.161 316.425 275.211 316.629ZM261.328 311.255C274.552 309.313 286.562 302.43 294.944 291.987C297.613 289.037 299.388 285.387 300.061 281.464C300.206 278.983 299.981 276.494 299.391 274.081C298.249 268.692 296.753 265.741 294.502 264.714C284.654 271.17 273.491 275.336 261.834 276.904C260.244 288.291 260.074 299.831 261.328 311.255ZM273.579 220.26C263.635 234.521 255.903 250.207 250.649 266.783C250.087 268.342 250.146 269.291 249.915 269.332C250.264 269.383 250.616 269.406 250.969 269.402C267.266 269.485 283.095 263.887 295.743 253.567C299.548 250.455 305.077 245.893 305.178 242.189C302.052 238.986 299.661 235.139 298.17 230.914C295.759 223.395 295.906 215.282 298.588 207.846C293.562 207.005 288.398 207.672 283.744 209.763C279.551 212.392 276.039 215.979 273.497 220.231L273.579 220.26ZM379.412 235.392C377.544 229.898 374.812 224.739 371.32 220.109C364.868 212.343 354.355 207.288 341.676 205.934C335.922 205.369 330.126 205.351 324.366 205.88C323.189 205.982 321.756 206.022 320.167 206.068C317.619 206.116 315.075 206.293 312.544 206.598C312.348 206.738 312.139 206.86 311.92 206.961C311.308 207.172 310.653 207.223 310.016 207.11L309.303 207.378C308.997 207.664 308.65 207.904 308.275 208.09C304.357 211.347 304.013 222.229 306.019 227.96C307.295 231.49 309.398 234.661 312.15 237.207C314.902 239.753 318.224 241.6 321.837 242.595C326.85 243.609 331.998 243.781 337.071 243.106C351.21 241.886 365.223 239.468 378.96 235.878L379.542 235.717L379.412 235.392ZM379.439 262.361C377.588 254.49 374.689 249.272 370.639 246.391C360.554 248.627 350.343 250.244 340.063 251.234C339.491 252.821 339.303 253.341 338.958 254.298L338.464 256.099C337.967 257.463 337.69 258.897 337.642 260.348C337.804 261.868 338.338 263.325 339.198 264.587C340.958 267.627 343.36 270.243 346.237 272.252C349.115 274.26 352.396 275.613 355.853 276.215C360.175 276.712 364.542 276.665 368.854 276.077L381.433 274.797C381.085 270.606 380.418 266.449 379.439 262.361ZM363.779 310.359C359.092 311.302 354.244 311.025 349.7 309.553C347.778 308.873 345.994 307.854 344.432 306.542C343.847 307.568 343.271 308.566 342.631 309.572C341.049 312.347 338.862 314.73 336.235 316.542C334.725 317.438 333.077 318.078 331.359 318.434C331.344 319.418 331.339 320.374 331.37 321.313C331.507 323.928 332.111 324.393 332.138 324.403C332.621 324.653 333.135 324.838 333.666 324.954C345.892 326.845 358.382 323.923 368.52 316.798C369.314 316.351 370.012 315.752 370.574 315.034C370.921 313.645 370.904 312.19 370.523 310.811C370.41 310.182 370.327 309.472 370.244 308.762C368.123 309.427 365.964 309.96 363.779 310.359ZM360.601 340.316L358.414 330.81C355.899 331.639 353.328 332.283 350.72 332.737C350.397 333.44 350.036 334.126 349.641 334.791C349.206 335.487 348.854 336.232 348.594 337.011C348.382 339.007 347.788 340.945 346.846 342.719C345.167 345.172 342.778 347.052 340.002 348.105C335.42 350.145 330.592 351.575 325.641 352.361C326.272 353.964 327.434 355.3 328.934 356.144C332.244 357.439 335.905 357.521 339.273 356.376C345.842 354.722 352.04 351.836 357.54 347.87C359.063 346.987 360.276 345.653 361.013 344.051C361.112 342.791 360.972 341.524 360.601 340.316Z" fill="#E9E9E9"/>
<path d="M263.137 116.079C263.849 117.91 264.149 119.876 264.018 121.837C263.887 123.799 263.327 125.708 262.377 127.43C261.223 129.098 259.728 130.5 257.99 131.543C256.253 132.586 254.315 133.245 252.304 133.478C248.282 134.446 244.073 134.278 240.145 132.992L239.326 132.697C236.904 131.753 234.809 130.125 233.294 128.009C231.779 125.894 230.91 123.383 230.793 120.78C230.768 113.66 237.148 102.541 246.008 101.745C254.867 100.949 261.143 109.889 263.137 116.079ZM255.335 118.648C254.125 114.904 250.4 109.666 246.776 109.968C243.152 110.27 239.052 116.769 239.091 120.771C239.209 121.746 239.595 122.668 240.206 123.434C240.818 124.201 241.631 124.781 242.553 125.11C245.182 126.027 248.027 126.125 250.716 125.393C253.142 124.906 254.776 124.135 255.389 123.119C255.675 122.407 255.817 121.645 255.808 120.877C255.799 120.11 255.638 119.352 255.335 118.648Z" fill="#E9E9E9"/>
<path d="M205.716 98.6356L205.579 98.5864C203.21 97.7976 201.143 96.2946 199.66 94.2829C198.177 92.2712 197.351 89.8488 197.295 87.3466C197.217 84.5658 197.977 81.8245 199.476 79.4803C200.976 77.1361 203.144 75.2979 205.7 74.2054C207.948 73.2743 210.431 73.0739 212.797 73.6323C215.163 74.1908 217.292 75.48 218.886 77.318C220.749 79.3334 221.958 81.868 222.354 84.5881C222.75 87.3081 222.314 90.0859 221.104 92.5556C219.634 95.1952 217.297 97.2438 214.491 98.3525C211.685 99.4612 208.584 99.5612 205.716 98.6356ZM212.9 82.8905C212.449 82.3078 211.82 81.8897 211.108 81.7003C210.396 81.511 209.642 81.5608 208.961 81.8421C207.945 82.2856 207.082 83.0208 206.482 83.9547C205.882 84.8887 205.572 85.9795 205.59 87.0892C205.595 87.9385 205.876 88.7626 206.388 89.4379C206.901 90.1133 207.619 90.6033 208.434 90.8347C209.454 91.141 210.548 91.0973 211.542 90.7106C212.536 90.3239 213.373 89.6163 213.921 88.6998C214.338 87.7369 214.464 86.6728 214.282 85.6399C214.101 84.607 213.62 83.6509 212.9 82.8905Z" fill="#E9E9E9"/>
<path d="M253.5 78.0419C252.043 78.2773 250.552 78.1638 249.148 77.7106L248.439 77.4549C246.989 76.7214 245.793 75.5689 245.005 74.1464C243.711 72.2064 243.049 69.9104 243.113 67.5754C243.176 65.2404 243.961 62.9814 245.359 61.1103C246.758 59.2391 248.7 57.848 250.919 57.129C253.139 56.4099 255.524 56.3984 257.748 57.0959V57.0959C259.686 57.7941 264.176 60.3086 264.013 67.9484C264.026 69.2933 263.769 70.6276 263.257 71.8719C262.745 73.1162 261.989 74.245 261.034 75.1913C258.918 76.9724 256.26 77.978 253.5 78.0419ZM255.911 67.8423C255.933 66.5827 255.712 65.1427 255.012 64.8596C254.452 64.7691 253.877 64.8299 253.348 65.0358C252.818 65.2417 252.353 65.5853 252 66.0312C251.56 66.5722 251.302 67.238 251.262 67.9339C251.221 68.6298 251.401 69.3204 251.775 69.9075L252.722 69.8468C253.458 69.7719 255.114 69.6266 255.537 69.2225C255.813 68.8174 255.945 68.3312 255.911 67.8423Z" fill="#E9E9E9"/>
</g>
<defs>
<clipPath id="clip0">
<rect width="371.095" height="292.9" fill="white" transform="matrix(-0.940791 -0.338986 -0.338986 0.940791 448.412 125.796)"/>
</clipPath>
</defs>
</svg>
