<svg width="241" height="100" viewBox="0 0 241 100" fill="none" xmlns="http://www.w3.org/2000/svg">
<g clip-path="url(#clip0)">
<path d="M119.58 43.46C121.52 43.46 121.49 42.13 121.48 40.68C121.42 35.88 121.48 31.08 121.48 26.28C121.48 23.39 122.48 22.39 125.37 22.39C155.13 22.39 184.883 22.39 214.63 22.39C217.32 22.39 218.42 23.48 218.43 26.18C218.43 45.3 218.43 64.4167 218.43 83.53C218.43 86.3 217.43 87.25 214.65 87.25C201.65 87.25 188.74 87.25 175.78 87.25C173.94 87.25 173.17 87.66 173.34 89.63C173.511 91.6264 173.511 93.6336 173.34 95.63C173.16 97.78 173.51 97.26 175.78 97.24C188.17 97.13 200.6 97.24 213 97.24C220.92 97.24 229.08 97.5 237 97.5C237.539 97.4029 238.467 97.8744 239 98C239.533 98.1256 239.681 98.8225 240.12 99.15H0C1 98.09 1.6 97.51 2.5 97.5C15.21 97.5 27.78 97.5 40.5 97.5C42.37 97.5 44.22 98.25 43.84 95.9C43.62 94.56 44.32 93.9 45.63 94.08C46.94 94.26 47.47 93.68 47.72 92.39C48.31 89.39 49.02 86.47 49.78 83.53C50.11 82.28 49.66 82.1 48.54 81.95C45.94 81.6 44.01 83.24 41.79 83.95C40.27 84.46 39.66 84.95 38.21 82.95C35.77 79.49 35.88 74.95 32.81 71.95C31.81 70.95 32.53 70.36 33.54 69.84C37.15 67.97 40.74 66.04 44.34 64.13C44.95 63.8 45.55 63.44 46.79 62.74C44.59 62.92 43.12 62.99 41.66 63.18C40.2 63.37 39.53 62.86 39.43 61.26C39.25 58.16 38.75 55.07 38.59 51.96C38.51 50.41 37.87 50.04 36.51 50.24C35.56 50.39 34.59 50.39 33.66 50.56C31.84 50.9 30.84 50.56 30.66 48.37C30 40.55 29.17 32.77 28.42 25C28.24 23.17 28.11 21.34 27.92 19.51C27.77 18.03 28.33 17.31 29.92 17.17C39.86 16.25 49.7967 15.2967 59.73 14.31C61.63 14.12 62.66 14.64 62.55 16.72C62.55 17.43 62.75 18.15 62.78 18.86C62.78 20.15 63.43 20.34 64.65 20.21C73.31 19.32 81.98 18.52 90.65 17.72C91.7474 17.6132 92.819 17.3224 93.82 16.86C91.57 14.86 91.57 14.86 94.01 13.53C93.77 12.72 92.23 12.7 92.68 11.53C93.05 10.6 94.13 11.08 94.85 10.73C94.95 9.73001 93.25 9.30001 93.96 8.31001C94.52 7.55001 95.61 8.22001 96.41 8.13001C96.69 7.13001 95.57 6.19001 96.41 5.54001C97.25 4.89001 97.89 6.13001 98.73 6.31001C99.68 5.98001 98.66 2.48001 101.32 4.66001C101.45 4.76001 101.79 3.66001 101.9 3.01001C102.46 -0.22999 102.46 -0.26999 105.73 0.30001C111.27 1.30001 110.33 0.37001 109.54 5.68001C109 9.00001 108.87 9.13001 105.6 8.35001C103.77 7.91001 101.4 8.56001 100.27 5.82001C99.78 6.82001 99.91 8.53001 98.27 7.51001C97.61 7.11001 97.73 7.59001 97.79 8.03001C98.04 9.91001 96.79 9.32001 95.79 9.24001C95.58 10.06 96.96 10.4 96.44 11.24C95.92 12.08 95.1 11.59 94.39 12.04C95.91 13.14 96.51 14.21 93.88 14.93C95.23 15.93 96.51 17.03 93.97 17.93C93.24 18.19 93.51 18.84 93.57 19.38C94.6367 30.9533 95.7267 42.4933 96.84 54V54.24C97.11 58.8 97.84 58.18 93.15 58.76C92.59 58.83 92.03 58.82 91.47 58.86C90.61 58.93 90.47 59.61 90.47 60.24C90.47 61.24 91.23 61.01 91.84 60.97C91.9925 60.9213 92.1503 60.8911 92.31 60.88C99.78 61.97 103.45 56.14 108.13 52.17C108.376 51.9661 108.575 51.7112 108.713 51.4228C108.851 51.1345 108.925 50.8197 108.93 50.5C108.31 48.27 109.93 48.09 111.3 47.7C112.3 47.46 112.61 48.39 113.13 48.9C114.25 50.01 115.37 49.9 115.98 48.56C116.82 46.64 117.75 46.89 118.98 48.09C119.432 48.6756 119.805 49.3177 120.09 50C121.54 53 121.32 53.9 118.56 55.8C116.563 57.2647 114.426 58.5275 112.18 59.57C109.89 60.57 108.18 62.51 106.47 64.26C103.22 67.64 99.29 68.84 94.84 68.97C93.963 69.0153 93.0906 69.1256 92.23 69.3C91.9529 69.3275 91.6839 69.4094 91.4384 69.5409C91.193 69.6724 90.9758 69.8509 90.7994 70.0664C90.6229 70.2818 90.4907 70.5299 90.4101 70.7965C90.3296 71.0631 90.3024 71.3429 90.33 71.62C90.1713 74.25 89.8776 76.8701 89.45 79.47C89.17 81.22 88.38 82.47 86.57 82.85C86.1354 82.9347 85.7374 83.1508 85.4297 83.4692C85.1221 83.7876 84.9197 84.1928 84.85 84.63C84.35 86.63 83.94 88.68 83.64 90.73C83.5424 91.0796 83.5587 91.4512 83.6863 91.791C83.8139 92.1308 84.0464 92.4211 84.35 92.62C84.8496 92.9492 85.2629 93.3935 85.5552 93.9155C85.8475 94.4375 86.0103 95.022 86.03 95.62C86.16 96.82 86.94 97.21 88.03 97.24H89.94H161.41C165.15 97.24 165.19 97.24 165.19 93.53C165.19 87.53 165.65 88.17 159.72 88.16C148.77 88.16 137.82 88.16 126.86 88.16C121.73 88.16 120.56 86.96 120.55 81.75C120.55 73.43 120.37 65.11 120.64 56.81C120.75 53.71 120.39 50.63 120.58 47.55C120.86 46 119.25 45 119.58 43.46Z" fill="#153748"/>
<path d="M118.12 47.83H117C117.57 50.13 115.59 50.69 114.31 50.83C112.65 50.95 112.14 49 111.31 47.78C113.961 46.1599 116.724 44.7328 119.58 43.51C120.67 44.22 120.72 45.59 121.49 46.51C121.08 46.9901 120.558 47.3617 119.97 47.5919C119.382 47.8222 118.747 47.904 118.12 47.83Z" fill="#1A3E4E"/>
<path d="M64 44.17C64.79 46.17 63.51 46.61 61.53 46.78C52.39 47.56 43.26 48.37 34.14 49.32C32.14 49.52 31.82 48.92 31.67 47.09C30.91 38.09 30 29.15 29.06 20.19C28.92 18.86 29.22 18.33 30.59 18.19C40.35 17.31 50.1133 16.3934 59.88 15.44C61.16 15.32 61.38 15.89 61.47 16.89C62.28 25.88 63.11 34.86 64 44.17Z" fill="white"/>
<path d="M66.8 81C60.73 81 54.65 80.95 48.57 81C46.96 81 46.57 80.58 46.77 79C47.31 74.24 47.77 69.46 48.03 64.68C48.12 63.07 48.63 62.44 50.21 62.32C58.33 61.68 66.45 60.97 74.57 60.32C78.95 59.95 83.33 59.65 87.7 59.25C88.88 59.14 89.56 59.25 89.42 60.67C88.7533 67.1034 88.1067 73.54 87.48 79.98C87.34 81.45 86.28 80.98 85.48 80.98C79.28 81 73 81 66.8 81Z" fill="#2AC2E5"/>
<path d="M62 47.89C65.49 47.46 65.44 47.43 65.06 43.82C64.33 36.82 63.75 29.82 63 22.87C62.84 21.41 63.59 21.33 64.62 21.23C72.5 20.5 80.36 19.7 88.22 19C92.43 18.63 92.38 18.71 92.79 23.06C93.81 33.78 94.88 44.4967 96 55.21C96.19 56.96 95.82 57.54 94 57.68C83.74 58.48 73.49 59.42 63.24 60.3C56.4 60.89 49.56 61.41 42.73 62.1C40.95 62.29 40.32 61.93 40.35 60.1C40.35 57.95 40.06 55.8 39.89 53.66C40 52 41.41 52 42.47 51.73C48.89 50 55.48 49.06 62 47.89Z" fill="#2AC2E5"/>
<path d="M89.87 65.78C90.04 62.2 90.24 61.58 93.65 61.89C99.31 62.4 102.52 58.89 106.05 55.56C106.83 54.84 107.73 53.29 108.59 53.87C109.45 54.45 109.94 56.1 110.41 57.34C110.68 58.04 109.97 58.45 109.49 58.87C108.007 59.9494 106.631 61.1683 105.38 62.51C101.55 67.44 95.89 66.57 90.76 67.37C89.32 67.59 90.06 66.32 89.87 65.78Z" fill="#2AC2E5"/>
<path d="M46.92 63.9C47.43 66.81 46.54 68.47 44.08 69.21C43.7082 69.3542 43.3501 69.5316 43.01 69.74C41.68 70.43 39.7 70.64 39.19 71.9C38.68 73.16 40.8 74 41.19 75.38C41.19 75.44 41.19 75.53 41.09 75.55C39.8 76.11 37.99 77.36 37.2 76.69C35.7 75.42 34.87 73.35 33.8 71.59C33.43 70.99 34 70.74 34.4 70.52L46.92 63.9Z" fill="#2AC2E5"/>
<path d="M55.68 84.33C54.97 87.08 54.22 89.83 53.55 92.59C52.93 95.17 50.87 94.08 49.49 94C47.77 93.9 48.77 92.5 48.95 91.66C49.6 88.73 50.32 85.81 51.01 82.89C53 82.11 54.57 82.4 55.68 84.33Z" fill="#2AC2E5"/>
<path d="M82.59 84.81C82.13 87.31 81.74 89.81 81.18 92.31C80.62 94.81 78.6 93.43 77.25 93.54C75.75 93.66 76.37 92.3 76.47 91.54C76.88 88.79 77.41 86.06 77.89 83.31C79.9 82.4 81.27 83.53 82.59 84.81Z" fill="#2AC2E5"/>
<path d="M62 47.89C55.58 49.81 49 51.06 42.5 52.62C41.5483 52.7063 40.6386 53.0522 39.87 53.62C39.74 52.84 39.62 52.07 39.48 51.29C39.3 50.29 39.65 49.84 40.7 49.75C47.82 49.16 54.92 48.52 62 47.89Z" fill="#2AC2E5"/>
<path d="M104.36 0.800018C105.76 2.11002 108.81 0.310018 108.73 3.10002C108.73 4.44002 109.85 7.76002 106.48 7.37002C105.16 7.22002 102.2 8.37002 102.48 5.37002C102.62 3.90002 102 1.65002 104.36 0.800018Z" fill="#2AC2E5"/>
<path d="M44.72 79.71C44.72 81.18 42.72 82.91 40.82 83.08C40.09 83.15 37.5 80.08 37.55 79.24C37.6 78.24 40.29 76.52 41.97 76.77C43.49 77 44.85 77.75 44.72 79.71Z" fill="#204A5A"/>
<path d="M80.08 94.88H82.69C83.69 94.88 84.09 95.41 84.07 96.38C84.05 97.35 83.67 97.72 82.79 97.72H77.32C76.32 97.72 75.93 97.19 75.94 96.22C75.95 95.25 76.53 94.85 77.46 94.86L80.08 94.88Z" fill="#204A5B"/>
<path d="M49 98.2C48.13 98.2 47.26 98.2 46.39 98.2C45.52 98.2 45.21 97.58 45.22 96.76C45.23 95.94 45.55 95.39 46.45 95.38H51.45C52.45 95.38 52.87 95.85 52.87 96.84C52.87 97.83 52.34 98.25 51.38 98.24H49V98.2Z" fill="#204A5B"/>
<path d="M117.69 52.14C116.11 52 115.43 53.42 114.26 53.96C114.5 55.19 116.18 53.35 116.09 54.96C116.09 55.56 112.99 57.52 112.42 57.28C111.27 56.8 110.97 55.71 110.76 54.61C110.76 54.49 111.02 54.25 111.21 54.15C113.05 53.15 114.9 52.15 116.77 51.15C118.05 50.48 118.18 51.03 117.68 52.15L117.69 52.14Z" fill="#1A3E4E"/>
<path d="M82.59 84.81L77.89 83.36C78.65 80.56 80.95 82 82.32 82.15C84 82.34 82.63 83.86 82.59 84.81Z" fill="#2AC2E5"/>
<path d="M55.68 84.33C54.2195 83.5718 52.634 83.084 51 82.89C51.76 82.12 55.34 81.51 55.91 82.13C56.48 82.75 55.79 83.6 55.68 84.33Z" fill="#2AC2E5"/>
<path d="M111 49.16C111.539 50.092 111.838 51.1436 111.87 52.22C111.87 52.63 111.52 53.14 111.15 52.89C110.15 52.2 110.21 50.99 110.15 49.89C110.06 49.52 110.33 49.18 111 49.16Z" fill="#1A3E4E"/>
<path d="M117.68 52.15C118.28 52.2 119.05 52.02 119.22 52.82C119.33 53.35 118.73 53.53 118.33 53.73C117.93 53.93 117.33 54.21 117.07 53.73C116.66 53.05 117.52 52.73 117.69 52.12L117.68 52.15Z" fill="#1A3E4E"/>
<path d="M169.52 80.44C169.778 80.4327 170.034 80.4807 170.271 80.5809C170.508 80.681 170.721 80.831 170.896 81.0206C171.07 81.2102 171.202 81.435 171.282 81.6799C171.362 81.9248 171.389 82.184 171.36 82.44C171.376 82.7006 171.333 82.9614 171.236 83.2037C171.139 83.446 170.99 83.6638 170.799 83.8416C170.607 84.0193 170.379 84.1526 170.131 84.2319C169.882 84.3111 169.619 84.3344 169.36 84.3C169.098 84.324 168.834 84.2873 168.589 84.1928C168.344 84.0982 168.124 83.9484 167.946 83.7549C167.768 83.5614 167.637 83.3295 167.563 83.0772C167.489 82.8249 167.474 82.5589 167.52 82.3C167.503 82.039 167.544 81.7774 167.64 81.5342C167.737 81.291 167.886 81.0724 168.078 80.8942C168.269 80.7161 168.498 80.5829 168.747 80.5043C168.997 80.4257 169.261 80.4038 169.52 80.44Z" fill="#264554"/>
<path d="M43.72 38.31C41.5 39.31 41.08 37.75 40.96 35.68C40.82 33.37 40.63 31.06 40.37 28.77C40.24 27.59 40.7 27.26 41.81 27.18C44.75 26.97 47.68 26.68 50.61 26.35C51.5 26.25 51.88 26.35 51.96 27.35C52.18 30.21 52.44 33.07 52.83 35.92C53.02 37.29 52.4 37.56 51.28 37.64C48.89 37.85 46.51 38.07 43.72 38.31Z" fill="#153748"/>
<path d="M66.69 25.74C68.97 24.22 71.63 24.86 74.11 24.51C78.36 23.9 82.68 23.71 86.96 23.29C88.44 23.14 89.19 23.6 89.32 25.17C89.78 30.73 90.15 36.31 90.9 41.83C91.25 44.49 90.24 45.27 87.9 45.32C87.4239 45.3554 86.9499 45.4155 86.48 45.5C82.02 46.29 77.48 46.87 73.07 47.63C71.9742 47.8498 70.8457 47.8498 69.75 47.63C69.1476 47.5558 68.592 47.2676 68.1844 46.8178C67.7769 46.368 67.5446 45.7868 67.53 45.18C67.38 42.24 66.73 39.33 66.84 36.41C67 32.86 65.74 29.31 66.69 25.74Z" fill="#1D3A49"/>
<path d="M74.39 51C72.39 53 72.78 56.1 70.06 56.36C65.96 56.75 61.16 58.83 58.8 52.74L74.39 51Z" fill="#183747"/>
<path d="M66.69 25.74C66.8 32.27 67.87 38.74 68.29 45.23C68.39 46.78 69.29 46.99 70.59 46.87C74.87 46.4634 79.1467 46.0634 83.42 45.67C84.42 45.58 85.42 45.56 86.5 45.5C80.93 47.14 75.21 48.09 69.5 49.21C67.78 49.55 66.94 48.59 66.75 46.77C66.12 40.91 66.65 34.99 65.86 29.14C65.6855 27.9419 65.9831 26.7229 66.69 25.74Z" fill="#2AC2E5"/>
<path d="M170.43 82.26C170.26 82.9 170.04 83.26 169.43 83.32C168.7 83.32 168.43 82.89 168.49 82.24C168.493 82.1185 168.523 81.9992 168.578 81.8905C168.632 81.7818 168.71 81.6864 168.805 81.6111C168.901 81.5357 169.011 81.4822 169.13 81.4544C169.248 81.4266 169.371 81.4251 169.49 81.45C170.12 81.47 170.18 82 170.43 82.26Z" fill="#DCE1E4"/>
<path d="M89.8 42C90.18 43.4 89.8 44 88.1 44.15C82.38 44.61 76.67 45.24 70.95 45.82C69.95 45.92 69.34 45.82 69.24 44.53C68.8 38.96 68.31 33.4 67.73 27.84C67.58 26.46 68.07 26.01 69.34 25.9C75.06 25.3933 80.78 24.8567 86.5 24.29C87.65 24.17 88.26 24.4 88.36 25.73C88.79 31.17 89.31 36.57 89.8 42Z" fill="#FFFFFC"/>
<path d="M82.29 35.18C82 36.35 83.64 38.64 80.87 38.12C79.08 37.78 76.17 40.7 75.55 37.05C74.7 32.05 75.01 32.14 79.73 31.54C83.38 31.08 81.67 33.84 82.29 35.18Z" fill="#193949"/>
</g>
<path d="M181.325 39.3797C181.519 39.3784 181.712 39.4165 181.892 39.4917C182.072 39.5669 182.234 39.6777 182.37 39.8173C182.506 39.957 182.613 40.1228 182.684 40.3047C182.755 40.4866 182.788 40.681 182.783 40.8763C182.778 41.2645 182.621 41.6353 182.346 41.9078C182.07 42.1802 181.699 42.3323 181.312 42.3307C181.117 42.3331 180.924 42.2961 180.744 42.2219C180.563 42.1477 180.4 42.0378 180.263 41.8987C180.126 41.7597 180.019 41.5945 179.947 41.4128C179.875 41.2311 179.84 41.0368 179.845 40.8414C179.84 40.6461 179.875 40.4519 179.948 40.2708C180.021 40.0896 180.13 39.9255 180.269 39.7884C180.408 39.6514 180.573 39.5444 180.755 39.4741C180.936 39.4038 181.13 39.3717 181.325 39.3797Z" fill="#2AC2E5"/>
<path d="M183.446 37.8045C183.446 37.3289 183.729 37.0119 184.171 37.0002C184.384 36.9951 184.59 37.0744 184.745 37.2208C184.901 37.3672 184.992 37.5691 185 37.7827C184.999 37.8854 184.978 37.9869 184.938 38.0814C184.898 38.1759 184.84 38.2615 184.767 38.3333C184.694 38.4051 184.607 38.4616 184.512 38.4997C184.417 38.5378 184.315 38.5565 184.213 38.555C184.112 38.564 184.01 38.5509 183.914 38.5167C183.818 38.4824 183.731 38.4278 183.658 38.3565C183.585 38.2852 183.529 38.199 183.492 38.1037C183.456 38.0085 183.44 37.9064 183.446 37.8045Z" fill="#29C3E4"/>
<path d="M182.767 49.0268C182.129 47.2208 181.075 45.5917 179.69 44.2723C177.586 42.2594 175.052 41.2181 172.176 40.9446C170.429 40.7762 168.671 40.7582 166.921 40.8908C165.713 40.9824 164.493 41.0188 163.324 41.3751C160.319 42.2943 158.009 45.4359 158 48.592C158 52.0259 158 55.4598 158 58.8922C157.991 59.7904 158.142 60.683 158.447 61.5276C159.16 63.4707 161.237 65.056 163.29 65.1069C164.776 65.1433 166.261 65.1142 167.748 65.1142C169.347 65.193 170.949 65.1648 172.544 65.0299C173.832 64.9292 175.093 64.6069 176.273 64.0772C178.326 63.1507 179.929 61.6876 181.255 59.8856C182.736 57.8966 183.507 55.4662 183.446 52.9843C183.44 51.6365 183.211 50.299 182.767 49.0268ZM171.5 59.5438C170.621 60.4252 169.099 60.4062 168.18 59.4987C166.68 58.0181 165.19 56.5273 163.687 55.054C163.287 54.6627 162.912 54.2686 162.777 53.7072C162.563 52.8185 162.751 52.0157 163.384 51.3597C164.981 49.7114 166.588 48.0703 168.206 46.4365C168.41 46.2217 168.659 46.0544 168.934 45.9461C169.209 45.8378 169.505 45.7912 169.8 45.8097C170.786 45.8097 171.636 46.3536 171.974 47.2175C172.348 48.1804 172.203 49.0719 171.497 49.8181C170.792 50.5642 170.071 51.2725 169.354 51.9997C168.98 52.3778 168.787 52.8127 168.919 53.3538C169.006 53.6912 169.242 53.9239 169.48 54.1566C170.161 54.8271 170.847 55.4932 171.518 56.1739C171.742 56.3937 171.919 56.6564 172.04 56.9465C172.161 57.2366 172.222 57.5481 172.221 57.8625C172.219 58.1769 172.154 58.4878 172.031 58.7766C171.907 59.0654 171.727 59.3263 171.5 59.5438Z" fill="#2AC2E5"/>
<defs>
<clipPath id="clip0">
<rect width="240.11" height="99.12" fill="white"/>
</clipPath>
</defs>
</svg>
