<svg width="342" height="337" viewBox="0 0 342 337" fill="none" xmlns="http://www.w3.org/2000/svg">
<g id="Features">
<circle id="Connector" cx="171.099" cy="169.275" r="143.156" stroke="#C4C4C4" stroke-width="1.17141" stroke-dasharray="5.86 5.86"/>
<g id="quick-setup">
<circle id="Ellipse 19" cx="119.421" cy="36.1176" r="36.1176" fill="#003755" fill-opacity="0.9"/>
<g id="Group 30">
<path id="Quick Setup" d="M102.508 57.5415L101.887 56.7976C101.715 56.8406 101.539 56.862 101.36 56.862C100.977 56.862 100.626 56.7722 100.305 56.5926C99.9852 56.413 99.7313 56.1651 99.5439 55.8488C99.3565 55.5286 99.2628 55.1674 99.2628 54.7652C99.2628 54.3669 99.3565 54.0097 99.5439 53.6934C99.7313 53.3732 99.9852 53.1233 100.305 52.9437C100.626 52.7641 100.977 52.6743 101.36 52.6743C101.746 52.6743 102.098 52.7641 102.414 52.9437C102.734 53.1233 102.986 53.3732 103.169 53.6934C103.357 54.0097 103.451 54.3669 103.451 54.7652C103.451 55.1284 103.372 55.4603 103.216 55.7609C103.064 56.0577 102.855 56.2998 102.59 56.4872L103.527 57.5415H102.508ZM100.106 54.7652C100.106 55.0386 100.159 55.2787 100.264 55.4856C100.37 55.6926 100.516 55.8527 100.704 55.9659C100.895 56.0752 101.114 56.1299 101.36 56.1299C101.606 56.1299 101.822 56.0752 102.01 55.9659C102.197 55.8527 102.344 55.6926 102.449 55.4856C102.554 55.2787 102.607 55.0386 102.607 54.7652C102.607 54.4919 102.554 54.2537 102.449 54.0507C102.344 53.8437 102.197 53.6856 102.01 53.5762C101.822 53.4669 101.606 53.4122 101.36 53.4122C101.114 53.4122 100.895 53.4669 100.704 53.5762C100.516 53.6856 100.37 53.8437 100.264 54.0507C100.159 54.2537 100.106 54.4919 100.106 54.7652ZM107.633 53.5762V56.821H106.807V56.4111C106.702 56.5516 106.563 56.6629 106.391 56.7449C106.224 56.823 106.04 56.862 105.841 56.862C105.587 56.862 105.363 56.8093 105.167 56.7039C104.972 56.5946 104.818 56.4364 104.705 56.2295C104.595 56.0186 104.541 55.7687 104.541 55.4798V53.5762H105.361V55.3626C105.361 55.6204 105.425 55.8195 105.554 55.9601C105.683 56.0967 105.858 56.1651 106.081 56.1651C106.307 56.1651 106.485 56.0967 106.614 55.9601C106.743 55.8195 106.807 55.6204 106.807 55.3626V53.5762H107.633ZM109.356 53.1897C109.211 53.1897 109.09 53.1448 108.993 53.055C108.899 52.9613 108.852 52.8461 108.852 52.7094C108.852 52.5727 108.899 52.4595 108.993 52.3697C109.09 52.276 109.211 52.2291 109.356 52.2291C109.5 52.2291 109.619 52.276 109.713 52.3697C109.811 52.4595 109.86 52.5727 109.86 52.7094C109.86 52.8461 109.811 52.9613 109.713 53.055C109.619 53.1448 109.5 53.1897 109.356 53.1897ZM109.76 53.5762V56.821H108.94V53.5762H109.76ZM110.857 55.1986C110.857 54.8628 110.925 54.57 111.062 54.3201C111.199 54.0663 111.388 53.8711 111.63 53.7344C111.872 53.5938 112.15 53.5235 112.462 53.5235C112.864 53.5235 113.196 53.6251 113.458 53.8281C113.723 54.0272 113.901 54.3084 113.991 54.6715H113.106C113.059 54.5309 112.979 54.4216 112.866 54.3435C112.757 54.2615 112.62 54.2205 112.456 54.2205C112.222 54.2205 112.036 54.3064 111.9 54.4782C111.763 54.6461 111.695 54.8863 111.695 55.1986C111.695 55.5071 111.763 55.7473 111.9 55.9191C112.036 56.087 112.222 56.1709 112.456 56.1709C112.788 56.1709 113.005 56.0225 113.106 55.7258H113.991C113.901 56.0772 113.723 56.3564 113.458 56.5633C113.192 56.7703 112.86 56.8738 112.462 56.8738C112.15 56.8738 111.872 56.8054 111.63 56.6688C111.388 56.5282 111.199 56.333 111.062 56.0831C110.925 55.8293 110.857 55.5344 110.857 55.1986ZM117.01 56.821L115.909 55.4388V56.821H115.089V52.4868H115.909V54.9527L116.999 53.5762H118.065L116.635 55.2045L118.076 56.821H117.01ZM122.313 56.862C122.027 56.862 121.77 56.8132 121.539 56.7156C121.313 56.618 121.133 56.4774 121.001 56.2939C120.868 56.1104 120.799 55.8937 120.796 55.6438H121.674C121.686 55.8117 121.744 55.9444 121.85 56.0421C121.959 56.1397 122.108 56.1885 122.295 56.1885C122.486 56.1885 122.637 56.1436 122.746 56.0538C122.855 55.9601 122.91 55.839 122.91 55.6906C122.91 55.5696 122.873 55.47 122.799 55.3919C122.724 55.3138 122.631 55.2533 122.518 55.2104C122.408 55.1635 122.256 55.1127 122.061 55.0581C121.795 54.98 121.578 54.9038 121.411 54.8297C121.247 54.7516 121.104 54.6364 120.983 54.4841C120.866 54.3279 120.807 54.121 120.807 53.8632C120.807 53.6212 120.868 53.4103 120.989 53.2307C121.11 53.0511 121.28 52.9144 121.498 52.8207C121.717 52.7231 121.967 52.6743 122.248 52.6743C122.67 52.6743 123.011 52.7777 123.273 52.9847C123.539 53.1877 123.685 53.4728 123.712 53.8398H122.81C122.803 53.6992 122.742 53.5841 122.629 53.4942C122.519 53.4005 122.373 53.3537 122.19 53.3537C122.029 53.3537 121.901 53.3947 121.803 53.4767C121.709 53.5587 121.662 53.6778 121.662 53.834C121.662 53.9433 121.698 54.035 121.768 54.1092C121.842 54.1795 121.932 54.2381 122.037 54.2849C122.147 54.3279 122.299 54.3787 122.494 54.4372C122.76 54.5153 122.976 54.5934 123.144 54.6715C123.312 54.7496 123.457 54.8667 123.578 55.0229C123.699 55.1791 123.759 55.3841 123.759 55.6379C123.759 55.8566 123.703 56.0596 123.589 56.2471C123.476 56.4345 123.31 56.5848 123.091 56.698C122.873 56.8074 122.613 56.862 122.313 56.862ZM127.984 55.1284C127.984 55.2455 127.977 55.3509 127.961 55.4446H125.589C125.608 55.6789 125.69 55.8624 125.835 55.9952C125.979 56.128 126.157 56.1943 126.368 56.1943C126.672 56.1943 126.889 56.0635 127.018 55.8019H127.902C127.809 56.1143 127.629 56.372 127.363 56.575C127.098 56.7742 126.772 56.8738 126.385 56.8738C126.073 56.8738 125.792 56.8054 125.542 56.6688C125.296 56.5282 125.103 56.331 124.962 56.0772C124.825 55.8234 124.757 55.5305 124.757 55.1986C124.757 54.8628 124.825 54.568 124.962 54.3142C125.099 54.0604 125.29 53.8652 125.536 53.7285C125.782 53.5919 126.065 53.5235 126.385 53.5235C126.694 53.5235 126.969 53.5899 127.211 53.7227C127.457 53.8554 127.647 54.0448 127.779 54.2908C127.916 54.5329 127.984 54.8121 127.984 55.1284ZM127.135 54.8941C127.131 54.6832 127.055 54.5153 126.907 54.3904C126.758 54.2615 126.577 54.1971 126.362 54.1971C126.159 54.1971 125.987 54.2596 125.847 54.3845C125.71 54.5056 125.626 54.6754 125.595 54.8941H127.135ZM130.035 54.2498V55.8195C130.035 55.9288 130.061 56.0089 130.112 56.0596C130.166 56.1065 130.256 56.1299 130.381 56.1299H130.762V56.821H130.246C129.555 56.821 129.21 56.4852 129.21 55.8136V54.2498H128.823V53.5762H129.21V52.7738H130.035V53.5762H130.762V54.2498H130.035ZM134.913 53.5762V56.821H134.087V56.4111C133.981 56.5516 133.843 56.6629 133.671 56.7449C133.503 56.823 133.319 56.862 133.12 56.862C132.866 56.862 132.642 56.8093 132.447 56.7039C132.251 56.5946 132.097 56.4364 131.984 56.2295C131.875 56.0186 131.82 55.7687 131.82 55.4798V53.5762H132.64V55.3626C132.64 55.6204 132.704 55.8195 132.833 55.9601C132.962 56.0967 133.138 56.1651 133.36 56.1651C133.587 56.1651 133.765 56.0967 133.893 55.9601C134.022 55.8195 134.087 55.6204 134.087 55.3626V53.5762H134.913ZM137.039 54.0448C137.145 53.8964 137.289 53.7734 137.473 53.6758C137.66 53.5743 137.873 53.5235 138.111 53.5235C138.388 53.5235 138.638 53.5919 138.861 53.7285C139.087 53.8652 139.265 54.0604 139.394 54.3142C139.527 54.5641 139.593 54.855 139.593 55.1869C139.593 55.5188 139.527 55.8136 139.394 56.0713C139.265 56.3251 139.087 56.5223 138.861 56.6629C138.638 56.8035 138.388 56.8738 138.111 56.8738C137.873 56.8738 137.662 56.8249 137.479 56.7273C137.299 56.6297 137.153 56.5067 137.039 56.3583V58.3673H136.219V53.5762H137.039V54.0448ZM138.756 55.1869C138.756 54.9917 138.715 54.8238 138.633 54.6832C138.554 54.5388 138.449 54.4294 138.316 54.3552C138.187 54.281 138.047 54.2439 137.895 54.2439C137.746 54.2439 137.606 54.283 137.473 54.3611C137.344 54.4353 137.239 54.5446 137.157 54.6891C137.078 54.8336 137.039 55.0034 137.039 55.1986C137.039 55.3939 137.078 55.5637 137.157 55.7082C137.239 55.8527 137.344 55.964 137.473 56.0421C137.606 56.1162 137.746 56.1533 137.895 56.1533C138.047 56.1533 138.187 56.1143 138.316 56.0362C138.449 55.9581 138.554 55.8468 138.633 55.7024C138.715 55.5579 138.756 55.3861 138.756 55.1869Z" fill="white"/>
<g id="Group 26">
<path id="Vector" fill-rule="evenodd" clip-rule="evenodd" d="M122.636 38.9872C121.812 39.8111 116.869 39.8111 116.045 38.9872C115.771 38.7129 115.495 37.8891 115.221 36.5157L111.102 38.9872L110.278 34.868L114.397 32.3965C112.75 24.158 116.045 17.5672 119.34 14.2719C122.636 17.5672 125.931 24.158 124.283 32.3965L128.402 34.868L127.579 38.9872L123.459 36.5157C123.185 37.8891 122.91 38.7129 122.636 38.9872ZM119.34 37.2736C119.924 37.2745 120.486 37.2349 120.916 37.1641C120.998 36.8782 121.085 36.5075 121.175 36.0585L121.999 31.9392C123.068 26.5859 121.853 21.5135 119.34 17.8984C116.828 21.5143 115.612 26.5867 116.682 31.9392L117.506 36.0585C117.595 36.5075 117.683 36.8782 117.763 37.1649C118.195 37.2341 118.757 37.2753 119.34 37.2753V37.2736Z" fill="white"/>
<path id="Vector_2" d="M120.592 26.3691C121.283 25.678 121.283 24.5574 120.592 23.8662C119.9 23.1751 118.78 23.1751 118.089 23.8662C117.398 24.5574 117.398 25.678 118.089 26.3691C118.78 27.0603 119.9 27.0603 120.592 26.3691Z" fill="white"/>
<path id="Vector_3" fill-rule="evenodd" clip-rule="evenodd" d="M116.003 40.5519L118.089 40.9691C118.089 42.082 118.506 43.0547 119.34 43.889C120.174 43.0547 120.591 42.082 120.591 40.9691L122.677 40.5519C122.677 42.7761 121.565 45.001 119.34 47.226C117.115 45.001 116.003 42.7761 116.003 40.5519Z" fill="white"/>
</g>
</g>
</g>
<g id="ticket">
<circle id="Ellipse 15" cx="228.065" cy="37.8651" r="36.1176" fill="#003755" fill-opacity="0.9"/>
<g id="Group 29">
<path id="Internet Ticketing" d="M215.79 50.0922V54.1804H214.97V50.0922H215.79ZM218.896 50.8888C219.282 50.8888 219.595 51.0118 219.833 51.2578C220.071 51.4998 220.19 51.8396 220.19 52.2769V54.1804H219.37V52.3882C219.37 52.1305 219.306 51.9333 219.177 51.7966C219.048 51.656 218.872 51.5858 218.65 51.5858C218.423 51.5858 218.244 51.656 218.111 51.7966C217.982 51.9333 217.918 52.1305 217.918 52.3882V54.1804H217.098V50.9356H217.918V51.3398C218.027 51.1992 218.166 51.0899 218.334 51.0118C218.505 50.9298 218.693 50.8888 218.896 50.8888ZM222.423 51.6092V53.1789C222.423 53.2882 222.448 53.3682 222.499 53.419C222.553 53.4659 222.643 53.4893 222.768 53.4893H223.149V54.1804H222.633C221.942 54.1804 221.597 53.8446 221.597 53.173V51.6092H221.21V50.9356H221.597V50.1332H222.423V50.9356H223.149V51.6092H222.423ZM227.253 52.4877C227.253 52.6049 227.245 52.7103 227.229 52.804H224.857C224.877 53.0383 224.959 53.2218 225.103 53.3546C225.248 53.4873 225.425 53.5537 225.636 53.5537C225.941 53.5537 226.158 53.4229 226.286 53.1613H227.171C227.077 53.4737 226.898 53.7314 226.632 53.9344C226.366 54.1336 226.04 54.2331 225.654 54.2331C225.342 54.2331 225.06 54.1648 224.81 54.0281C224.564 53.8876 224.371 53.6904 224.231 53.4366C224.094 53.1828 224.026 52.8899 224.026 52.558C224.026 52.2222 224.094 51.9274 224.231 51.6736C224.367 51.4198 224.559 51.2246 224.805 51.0879C225.051 50.9512 225.334 50.8829 225.654 50.8829C225.962 50.8829 226.238 50.9493 226.48 51.082C226.726 51.2148 226.915 51.4042 227.048 51.6502C227.185 51.8923 227.253 52.1715 227.253 52.4877ZM226.404 52.2535C226.4 52.0426 226.324 51.8747 226.175 51.7497C226.027 51.6209 225.845 51.5565 225.63 51.5565C225.427 51.5565 225.256 51.6189 225.115 51.7439C224.978 51.8649 224.894 52.0348 224.863 52.2535H226.404ZM229.169 51.4393C229.275 51.2675 229.411 51.1328 229.579 51.0352C229.751 50.9376 229.946 50.8888 230.165 50.8888V51.7497H229.948C229.69 51.7497 229.495 51.8103 229.362 51.9313C229.234 52.0524 229.169 52.2632 229.169 52.5639V54.1804H228.349V50.9356H229.169V51.4393ZM233.013 50.8888C233.4 50.8888 233.712 51.0118 233.95 51.2578C234.188 51.4998 234.308 51.8396 234.308 52.2769V54.1804H233.488V52.3882C233.488 52.1305 233.423 51.9333 233.294 51.7966C233.165 51.656 232.99 51.5858 232.767 51.5858C232.541 51.5858 232.361 51.656 232.228 51.7966C232.099 51.9333 232.035 52.1305 232.035 52.3882V54.1804H231.215V50.9356H232.035V51.3398C232.144 51.1992 232.283 51.0899 232.451 51.0118C232.623 50.9298 232.81 50.8888 233.013 50.8888ZM238.602 52.4877C238.602 52.6049 238.594 52.7103 238.578 52.804H236.206C236.226 53.0383 236.308 53.2218 236.452 53.3546C236.596 53.4873 236.774 53.5537 236.985 53.5537C237.29 53.5537 237.506 53.4229 237.635 53.1613H238.52C238.426 53.4737 238.246 53.7314 237.981 53.9344C237.715 54.1336 237.389 54.2331 237.003 54.2331C236.69 54.2331 236.409 54.1648 236.159 54.0281C235.913 53.8876 235.72 53.6904 235.579 53.4366C235.443 53.1828 235.374 52.8899 235.374 52.558C235.374 52.2222 235.443 51.9274 235.579 51.6736C235.716 51.4198 235.907 51.2246 236.153 51.0879C236.399 50.9512 236.682 50.8829 237.003 50.8829C237.311 50.8829 237.586 50.9493 237.828 51.082C238.074 51.2148 238.264 51.4042 238.397 51.6502C238.533 51.8923 238.602 52.1715 238.602 52.4877ZM237.752 52.2535C237.748 52.0426 237.672 51.8747 237.524 51.7497C237.375 51.6209 237.194 51.5565 236.979 51.5565C236.776 51.5565 236.604 51.6189 236.464 51.7439C236.327 51.8649 236.243 52.0348 236.212 52.2535H237.752ZM240.653 51.6092V53.1789C240.653 53.2882 240.678 53.3682 240.729 53.419C240.783 53.4659 240.873 53.4893 240.998 53.4893H241.379V54.1804H240.863C240.172 54.1804 239.827 53.8446 239.827 53.173V51.6092H239.44V50.9356H239.827V50.1332H240.653V50.9356H241.379V51.6092H240.653ZM215.604 59.0922V59.7541H214.515V63.1804H213.695V59.7541H212.605V59.0922H215.604ZM217.116 59.5491C216.971 59.5491 216.85 59.5042 216.753 59.4143C216.659 59.3206 216.612 59.2054 216.612 59.0688C216.612 58.9321 216.659 58.8189 216.753 58.7291C216.85 58.6354 216.971 58.5885 217.116 58.5885C217.26 58.5885 217.38 58.6354 217.473 58.7291C217.571 58.8189 217.62 58.9321 217.62 59.0688C217.62 59.2054 217.571 59.3206 217.473 59.4143C217.38 59.5042 217.26 59.5491 217.116 59.5491ZM217.52 59.9356V63.1804H216.7V59.9356H217.52ZM218.617 61.558C218.617 61.2222 218.686 60.9294 218.822 60.6795C218.959 60.4257 219.148 60.2304 219.39 60.0938C219.632 59.9532 219.91 59.8829 220.222 59.8829C220.624 59.8829 220.956 59.9844 221.218 60.1875C221.483 60.3866 221.661 60.6678 221.751 61.0309H220.866C220.819 60.8903 220.739 60.781 220.626 60.7029C220.517 60.6209 220.38 60.5799 220.216 60.5799C219.982 60.5799 219.796 60.6658 219.66 60.8376C219.523 61.0055 219.455 61.2456 219.455 61.558C219.455 61.8665 219.523 62.1066 219.66 62.2784C219.796 62.4463 219.982 62.5303 220.216 62.5303C220.548 62.5303 220.765 62.3819 220.866 62.0852H221.751C221.661 62.4366 221.483 62.7158 221.218 62.9227C220.952 63.1297 220.62 63.2331 220.222 63.2331C219.91 63.2331 219.632 63.1648 219.39 63.0281C219.148 62.8876 218.959 62.6923 218.822 62.4424C218.686 62.1886 218.617 61.8938 218.617 61.558ZM224.77 63.1804L223.669 61.7982V63.1804H222.849V58.8462H223.669V61.312L224.759 59.9356H225.825L224.396 61.5639L225.836 63.1804H224.77ZM229.784 61.4877C229.784 61.6049 229.776 61.7103 229.761 61.804H227.388C227.408 62.0383 227.49 62.2218 227.634 62.3546C227.779 62.4873 227.957 62.5537 228.167 62.5537C228.472 62.5537 228.689 62.4229 228.818 62.1613H229.702C229.608 62.4737 229.429 62.7314 229.163 62.9344C228.898 63.1336 228.572 63.2331 228.185 63.2331C227.873 63.2331 227.591 63.1648 227.342 63.0281C227.096 62.8876 226.902 62.6904 226.762 62.4366C226.625 62.1828 226.557 61.8899 226.557 61.558C226.557 61.2222 226.625 60.9274 226.762 60.6736C226.898 60.4198 227.09 60.2246 227.336 60.0879C227.582 59.9512 227.865 59.8829 228.185 59.8829C228.493 59.8829 228.769 59.9493 229.011 60.082C229.257 60.2148 229.446 60.4042 229.579 60.6502C229.716 60.8923 229.784 61.1715 229.784 61.4877ZM228.935 61.2535C228.931 61.0426 228.855 60.8747 228.706 60.7497C228.558 60.6209 228.376 60.5565 228.162 60.5565C227.959 60.5565 227.787 60.6189 227.646 60.7439C227.509 60.8649 227.426 61.0348 227.394 61.2535H228.935ZM231.835 60.6092V62.1789C231.835 62.2882 231.86 62.3682 231.911 62.419C231.966 62.4659 232.056 62.4893 232.181 62.4893H232.561V63.1804H232.046C231.355 63.1804 231.009 62.8446 231.009 62.173V60.6092H230.623V59.9356H231.009V59.1332H231.835V59.9356H232.561V60.6092H231.835ZM234.065 59.5491C233.92 59.5491 233.799 59.5042 233.702 59.4143C233.608 59.3206 233.561 59.2054 233.561 59.0688C233.561 58.9321 233.608 58.8189 233.702 58.7291C233.799 58.6354 233.92 58.5885 234.065 58.5885C234.209 58.5885 234.328 58.6354 234.422 58.7291C234.52 58.8189 234.568 58.9321 234.568 59.0688C234.568 59.2054 234.52 59.3206 234.422 59.4143C234.328 59.5042 234.209 59.5491 234.065 59.5491ZM234.469 59.9356V63.1804H233.649V59.9356H234.469ZM237.575 59.8888C237.962 59.8888 238.274 60.0118 238.512 60.2578C238.75 60.4998 238.869 60.8396 238.869 61.2769V63.1804H238.049V61.3882C238.049 61.1305 237.985 60.9333 237.856 60.7966C237.727 60.656 237.552 60.5858 237.329 60.5858C237.103 60.5858 236.923 60.656 236.79 60.7966C236.661 60.9333 236.597 61.1305 236.597 61.3882V63.1804H235.777V59.9356H236.597V60.3398C236.706 60.1992 236.845 60.0899 237.013 60.0118C237.185 59.9298 237.372 59.8888 237.575 59.8888ZM241.418 59.8829C241.66 59.8829 241.873 59.9317 242.056 60.0293C242.24 60.123 242.384 60.246 242.49 60.3983V59.9356H243.316V63.2038C243.316 63.5045 243.255 63.772 243.134 64.0063C243.013 64.2444 242.832 64.4319 242.589 64.5685C242.347 64.7091 242.054 64.7794 241.711 64.7794C241.25 64.7794 240.871 64.672 240.575 64.4573C240.282 64.2425 240.116 63.9496 240.077 63.5787H240.891C240.934 63.7271 241.026 63.8442 241.166 63.9301C241.311 64.0199 241.484 64.0648 241.687 64.0648C241.926 64.0648 242.119 63.9926 242.267 63.8481C242.416 63.7076 242.49 63.4928 242.49 63.2038V62.7001C242.384 62.8524 242.238 62.9793 242.051 63.0809C241.867 63.1824 241.656 63.2331 241.418 63.2331C241.145 63.2331 240.895 63.1628 240.668 63.0223C240.442 62.8817 240.262 62.6845 240.129 62.4307C240.001 62.173 239.936 61.8782 239.936 61.5463C239.936 61.2183 240.001 60.9274 240.129 60.6736C240.262 60.4198 240.44 60.2246 240.662 60.0879C240.889 59.9512 241.141 59.8829 241.418 59.8829ZM242.49 61.558C242.49 61.3589 242.451 61.189 242.373 61.0485C242.295 60.904 242.189 60.7947 242.056 60.7205C241.924 60.6424 241.781 60.6033 241.629 60.6033C241.477 60.6033 241.336 60.6404 241.207 60.7146C241.078 60.7888 240.973 60.8981 240.891 61.0426C240.813 61.1832 240.774 61.3511 240.774 61.5463C240.774 61.7415 240.813 61.9133 240.891 62.0617C240.973 62.2062 241.078 62.3175 241.207 62.3956C241.34 62.4737 241.48 62.5127 241.629 62.5127C241.781 62.5127 241.924 62.4756 242.056 62.4014C242.189 62.3233 242.295 62.214 242.373 62.0734C242.451 61.929 242.49 61.7572 242.49 61.558Z" fill="white"/>
<g id="ion:ticket-outline" clip-path="url(#clip0)">
<path id="Vector_4" d="M228.067 18.5749C227.291 18.5748 226.543 18.2815 225.974 17.7538C225.404 17.226 225.055 16.5027 224.995 15.7285C224.99 15.6642 224.961 15.6043 224.914 15.5607C224.866 15.5171 224.804 15.493 224.74 15.4933L220.619 15.491C220.551 15.491 220.485 15.518 220.437 15.5661C220.389 15.6143 220.362 15.6795 220.362 15.7476L220.362 22.3121C220.362 22.5543 220.418 22.7931 220.527 23.0097V23.0097C220.636 23.2265 220.693 23.4656 220.693 23.7082C220.693 23.9508 220.637 24.1901 220.529 24.4073V24.4073C220.421 24.624 220.364 24.863 220.364 25.1053L220.362 41.9384C220.362 42.0065 220.389 42.0718 220.437 42.1199C220.485 42.168 220.551 42.1951 220.619 42.1951L224.737 42.1951C224.802 42.1954 224.864 42.1713 224.911 42.1277C224.959 42.0841 224.988 42.0241 224.993 41.9599C225.052 41.1854 225.401 40.4616 225.971 39.9336C226.54 39.4055 227.288 39.1121 228.065 39.1121C228.842 39.1121 229.59 39.4055 230.16 39.9336C230.729 40.4616 231.079 41.1854 231.137 41.9599C231.143 42.0241 231.172 42.0841 231.219 42.1277C231.267 42.1713 231.329 42.1954 231.393 42.1951L235.512 42.1951C235.58 42.1951 235.645 42.168 235.693 42.1199C235.741 42.0718 235.768 42.0065 235.768 41.9384L235.769 25.103C235.768 24.8607 235.712 24.6217 235.604 24.4049V24.4049C235.495 24.1882 235.438 23.949 235.437 23.7064C235.437 23.4638 235.493 23.2245 235.601 23.0074V23.0074C235.71 22.7908 235.766 22.552 235.766 22.3098L235.766 15.7453C235.766 15.6772 235.739 15.6119 235.691 15.5638C235.643 15.5157 235.577 15.4886 235.509 15.4886L231.391 15.4886C231.326 15.4883 231.264 15.5124 231.217 15.556C231.169 15.5997 231.14 15.6596 231.135 15.7238C231.077 16.4981 230.729 17.2219 230.16 17.7505C229.591 18.2791 228.844 18.5735 228.067 18.5749V18.5749Z" stroke="white" stroke-width="1.95235" stroke-miterlimit="10"/>
<path id="Vector_5" d="M222.416 23.7073L220.875 23.7073" stroke="white" stroke-width="1.95235" stroke-miterlimit="10" stroke-linecap="round"/>
<path id="Vector_6" d="M226.524 23.7073L225.497 23.7078" stroke="white" stroke-width="1.95235" stroke-miterlimit="10" stroke-linecap="round"/>
<path id="Vector_7" d="M230.633 23.7077L229.606 23.7073" stroke="white" stroke-width="1.95235" stroke-miterlimit="10" stroke-linecap="round"/>
<path id="Vector_8" d="M235.255 23.7073L233.714 23.7073" stroke="white" stroke-width="1.95235" stroke-miterlimit="10" stroke-linecap="round"/>
</g>
</g>
</g>
<g id="inventory">
<circle id="Ellipse 16" cx="305.543" cy="120.295" r="36.1176" fill="#003755" fill-opacity="0.9"/>
<g id="Group 28">
<path id="Inventory Management" d="M289.621 128.833V132.922H288.801V128.833H289.621ZM292.728 129.63C293.114 129.63 293.427 129.753 293.665 129.999C293.903 130.241 294.022 130.581 294.022 131.018V132.922H293.202V131.129C293.202 130.872 293.138 130.674 293.009 130.538C292.88 130.397 292.704 130.327 292.482 130.327C292.255 130.327 292.075 130.397 291.943 130.538C291.814 130.674 291.749 130.872 291.749 131.129V132.922H290.929V129.677H291.749V130.081C291.859 129.94 291.997 129.831 292.165 129.753C292.337 129.671 292.525 129.63 292.728 129.63ZM296.653 132.166L297.473 129.677H298.345L297.145 132.922H296.149L294.954 129.677H295.833L296.653 132.166ZM302.32 131.229C302.32 131.346 302.312 131.452 302.297 131.545H299.924C299.944 131.78 300.026 131.963 300.17 132.096C300.315 132.229 300.493 132.295 300.703 132.295C301.008 132.295 301.225 132.164 301.354 131.903H302.238C302.144 132.215 301.965 132.473 301.699 132.676C301.434 132.875 301.108 132.974 300.721 132.974C300.409 132.974 300.128 132.906 299.878 132.769C299.632 132.629 299.438 132.432 299.298 132.178C299.161 131.924 299.093 131.631 299.093 131.299C299.093 130.963 299.161 130.669 299.298 130.415C299.434 130.161 299.626 129.966 299.872 129.829C300.118 129.692 300.401 129.624 300.721 129.624C301.03 129.624 301.305 129.69 301.547 129.823C301.793 129.956 301.982 130.145 302.115 130.391C302.252 130.633 302.32 130.913 302.32 131.229ZM301.471 130.995C301.467 130.784 301.391 130.616 301.242 130.491C301.094 130.362 300.912 130.298 300.698 130.298C300.495 130.298 300.323 130.36 300.182 130.485C300.046 130.606 299.962 130.776 299.93 130.995H301.471ZM305.214 129.63C305.601 129.63 305.913 129.753 306.152 129.999C306.39 130.241 306.509 130.581 306.509 131.018V132.922H305.689V131.129C305.689 130.872 305.624 130.674 305.496 130.538C305.367 130.397 305.191 130.327 304.968 130.327C304.742 130.327 304.562 130.397 304.43 130.538C304.301 130.674 304.236 130.872 304.236 131.129V132.922H303.416V129.677H304.236V130.081C304.346 129.94 304.484 129.831 304.652 129.753C304.824 129.671 305.011 129.63 305.214 129.63ZM308.741 130.35V131.92C308.741 132.029 308.767 132.109 308.817 132.16C308.872 132.207 308.962 132.231 309.087 132.231H309.467V132.922H308.952C308.261 132.922 307.915 132.586 307.915 131.914V130.35H307.529V129.677H307.915V128.874H308.741V129.677H309.467V130.35H308.741ZM311.996 132.974C311.684 132.974 311.402 132.906 311.153 132.769C310.903 132.629 310.705 132.432 310.561 132.178C310.42 131.924 310.35 131.631 310.35 131.299C310.35 130.967 310.422 130.674 310.567 130.421C310.715 130.167 310.916 129.972 311.17 129.835C311.424 129.694 311.707 129.624 312.019 129.624C312.332 129.624 312.615 129.694 312.869 129.835C313.122 129.972 313.322 130.167 313.466 130.421C313.614 130.674 313.689 130.967 313.689 131.299C313.689 131.631 313.612 131.924 313.46 132.178C313.312 132.432 313.109 132.629 312.851 132.769C312.597 132.906 312.312 132.974 311.996 132.974ZM311.996 132.26C312.144 132.26 312.283 132.225 312.412 132.154C312.545 132.08 312.65 131.971 312.728 131.826C312.806 131.682 312.845 131.506 312.845 131.299C312.845 130.991 312.763 130.755 312.599 130.591C312.439 130.423 312.242 130.339 312.008 130.339C311.773 130.339 311.576 130.423 311.416 130.591C311.26 130.755 311.182 130.991 311.182 131.299C311.182 131.608 311.258 131.846 311.41 132.014C311.566 132.178 311.762 132.26 311.996 132.26ZM315.608 130.181C315.713 130.009 315.85 129.874 316.018 129.776C316.19 129.679 316.385 129.63 316.604 129.63V130.491H316.387C316.129 130.491 315.934 130.551 315.801 130.673C315.672 130.794 315.608 131.004 315.608 131.305V132.922H314.788V129.677H315.608V130.181ZM320.758 129.677L318.749 134.456H317.876L318.579 132.84L317.279 129.677H318.198L319.036 131.944L319.885 129.677H320.758ZM287.885 137.833V141.922H287.065V139.263L285.97 141.922H285.349L284.248 139.263V141.922H283.428V137.833H284.359L285.659 140.873L286.96 137.833H287.885ZM288.983 140.288C288.983 139.96 289.047 139.669 289.176 139.415C289.309 139.161 289.486 138.966 289.709 138.829C289.935 138.692 290.187 138.624 290.464 138.624C290.707 138.624 290.917 138.673 291.097 138.771C291.281 138.868 291.427 138.991 291.536 139.14V138.677H292.362V141.922H291.536V141.447C291.431 141.599 291.284 141.726 291.097 141.828C290.914 141.926 290.701 141.974 290.459 141.974C290.185 141.974 289.935 141.904 289.709 141.763C289.486 141.623 289.309 141.426 289.176 141.172C289.047 140.914 288.983 140.619 288.983 140.288ZM291.536 140.299C291.536 140.1 291.497 139.93 291.419 139.79C291.341 139.645 291.236 139.536 291.103 139.462C290.97 139.384 290.828 139.345 290.675 139.345C290.523 139.345 290.382 139.382 290.254 139.456C290.125 139.53 290.019 139.639 289.937 139.784C289.859 139.924 289.82 140.092 289.82 140.288C289.82 140.483 289.859 140.655 289.937 140.803C290.019 140.947 290.125 141.059 290.254 141.137C290.386 141.215 290.527 141.254 290.675 141.254C290.828 141.254 290.97 141.217 291.103 141.143C291.236 141.065 291.341 140.955 291.419 140.815C291.497 140.67 291.536 140.498 291.536 140.299ZM295.459 138.63C295.846 138.63 296.158 138.753 296.396 138.999C296.634 139.241 296.753 139.581 296.753 140.018V141.922H295.933V140.129C295.933 139.872 295.869 139.674 295.74 139.538C295.611 139.397 295.436 139.327 295.213 139.327C294.987 139.327 294.807 139.397 294.674 139.538C294.545 139.674 294.481 139.872 294.481 140.129V141.922H293.661V138.677H294.481V139.081C294.59 138.94 294.729 138.831 294.897 138.753C295.069 138.671 295.256 138.63 295.459 138.63ZM297.82 140.288C297.82 139.96 297.885 139.669 298.013 139.415C298.146 139.161 298.324 138.966 298.546 138.829C298.773 138.692 299.025 138.624 299.302 138.624C299.544 138.624 299.755 138.673 299.935 138.771C300.118 138.868 300.264 138.991 300.374 139.14V138.677H301.2V141.922H300.374V141.447C300.268 141.599 300.122 141.726 299.935 141.828C299.751 141.926 299.538 141.974 299.296 141.974C299.023 141.974 298.773 141.904 298.546 141.763C298.324 141.623 298.146 141.426 298.013 141.172C297.885 140.914 297.82 140.619 297.82 140.288ZM300.374 140.299C300.374 140.1 300.335 139.93 300.257 139.79C300.179 139.645 300.073 139.536 299.94 139.462C299.808 139.384 299.665 139.345 299.513 139.345C299.361 139.345 299.22 139.382 299.091 139.456C298.962 139.53 298.857 139.639 298.775 139.784C298.697 139.924 298.658 140.092 298.658 140.288C298.658 140.483 298.697 140.655 298.775 140.803C298.857 140.947 298.962 141.059 299.091 141.137C299.224 141.215 299.364 141.254 299.513 141.254C299.665 141.254 299.808 141.217 299.94 141.143C300.073 141.065 300.179 140.955 300.257 140.815C300.335 140.67 300.374 140.498 300.374 140.299ZM303.769 138.624C304.011 138.624 304.224 138.673 304.408 138.771C304.591 138.864 304.736 138.987 304.841 139.14V138.677H305.667V141.945C305.667 142.246 305.606 142.513 305.485 142.747C305.364 142.986 305.183 143.173 304.941 143.31C304.699 143.45 304.406 143.521 304.062 143.521C303.601 143.521 303.223 143.413 302.926 143.198C302.633 142.984 302.467 142.691 302.428 142.32H303.242C303.285 142.468 303.377 142.585 303.517 142.671C303.662 142.761 303.836 142.806 304.039 142.806C304.277 142.806 304.47 142.734 304.619 142.589C304.767 142.449 304.841 142.234 304.841 141.945V141.441C304.736 141.594 304.589 141.721 304.402 141.822C304.218 141.924 304.008 141.974 303.769 141.974C303.496 141.974 303.246 141.904 303.02 141.763C302.793 141.623 302.614 141.426 302.481 141.172C302.352 140.914 302.288 140.619 302.288 140.288C302.288 139.96 302.352 139.669 302.481 139.415C302.614 139.161 302.791 138.966 303.014 138.829C303.24 138.692 303.492 138.624 303.769 138.624ZM304.841 140.299C304.841 140.1 304.802 139.93 304.724 139.79C304.646 139.645 304.541 139.536 304.408 139.462C304.275 139.384 304.132 139.345 303.98 139.345C303.828 139.345 303.687 139.382 303.558 139.456C303.43 139.53 303.324 139.639 303.242 139.784C303.164 139.924 303.125 140.092 303.125 140.288C303.125 140.483 303.164 140.655 303.242 140.803C303.324 140.947 303.43 141.059 303.558 141.137C303.691 141.215 303.832 141.254 303.98 141.254C304.132 141.254 304.275 141.217 304.408 141.143C304.541 141.065 304.646 140.955 304.724 140.815C304.802 140.67 304.841 140.498 304.841 140.299ZM309.982 140.229C309.982 140.346 309.974 140.452 309.959 140.545H307.587C307.606 140.78 307.688 140.963 307.833 141.096C307.977 141.229 308.155 141.295 308.366 141.295C308.67 141.295 308.887 141.164 309.016 140.903H309.9C309.806 141.215 309.627 141.473 309.361 141.676C309.096 141.875 308.77 141.974 308.383 141.974C308.071 141.974 307.79 141.906 307.54 141.769C307.294 141.629 307.1 141.432 306.96 141.178C306.823 140.924 306.755 140.631 306.755 140.299C306.755 139.963 306.823 139.669 306.96 139.415C307.097 139.161 307.288 138.966 307.534 138.829C307.78 138.692 308.063 138.624 308.383 138.624C308.692 138.624 308.967 138.69 309.209 138.823C309.455 138.956 309.644 139.145 309.777 139.391C309.914 139.633 309.982 139.913 309.982 140.229ZM309.133 139.995C309.129 139.784 309.053 139.616 308.904 139.491C308.756 139.362 308.574 139.298 308.36 139.298C308.157 139.298 307.985 139.36 307.844 139.485C307.708 139.606 307.624 139.776 307.592 139.995H309.133ZM315.108 138.63C315.506 138.63 315.827 138.753 316.069 138.999C316.315 139.241 316.438 139.581 316.438 140.018V141.922H315.618V140.129C315.618 139.876 315.553 139.682 315.424 139.55C315.296 139.413 315.12 139.345 314.897 139.345C314.675 139.345 314.497 139.413 314.364 139.55C314.235 139.682 314.171 139.876 314.171 140.129V141.922H313.351V140.129C313.351 139.876 313.287 139.682 313.158 139.55C313.029 139.413 312.853 139.345 312.631 139.345C312.404 139.345 312.224 139.413 312.092 139.55C311.963 139.682 311.898 139.876 311.898 140.129V141.922H311.078V138.677H311.898V139.069C312.004 138.933 312.139 138.825 312.303 138.747C312.47 138.669 312.654 138.63 312.853 138.63C313.107 138.63 313.333 138.685 313.533 138.794C313.732 138.899 313.886 139.052 313.995 139.251C314.101 139.063 314.253 138.913 314.452 138.8C314.655 138.687 314.874 138.63 315.108 138.63ZM320.73 140.229C320.73 140.346 320.722 140.452 320.707 140.545H318.334C318.354 140.78 318.436 140.963 318.58 141.096C318.725 141.229 318.903 141.295 319.113 141.295C319.418 141.295 319.635 141.164 319.764 140.903H320.648C320.554 141.215 320.375 141.473 320.109 141.676C319.844 141.875 319.518 141.974 319.131 141.974C318.819 141.974 318.538 141.906 318.288 141.769C318.042 141.629 317.848 141.432 317.708 141.178C317.571 140.924 317.503 140.631 317.503 140.299C317.503 139.963 317.571 139.669 317.708 139.415C317.844 139.161 318.036 138.966 318.282 138.829C318.528 138.692 318.811 138.624 319.131 138.624C319.439 138.624 319.715 138.69 319.957 138.823C320.203 138.956 320.392 139.145 320.525 139.391C320.662 139.633 320.73 139.913 320.73 140.229ZM319.881 139.995C319.877 139.784 319.801 139.616 319.652 139.491C319.504 139.362 319.322 139.298 319.108 139.298C318.905 139.298 318.733 139.36 318.592 139.485C318.456 139.606 318.372 139.776 318.34 139.995H319.881ZM323.624 138.63C324.011 138.63 324.323 138.753 324.562 138.999C324.8 139.241 324.919 139.581 324.919 140.018V141.922H324.099V140.129C324.099 139.872 324.034 139.674 323.906 139.538C323.777 139.397 323.601 139.327 323.378 139.327C323.152 139.327 322.972 139.397 322.84 139.538C322.711 139.674 322.646 139.872 322.646 140.129V141.922H321.826V138.677H322.646V139.081C322.756 138.94 322.894 138.831 323.062 138.753C323.234 138.671 323.421 138.63 323.624 138.63ZM327.151 139.35V140.92C327.151 141.029 327.177 141.109 327.227 141.16C327.282 141.207 327.372 141.231 327.497 141.231H327.877V141.922H327.362C326.671 141.922 326.325 141.586 326.325 140.914V139.35H325.939V138.677H326.325V137.874H327.151V138.677H327.877V139.35H327.151Z" fill="white"/>
<g id="ic:baseline-inventory">
<path id="Vector_9" d="M312.728 101.556H297.193C296.222 101.556 295.251 102.43 295.251 103.498V106.421C295.251 107.12 295.669 107.722 296.222 108.061V119.033C296.222 120.101 297.29 120.974 298.164 120.974H311.757C312.631 120.974 313.699 120.101 313.699 119.033V108.061C314.252 107.722 314.67 107.12 314.67 106.421V103.498C314.67 102.43 313.699 101.556 312.728 101.556ZM307.873 113.207H302.048V111.265H307.873V113.207ZM312.728 106.411H297.193V103.498L312.728 103.479V106.411Z" fill="white"/>
</g>
</g>
</g>
<g id="sales">
<circle id="Ellipse 17" cx="303.504" cy="226.317" r="36.1176" fill="#003755" fill-opacity="0.9"/>
<g id="Group 27">
<path id="Sales Management" d="M295.39 238.304C295.105 238.304 294.847 238.255 294.617 238.157C294.39 238.06 294.211 237.919 294.078 237.736C293.945 237.552 293.877 237.335 293.873 237.085H294.751C294.763 237.253 294.822 237.386 294.927 237.484C295.037 237.581 295.185 237.63 295.372 237.63C295.564 237.63 295.714 237.585 295.823 237.495C295.933 237.402 295.987 237.281 295.987 237.132C295.987 237.011 295.95 236.912 295.876 236.834C295.802 236.755 295.708 236.695 295.595 236.652C295.486 236.605 295.333 236.554 295.138 236.5C294.873 236.422 294.656 236.345 294.488 236.271C294.324 236.193 294.181 236.078 294.06 235.926C293.943 235.77 293.885 235.563 293.885 235.305C293.885 235.063 293.945 234.852 294.066 234.672C294.187 234.493 294.357 234.356 294.576 234.262C294.794 234.165 295.044 234.116 295.325 234.116C295.747 234.116 296.089 234.219 296.35 234.426C296.616 234.629 296.762 234.914 296.79 235.281H295.888C295.88 235.141 295.819 235.026 295.706 234.936C295.597 234.842 295.45 234.795 295.267 234.795C295.107 234.795 294.978 234.836 294.88 234.918C294.787 235 294.74 235.119 294.74 235.276C294.74 235.385 294.775 235.477 294.845 235.551C294.919 235.621 295.009 235.68 295.115 235.727C295.224 235.77 295.376 235.82 295.571 235.879C295.837 235.957 296.054 236.035 296.222 236.113C296.389 236.191 296.534 236.308 296.655 236.465C296.776 236.621 296.837 236.826 296.837 237.08C296.837 237.298 296.78 237.501 296.667 237.689C296.553 237.876 296.388 238.026 296.169 238.14C295.95 238.249 295.691 238.304 295.39 238.304ZM297.834 236.629C297.834 236.301 297.899 236.01 298.028 235.756C298.161 235.502 298.338 235.307 298.561 235.17C298.787 235.034 299.039 234.965 299.316 234.965C299.558 234.965 299.769 235.014 299.949 235.112C300.132 235.209 300.279 235.332 300.388 235.481V235.018H301.214V238.263H300.388V237.788C300.283 237.941 300.136 238.067 299.949 238.169C299.765 238.267 299.553 238.315 299.31 238.315C299.037 238.315 298.787 238.245 298.561 238.105C298.338 237.964 298.161 237.767 298.028 237.513C297.899 237.255 297.834 236.96 297.834 236.629ZM300.388 236.64C300.388 236.441 300.349 236.271 300.271 236.131C300.193 235.986 300.087 235.877 299.955 235.803C299.822 235.725 299.679 235.686 299.527 235.686C299.375 235.686 299.234 235.723 299.105 235.797C298.977 235.871 298.871 235.98 298.789 236.125C298.711 236.265 298.672 236.433 298.672 236.629C298.672 236.824 298.711 236.996 298.789 237.144C298.871 237.288 298.977 237.4 299.105 237.478C299.238 237.556 299.379 237.595 299.527 237.595C299.679 237.595 299.822 237.558 299.955 237.484C300.087 237.406 300.193 237.296 300.271 237.156C300.349 237.011 300.388 236.839 300.388 236.64ZM303.333 233.928V238.263H302.513V233.928H303.333ZM307.657 236.57C307.657 236.687 307.649 236.793 307.634 236.886H305.262C305.281 237.121 305.363 237.304 305.508 237.437C305.652 237.57 305.83 237.636 306.041 237.636C306.345 237.636 306.562 237.505 306.691 237.244H307.575C307.481 237.556 307.302 237.814 307.036 238.017C306.771 238.216 306.445 238.315 306.058 238.315C305.746 238.315 305.465 238.247 305.215 238.11C304.969 237.97 304.775 237.773 304.635 237.519C304.498 237.265 304.43 236.972 304.43 236.64C304.43 236.304 304.498 236.01 304.635 235.756C304.771 235.502 304.963 235.307 305.209 235.17C305.455 235.034 305.738 234.965 306.058 234.965C306.367 234.965 306.642 235.032 306.884 235.164C307.13 235.297 307.319 235.486 307.452 235.732C307.589 235.975 307.657 236.254 307.657 236.57ZM306.808 236.336C306.804 236.125 306.728 235.957 306.579 235.832C306.431 235.703 306.249 235.639 306.035 235.639C305.832 235.639 305.66 235.701 305.519 235.826C305.383 235.947 305.299 236.117 305.267 236.336H306.808ZM309.995 238.315C309.73 238.315 309.491 238.269 309.281 238.175C309.07 238.077 308.902 237.946 308.777 237.782C308.656 237.618 308.589 237.437 308.578 237.238H309.404C309.419 237.363 309.48 237.466 309.585 237.548C309.694 237.63 309.829 237.671 309.989 237.671C310.145 237.671 310.266 237.64 310.352 237.577C310.442 237.515 310.487 237.435 310.487 237.337C310.487 237.232 310.432 237.154 310.323 237.103C310.218 237.048 310.048 236.99 309.814 236.927C309.571 236.869 309.372 236.808 309.216 236.746C309.064 236.683 308.931 236.588 308.818 236.459C308.709 236.33 308.654 236.156 308.654 235.937C308.654 235.758 308.705 235.594 308.806 235.445C308.912 235.297 309.06 235.18 309.251 235.094C309.446 235.008 309.675 234.965 309.937 234.965C310.323 234.965 310.632 235.063 310.862 235.258C311.092 235.449 311.219 235.709 311.243 236.037H310.458C310.446 235.908 310.391 235.807 310.294 235.732C310.2 235.654 310.073 235.615 309.913 235.615C309.765 235.615 309.65 235.643 309.568 235.697C309.489 235.752 309.45 235.828 309.45 235.926C309.45 236.035 309.505 236.119 309.614 236.178C309.724 236.232 309.894 236.289 310.124 236.347C310.358 236.406 310.552 236.467 310.704 236.529C310.856 236.591 310.987 236.689 311.096 236.822C311.209 236.951 311.268 237.123 311.272 237.337C311.272 237.525 311.219 237.693 311.114 237.841C311.012 237.989 310.864 238.107 310.669 238.192C310.477 238.274 310.253 238.315 309.995 238.315ZM285.846 243.174V247.263H285.026V244.604L283.931 247.263H283.31L282.209 244.604V247.263H281.389V243.174H282.32L283.62 246.214L284.92 243.174H285.846ZM286.944 245.629C286.944 245.301 287.008 245.01 287.137 244.756C287.27 244.502 287.447 244.307 287.67 244.17C287.896 244.034 288.148 243.965 288.425 243.965C288.668 243.965 288.878 244.014 289.058 244.112C289.242 244.209 289.388 244.332 289.497 244.481V244.018H290.323V247.263H289.497V246.788C289.392 246.941 289.245 247.067 289.058 247.169C288.874 247.267 288.662 247.315 288.42 247.315C288.146 247.315 287.896 247.245 287.67 247.105C287.447 246.964 287.27 246.767 287.137 246.513C287.008 246.255 286.944 245.96 286.944 245.629ZM289.497 245.64C289.497 245.441 289.458 245.271 289.38 245.131C289.302 244.986 289.197 244.877 289.064 244.803C288.931 244.725 288.789 244.686 288.636 244.686C288.484 244.686 288.343 244.723 288.215 244.797C288.086 244.871 287.98 244.98 287.898 245.125C287.82 245.265 287.781 245.433 287.781 245.629C287.781 245.824 287.82 245.996 287.898 246.144C287.98 246.288 288.086 246.4 288.215 246.478C288.347 246.556 288.488 246.595 288.636 246.595C288.789 246.595 288.931 246.558 289.064 246.484C289.197 246.406 289.302 246.296 289.38 246.156C289.458 246.011 289.497 245.839 289.497 245.64ZM293.42 243.971C293.806 243.971 294.119 244.094 294.357 244.34C294.595 244.582 294.714 244.922 294.714 245.359V247.263H293.894V245.47C293.894 245.213 293.83 245.016 293.701 244.879C293.572 244.738 293.396 244.668 293.174 244.668C292.947 244.668 292.768 244.738 292.635 244.879C292.506 245.016 292.442 245.213 292.442 245.47V247.263H291.622V244.018H292.442V244.422C292.551 244.281 292.69 244.172 292.858 244.094C293.029 244.012 293.217 243.971 293.42 243.971ZM295.781 245.629C295.781 245.301 295.846 245.01 295.974 244.756C296.107 244.502 296.285 244.307 296.507 244.17C296.734 244.034 296.986 243.965 297.263 243.965C297.505 243.965 297.716 244.014 297.895 244.112C298.079 244.209 298.225 244.332 298.335 244.481V244.018H299.161V247.263H298.335V246.788C298.229 246.941 298.083 247.067 297.895 247.169C297.712 247.267 297.499 247.315 297.257 247.315C296.984 247.315 296.734 247.245 296.507 247.105C296.285 246.964 296.107 246.767 295.974 246.513C295.846 246.255 295.781 245.96 295.781 245.629ZM298.335 245.64C298.335 245.441 298.296 245.271 298.218 245.131C298.14 244.986 298.034 244.877 297.901 244.803C297.769 244.725 297.626 244.686 297.474 244.686C297.321 244.686 297.181 244.723 297.052 244.797C296.923 244.871 296.818 244.98 296.736 245.125C296.658 245.265 296.619 245.433 296.619 245.629C296.619 245.824 296.658 245.996 296.736 246.144C296.818 246.288 296.923 246.4 297.052 246.478C297.185 246.556 297.325 246.595 297.474 246.595C297.626 246.595 297.769 246.558 297.901 246.484C298.034 246.406 298.14 246.296 298.218 246.156C298.296 246.011 298.335 245.839 298.335 245.64ZM301.73 243.965C301.972 243.965 302.185 244.014 302.369 244.112C302.552 244.205 302.697 244.328 302.802 244.481V244.018H303.628V247.286C303.628 247.587 303.567 247.854 303.446 248.089C303.325 248.327 303.144 248.514 302.902 248.651C302.66 248.791 302.367 248.862 302.023 248.862C301.562 248.862 301.184 248.754 300.887 248.54C300.594 248.325 300.428 248.032 300.389 247.661H301.203C301.246 247.809 301.338 247.926 301.478 248.012C301.623 248.102 301.797 248.147 302 248.147C302.238 248.147 302.431 248.075 302.58 247.93C302.728 247.79 302.802 247.575 302.802 247.286V246.782C302.697 246.935 302.55 247.062 302.363 247.163C302.179 247.265 301.968 247.315 301.73 247.315C301.457 247.315 301.207 247.245 300.981 247.105C300.754 246.964 300.574 246.767 300.442 246.513C300.313 246.255 300.248 245.96 300.248 245.629C300.248 245.301 300.313 245.01 300.442 244.756C300.574 244.502 300.752 244.307 300.975 244.17C301.201 244.034 301.453 243.965 301.73 243.965ZM302.802 245.64C302.802 245.441 302.763 245.271 302.685 245.131C302.607 244.986 302.501 244.877 302.369 244.803C302.236 244.725 302.093 244.686 301.941 244.686C301.789 244.686 301.648 244.723 301.519 244.797C301.391 244.871 301.285 244.98 301.203 245.125C301.125 245.265 301.086 245.433 301.086 245.629C301.086 245.824 301.125 245.996 301.203 246.144C301.285 246.288 301.391 246.4 301.519 246.478C301.652 246.556 301.793 246.595 301.941 246.595C302.093 246.595 302.236 246.558 302.369 246.484C302.501 246.406 302.607 246.296 302.685 246.156C302.763 246.011 302.802 245.839 302.802 245.64ZM307.943 245.57C307.943 245.687 307.935 245.793 307.92 245.886H305.548C305.567 246.121 305.649 246.304 305.794 246.437C305.938 246.57 306.116 246.636 306.326 246.636C306.631 246.636 306.848 246.505 306.977 246.244H307.861C307.767 246.556 307.588 246.814 307.322 247.017C307.057 247.216 306.731 247.315 306.344 247.315C306.032 247.315 305.751 247.247 305.501 247.11C305.255 246.97 305.061 246.773 304.921 246.519C304.784 246.265 304.716 245.972 304.716 245.64C304.716 245.304 304.784 245.01 304.921 244.756C305.057 244.502 305.249 244.307 305.495 244.17C305.741 244.034 306.024 243.965 306.344 243.965C306.653 243.965 306.928 244.032 307.17 244.164C307.416 244.297 307.605 244.486 307.738 244.732C307.875 244.975 307.943 245.254 307.943 245.57ZM307.094 245.336C307.09 245.125 307.014 244.957 306.865 244.832C306.717 244.703 306.535 244.639 306.321 244.639C306.118 244.639 305.946 244.701 305.805 244.826C305.669 244.947 305.585 245.117 305.553 245.336H307.094ZM313.069 243.971C313.467 243.971 313.788 244.094 314.03 244.34C314.276 244.582 314.399 244.922 314.399 245.359V247.263H313.579V245.47C313.579 245.217 313.514 245.023 313.385 244.891C313.256 244.754 313.081 244.686 312.858 244.686C312.636 244.686 312.458 244.754 312.325 244.891C312.196 245.023 312.132 245.217 312.132 245.47V247.263H311.312V245.47C311.312 245.217 311.248 245.023 311.119 244.891C310.99 244.754 310.814 244.686 310.592 244.686C310.365 244.686 310.185 244.754 310.053 244.891C309.924 245.023 309.859 245.217 309.859 245.47V247.263H309.039V244.018H309.859V244.41C309.965 244.274 310.1 244.166 310.264 244.088C310.431 244.01 310.615 243.971 310.814 243.971C311.068 243.971 311.294 244.026 311.493 244.135C311.693 244.24 311.847 244.393 311.956 244.592C312.062 244.404 312.214 244.254 312.413 244.141C312.616 244.028 312.835 243.971 313.069 243.971ZM318.691 245.57C318.691 245.687 318.683 245.793 318.667 245.886H316.295C316.315 246.121 316.397 246.304 316.541 246.437C316.686 246.57 316.864 246.636 317.074 246.636C317.379 246.636 317.596 246.505 317.725 246.244H318.609C318.515 246.556 318.336 246.814 318.07 247.017C317.805 247.216 317.479 247.315 317.092 247.315C316.78 247.315 316.498 247.247 316.249 247.11C316.003 246.97 315.809 246.773 315.669 246.519C315.532 246.265 315.464 245.972 315.464 245.64C315.464 245.304 315.532 245.01 315.669 244.756C315.805 244.502 315.997 244.307 316.243 244.17C316.489 244.034 316.772 243.965 317.092 243.965C317.4 243.965 317.676 244.032 317.918 244.164C318.164 244.297 318.353 244.486 318.486 244.732C318.623 244.975 318.691 245.254 318.691 245.57ZM317.842 245.336C317.838 245.125 317.762 244.957 317.613 244.832C317.465 244.703 317.283 244.639 317.069 244.639C316.865 244.639 316.694 244.701 316.553 244.826C316.416 244.947 316.332 245.117 316.301 245.336H317.842ZM321.585 243.971C321.972 243.971 322.284 244.094 322.523 244.34C322.761 244.582 322.88 244.922 322.88 245.359V247.263H322.06V245.47C322.06 245.213 321.995 245.016 321.867 244.879C321.738 244.738 321.562 244.668 321.339 244.668C321.113 244.668 320.933 244.738 320.801 244.879C320.672 245.016 320.607 245.213 320.607 245.47V247.263H319.787V244.018H320.607V244.422C320.717 244.281 320.855 244.172 321.023 244.094C321.195 244.012 321.382 243.971 321.585 243.971ZM325.112 244.691V246.261C325.112 246.37 325.138 246.451 325.188 246.501C325.243 246.548 325.333 246.572 325.458 246.572H325.838V247.263H325.323C324.632 247.263 324.286 246.927 324.286 246.255V244.691H323.9V244.018H324.286V243.215H325.112V244.018H325.838V244.691H325.112Z" fill="white"/>
<g id="gridicons:stats-up-alt">
<path id="Vector_10" d="M312.242 226.318H294.766V224.376H312.242V226.318ZM299.621 215.638H295.737V222.434H299.621V215.638ZM305.446 211.754H301.562V222.434H305.446V211.754ZM311.271 208.841H307.388V222.434H311.271V208.841Z" fill="white"/>
</g>
</g>
</g>
<g id="employee">
<circle id="Ellipse 18" cx="228.065" cy="300.882" r="36.1176" fill="#003755" fill-opacity="0.9"/>
<g id="Group 31">
<path id="Employee Management" d="M212.864 310.573V311.598H214.241V312.248H212.864V313.332H214.416V313.999H212.044V309.905H214.416V310.573H212.864ZM219.689 310.708C220.087 310.708 220.407 310.831 220.649 311.077C220.895 311.319 221.018 311.658 221.018 312.096V313.999H220.198V312.207C220.198 311.953 220.134 311.76 220.005 311.627C219.876 311.491 219.701 311.422 219.478 311.422C219.255 311.422 219.078 311.491 218.945 311.627C218.816 311.76 218.752 311.953 218.752 312.207V313.999H217.932V312.207C217.932 311.953 217.867 311.76 217.738 311.627C217.61 311.491 217.434 311.422 217.211 311.422C216.985 311.422 216.805 311.491 216.673 311.627C216.544 311.76 216.479 311.953 216.479 312.207V313.999H215.659V310.754H216.479V311.147C216.585 311.01 216.719 310.903 216.883 310.825C217.051 310.747 217.235 310.708 217.434 310.708C217.688 310.708 217.914 310.762 218.113 310.872C218.312 310.977 218.467 311.129 218.576 311.328C218.681 311.141 218.834 310.991 219.033 310.877C219.236 310.764 219.455 310.708 219.689 310.708ZM223.114 311.223C223.22 311.075 223.364 310.952 223.548 310.854C223.735 310.753 223.948 310.702 224.186 310.702C224.463 310.702 224.713 310.77 224.936 310.907C225.162 311.043 225.34 311.239 225.469 311.492C225.602 311.742 225.668 312.033 225.668 312.365C225.668 312.697 225.602 312.992 225.469 313.25C225.34 313.503 225.162 313.701 224.936 313.841C224.713 313.982 224.463 314.052 224.186 314.052C223.948 314.052 223.737 314.003 223.554 313.906C223.374 313.808 223.228 313.685 223.114 313.537V315.546H222.294V310.754H223.114V311.223ZM224.83 312.365C224.83 312.17 224.789 312.002 224.707 311.861C224.629 311.717 224.524 311.608 224.391 311.533C224.262 311.459 224.122 311.422 223.97 311.422C223.821 311.422 223.681 311.461 223.548 311.539C223.419 311.614 223.314 311.723 223.232 311.867C223.153 312.012 223.114 312.182 223.114 312.377C223.114 312.572 223.153 312.742 223.232 312.886C223.314 313.031 223.419 313.142 223.548 313.22C223.681 313.294 223.821 313.332 223.97 313.332C224.122 313.332 224.262 313.293 224.391 313.214C224.524 313.136 224.629 313.025 224.707 312.881C224.789 312.736 224.83 312.564 224.83 312.365ZM227.582 309.665V313.999H226.762V309.665H227.582ZM230.331 314.052C230.018 314.052 229.737 313.984 229.487 313.847C229.237 313.706 229.04 313.509 228.896 313.255C228.755 313.002 228.685 312.709 228.685 312.377C228.685 312.045 228.757 311.752 228.901 311.498C229.05 311.245 229.251 311.049 229.505 310.913C229.759 310.772 230.042 310.702 230.354 310.702C230.666 310.702 230.949 310.772 231.203 310.913C231.457 311.049 231.656 311.245 231.801 311.498C231.949 311.752 232.023 312.045 232.023 312.377C232.023 312.709 231.947 313.002 231.795 313.255C231.646 313.509 231.443 313.706 231.186 313.847C230.932 313.984 230.647 314.052 230.331 314.052ZM230.331 313.337C230.479 313.337 230.618 313.302 230.746 313.232C230.879 313.158 230.985 313.048 231.063 312.904C231.141 312.76 231.18 312.584 231.18 312.377C231.18 312.068 231.098 311.832 230.934 311.668C230.774 311.5 230.577 311.416 230.342 311.416C230.108 311.416 229.911 311.5 229.751 311.668C229.595 311.832 229.516 312.068 229.516 312.377C229.516 312.685 229.593 312.924 229.745 313.091C229.901 313.255 230.096 313.337 230.331 313.337ZM236.227 310.754L234.218 315.534H233.345L234.048 313.917L232.748 310.754H233.667L234.505 313.021L235.354 310.754H236.227ZM240.183 312.307C240.183 312.424 240.175 312.529 240.16 312.623H237.788C237.807 312.857 237.889 313.041 238.034 313.173C238.178 313.306 238.356 313.373 238.567 313.373C238.871 313.373 239.088 313.242 239.217 312.98H240.101C240.007 313.293 239.828 313.55 239.562 313.753C239.297 313.952 238.971 314.052 238.584 314.052C238.272 314.052 237.991 313.984 237.741 313.847C237.495 313.706 237.301 313.509 237.161 313.255C237.024 313.002 236.956 312.709 236.956 312.377C236.956 312.041 237.024 311.746 237.161 311.492C237.298 311.239 237.489 311.043 237.735 310.907C237.981 310.77 238.264 310.702 238.584 310.702C238.893 310.702 239.168 310.768 239.41 310.901C239.656 311.034 239.845 311.223 239.978 311.469C240.115 311.711 240.183 311.99 240.183 312.307ZM239.334 312.072C239.33 311.861 239.254 311.694 239.105 311.569C238.957 311.44 238.775 311.375 238.561 311.375C238.358 311.375 238.186 311.438 238.045 311.563C237.909 311.684 237.825 311.854 237.793 312.072H239.334ZM244.296 312.307C244.296 312.424 244.288 312.529 244.272 312.623H241.9C241.92 312.857 242.002 313.041 242.146 313.173C242.291 313.306 242.468 313.373 242.679 313.373C242.984 313.373 243.201 313.242 243.329 312.98H244.214C244.12 313.293 243.94 313.55 243.675 313.753C243.409 313.952 243.083 314.052 242.697 314.052C242.384 314.052 242.103 313.984 241.853 313.847C241.607 313.706 241.414 313.509 241.274 313.255C241.137 313.002 241.069 312.709 241.069 312.377C241.069 312.041 241.137 311.746 241.274 311.492C241.41 311.239 241.602 311.043 241.848 310.907C242.094 310.77 242.377 310.702 242.697 310.702C243.005 310.702 243.281 310.768 243.523 310.901C243.769 311.034 243.958 311.223 244.091 311.469C244.227 311.711 244.296 311.99 244.296 312.307ZM243.447 312.072C243.443 311.861 243.366 311.694 243.218 311.569C243.07 311.44 242.888 311.375 242.673 311.375C242.47 311.375 242.299 311.438 242.158 311.563C242.021 311.684 241.937 311.854 241.906 312.072H243.447ZM210.407 318.911V322.999H209.587V320.34L208.491 322.999H207.871L206.769 320.34V322.999H205.949V318.911H206.881L208.181 321.951L209.481 318.911H210.407ZM211.504 321.365C211.504 321.037 211.569 320.746 211.698 320.492C211.83 320.239 212.008 320.043 212.231 319.907C212.457 319.77 212.709 319.702 212.986 319.702C213.228 319.702 213.439 319.751 213.619 319.848C213.802 319.946 213.949 320.069 214.058 320.217V319.754H214.884V322.999H214.058V322.525C213.953 322.677 213.806 322.804 213.619 322.906C213.435 323.003 213.222 323.052 212.98 323.052C212.707 323.052 212.457 322.982 212.231 322.841C212.008 322.701 211.83 322.503 211.698 322.25C211.569 321.992 211.504 321.697 211.504 321.365ZM214.058 321.377C214.058 321.178 214.019 321.008 213.941 320.867C213.863 320.723 213.757 320.614 213.625 320.539C213.492 320.461 213.349 320.422 213.197 320.422C213.045 320.422 212.904 320.459 212.775 320.533C212.647 320.608 212.541 320.717 212.459 320.861C212.381 321.002 212.342 321.17 212.342 321.365C212.342 321.56 212.381 321.732 212.459 321.881C212.541 322.025 212.647 322.136 212.775 322.214C212.908 322.293 213.049 322.332 213.197 322.332C213.349 322.332 213.492 322.294 213.625 322.22C213.757 322.142 213.863 322.033 213.941 321.892C214.019 321.748 214.058 321.576 214.058 321.377ZM217.981 319.708C218.367 319.708 218.68 319.831 218.918 320.077C219.156 320.319 219.275 320.658 219.275 321.096V322.999H218.455V321.207C218.455 320.949 218.391 320.752 218.262 320.615C218.133 320.475 217.957 320.405 217.735 320.405C217.508 320.405 217.329 320.475 217.196 320.615C217.067 320.752 217.003 320.949 217.003 321.207V322.999H216.183V319.754H217.003V320.159C217.112 320.018 217.251 319.909 217.418 319.831C217.59 319.749 217.778 319.708 217.981 319.708ZM220.342 321.365C220.342 321.037 220.406 320.746 220.535 320.492C220.668 320.239 220.846 320.043 221.068 319.907C221.295 319.77 221.546 319.702 221.824 319.702C222.066 319.702 222.277 319.751 222.456 319.848C222.64 319.946 222.786 320.069 222.896 320.217V319.754H223.721V322.999H222.896V322.525C222.79 322.677 222.644 322.804 222.456 322.906C222.273 323.003 222.06 323.052 221.818 323.052C221.545 323.052 221.295 322.982 221.068 322.841C220.846 322.701 220.668 322.503 220.535 322.25C220.406 321.992 220.342 321.697 220.342 321.365ZM222.896 321.377C222.896 321.178 222.856 321.008 222.778 320.867C222.7 320.723 222.595 320.614 222.462 320.539C222.329 320.461 222.187 320.422 222.035 320.422C221.882 320.422 221.742 320.459 221.613 320.533C221.484 320.608 221.379 320.717 221.297 320.861C221.218 321.002 221.179 321.17 221.179 321.365C221.179 321.56 221.218 321.732 221.297 321.881C221.379 322.025 221.484 322.136 221.613 322.214C221.746 322.293 221.886 322.332 222.035 322.332C222.187 322.332 222.329 322.294 222.462 322.22C222.595 322.142 222.7 322.033 222.778 321.892C222.856 321.748 222.896 321.576 222.896 321.377ZM226.291 319.702C226.533 319.702 226.746 319.751 226.929 319.848C227.113 319.942 227.257 320.065 227.363 320.217V319.754H228.189V323.023C228.189 323.323 228.128 323.591 228.007 323.825C227.886 324.063 227.705 324.251 227.462 324.387C227.22 324.528 226.928 324.598 226.584 324.598C226.123 324.598 225.744 324.491 225.448 324.276C225.155 324.061 224.989 323.768 224.95 323.398H225.764C225.807 323.546 225.899 323.663 226.039 323.749C226.184 323.839 226.357 323.884 226.56 323.884C226.799 323.884 226.992 323.811 227.14 323.667C227.289 323.526 227.363 323.312 227.363 323.023V322.519C227.257 322.671 227.111 322.798 226.924 322.9C226.74 323.001 226.529 323.052 226.291 323.052C226.018 323.052 225.768 322.982 225.541 322.841C225.315 322.701 225.135 322.503 225.003 322.25C224.874 321.992 224.809 321.697 224.809 321.365C224.809 321.037 224.874 320.746 225.003 320.492C225.135 320.239 225.313 320.043 225.536 319.907C225.762 319.77 226.014 319.702 226.291 319.702ZM227.363 321.377C227.363 321.178 227.324 321.008 227.246 320.867C227.168 320.723 227.062 320.614 226.929 320.539C226.797 320.461 226.654 320.422 226.502 320.422C226.35 320.422 226.209 320.459 226.08 320.533C225.951 320.608 225.846 320.717 225.764 320.861C225.686 321.002 225.647 321.17 225.647 321.365C225.647 321.56 225.686 321.732 225.764 321.881C225.846 322.025 225.951 322.136 226.08 322.214C226.213 322.293 226.354 322.332 226.502 322.332C226.654 322.332 226.797 322.294 226.929 322.22C227.062 322.142 227.168 322.033 227.246 321.892C227.324 321.748 227.363 321.576 227.363 321.377ZM232.504 321.307C232.504 321.424 232.496 321.529 232.48 321.623H230.108C230.128 321.857 230.21 322.041 230.354 322.173C230.499 322.306 230.676 322.373 230.887 322.373C231.192 322.373 231.409 322.242 231.537 321.98H232.422C232.328 322.293 232.149 322.55 231.883 322.753C231.617 322.952 231.291 323.052 230.905 323.052C230.592 323.052 230.311 322.984 230.061 322.847C229.815 322.706 229.622 322.509 229.482 322.255C229.345 322.002 229.277 321.709 229.277 321.377C229.277 321.041 229.345 320.746 229.482 320.492C229.618 320.239 229.81 320.043 230.056 319.907C230.302 319.77 230.585 319.702 230.905 319.702C231.213 319.702 231.489 319.768 231.731 319.901C231.977 320.034 232.166 320.223 232.299 320.469C232.435 320.711 232.504 320.99 232.504 321.307ZM231.655 321.072C231.651 320.861 231.575 320.694 231.426 320.569C231.278 320.44 231.096 320.375 230.881 320.375C230.678 320.375 230.507 320.438 230.366 320.563C230.229 320.684 230.145 320.854 230.114 321.072H231.655ZM237.63 319.708C238.028 319.708 238.348 319.831 238.59 320.077C238.836 320.319 238.959 320.658 238.959 321.096V322.999H238.139V321.207C238.139 320.953 238.075 320.76 237.946 320.627C237.817 320.491 237.642 320.422 237.419 320.422C237.196 320.422 237.019 320.491 236.886 320.627C236.757 320.76 236.693 320.953 236.693 321.207V322.999H235.873V321.207C235.873 320.953 235.808 320.76 235.679 320.627C235.551 320.491 235.375 320.422 235.152 320.422C234.926 320.422 234.746 320.491 234.613 320.627C234.485 320.76 234.42 320.953 234.42 321.207V322.999H233.6V319.754H234.42V320.147C234.526 320.01 234.66 319.903 234.824 319.825C234.992 319.747 235.176 319.708 235.375 319.708C235.629 319.708 235.855 319.762 236.054 319.872C236.253 319.977 236.408 320.129 236.517 320.328C236.622 320.141 236.775 319.991 236.974 319.877C237.177 319.764 237.396 319.708 237.63 319.708ZM243.252 321.307C243.252 321.424 243.244 321.529 243.228 321.623H240.856C240.876 321.857 240.958 322.041 241.102 322.173C241.247 322.306 241.424 322.373 241.635 322.373C241.94 322.373 242.156 322.242 242.285 321.98H243.17C243.076 322.293 242.896 322.55 242.631 322.753C242.365 322.952 242.039 323.052 241.653 323.052C241.34 323.052 241.059 322.984 240.809 322.847C240.563 322.706 240.37 322.509 240.229 322.255C240.093 322.002 240.024 321.709 240.024 321.377C240.024 321.041 240.093 320.746 240.229 320.492C240.366 320.239 240.557 320.043 240.803 319.907C241.049 319.77 241.333 319.702 241.653 319.702C241.961 319.702 242.236 319.768 242.479 319.901C242.725 320.034 242.914 320.223 243.047 320.469C243.183 320.711 243.252 320.99 243.252 321.307ZM242.402 321.072C242.399 320.861 242.322 320.694 242.174 320.569C242.026 320.44 241.844 320.375 241.629 320.375C241.426 320.375 241.254 320.438 241.114 320.563C240.977 320.684 240.893 320.854 240.862 321.072H242.402ZM246.146 319.708C246.533 319.708 246.845 319.831 247.083 320.077C247.322 320.319 247.441 320.658 247.441 321.096V322.999H246.621V321.207C246.621 320.949 246.556 320.752 246.427 320.615C246.298 320.475 246.123 320.405 245.9 320.405C245.674 320.405 245.494 320.475 245.361 320.615C245.232 320.752 245.168 320.949 245.168 321.207V322.999H244.348V319.754H245.168V320.159C245.277 320.018 245.416 319.909 245.584 319.831C245.756 319.749 245.943 319.708 246.146 319.708ZM249.673 320.428V321.998C249.673 322.107 249.698 322.187 249.749 322.238C249.804 322.285 249.894 322.308 250.018 322.308H250.399V322.999H249.884C249.193 322.999 248.847 322.663 248.847 321.992V320.428H248.461V319.754H248.847V318.952H249.673V319.754H250.399V320.428H249.673Z" fill="white"/>
<g id="clarity:employee-group-solid">
<g id="Layer 3">
<path id="Vector_11" d="M226.9 290.546C228.602 290.546 229.981 289.183 229.981 287.503C229.981 285.823 228.602 284.461 226.9 284.461C225.199 284.461 223.819 285.823 223.819 287.503C223.819 289.183 225.199 290.546 226.9 290.546Z" fill="white"/>
<path id="Vector_12" d="M222.227 287.807H222.537V287.529C222.539 286.72 222.768 285.927 223.196 285.241C223.625 284.554 224.238 284.002 224.965 283.646C224.749 283.15 224.404 282.722 223.965 282.407C223.527 282.092 223.011 281.902 222.472 281.857C221.934 281.811 221.394 281.913 220.908 282.15C220.423 282.387 220.011 282.751 219.716 283.204C219.421 283.656 219.255 284.18 219.233 284.72C219.212 285.26 219.338 285.795 219.597 286.269C219.855 286.743 220.238 287.139 220.703 287.413C221.168 287.687 221.699 287.83 222.24 287.827L222.227 287.807Z" fill="white"/>
<path id="Vector_13" d="M231.276 287.504V287.782H231.586C232.119 287.777 232.641 287.628 233.096 287.351C233.552 287.074 233.924 286.679 234.174 286.209C234.424 285.738 234.543 285.209 234.518 284.677C234.492 284.144 234.324 283.629 234.03 283.184C233.736 282.739 233.328 282.382 232.849 282.149C232.369 281.917 231.836 281.818 231.304 281.864C230.773 281.909 230.264 282.097 229.831 282.407C229.398 282.717 229.056 283.138 228.842 283.626C229.569 283.981 230.182 284.533 230.612 285.218C231.042 285.903 231.272 286.695 231.276 287.504V287.504Z" fill="white"/>
<path id="Vector_14" d="M229.677 290.85C230.964 291.104 232.208 291.54 233.373 292.144C233.537 292.234 233.685 292.35 233.813 292.487H237.256V290.274C237.257 290.189 237.234 290.105 237.191 290.032C237.148 289.959 237.085 289.9 237.01 289.859C235.333 288.982 233.466 288.527 231.573 288.533H231.146C230.922 289.444 230.406 290.258 229.677 290.85V290.85Z" fill="white"/>
<path id="Vector_15" d="M219.476 293.743C219.475 293.417 219.563 293.097 219.73 292.818C219.898 292.538 220.139 292.31 220.427 292.157C221.592 291.553 222.836 291.118 224.123 290.863C223.398 290.276 222.882 289.47 222.654 288.565H222.227C220.333 288.559 218.467 289.014 216.79 289.892C216.715 289.932 216.652 289.992 216.609 290.065C216.566 290.138 216.543 290.221 216.544 290.306V294.442H219.476V293.743Z" fill="white"/>
<path id="Vector_16" d="M229.139 297.478H232.997V298.384H229.139V297.478Z" fill="white"/>
<path id="Vector_17" d="M236.486 293.963H232.039V293.316C232.039 293.144 231.971 292.979 231.85 292.858C231.728 292.737 231.564 292.668 231.392 292.668C231.221 292.668 231.056 292.737 230.935 292.858C230.813 292.979 230.745 293.144 230.745 293.316V293.963H229.489V292.131C228.638 291.952 227.77 291.859 226.9 291.853C224.857 291.844 222.843 292.338 221.036 293.29C220.955 293.332 220.888 293.395 220.841 293.472C220.794 293.55 220.77 293.639 220.771 293.73V297.361H225.373V301.303C225.373 301.475 225.441 301.639 225.562 301.761C225.684 301.882 225.848 301.95 226.02 301.95H236.486C236.658 301.95 236.822 301.882 236.944 301.761C237.065 301.639 237.133 301.475 237.133 301.303V294.61C237.133 294.439 237.065 294.274 236.944 294.153C236.822 294.031 236.658 293.963 236.486 293.963ZM235.839 300.669H226.667V295.258H230.745V295.847C230.745 296.018 230.813 296.183 230.935 296.304C231.056 296.426 231.221 296.494 231.392 296.494C231.564 296.494 231.728 296.426 231.85 296.304C231.971 296.183 232.039 296.018 232.039 295.847V295.258H235.839V300.669Z" fill="white"/>
</g>
</g>
</g>
</g>
<g id="support">
<circle id="Ellipse 22" cx="119.421" cy="300.882" r="36.1176" fill="#003755" fill-opacity="0.9"/>
<g id="Group 32">
<path id="24x7 Support" d="M97.8725 318.899C98.2473 318.587 98.546 318.327 98.7686 318.12C98.9911 317.909 99.1766 317.691 99.325 317.464C99.4734 317.238 99.5476 317.015 99.5476 316.797C99.5476 316.597 99.5007 316.441 99.407 316.328C99.3133 316.215 99.1688 316.158 98.9736 316.158C98.7783 316.158 98.628 316.225 98.5226 316.357C98.4172 316.486 98.3625 316.664 98.3586 316.89H97.562C97.5777 316.422 97.7163 316.066 97.9779 315.824C98.2434 315.582 98.5792 315.461 98.9853 315.461C99.4304 315.461 99.7721 315.58 100.01 315.818C100.248 316.053 100.368 316.363 100.368 316.75C100.368 317.054 100.286 317.345 100.122 317.622C99.9576 317.9 99.7701 318.142 99.5593 318.349C99.3484 318.552 99.0731 318.798 98.7334 319.087H100.461V319.766H97.5679V319.157L97.8725 318.899ZM101.441 318.993V318.349L103.356 315.608H104.311V318.278H104.826V318.993H104.311V319.825H103.491V318.993H101.441ZM103.543 316.486L102.343 318.278H103.543V316.486ZM107.732 319.825L107.064 318.817L106.473 319.825H105.594L106.654 318.196L105.582 316.58H106.508L107.17 317.581L107.767 316.58H108.646L107.58 318.196L108.657 319.825H107.732ZM112.224 316.176L110.667 319.825H109.835L111.404 316.269H109.401V315.567H112.224V316.176ZM116.612 319.866C116.327 319.866 116.069 319.817 115.839 319.719C115.613 319.622 115.433 319.481 115.3 319.298C115.167 319.114 115.099 318.897 115.095 318.647H115.974C115.985 318.815 116.044 318.948 116.149 319.046C116.259 319.143 116.407 319.192 116.595 319.192C116.786 319.192 116.936 319.147 117.046 319.057C117.155 318.964 117.21 318.843 117.21 318.694C117.21 318.573 117.173 318.474 117.098 318.396C117.024 318.317 116.93 318.257 116.817 318.214C116.708 318.167 116.556 318.116 116.36 318.062C116.095 317.984 115.878 317.908 115.71 317.833C115.546 317.755 115.404 317.64 115.283 317.488C115.165 317.332 115.107 317.125 115.107 316.867C115.107 316.625 115.167 316.414 115.288 316.234C115.41 316.055 115.579 315.918 115.798 315.824C116.017 315.727 116.267 315.678 116.548 315.678C116.969 315.678 117.311 315.781 117.573 315.988C117.838 316.191 117.985 316.476 118.012 316.843H117.11C117.102 316.703 117.042 316.588 116.928 316.498C116.819 316.404 116.673 316.357 116.489 316.357C116.329 316.357 116.2 316.398 116.103 316.48C116.009 316.562 115.962 316.681 115.962 316.838C115.962 316.947 115.997 317.039 116.067 317.113C116.142 317.183 116.231 317.242 116.337 317.289C116.446 317.332 116.599 317.382 116.794 317.441C117.059 317.519 117.276 317.597 117.444 317.675C117.612 317.753 117.756 317.87 117.877 318.027C117.998 318.183 118.059 318.388 118.059 318.642C118.059 318.86 118.002 319.063 117.889 319.251C117.776 319.438 117.61 319.588 117.391 319.702C117.173 319.811 116.913 319.866 116.612 319.866ZM122.331 316.58V319.825H121.505V319.415C121.4 319.555 121.261 319.667 121.089 319.749C120.921 319.827 120.738 319.866 120.539 319.866C120.285 319.866 120.06 319.813 119.865 319.708C119.67 319.598 119.516 319.44 119.402 319.233C119.293 319.022 119.238 318.772 119.238 318.483V316.58H120.058V318.366C120.058 318.624 120.123 318.823 120.252 318.964C120.38 319.1 120.556 319.169 120.779 319.169C121.005 319.169 121.183 319.1 121.312 318.964C121.441 318.823 121.505 318.624 121.505 318.366V316.58H122.331ZM124.458 317.048C124.563 316.9 124.708 316.777 124.891 316.679C125.079 316.578 125.291 316.527 125.53 316.527C125.807 316.527 126.057 316.596 126.279 316.732C126.506 316.869 126.683 317.064 126.812 317.318C126.945 317.568 127.011 317.859 127.011 318.191C127.011 318.522 126.945 318.817 126.812 319.075C126.683 319.329 126.506 319.526 126.279 319.667C126.057 319.807 125.807 319.877 125.53 319.877C125.291 319.877 125.081 319.829 124.897 319.731C124.717 319.633 124.571 319.51 124.458 319.362V321.371H123.638V316.58H124.458V317.048ZM126.174 318.191C126.174 317.995 126.133 317.827 126.051 317.687C125.973 317.542 125.867 317.433 125.735 317.359C125.606 317.285 125.465 317.248 125.313 317.248C125.164 317.248 125.024 317.287 124.891 317.365C124.762 317.439 124.657 317.548 124.575 317.693C124.497 317.837 124.458 318.007 124.458 318.202C124.458 318.398 124.497 318.567 124.575 318.712C124.657 318.856 124.762 318.968 124.891 319.046C125.024 319.12 125.164 319.157 125.313 319.157C125.465 319.157 125.606 319.118 125.735 319.04C125.867 318.962 125.973 318.85 126.051 318.706C126.133 318.562 126.174 318.39 126.174 318.191ZM128.925 317.048C129.031 316.9 129.175 316.777 129.359 316.679C129.546 316.578 129.759 316.527 129.997 316.527C130.274 316.527 130.524 316.596 130.747 316.732C130.973 316.869 131.151 317.064 131.28 317.318C131.412 317.568 131.479 317.859 131.479 318.191C131.479 318.522 131.412 318.817 131.28 319.075C131.151 319.329 130.973 319.526 130.747 319.667C130.524 319.807 130.274 319.877 129.997 319.877C129.759 319.877 129.548 319.829 129.364 319.731C129.185 319.633 129.038 319.51 128.925 319.362V321.371H128.105V316.58H128.925V317.048ZM130.641 318.191C130.641 317.995 130.6 317.827 130.518 317.687C130.44 317.542 130.335 317.433 130.202 317.359C130.073 317.285 129.933 317.248 129.78 317.248C129.632 317.248 129.491 317.287 129.359 317.365C129.23 317.439 129.124 317.548 129.042 317.693C128.964 317.837 128.925 318.007 128.925 318.202C128.925 318.398 128.964 318.567 129.042 318.712C129.124 318.856 129.23 318.968 129.359 319.046C129.491 319.12 129.632 319.157 129.78 319.157C129.933 319.157 130.073 319.118 130.202 319.04C130.335 318.962 130.44 318.85 130.518 318.706C130.6 318.562 130.641 318.39 130.641 318.191ZM134.013 319.877C133.701 319.877 133.42 319.809 133.17 319.672C132.92 319.532 132.723 319.335 132.578 319.081C132.438 318.827 132.367 318.534 132.367 318.202C132.367 317.87 132.44 317.578 132.584 317.324C132.733 317.07 132.934 316.875 133.187 316.738C133.441 316.597 133.724 316.527 134.037 316.527C134.349 316.527 134.632 316.597 134.886 316.738C135.14 316.875 135.339 317.07 135.483 317.324C135.632 317.578 135.706 317.87 135.706 318.202C135.706 318.534 135.63 318.827 135.478 319.081C135.329 319.335 135.126 319.532 134.868 319.672C134.615 319.809 134.33 319.877 134.013 319.877ZM134.013 319.163C134.162 319.163 134.3 319.128 134.429 319.057C134.562 318.983 134.667 318.874 134.745 318.729C134.824 318.585 134.863 318.409 134.863 318.202C134.863 317.894 134.781 317.658 134.617 317.494C134.456 317.326 134.259 317.242 134.025 317.242C133.791 317.242 133.594 317.326 133.433 317.494C133.277 317.658 133.199 317.894 133.199 318.202C133.199 318.511 133.275 318.749 133.428 318.917C133.584 319.081 133.779 319.163 134.013 319.163ZM137.625 317.084C137.731 316.912 137.867 316.777 138.035 316.679C138.207 316.582 138.402 316.533 138.621 316.533V317.394H138.404C138.147 317.394 137.951 317.455 137.819 317.576C137.69 317.697 137.625 317.908 137.625 318.208V319.825H136.805V316.58H137.625V317.084ZM140.626 317.253V318.823C140.626 318.932 140.651 319.013 140.702 319.063C140.757 319.11 140.846 319.134 140.971 319.134H141.352V319.825H140.837C140.146 319.825 139.8 319.489 139.8 318.817V317.253H139.413V316.58H139.8V315.777H140.626V316.58H141.352V317.253H140.626Z" fill="white"/>
<g id="ic:baseline-support">
<path id="Vector_18" d="M119.421 282.387C113.392 282.387 108.498 287.28 108.498 293.31C108.498 299.339 113.392 304.232 119.421 304.232C125.45 304.232 130.344 299.339 130.344 293.31C130.344 287.28 125.45 282.387 119.421 282.387ZM127.569 290.164L124.533 291.42C124.259 290.684 123.83 290.016 123.273 289.462C122.717 288.907 122.048 288.48 121.311 288.209L122.567 285.172C124.86 286.046 126.685 287.87 127.569 290.164V290.164ZM119.421 296.586C117.608 296.586 116.144 295.123 116.144 293.31C116.144 291.496 117.608 290.033 119.421 290.033C121.234 290.033 122.698 291.496 122.698 293.31C122.698 295.123 121.234 296.586 119.421 296.586ZM116.286 285.161L117.564 288.198C116.818 288.47 116.141 288.901 115.579 289.461C115.017 290.021 114.583 290.697 114.309 291.442L111.273 290.175C111.711 289.035 112.383 287.999 113.247 287.136C114.111 286.272 115.146 285.599 116.286 285.161V285.161ZM111.273 296.444L114.309 295.188C114.581 295.931 115.013 296.605 115.573 297.164C116.134 297.722 116.809 298.152 117.553 298.421L116.275 301.458C115.137 301.018 114.105 300.344 113.243 299.481C112.381 298.618 111.71 297.583 111.273 296.444V296.444ZM122.567 301.458L121.311 298.421C122.051 298.147 122.723 297.715 123.279 297.155C123.836 296.594 124.263 295.92 124.533 295.177L127.569 296.455C127.13 297.592 126.458 298.624 125.596 299.485C124.735 300.347 123.703 301.018 122.567 301.458V301.458Z" fill="white"/>
</g>
</g>
</g>
<g id="secure">
<circle id="Ellipse 21" cx="38.7391" cy="226.317" r="36.1176" fill="#003755" fill-opacity="0.9"/>
<g id="Group 33">
<path id="Highly Secure" d="M19.1453 240.297V244.385H18.3253V242.646H16.574V244.385H15.7541V240.297H16.574V241.978H18.3253V240.297H19.1453ZM20.8661 240.754C20.7216 240.754 20.6005 240.709 20.5029 240.619C20.4092 240.525 20.3624 240.41 20.3624 240.274C20.3624 240.137 20.4092 240.024 20.5029 239.934C20.6005 239.84 20.7216 239.793 20.8661 239.793C21.0105 239.793 21.1296 239.84 21.2233 239.934C21.321 240.024 21.3698 240.137 21.3698 240.274C21.3698 240.41 21.321 240.525 21.2233 240.619C21.1296 240.709 21.0105 240.754 20.8661 240.754ZM21.2702 241.14V244.385H20.4502V241.14H21.2702ZM23.8492 241.088C24.0913 241.088 24.3041 241.137 24.4876 241.234C24.6711 241.328 24.8156 241.451 24.921 241.603V241.14H25.7468V244.409C25.7468 244.709 25.6863 244.977 25.5653 245.211C25.4442 245.449 25.2627 245.637 25.0206 245.773C24.7785 245.914 24.4856 245.984 24.142 245.984C23.6813 245.984 23.3025 245.877 23.0058 245.662C22.7129 245.447 22.547 245.154 22.5079 244.784H23.322C23.365 244.932 23.4567 245.049 23.5973 245.135C23.7418 245.225 23.9155 245.27 24.1186 245.27C24.3568 245.27 24.5501 245.197 24.6984 245.053C24.8468 244.912 24.921 244.698 24.921 244.409V243.905C24.8156 244.057 24.6692 244.184 24.4817 244.286C24.2982 244.387 24.0874 244.438 23.8492 244.438C23.5758 244.438 23.3259 244.368 23.0995 244.227C22.873 244.087 22.6934 243.889 22.5606 243.636C22.4318 243.378 22.3673 243.083 22.3673 242.751C22.3673 242.423 22.4318 242.132 22.5606 241.878C22.6934 241.625 22.871 241.429 23.0936 241.293C23.3201 241.156 23.5719 241.088 23.8492 241.088ZM24.921 242.763C24.921 242.564 24.882 242.394 24.8039 242.253C24.7258 242.109 24.6203 241.999 24.4876 241.925C24.3548 241.847 24.2123 241.808 24.06 241.808C23.9077 241.808 23.7672 241.845 23.6383 241.919C23.5095 241.994 23.404 242.103 23.322 242.247C23.2439 242.388 23.2049 242.556 23.2049 242.751C23.2049 242.946 23.2439 243.118 23.322 243.267C23.404 243.411 23.5095 243.522 23.6383 243.6C23.7711 243.679 23.9116 243.718 24.06 243.718C24.2123 243.718 24.3548 243.68 24.4876 243.606C24.6203 243.528 24.7258 243.419 24.8039 243.278C24.882 243.134 24.921 242.962 24.921 242.763ZM28.8729 241.094C29.1189 241.094 29.3376 241.148 29.5289 241.258C29.7203 241.363 29.8686 241.521 29.9741 241.732C30.0834 241.939 30.1381 242.189 30.1381 242.482V244.385H29.3181V242.593C29.3181 242.335 29.2537 242.138 29.1248 242.001C28.9959 241.861 28.8202 241.791 28.5977 241.791C28.3712 241.791 28.1916 241.861 28.0588 242.001C27.93 242.138 27.8655 242.335 27.8655 242.593V244.385H27.0456V240.051H27.8655V241.545C27.971 241.404 28.1115 241.295 28.2872 241.217C28.463 241.135 28.6582 241.094 28.8729 241.094ZM32.2357 240.051V244.385H31.4157V240.051H32.2357ZM36.6479 241.14L34.6389 245.92H33.7662L34.4691 244.303L33.1688 241.14H34.0884L34.9259 243.407L35.7752 241.14H36.6479ZM40.8928 244.426C40.6077 244.426 40.35 244.377 40.1197 244.28C39.8932 244.182 39.7136 244.042 39.5808 243.858C39.448 243.675 39.3797 243.458 39.3758 243.208H40.2544C40.2661 243.376 40.3246 243.509 40.4301 243.606C40.5394 243.704 40.6878 243.753 40.8752 243.753C41.0665 243.753 41.2169 243.708 41.3262 243.618C41.4355 243.524 41.4902 243.403 41.4902 243.255C41.4902 243.134 41.4531 243.034 41.3789 242.956C41.3047 242.878 41.211 242.818 41.0978 242.775C40.9884 242.728 40.8362 242.677 40.6409 242.622C40.3754 242.544 40.1587 242.468 39.9908 242.394C39.8268 242.316 39.6843 242.201 39.5632 242.048C39.4461 241.892 39.3875 241.685 39.3875 241.427C39.3875 241.185 39.448 240.975 39.5691 240.795C39.6901 240.615 39.86 240.479 40.0787 240.385C40.2973 240.287 40.5472 240.238 40.8284 240.238C41.2501 240.238 41.5917 240.342 41.8533 240.549C42.1189 240.752 42.2653 241.037 42.2926 241.404H41.3906C41.3828 241.263 41.3223 241.148 41.2091 241.058C41.0997 240.965 40.9533 240.918 40.7698 240.918C40.6097 240.918 40.4808 240.959 40.3832 241.041C40.2895 241.123 40.2426 241.242 40.2426 241.398C40.2426 241.507 40.2778 241.599 40.3481 241.673C40.4223 241.744 40.5121 241.802 40.6175 241.849C40.7268 241.892 40.8791 241.943 41.0743 242.001C41.3399 242.08 41.5566 242.158 41.7245 242.236C41.8924 242.314 42.0369 242.431 42.1579 242.587C42.2789 242.743 42.3395 242.948 42.3395 243.202C42.3395 243.421 42.2829 243.624 42.1696 243.811C42.0564 243.999 41.8904 244.149 41.6718 244.262C41.4531 244.372 41.1934 244.426 40.8928 244.426ZM46.5646 242.693C46.5646 242.81 46.5568 242.915 46.5412 243.009H44.1691C44.1886 243.243 44.2706 243.427 44.4151 243.559C44.5595 243.692 44.7372 243.759 44.948 243.759C45.2526 243.759 45.4693 243.628 45.5982 243.366H46.4826C46.3889 243.679 46.2093 243.936 45.9437 244.139C45.6782 244.338 45.3522 244.438 44.9656 244.438C44.6532 244.438 44.3721 244.37 44.1222 244.233C43.8762 244.092 43.6829 243.895 43.5424 243.641C43.4057 243.388 43.3374 243.095 43.3374 242.763C43.3374 242.427 43.4057 242.132 43.5424 241.878C43.679 241.625 43.8703 241.429 44.1163 241.293C44.3623 241.156 44.6454 241.088 44.9656 241.088C45.2741 241.088 45.5494 241.154 45.7915 241.287C46.0375 241.42 46.2268 241.609 46.3596 241.855C46.4963 242.097 46.5646 242.376 46.5646 242.693ZM45.7153 242.458C45.7114 242.247 45.6353 242.08 45.4869 241.955C45.3385 241.826 45.1569 241.761 44.9422 241.761C44.7391 241.761 44.5673 241.824 44.4268 241.949C44.2901 242.07 44.2062 242.24 44.1749 242.458H45.7153ZM47.4501 242.763C47.4501 242.427 47.5184 242.134 47.6551 241.884C47.7918 241.63 47.9811 241.435 48.2232 241.299C48.4653 241.158 48.7426 241.088 49.0549 241.088C49.4571 241.088 49.789 241.189 50.0506 241.392C50.3161 241.591 50.4938 241.873 50.5836 242.236H49.6992C49.6523 242.095 49.5723 241.986 49.4591 241.908C49.3497 241.826 49.2131 241.785 49.0491 241.785C48.8148 241.785 48.6293 241.871 48.4927 242.042C48.356 242.21 48.2877 242.45 48.2877 242.763C48.2877 243.071 48.356 243.311 48.4927 243.483C48.6293 243.651 48.8148 243.735 49.0491 243.735C49.381 243.735 49.5977 243.587 49.6992 243.29H50.5836C50.4938 243.641 50.3161 243.921 50.0506 244.128C49.7851 244.334 49.4532 244.438 49.0549 244.438C48.7426 244.438 48.4653 244.37 48.2232 244.233C47.9811 244.092 47.7918 243.897 47.6551 243.647C47.5184 243.393 47.4501 243.099 47.4501 242.763ZM54.7454 241.14V244.385H53.9196V243.975C53.8141 244.116 53.6755 244.227 53.5037 244.309C53.3358 244.387 53.1523 244.426 52.9532 244.426C52.6993 244.426 52.4748 244.374 52.2796 244.268C52.0844 244.159 51.9301 244.001 51.8169 243.794C51.7076 243.583 51.6529 243.333 51.6529 243.044V241.14H52.4729V242.927C52.4729 243.185 52.5373 243.384 52.6662 243.524C52.795 243.661 52.9707 243.729 53.1933 243.729C53.4198 243.729 53.5974 243.661 53.7263 243.524C53.8551 243.384 53.9196 243.185 53.9196 242.927V241.14H54.7454ZM56.8723 241.644C56.9777 241.472 57.1144 241.338 57.2823 241.24C57.4541 241.142 57.6493 241.094 57.868 241.094V241.955H57.6513C57.3936 241.955 57.1983 242.015 57.0656 242.136C56.9367 242.257 56.8723 242.468 56.8723 242.769V244.385H56.0523V241.14H56.8723V241.644ZM61.9345 242.693C61.9345 242.81 61.9267 242.915 61.9111 243.009H59.539C59.5585 243.243 59.6405 243.427 59.785 243.559C59.9294 243.692 60.1071 243.759 60.318 243.759C60.6225 243.759 60.8392 243.628 60.9681 243.366H61.8525C61.7588 243.679 61.5792 243.936 61.3137 244.139C61.0481 244.338 60.7221 244.438 60.3355 244.438C60.0232 244.438 59.742 244.37 59.4921 244.233C59.2461 244.092 59.0528 243.895 58.9123 243.641C58.7756 243.388 58.7073 243.095 58.7073 242.763C58.7073 242.427 58.7756 242.132 58.9123 241.878C59.0489 241.625 59.2403 241.429 59.4863 241.293C59.7323 241.156 60.0153 241.088 60.3355 241.088C60.644 241.088 60.9193 241.154 61.1614 241.287C61.4074 241.42 61.5967 241.609 61.7295 241.855C61.8662 242.097 61.9345 242.376 61.9345 242.693ZM61.0852 242.458C61.0813 242.247 61.0052 242.08 60.8568 241.955C60.7084 241.826 60.5269 241.761 60.3121 241.761C60.1091 241.761 59.9373 241.824 59.7967 241.949C59.66 242.07 59.5761 242.24 59.5448 242.458H61.0852Z" fill="white"/>
<g id="bi:shield-lock-fill" clip-path="url(#clip1)">
<path id="Vector_19" fill-rule="evenodd" clip-rule="evenodd" d="M38.7396 207.676C37.7348 207.676 36.0556 208.062 34.4754 208.491C32.8589 208.928 31.2292 209.445 30.271 209.758C29.8703 209.891 29.5151 210.133 29.2461 210.458C28.9772 210.784 28.8054 211.178 28.7505 211.596C27.8825 218.116 29.8967 222.949 32.3404 226.145C33.3767 227.513 34.6124 228.717 36.0061 229.718C36.5682 230.115 37.0896 230.42 37.5323 230.628C37.9401 230.82 38.3785 230.977 38.7396 230.977C39.1008 230.977 39.5377 230.82 39.947 230.628C40.4807 230.368 40.9913 230.064 41.4732 229.718C42.8669 228.717 44.1026 227.513 45.1389 226.145C47.5826 222.949 49.5968 218.116 48.7288 211.596C48.674 211.178 48.5022 210.783 48.2333 210.458C47.9644 210.132 47.6091 209.889 47.2083 209.757C45.8172 209.301 44.4153 208.878 43.0038 208.49C41.4237 208.063 39.7445 207.676 38.7396 207.676ZM38.7396 214.958C39.2555 214.957 39.7551 215.139 40.1497 215.471C40.5444 215.803 40.8088 216.264 40.896 216.773C40.9832 217.281 40.8877 217.804 40.6263 218.249C40.3649 218.694 39.9545 219.032 39.4678 219.203L40.0285 222.101C40.0489 222.206 40.0458 222.315 40.0193 222.419C39.9928 222.523 39.9436 222.62 39.8752 222.703C39.8069 222.786 39.7211 222.852 39.624 222.898C39.5269 222.944 39.4208 222.968 39.3134 222.967H38.1658C38.0586 222.967 37.9527 222.943 37.8558 222.898C37.7588 222.852 37.6732 222.785 37.605 222.702C37.5369 222.619 37.4878 222.523 37.4614 222.419C37.435 222.315 37.4319 222.206 37.4522 222.101L38.0115 219.203C37.5248 219.032 37.1144 218.694 36.853 218.249C36.5916 217.804 36.4961 217.281 36.5833 216.773C36.6705 216.264 36.9349 215.803 37.3296 215.471C37.7242 215.139 38.2237 214.957 38.7396 214.958V214.958Z" fill="white"/>
</g>
</g>
</g>
<g id="parking">
<circle id="Ellipse 20" cx="36.1178" cy="120.295" r="36.1176" fill="#003755" fill-opacity="0.9"/>
<g id="Group 34">
<path id="Parking Management" d="M25.6665 129.132C25.6665 129.351 25.6138 129.556 25.5084 129.747C25.4069 129.939 25.2448 130.093 25.0223 130.21C24.8036 130.327 24.5264 130.386 24.1906 130.386H23.5053V131.955H22.6853V127.867H24.1906C24.5068 127.867 24.7763 127.922 24.9988 128.031C25.2214 128.14 25.3873 128.291 25.4967 128.482C25.6099 128.673 25.6665 128.89 25.6665 129.132ZM24.1554 129.724C24.3819 129.724 24.5498 129.673 24.6591 129.572C24.7684 129.466 24.8231 129.32 24.8231 129.132C24.8231 128.734 24.6005 128.535 24.1554 128.535H23.5053V129.724H24.1554ZM26.5357 130.321C26.5357 129.993 26.6001 129.702 26.729 129.449C26.8617 129.195 27.0394 128.999 27.262 128.863C27.4884 128.726 27.7403 128.658 28.0175 128.658C28.2596 128.658 28.4705 128.707 28.6501 128.804C28.8336 128.902 28.98 129.025 29.0894 129.173V128.711H29.9152V131.955H29.0894V131.481C28.9839 131.633 28.8375 131.76 28.6501 131.862C28.4666 131.959 28.2538 132.008 28.0117 132.008C27.7383 132.008 27.4884 131.938 27.262 131.797C27.0394 131.657 26.8617 131.459 26.729 131.206C26.6001 130.948 26.5357 130.653 26.5357 130.321ZM29.0894 130.333C29.0894 130.134 29.0503 129.964 28.9722 129.823C28.8941 129.679 28.7887 129.57 28.6559 129.495C28.5232 129.417 28.3807 129.378 28.2284 129.378C28.0761 129.378 27.9355 129.415 27.8067 129.49C27.6778 129.564 27.5724 129.673 27.4904 129.818C27.4123 129.958 27.3733 130.126 27.3733 130.321C27.3733 130.516 27.4123 130.688 27.4904 130.837C27.5724 130.981 27.6778 131.092 27.8067 131.17C27.9394 131.249 28.08 131.288 28.2284 131.288C28.3807 131.288 28.5232 131.251 28.6559 131.176C28.7887 131.098 28.8941 130.989 28.9722 130.848C29.0503 130.704 29.0894 130.532 29.0894 130.333ZM32.0339 129.214C32.1393 129.042 32.276 128.908 32.4439 128.81C32.6157 128.712 32.8109 128.664 33.0296 128.664V129.525H32.8129C32.5552 129.525 32.3599 129.585 32.2272 129.706C32.0983 129.827 32.0339 130.038 32.0339 130.339V131.955H31.2139V128.711H32.0339V129.214ZM36.0009 131.955L34.8997 130.573V131.955H34.0797V127.621H34.8997V130.087L35.9891 128.711H37.0551L35.626 130.339L37.0668 131.955H36.0009ZM38.4139 128.324C38.2694 128.324 38.1483 128.279 38.0507 128.189C37.957 128.096 37.9102 127.98 37.9102 127.844C37.9102 127.707 37.957 127.594 38.0507 127.504C38.1483 127.41 38.2694 127.363 38.4139 127.363C38.5583 127.363 38.6774 127.41 38.7711 127.504C38.8688 127.594 38.9176 127.707 38.9176 127.844C38.9176 127.98 38.8688 128.096 38.7711 128.189C38.6774 128.279 38.5583 128.324 38.4139 128.324ZM38.818 128.711V131.955H37.998V128.711H38.818ZM41.9241 128.664C42.3107 128.664 42.623 128.787 42.8612 129.033C43.0994 129.275 43.2185 129.614 43.2185 130.052V131.955H42.3985V130.163C42.3985 129.905 42.3341 129.708 42.2052 129.572C42.0764 129.431 41.9007 129.361 41.6781 129.361C41.4516 129.361 41.272 129.431 41.1393 129.572C41.0104 129.708 40.946 129.905 40.946 130.163V131.955H40.126V128.711H40.946V129.115C41.0553 128.974 41.1939 128.865 41.3618 128.787C41.5336 128.705 41.7211 128.664 41.9241 128.664ZM45.7671 128.658C46.0092 128.658 46.222 128.707 46.4055 128.804C46.589 128.898 46.7335 129.021 46.8389 129.173V128.711H47.6648V131.979C47.6648 132.279 47.6043 132.547 47.4832 132.781C47.3622 133.019 47.1806 133.207 46.9385 133.343C46.6964 133.484 46.4036 133.554 46.06 133.554C45.5992 133.554 45.2204 133.447 44.9237 133.232C44.6308 133.017 44.4649 132.725 44.4258 132.354H45.24C45.2829 132.502 45.3747 132.619 45.5152 132.705C45.6597 132.795 45.8335 132.84 46.0365 132.84C46.2747 132.84 46.468 132.767 46.6164 132.623C46.7647 132.482 46.8389 132.268 46.8389 131.979V131.475C46.7335 131.627 46.5871 131.754 46.3997 131.856C46.2161 131.957 46.0053 132.008 45.7671 132.008C45.4938 132.008 45.2439 131.938 45.0174 131.797C44.7909 131.657 44.6113 131.459 44.4786 131.206C44.3497 130.948 44.2853 130.653 44.2853 130.321C44.2853 129.993 44.3497 129.702 44.4786 129.449C44.6113 129.195 44.789 128.999 45.0115 128.863C45.238 128.726 45.4899 128.658 45.7671 128.658ZM46.8389 130.333C46.8389 130.134 46.7999 129.964 46.7218 129.823C46.6437 129.679 46.5383 129.57 46.4055 129.495C46.2728 129.417 46.1302 129.378 45.978 129.378C45.8257 129.378 45.6851 129.415 45.5562 129.49C45.4274 129.564 45.322 129.673 45.24 129.818C45.1619 129.958 45.1228 130.126 45.1228 130.321C45.1228 130.516 45.1619 130.688 45.24 130.837C45.322 130.981 45.4274 131.092 45.5562 131.17C45.689 131.249 45.8296 131.288 45.978 131.288C46.1302 131.288 46.2728 131.251 46.4055 131.176C46.5383 131.098 46.6437 130.989 46.7218 130.848C46.7999 130.704 46.8389 130.532 46.8389 130.333ZM18.4597 136.867V140.955H17.6397V138.296L16.5444 140.955H15.9236L14.8225 138.296V140.955H14.0025V136.867H14.9337L16.234 139.907L17.5343 136.867H18.4597ZM19.5574 139.321C19.5574 138.993 19.6218 138.702 19.7506 138.449C19.8834 138.195 20.0611 137.999 20.2836 137.863C20.5101 137.726 20.762 137.658 21.0392 137.658C21.2813 137.658 21.4921 137.707 21.6718 137.804C21.8553 137.902 22.0017 138.025 22.111 138.173V137.711H22.9369V140.955H22.111V140.481C22.0056 140.633 21.8592 140.76 21.6718 140.862C21.4882 140.959 21.2754 141.008 21.0333 141.008C20.76 141.008 20.5101 140.938 20.2836 140.797C20.0611 140.657 19.8834 140.459 19.7506 140.206C19.6218 139.948 19.5574 139.653 19.5574 139.321ZM22.111 139.333C22.111 139.134 22.072 138.964 21.9939 138.823C21.9158 138.679 21.8104 138.57 21.6776 138.495C21.5448 138.417 21.4023 138.378 21.25 138.378C21.0978 138.378 20.9572 138.415 20.8283 138.49C20.6995 138.564 20.5941 138.673 20.5121 138.818C20.434 138.958 20.3949 139.126 20.3949 139.321C20.3949 139.516 20.434 139.688 20.5121 139.837C20.5941 139.981 20.6995 140.092 20.8283 140.17C20.9611 140.249 21.1017 140.288 21.25 140.288C21.4023 140.288 21.5448 140.251 21.6776 140.176C21.8104 140.098 21.9158 139.989 21.9939 139.848C22.072 139.704 22.111 139.532 22.111 139.333ZM26.0337 137.664C26.4203 137.664 26.7326 137.787 26.9708 138.033C27.209 138.275 27.3281 138.614 27.3281 139.052V140.955H26.5081V139.163C26.5081 138.905 26.4437 138.708 26.3148 138.572C26.186 138.431 26.0103 138.361 25.7877 138.361C25.5612 138.361 25.3816 138.431 25.2488 138.572C25.12 138.708 25.0556 138.905 25.0556 139.163V140.955H24.2356V137.711H25.0556V138.115C25.1649 137.974 25.3035 137.865 25.4714 137.787C25.6432 137.705 25.8306 137.664 26.0337 137.664ZM28.3949 139.321C28.3949 138.993 28.4593 138.702 28.5881 138.449C28.7209 138.195 28.8986 137.999 29.1211 137.863C29.3476 137.726 29.5995 137.658 29.8767 137.658C30.1188 137.658 30.3296 137.707 30.5092 137.804C30.6928 137.902 30.8392 138.025 30.9485 138.173V137.711H31.7744V140.955H30.9485V140.481C30.8431 140.633 30.6967 140.76 30.5092 140.862C30.3257 140.959 30.1129 141.008 29.8708 141.008C29.5975 141.008 29.3476 140.938 29.1211 140.797C28.8986 140.657 28.7209 140.459 28.5881 140.206C28.4593 139.948 28.3949 139.653 28.3949 139.321ZM30.9485 139.333C30.9485 139.134 30.9095 138.964 30.8314 138.823C30.7533 138.679 30.6479 138.57 30.5151 138.495C30.3823 138.417 30.2398 138.378 30.0875 138.378C29.9353 138.378 29.7947 138.415 29.6658 138.49C29.537 138.564 29.4315 138.673 29.3495 138.818C29.2715 138.958 29.2324 139.126 29.2324 139.321C29.2324 139.516 29.2715 139.688 29.3495 139.837C29.4315 139.981 29.537 140.092 29.6658 140.17C29.7986 140.249 29.9392 140.288 30.0875 140.288C30.2398 140.288 30.3823 140.251 30.5151 140.176C30.6479 140.098 30.7533 139.989 30.8314 139.848C30.9095 139.704 30.9485 139.532 30.9485 139.333ZM34.344 137.658C34.5861 137.658 34.7989 137.707 34.9825 137.804C35.166 137.898 35.3105 138.021 35.4159 138.173V137.711H36.2417V140.979C36.2417 141.279 36.1812 141.547 36.0602 141.781C35.9391 142.019 35.7575 142.207 35.5155 142.343C35.2734 142.484 34.9805 142.554 34.6369 142.554C34.1761 142.554 33.7974 142.447 33.5006 142.232C33.2078 142.017 33.0418 141.725 33.0028 141.354H33.8169C33.8599 141.502 33.9516 141.619 34.0922 141.705C34.2367 141.795 34.4104 141.84 34.6135 141.84C34.8517 141.84 35.0449 141.767 35.1933 141.623C35.3417 141.482 35.4159 141.268 35.4159 140.979V140.475C35.3105 140.627 35.164 140.754 34.9766 140.856C34.7931 140.957 34.5822 141.008 34.344 141.008C34.0707 141.008 33.8208 140.938 33.5943 140.797C33.3679 140.657 33.1883 140.459 33.0555 140.206C32.9266 139.948 32.8622 139.653 32.8622 139.321C32.8622 138.993 32.9266 138.702 33.0555 138.449C33.1883 138.195 33.3659 137.999 33.5885 137.863C33.815 137.726 34.0668 137.658 34.344 137.658ZM35.4159 139.333C35.4159 139.134 35.3768 138.964 35.2987 138.823C35.2206 138.679 35.1152 138.57 34.9825 138.495C34.8497 138.417 34.7072 138.378 34.5549 138.378C34.4026 138.378 34.262 138.415 34.1332 138.49C34.0043 138.564 33.8989 138.673 33.8169 138.818C33.7388 138.958 33.6998 139.126 33.6998 139.321C33.6998 139.516 33.7388 139.688 33.8169 139.837C33.8989 139.981 34.0043 140.092 34.1332 140.17C34.266 140.249 34.4065 140.288 34.5549 140.288C34.7072 140.288 34.8497 140.251 34.9825 140.176C35.1152 140.098 35.2206 139.989 35.2987 139.848C35.3768 139.704 35.4159 139.532 35.4159 139.333ZM40.5568 139.263C40.5568 139.38 40.549 139.485 40.5334 139.579H38.1613C38.1808 139.813 38.2628 139.997 38.4073 140.129C38.5517 140.262 38.7294 140.329 38.9403 140.329C39.2448 140.329 39.4615 140.198 39.5904 139.936H40.4748C40.3811 140.249 40.2015 140.506 39.936 140.709C39.6704 140.908 39.3444 141.008 38.9578 141.008C38.6455 141.008 38.3643 140.94 38.1144 140.803C37.8684 140.662 37.6751 140.465 37.5346 140.211C37.3979 139.958 37.3296 139.665 37.3296 139.333C37.3296 138.997 37.3979 138.702 37.5346 138.449C37.6712 138.195 37.8626 137.999 38.1086 137.863C38.3546 137.726 38.6377 137.658 38.9578 137.658C39.2663 137.658 39.5416 137.724 39.7837 137.857C40.0297 137.99 40.2191 138.179 40.3518 138.425C40.4885 138.667 40.5568 138.946 40.5568 139.263ZM39.7075 139.028C39.7036 138.818 39.6275 138.65 39.4791 138.525C39.3307 138.396 39.1492 138.331 38.9344 138.331C38.7314 138.331 38.5596 138.394 38.419 138.519C38.2823 138.64 38.1984 138.81 38.1671 139.028H39.7075ZM45.6828 137.664C46.0811 137.664 46.4013 137.787 46.6434 138.033C46.8894 138.275 47.0124 138.614 47.0124 139.052V140.955H46.1924V139.163C46.1924 138.909 46.1279 138.716 45.9991 138.583C45.8702 138.447 45.6945 138.378 45.472 138.378C45.2494 138.378 45.0717 138.447 44.939 138.583C44.8101 138.716 44.7457 138.909 44.7457 139.163V140.955H43.9257V139.163C43.9257 138.909 43.8613 138.716 43.7324 138.583C43.6036 138.447 43.4279 138.378 43.2053 138.378C42.9788 138.378 42.7992 138.447 42.6664 138.583C42.5376 138.716 42.4732 138.909 42.4732 139.163V140.955H41.6532V137.711H42.4732V138.103C42.5786 137.966 42.7133 137.859 42.8773 137.781C43.0452 137.703 43.2287 137.664 43.4279 137.664C43.6817 137.664 43.9081 137.718 44.1073 137.828C44.3064 137.933 44.4606 138.085 44.57 138.285C44.6754 138.097 44.8277 137.947 45.0268 137.834C45.2299 137.72 45.4485 137.664 45.6828 137.664ZM51.3047 139.263C51.3047 139.38 51.2969 139.485 51.2813 139.579H48.9092C48.9287 139.813 49.0107 139.997 49.1552 140.129C49.2996 140.262 49.4773 140.329 49.6882 140.329C49.9927 140.329 50.2094 140.198 50.3383 139.936H51.2227C51.129 140.249 50.9494 140.506 50.6838 140.709C50.4183 140.908 50.0923 141.008 49.7057 141.008C49.3933 141.008 49.1122 140.94 48.8623 140.803C48.6163 140.662 48.423 140.465 48.2825 140.211C48.1458 139.958 48.0775 139.665 48.0775 139.333C48.0775 138.997 48.1458 138.702 48.2825 138.449C48.4191 138.195 48.6105 137.999 48.8565 137.863C49.1024 137.726 49.3855 137.658 49.7057 137.658C50.0142 137.658 50.2895 137.724 50.5316 137.857C50.7776 137.99 50.9669 138.179 51.0997 138.425C51.2364 138.667 51.3047 138.946 51.3047 139.263ZM50.4554 139.028C50.4515 138.818 50.3754 138.65 50.227 138.525C50.0786 138.396 49.8971 138.331 49.6823 138.331C49.4793 138.331 49.3074 138.394 49.1669 138.519C49.0302 138.64 48.9463 138.81 48.915 139.028H50.4554ZM54.1992 137.664C54.5857 137.664 54.8981 137.787 55.1363 138.033C55.3745 138.275 55.4936 138.614 55.4936 139.052V140.955H54.6736V139.163C54.6736 138.905 54.6092 138.708 54.4803 138.572C54.3515 138.431 54.1757 138.361 53.9532 138.361C53.7267 138.361 53.5471 138.431 53.4143 138.572C53.2855 138.708 53.221 138.905 53.221 139.163V140.955H52.4011V137.711H53.221V138.115C53.3304 137.974 53.469 137.865 53.6369 137.787C53.8087 137.705 53.9961 137.664 54.1992 137.664ZM57.7259 138.384V139.954C57.7259 140.063 57.7513 140.143 57.802 140.194C57.8567 140.241 57.9465 140.264 58.0715 140.264H58.4522V140.955H57.9367C57.2456 140.955 56.9 140.62 56.9 139.948V138.384H56.5135V137.711H56.9V136.908H57.7259V137.711H58.4522V138.384H57.7259Z" fill="white"/>
<g id="ant-design:car-filled">
<path id="Vector_20" d="M46.2897 109.022L45.7504 108.08C45.7261 108.038 45.6864 108.008 45.64 107.996C45.5935 107.983 45.544 107.99 45.5023 108.014L44.3486 108.687L42.5669 103.768C42.4728 103.474 42.2879 103.218 42.0388 103.036C41.7897 102.855 41.4893 102.757 41.1811 102.757H31.3211C30.5315 102.757 29.8306 103.267 29.5871 104.02L27.8896 108.69L26.7336 108.016C26.6919 107.992 26.6424 107.986 26.5959 107.998C26.5495 108.01 26.5098 108.041 26.4855 108.082L25.9462 109.022C25.8962 109.108 25.9258 109.218 26.0122 109.268L27.3867 110.069L27.0567 110.979C27.0294 111.052 27.0157 111.129 27.0157 111.206V119.13C27.0157 119.487 27.2843 119.776 27.6142 119.776H29.1525C29.4324 119.776 29.6759 119.565 29.735 119.269L29.9102 118.411H42.3257L42.5009 119.269C42.5623 119.565 42.8035 119.776 43.0834 119.776H44.6217C44.9516 119.776 45.2202 119.487 45.2202 119.13V111.206C45.2202 111.129 45.2065 111.052 45.1792 110.979L44.8492 110.069L46.2214 109.268C46.2627 109.244 46.293 109.205 46.3058 109.159C46.3185 109.113 46.3128 109.064 46.2897 109.022V109.022ZM30.4746 113.746C29.9717 113.746 29.5644 113.339 29.5644 112.836C29.5644 112.333 29.9717 111.926 30.4746 111.926C30.9775 111.926 31.3848 112.333 31.3848 112.836C31.3848 113.339 30.9775 113.746 30.4746 113.746ZM39.3037 115.453C39.3037 115.553 39.2218 115.635 39.1217 115.635H33.1142C33.0141 115.635 32.9322 115.553 32.9322 115.453V113.541C32.9322 113.441 33.0141 113.359 33.1142 113.359H34.0244C34.1246 113.359 34.2065 113.441 34.2065 113.541V114.36H38.0294V113.541C38.0294 113.441 38.1113 113.359 38.2115 113.359H39.1217C39.2218 113.359 39.3037 113.441 39.3037 113.541V115.453ZM41.7613 113.746C41.2584 113.746 40.8511 113.339 40.8511 112.836C40.8511 112.333 41.2584 111.926 41.7613 111.926C42.2642 111.926 42.6715 112.333 42.6715 112.836C42.6715 113.339 42.2642 113.746 41.7613 113.746ZM29.4733 109.127L31.1277 104.578L31.139 104.548L31.1481 104.519C31.1732 104.444 31.2414 104.393 31.3211 104.393H41.0513L42.7671 109.127H29.4733Z" fill="white"/>
</g>
</g>
</g>
<g id="logo">
<circle id="Logo" cx="170.83" cy="169.615" r="38.908" fill="#996EAB"/>
<g id="Group 41">
<path id="Vector_21" d="M184.34 153.248C184.566 153.247 184.791 153.291 185.001 153.379C185.21 153.466 185.399 153.595 185.558 153.758C185.717 153.921 185.841 154.114 185.923 154.326C186.006 154.538 186.045 154.765 186.038 154.992C186.034 155.444 185.851 155.876 185.53 156.194C185.208 156.511 184.775 156.689 184.324 156.687C184.098 156.69 183.872 156.646 183.662 156.56C183.453 156.474 183.262 156.345 183.103 156.183C182.943 156.021 182.818 155.829 182.734 155.617C182.65 155.406 182.61 155.179 182.616 154.951C182.61 154.724 182.651 154.498 182.736 154.287C182.821 154.075 182.948 153.884 183.109 153.725C183.271 153.565 183.464 153.44 183.675 153.358C183.887 153.276 184.113 153.239 184.34 153.248V153.248Z" fill="white"/>
<path id="Vector_22" d="M186.812 151.413C186.812 150.859 187.142 150.489 187.657 150.476C187.905 150.47 188.145 150.562 188.326 150.733C188.507 150.903 188.613 151.138 188.623 151.387C188.622 151.507 188.597 151.625 188.551 151.735C188.504 151.846 188.436 151.945 188.351 152.029C188.266 152.113 188.165 152.178 188.054 152.223C187.943 152.267 187.825 152.289 187.706 152.287C187.588 152.298 187.469 152.283 187.357 152.243C187.246 152.203 187.144 152.139 187.059 152.056C186.974 151.973 186.908 151.872 186.866 151.761C186.823 151.65 186.805 151.531 186.812 151.413V151.413Z" fill="white"/>
<path id="Vector_23" d="M186.02 164.489C185.276 162.384 184.048 160.486 182.435 158.949C179.983 156.603 177.031 155.39 173.679 155.071C171.643 154.875 169.595 154.854 167.556 155.009C166.149 155.115 164.727 155.158 163.364 155.573C159.864 156.644 157.172 160.305 157.162 163.982C157.162 167.983 157.162 171.984 157.162 175.984C157.151 177.031 157.327 178.071 157.682 179.055C158.513 181.319 160.932 183.166 163.325 183.226C165.056 183.268 166.787 183.234 168.52 183.234C170.382 183.326 172.249 183.293 174.108 183.136C175.609 183.018 177.078 182.643 178.453 182.026C180.845 180.946 182.713 179.241 184.258 177.142C185.983 174.824 186.883 171.992 186.812 169.1C186.804 167.53 186.537 165.971 186.02 164.489ZM172.892 176.743C171.867 177.77 170.094 177.748 169.023 176.691C167.275 174.965 165.539 173.228 163.788 171.512C163.322 171.056 162.885 170.597 162.728 169.942C162.478 168.907 162.697 167.971 163.435 167.207C165.295 165.286 167.168 163.374 169.053 161.47C169.291 161.22 169.581 161.025 169.902 160.899C170.222 160.773 170.567 160.719 170.911 160.74C172.059 160.74 173.051 161.374 173.444 162.381C173.88 163.502 173.711 164.541 172.888 165.411C172.066 166.28 171.227 167.105 170.391 167.953C169.955 168.393 169.731 168.9 169.884 169.531C169.986 169.924 170.261 170.195 170.538 170.466C171.331 171.247 172.13 172.023 172.912 172.817C173.173 173.073 173.38 173.379 173.521 173.717C173.662 174.055 173.733 174.418 173.731 174.784C173.729 175.151 173.654 175.513 173.51 175.849C173.366 176.186 173.155 176.49 172.892 176.743Z" fill="white"/>
</g>
</g>
</g>
<defs>
<clipPath id="clip0">
<rect width="33.7874" height="33.7874" fill="white" transform="translate(204.174 28.843) rotate(-45)"/>
</clipPath>
<clipPath id="clip1">
<rect width="23.3016" height="23.3016" fill="white" transform="translate(27.0886 207.676)"/>
</clipPath>
</defs>
</svg>
