<svg width="562" height="555" viewBox="0 0 562 555" fill="none" xmlns="http://www.w3.org/2000/svg">
<g id="Features">
<circle id="Connector" cx="281.442" cy="278.442" r="235.479" stroke="#C4C4C4" stroke-width="1.92686" stroke-dasharray="9.63 9.63"/>
<g id="quick-setup">
<circle id="Ellipse 19" cx="196.437" cy="59.41" r="59.41" fill="#003755" fill-opacity="0.9"/>
<g id="Group 30">
<path id="Quick Setup" d="M168.615 93.1359L167.594 91.9124C167.311 91.983 167.022 92.0184 166.727 92.0184C166.097 92.0184 165.519 91.8706 164.993 91.5752C164.466 91.2797 164.048 90.8719 163.74 90.3516C163.432 89.825 163.278 89.2308 163.278 88.5693C163.278 87.9142 163.432 87.3265 163.74 86.8062C164.048 86.2795 164.466 85.8685 164.993 85.573C165.519 85.2776 166.097 85.1299 166.727 85.1299C167.363 85.1299 167.941 85.2776 168.461 85.573C168.988 85.8685 169.402 86.2795 169.704 86.8062C170.012 87.3265 170.166 87.9142 170.166 88.5693C170.166 89.1666 170.038 89.7126 169.781 90.2071C169.53 90.6953 169.187 91.0935 168.75 91.4018L170.291 93.1359H168.615ZM164.665 88.5693C164.665 89.0189 164.752 89.4139 164.925 89.7543C165.099 90.0947 165.339 90.3581 165.648 90.5443C165.962 90.7242 166.322 90.8141 166.727 90.8141C167.131 90.8141 167.488 90.7242 167.796 90.5443C168.104 90.3581 168.345 90.0947 168.519 89.7543C168.692 89.4139 168.779 89.0189 168.779 88.5693C168.779 88.1197 168.692 87.7279 168.519 87.3939C168.345 87.0535 168.104 86.7934 167.796 86.6135C167.488 86.4337 167.131 86.3438 166.727 86.3438C166.322 86.3438 165.962 86.4337 165.648 86.6135C165.339 86.7934 165.099 87.0535 164.925 87.3939C164.752 87.7279 164.665 88.1197 164.665 88.5693ZM177.046 86.6135V91.9509H175.688V91.2765C175.514 91.5078 175.286 91.6908 175.004 91.8257C174.727 91.9541 174.426 92.0184 174.098 92.0184C173.681 92.0184 173.311 91.9317 172.99 91.7582C172.669 91.5784 172.415 91.3183 172.229 90.9779C172.049 90.631 171.959 90.22 171.959 89.7447V86.6135H173.308V89.552C173.308 89.9759 173.414 90.3035 173.626 90.5347C173.838 90.7595 174.127 90.8719 174.493 90.8719C174.866 90.8719 175.158 90.7595 175.37 90.5347C175.582 90.3035 175.688 89.9759 175.688 89.552V86.6135H177.046ZM179.88 85.9777C179.642 85.9777 179.443 85.9038 179.283 85.7561C179.128 85.6019 179.051 85.4125 179.051 85.1877C179.051 84.9629 179.128 84.7766 179.283 84.6289C179.443 84.4747 179.642 84.3977 179.88 84.3977C180.118 84.3977 180.313 84.4747 180.468 84.6289C180.628 84.7766 180.708 84.9629 180.708 85.1877C180.708 85.4125 180.628 85.6019 180.468 85.7561C180.313 85.9038 180.118 85.9777 179.88 85.9777ZM180.545 86.6135V91.9509H179.196V86.6135H180.545ZM182.349 89.2822C182.349 88.7299 182.462 88.2482 182.687 87.8371C182.911 87.4196 183.223 87.0985 183.621 86.8737C184.019 86.6424 184.475 86.5268 184.989 86.5268C185.651 86.5268 186.197 86.6938 186.627 87.0278C187.064 87.3554 187.356 87.8178 187.504 88.4151H186.049C185.972 88.1839 185.84 88.0041 185.654 87.8756C185.474 87.7407 185.249 87.6733 184.98 87.6733C184.594 87.6733 184.289 87.8146 184.064 88.0972C183.839 88.3734 183.727 88.7684 183.727 89.2822C183.727 89.7896 183.839 90.1846 184.064 90.4672C184.289 90.7434 184.594 90.8815 184.98 90.8815C185.525 90.8815 185.882 90.6375 186.049 90.1493H187.504C187.356 90.7274 187.064 91.1866 186.627 91.527C186.19 91.8674 185.644 92.0376 184.989 92.0376C184.475 92.0376 184.019 91.9252 183.621 91.7004C183.223 91.4692 182.911 91.1481 182.687 90.737C182.462 90.3195 182.349 89.8346 182.349 89.2822ZM192.471 91.9509L190.66 89.6772V91.9509H189.311V84.8216H190.66V88.8776L192.451 86.6135H194.205L191.854 89.2919L194.224 91.9509H192.471ZM201.192 92.0184C200.723 92.0184 200.3 91.9381 199.921 91.7775C199.548 91.6169 199.253 91.3857 199.034 91.0838C198.816 90.782 198.703 90.4255 198.697 90.0144H200.142C200.161 90.2906 200.258 90.509 200.431 90.6696C200.611 90.8301 200.855 90.9104 201.163 90.9104C201.478 90.9104 201.725 90.8366 201.905 90.6888C202.085 90.5347 202.175 90.3356 202.175 90.0915C202.175 89.8924 202.114 89.7286 201.992 89.6002C201.87 89.4717 201.716 89.3722 201.53 89.3015C201.35 89.2244 201.099 89.1409 200.778 89.051C200.341 88.9226 199.985 88.7973 199.709 88.6753C199.439 88.5468 199.204 88.3573 199.005 88.1068C198.813 87.8499 198.716 87.5095 198.716 87.0856C198.716 86.6874 198.816 86.3406 199.015 86.0451C199.214 85.7497 199.494 85.5249 199.853 85.3707C200.213 85.2101 200.624 85.1299 201.086 85.1299C201.78 85.1299 202.342 85.3001 202.772 85.6405C203.209 85.9745 203.45 86.4433 203.495 87.0471H202.011C201.998 86.8159 201.899 86.6264 201.713 86.4787C201.533 86.3245 201.292 86.2474 200.99 86.2474C200.727 86.2474 200.515 86.3149 200.354 86.4498C200.2 86.5846 200.123 86.7805 200.123 87.0374C200.123 87.2173 200.181 87.3682 200.296 87.4903C200.418 87.6059 200.566 87.7022 200.74 87.7793C200.919 87.8499 201.17 87.9334 201.491 88.0298C201.928 88.1582 202.284 88.2867 202.56 88.4151C202.837 88.5436 203.074 88.7363 203.273 88.9932C203.472 89.2501 203.572 89.5873 203.572 90.0048C203.572 90.3645 203.479 90.6985 203.293 91.0068C203.106 91.3151 202.833 91.5623 202.474 91.7486C202.114 91.9284 201.687 92.0184 201.192 92.0184ZM210.522 89.1666C210.522 89.3593 210.509 89.5327 210.483 89.6869H206.582C206.614 90.0722 206.749 90.3741 206.986 90.5925C207.224 90.8109 207.516 90.9201 207.863 90.9201C208.364 90.9201 208.72 90.7049 208.932 90.2746H210.387C210.233 90.7884 209.937 91.2123 209.501 91.5463C209.064 91.8739 208.528 92.0376 207.892 92.0376C207.378 92.0376 206.916 91.9252 206.504 91.7004C206.1 91.4692 205.782 91.1449 205.551 90.7274C205.326 90.3099 205.213 89.8282 205.213 89.2822C205.213 88.7299 205.326 88.2449 205.551 87.8275C205.775 87.41 206.09 87.0888 206.495 86.864C206.899 86.6392 207.365 86.5268 207.892 86.5268C208.399 86.5268 208.852 86.636 209.25 86.8544C209.655 87.0728 209.966 87.3843 210.185 87.7889C210.41 88.1871 210.522 88.6464 210.522 89.1666ZM209.125 88.7812C209.119 88.4344 208.993 88.1582 208.749 87.9527C208.505 87.7407 208.207 87.6348 207.853 87.6348C207.519 87.6348 207.237 87.7375 207.005 87.9431C206.781 88.1422 206.643 88.4216 206.591 88.7812H209.125ZM213.896 87.7215V90.3035C213.896 90.4833 213.938 90.615 214.021 90.6985C214.111 90.7755 214.259 90.8141 214.464 90.8141H215.09V91.9509H214.243C213.106 91.9509 212.537 91.3986 212.537 90.2938V87.7215H211.901V86.6135H212.537V85.2936H213.896V86.6135H215.09V87.7215H213.896ZM221.918 86.6135V91.9509H220.56V91.2765C220.386 91.5078 220.158 91.6908 219.876 91.8257C219.6 91.9541 219.298 92.0184 218.97 92.0184C218.553 92.0184 218.183 91.9317 217.862 91.7582C217.541 91.5784 217.287 91.3183 217.101 90.9779C216.921 90.631 216.831 90.22 216.831 89.7447V86.6135H218.18V89.552C218.18 89.9759 218.286 90.3035 218.498 90.5347C218.71 90.7595 218.999 90.8719 219.365 90.8719C219.738 90.8719 220.03 90.7595 220.242 90.5347C220.454 90.3035 220.56 89.9759 220.56 89.552V86.6135H221.918ZM225.417 87.3843C225.59 87.1402 225.828 86.9379 226.13 86.7773C226.438 86.6103 226.788 86.5268 227.18 86.5268C227.636 86.5268 228.047 86.6392 228.413 86.864C228.785 87.0888 229.078 87.41 229.29 87.8275C229.508 88.2385 229.617 88.717 229.617 89.263C229.617 89.8089 229.508 90.2938 229.29 90.7177C229.078 91.1352 228.785 91.4596 228.413 91.6908C228.047 91.922 227.636 92.0376 227.18 92.0376C226.788 92.0376 226.441 91.9574 226.139 91.7968C225.844 91.6362 225.603 91.4339 225.417 91.1898V94.4944H224.068V86.6135H225.417V87.3843ZM228.24 89.263C228.24 88.9418 228.172 88.6656 228.037 88.4344C227.909 88.1968 227.735 88.0169 227.517 87.8949C227.305 87.7729 227.074 87.7118 226.823 87.7118C226.579 87.7118 226.348 87.7761 226.13 87.9045C225.918 88.0266 225.744 88.2064 225.609 88.444C225.481 88.6817 225.417 88.9611 225.417 89.2822C225.417 89.6034 225.481 89.8828 225.609 90.1204C225.744 90.3581 225.918 90.5411 226.13 90.6696C226.348 90.7916 226.579 90.8526 226.823 90.8526C227.074 90.8526 227.305 90.7884 227.517 90.6599C227.735 90.5315 227.909 90.3484 228.037 90.1108C228.172 89.8731 228.24 89.5905 228.24 89.263Z" fill="white"/>
<g id="Group 26">
<path id="Vector" fill-rule="evenodd" clip-rule="evenodd" d="M201.723 64.1311C200.368 65.4862 192.238 65.4862 190.882 64.1311C190.431 63.6798 189.979 62.3247 189.527 60.0656L182.752 64.1311L181.396 57.3553L188.172 53.2899C185.462 39.7384 190.882 28.8972 196.303 23.4766C201.723 28.8972 207.144 39.7384 204.434 53.2899L211.209 57.3553L209.854 64.1311L203.079 60.0656C202.627 62.3247 202.175 63.6798 201.723 64.1311ZM196.303 61.3124C197.264 61.3137 198.188 61.2487 198.895 61.1321C199.029 60.6619 199.173 60.0521 199.321 59.3135L200.676 52.5378C202.435 43.732 200.436 35.3884 196.303 29.442C192.171 35.3897 190.17 43.7334 191.93 52.5378L193.285 59.3135C193.433 60.0521 193.576 60.6619 193.709 61.1335C194.419 61.2473 195.343 61.3151 196.303 61.3151V61.3124Z" fill="white"/>
<path id="Vector_2" d="M198.362 43.3749C199.499 42.238 199.499 40.3948 198.362 39.2579C197.225 38.1211 195.382 38.1211 194.245 39.2579C193.108 40.3948 193.108 42.238 194.245 43.3749C195.382 44.5118 197.225 44.5118 198.362 43.3749Z" fill="white"/>
<path id="Vector_3" fill-rule="evenodd" clip-rule="evenodd" d="M190.814 66.7044L194.245 67.3906C194.245 69.2212 194.931 70.8212 196.303 72.1935C197.676 70.8212 198.362 69.2212 198.362 67.3906L201.792 66.7044C201.792 70.3629 199.963 74.0228 196.303 77.6826C192.643 74.0228 190.814 70.3629 190.814 66.7044Z" fill="white"/>
</g>
</g>
</g>
<g id="ticket">
<circle id="Ellipse 15" cx="375.146" cy="62.2848" r="59.41" fill="#003755" fill-opacity="0.9"/>
<g id="Group 29">
<path id="Internet Ticketing" d="M354.954 80.8824V87.6072H353.605V80.8824H354.954ZM360.063 82.1927C360.699 82.1927 361.213 82.395 361.605 82.7997C361.997 83.1979 362.192 83.7567 362.192 84.476V87.6072H360.844V84.6591C360.844 84.2352 360.738 83.9108 360.526 83.686C360.314 83.4548 360.025 83.3392 359.659 83.3392C359.286 83.3392 358.991 83.4548 358.772 83.686C358.56 83.9108 358.454 84.2352 358.454 84.6591V87.6072H357.106V82.2698H358.454V82.9346C358.634 82.7033 358.862 82.5235 359.138 82.395C359.421 82.2602 359.729 82.1927 360.063 82.1927ZM365.864 83.3777V85.9597C365.864 86.1396 365.906 86.2712 365.99 86.3547C366.08 86.4318 366.227 86.4703 366.433 86.4703H367.059V87.6072H366.211C365.074 87.6072 364.506 87.0548 364.506 85.9501V83.3777H363.87V82.2698H364.506V80.9499H365.864V82.2698H367.059V83.3777H365.864ZM373.81 84.8229C373.81 85.0156 373.797 85.189 373.771 85.3431H369.869C369.901 85.7285 370.036 86.0304 370.274 86.2487C370.512 86.4671 370.804 86.5763 371.151 86.5763C371.652 86.5763 372.008 86.3611 372.22 85.9308H373.675C373.521 86.4446 373.225 86.8685 372.789 87.2025C372.352 87.5301 371.815 87.6939 371.18 87.6939C370.666 87.6939 370.203 87.5815 369.792 87.3567C369.388 87.1255 369.07 86.8011 368.838 86.3836C368.614 85.9661 368.501 85.4844 368.501 84.9385C368.501 84.3861 368.614 83.9012 368.838 83.4837C369.063 83.0662 369.378 82.7451 369.783 82.5203C370.187 82.2955 370.653 82.1831 371.18 82.1831C371.687 82.1831 372.14 82.2923 372.538 82.5106C372.943 82.729 373.254 83.0405 373.473 83.4452C373.697 83.8434 373.81 84.3026 373.81 84.8229ZM372.413 84.4375C372.406 84.0907 372.281 83.8145 372.037 83.609C371.793 83.397 371.494 83.291 371.141 83.291C370.807 83.291 370.524 83.3938 370.293 83.5993C370.068 83.7984 369.93 84.0778 369.879 84.4375H372.413ZM376.962 83.0983C377.135 82.8157 377.36 82.5941 377.636 82.4336C377.919 82.273 378.24 82.1927 378.6 82.1927V83.609H378.243C377.819 83.609 377.498 83.7085 377.28 83.9076C377.068 84.1067 376.962 84.4536 376.962 84.9481V87.6072H375.613V82.2698H376.962V83.0983ZM383.285 82.1927C383.921 82.1927 384.435 82.395 384.826 82.7997C385.218 83.1979 385.414 83.7567 385.414 84.476V87.6072H384.065V84.6591C384.065 84.2352 383.959 83.9108 383.747 83.686C383.535 83.4548 383.246 83.3392 382.88 83.3392C382.508 83.3392 382.212 83.4548 381.994 83.686C381.782 83.9108 381.676 84.2352 381.676 84.6591V87.6072H380.327V82.2698H381.676V82.9346C381.856 82.7033 382.084 82.5235 382.36 82.395C382.643 82.2602 382.951 82.1927 383.285 82.1927ZM392.477 84.8229C392.477 85.0156 392.464 85.189 392.439 85.3431H388.537C388.569 85.7285 388.704 86.0304 388.942 86.2487C389.179 86.4671 389.471 86.5763 389.818 86.5763C390.319 86.5763 390.676 86.3611 390.888 85.9308H392.342C392.188 86.4446 391.893 86.8685 391.456 87.2025C391.019 87.5301 390.483 87.6939 389.847 87.6939C389.333 87.6939 388.871 87.5815 388.46 87.3567C388.055 87.1255 387.737 86.8011 387.506 86.3836C387.281 85.9661 387.169 85.4844 387.169 84.9385C387.169 84.3861 387.281 83.9012 387.506 83.4837C387.731 83.0662 388.046 82.7451 388.45 82.5203C388.855 82.2955 389.32 82.1831 389.847 82.1831C390.355 82.1831 390.807 82.2923 391.206 82.5106C391.61 82.729 391.922 83.0405 392.14 83.4452C392.365 83.8434 392.477 84.3026 392.477 84.8229ZM391.08 84.4375C391.074 84.0907 390.949 83.8145 390.705 83.609C390.461 83.397 390.162 83.291 389.809 83.291C389.475 83.291 389.192 83.3938 388.961 83.5993C388.736 83.7984 388.598 84.0778 388.547 84.4375H391.08ZM395.851 83.3777V85.9597C395.851 86.1396 395.893 86.2712 395.976 86.3547C396.066 86.4318 396.214 86.4703 396.42 86.4703H397.046V87.6072H396.198C395.061 87.6072 394.493 87.0548 394.493 85.9501V83.3777H393.857V82.2698H394.493V80.9499H395.851V82.2698H397.046V83.3777H395.851ZM354.648 96.8824V97.9711H352.856V103.607H351.508V97.9711H349.716V96.8824H354.648ZM357.136 97.6339C356.898 97.6339 356.699 97.5601 356.538 97.4123C356.384 97.2582 356.307 97.0687 356.307 96.8439C356.307 96.6191 356.384 96.4328 356.538 96.2851C356.699 96.131 356.898 96.0539 357.136 96.0539C357.373 96.0539 357.569 96.131 357.723 96.2851C357.884 96.4328 357.964 96.6191 357.964 96.8439C357.964 97.0687 357.884 97.2582 357.723 97.4123C357.569 97.5601 357.373 97.6339 357.136 97.6339ZM357.8 98.2698V103.607H356.451V98.2698H357.8ZM359.605 100.938C359.605 100.386 359.717 99.9044 359.942 99.4933C360.167 99.0759 360.478 98.7547 360.877 98.5299C361.275 98.2987 361.731 98.1831 362.245 98.1831C362.906 98.1831 363.452 98.3501 363.883 98.6841C364.319 99.0116 364.612 99.4741 364.759 100.071H363.305C363.227 99.8402 363.096 99.6603 362.91 99.5319C362.73 99.397 362.505 99.3296 362.235 99.3296C361.85 99.3296 361.545 99.4709 361.32 99.7535C361.095 100.03 360.983 100.425 360.983 100.938C360.983 101.446 361.095 101.841 361.32 102.123C361.545 102.4 361.85 102.538 362.235 102.538C362.781 102.538 363.138 102.294 363.305 101.806H364.759C364.612 102.384 364.319 102.843 363.883 103.183C363.446 103.524 362.9 103.694 362.245 103.694C361.731 103.694 361.275 103.581 360.877 103.357C360.478 103.125 360.167 102.804 359.942 102.393C359.717 101.976 359.605 101.491 359.605 100.938ZM369.726 103.607L367.915 101.333V103.607H366.566V96.4778H367.915V100.534L369.707 98.2698H371.461L369.11 100.948L371.48 103.607H369.726ZM377.973 100.823C377.973 101.016 377.96 101.189 377.935 101.343H374.033C374.065 101.728 374.2 102.03 374.437 102.249C374.675 102.467 374.967 102.576 375.314 102.576C375.815 102.576 376.172 102.361 376.384 101.931H377.838C377.684 102.445 377.389 102.869 376.952 103.203C376.515 103.53 375.979 103.694 375.343 103.694C374.829 103.694 374.367 103.581 373.956 103.357C373.551 103.125 373.233 102.801 373.002 102.384C372.777 101.966 372.665 101.484 372.665 100.938C372.665 100.386 372.777 99.9012 373.002 99.4837C373.227 99.0662 373.541 98.7451 373.946 98.5203C374.351 98.2955 374.816 98.1831 375.343 98.1831C375.85 98.1831 376.303 98.2923 376.701 98.5106C377.106 98.729 377.418 99.0405 377.636 99.4452C377.861 99.8434 377.973 100.303 377.973 100.823ZM376.576 100.437C376.57 100.091 376.445 99.8145 376.2 99.609C375.956 99.397 375.658 99.291 375.304 99.291C374.97 99.291 374.688 99.3938 374.457 99.5993C374.232 99.7984 374.094 100.078 374.042 100.437H376.576ZM381.347 99.3777V101.96C381.347 102.14 381.389 102.271 381.472 102.355C381.562 102.432 381.71 102.47 381.915 102.47H382.542V103.607H381.694C380.557 103.607 379.989 103.055 379.989 101.95V99.3777H379.353V98.2698H379.989V96.9499H381.347V98.2698H382.542V99.3777H381.347ZM385.015 97.6339C384.777 97.6339 384.578 97.5601 384.417 97.4123C384.263 97.2582 384.186 97.0687 384.186 96.8439C384.186 96.6191 384.263 96.4328 384.417 96.2851C384.578 96.131 384.777 96.0539 385.015 96.0539C385.252 96.0539 385.448 96.131 385.602 96.2851C385.763 96.4328 385.843 96.6191 385.843 96.8439C385.843 97.0687 385.763 97.2582 385.602 97.4123C385.448 97.5601 385.252 97.6339 385.015 97.6339ZM385.679 98.2698V103.607H384.331V98.2698H385.679ZM390.789 98.1927C391.425 98.1927 391.938 98.395 392.33 98.7997C392.722 99.1979 392.918 99.7567 392.918 100.476V103.607H391.569V100.659C391.569 100.235 391.463 99.9108 391.251 99.686C391.039 99.4548 390.75 99.3392 390.384 99.3392C390.012 99.3392 389.716 99.4548 389.498 99.686C389.286 99.9108 389.18 100.235 389.18 100.659V103.607H387.831V98.2698H389.18V98.9346C389.36 98.7033 389.588 98.5235 389.864 98.395C390.146 98.2602 390.455 98.1927 390.789 98.1927ZM397.11 98.1831C397.508 98.1831 397.858 98.2634 398.16 98.4239C398.462 98.5781 398.7 98.7804 398.873 99.0309V98.2698H400.232V103.646C400.232 104.14 400.132 104.58 399.933 104.966C399.734 105.357 399.435 105.666 399.037 105.891C398.639 106.122 398.157 106.237 397.592 106.237C396.834 106.237 396.211 106.061 395.723 105.707C395.241 105.354 394.968 104.872 394.904 104.262H396.243C396.314 104.506 396.465 104.699 396.696 104.84C396.933 104.988 397.219 105.062 397.553 105.062C397.945 105.062 398.263 104.943 398.507 104.705C398.751 104.474 398.873 104.121 398.873 103.646V102.817C398.7 103.068 398.459 103.276 398.151 103.443C397.849 103.61 397.502 103.694 397.11 103.694C396.66 103.694 396.249 103.578 395.877 103.347C395.504 103.116 395.209 102.791 394.991 102.374C394.779 101.95 394.673 101.465 394.673 100.919C394.673 100.38 394.779 99.9012 394.991 99.4837C395.209 99.0662 395.501 98.7451 395.867 98.5203C396.24 98.2955 396.654 98.1831 397.11 98.1831ZM398.873 100.938C398.873 100.611 398.809 100.332 398.68 100.1C398.552 99.8627 398.379 99.6828 398.16 99.5608C397.942 99.4323 397.707 99.3681 397.457 99.3681C397.206 99.3681 396.975 99.4291 396.763 99.5511C396.551 99.6732 396.378 99.853 396.243 100.091C396.115 100.322 396.05 100.598 396.05 100.919C396.05 101.24 396.115 101.523 396.243 101.767C396.378 102.005 396.551 102.188 396.763 102.316C396.982 102.445 397.213 102.509 397.457 102.509C397.707 102.509 397.942 102.448 398.16 102.326C398.379 102.197 398.552 102.018 398.68 101.786C398.809 101.549 398.873 101.266 398.873 100.938Z" fill="white"/>
<g id="ion:ticket-outline" clip-path="url(#clip0)">
<path id="Vector_4" d="M375.15 30.554C373.872 30.5538 372.642 30.0714 371.705 29.2033C370.768 28.3352 370.193 27.1454 370.096 25.8719C370.088 25.7662 370.04 25.6677 369.962 25.5959C369.884 25.5242 369.781 25.4846 369.675 25.485L362.897 25.4812C362.785 25.4812 362.678 25.5257 362.599 25.6049C362.519 25.684 362.475 25.7914 362.475 25.9033L362.475 36.7014C362.475 37.0997 362.568 37.4926 362.746 37.8489V37.8489C362.925 38.2054 363.019 38.5988 363.019 38.9978C363.02 39.3969 362.928 39.7905 362.75 40.1477V40.1477C362.571 40.5042 362.478 40.8973 362.478 41.296L362.475 68.9848C362.475 69.0968 362.519 69.2042 362.599 69.2833C362.678 69.3625 362.785 69.407 362.897 69.407L369.671 69.407C369.777 69.4075 369.88 69.3679 369.958 69.2961C370.036 69.2244 370.084 69.1258 370.092 69.0201C370.189 67.7461 370.763 66.5556 371.7 65.687C372.637 64.8184 373.868 64.3358 375.146 64.3358C376.423 64.3358 377.654 64.8184 378.591 65.687C379.528 66.5556 380.103 67.7461 380.199 69.0202C380.208 69.1258 380.256 69.2244 380.334 69.2961C380.412 69.3679 380.514 69.4075 380.62 69.407L387.394 69.407C387.506 69.407 387.614 69.3625 387.693 69.2833C387.772 69.2042 387.816 69.0968 387.817 68.9848L387.817 41.2921C387.817 40.8935 387.724 40.5004 387.546 40.1439V40.1439C387.366 39.7873 387.273 39.3939 387.272 38.9949C387.271 38.5959 387.364 38.2022 387.542 37.845V37.845C387.72 37.4888 387.813 37.0959 387.813 36.6975L387.813 25.8995C387.813 25.7876 387.768 25.6802 387.689 25.601C387.61 25.5219 387.502 25.4774 387.391 25.4774L380.616 25.4774C380.51 25.4769 380.408 25.5165 380.33 25.5882C380.252 25.66 380.204 25.7586 380.195 25.8642C380.1 27.1378 379.527 28.3284 378.591 29.1979C377.656 30.0674 376.427 30.5517 375.15 30.554V30.554Z" stroke="white" stroke-width="3.21143" stroke-miterlimit="10"/>
<path id="Vector_5" d="M365.854 38.9961L363.319 38.9961" stroke="white" stroke-width="3.21143" stroke-miterlimit="10" stroke-linecap="round"/>
<path id="Vector_6" d="M372.611 38.9963L370.922 38.9971" stroke="white" stroke-width="3.21143" stroke-miterlimit="10" stroke-linecap="round"/>
<path id="Vector_7" d="M379.37 38.9969L377.68 38.9961" stroke="white" stroke-width="3.21143" stroke-miterlimit="10" stroke-linecap="round"/>
<path id="Vector_8" d="M386.972 38.9961L384.438 38.9961" stroke="white" stroke-width="3.21143" stroke-miterlimit="10" stroke-linecap="round"/>
</g>
</g>
</g>
<g id="inventory">
<circle id="Ellipse 16" cx="502.59" cy="197.874" r="59.41" fill="#003755" fill-opacity="0.9"/>
<g id="Group 28">
<path id="Inventory Management" d="M476.4 210.405V217.13H475.051V210.405H476.4ZM481.509 211.715C482.145 211.715 482.659 211.917 483.051 212.322C483.443 212.72 483.639 213.279 483.639 213.998V217.13H482.29V214.182C482.29 213.758 482.184 213.433 481.972 213.208C481.76 212.977 481.471 212.862 481.105 212.862C480.732 212.862 480.437 212.977 480.218 213.208C480.006 213.433 479.9 213.758 479.9 214.182V217.13H478.552V211.792H479.9V212.457C480.08 212.226 480.308 212.046 480.584 211.917C480.867 211.783 481.175 211.715 481.509 211.715ZM487.966 215.887L489.314 211.792H490.75L488.775 217.13H487.137L485.172 211.792H486.617L487.966 215.887ZM497.288 214.345C497.288 214.538 497.275 214.711 497.249 214.866H493.348C493.38 215.251 493.515 215.553 493.752 215.771C493.99 215.99 494.282 216.099 494.629 216.099C495.13 216.099 495.486 215.884 495.698 215.453H497.153C496.999 215.967 496.704 216.391 496.267 216.725C495.83 217.053 495.294 217.216 494.658 217.216C494.144 217.216 493.682 217.104 493.271 216.879C492.866 216.648 492.548 216.324 492.317 215.906C492.092 215.489 491.98 215.007 491.98 214.461C491.98 213.909 492.092 213.424 492.317 213.006C492.542 212.589 492.856 212.268 493.261 212.043C493.666 211.818 494.131 211.706 494.658 211.706C495.165 211.706 495.618 211.815 496.016 212.033C496.421 212.251 496.732 212.563 496.951 212.968C497.176 213.366 497.288 213.825 497.288 214.345ZM495.891 213.96C495.885 213.613 495.759 213.337 495.515 213.131C495.271 212.919 494.973 212.813 494.619 212.813C494.285 212.813 494.003 212.916 493.772 213.122C493.547 213.321 493.409 213.6 493.357 213.96H495.891ZM502.049 211.715C502.685 211.715 503.199 211.917 503.591 212.322C503.982 212.72 504.178 213.279 504.178 213.998V217.13H502.83V214.182C502.83 213.758 502.724 213.433 502.512 213.208C502.3 212.977 502.011 212.862 501.645 212.862C501.272 212.862 500.977 212.977 500.758 213.208C500.546 213.433 500.44 213.758 500.44 214.182V217.13H499.091V211.792H500.44V212.457C500.62 212.226 500.848 212.046 501.124 211.917C501.407 211.783 501.715 211.715 502.049 211.715ZM507.85 212.9V215.482C507.85 215.662 507.892 215.794 507.976 215.877C508.065 215.954 508.213 215.993 508.419 215.993H509.045V217.13H508.197C507.06 217.13 506.492 216.577 506.492 215.473V212.9H505.856V211.792H506.492V210.472H507.85V211.792H509.045V212.9H507.85ZM513.204 217.216C512.69 217.216 512.228 217.104 511.817 216.879C511.406 216.648 511.081 216.324 510.844 215.906C510.612 215.489 510.497 215.007 510.497 214.461C510.497 213.915 510.616 213.433 510.853 213.016C511.097 212.598 511.428 212.277 511.846 212.052C512.263 211.821 512.729 211.706 513.243 211.706C513.756 211.706 514.222 211.821 514.64 212.052C515.057 212.277 515.385 212.598 515.622 213.016C515.866 213.433 515.988 213.915 515.988 214.461C515.988 215.007 515.863 215.489 515.613 215.906C515.369 216.324 515.035 216.648 514.611 216.879C514.193 217.104 513.724 217.216 513.204 217.216ZM513.204 216.041C513.448 216.041 513.676 215.983 513.888 215.868C514.106 215.746 514.28 215.566 514.408 215.328C514.537 215.09 514.601 214.801 514.601 214.461C514.601 213.954 514.466 213.565 514.196 213.295C513.933 213.019 513.609 212.881 513.223 212.881C512.838 212.881 512.514 213.019 512.25 213.295C511.993 213.565 511.865 213.954 511.865 214.461C511.865 214.968 511.99 215.36 512.241 215.636C512.497 215.906 512.819 216.041 513.204 216.041ZM519.145 212.621C519.319 212.338 519.544 212.117 519.82 211.956C520.102 211.795 520.424 211.715 520.783 211.715V213.131H520.427C520.003 213.131 519.682 213.231 519.463 213.43C519.251 213.629 519.145 213.976 519.145 214.471V217.13H517.797V211.792H519.145V212.621ZM527.617 211.792L524.312 219.654H522.877L524.033 216.995L521.894 211.792H523.407L524.784 215.521L526.181 211.792H527.617ZM473.544 226.405V233.13H472.195V228.756L470.393 233.13H469.372L467.561 228.756V233.13H466.212V226.405H467.744L469.883 231.405L472.021 226.405H473.544ZM475.349 230.442C475.349 229.902 475.455 229.424 475.667 229.006C475.886 228.589 476.178 228.268 476.544 228.043C476.916 227.818 477.331 227.706 477.787 227.706C478.185 227.706 478.532 227.786 478.827 227.946C479.129 228.107 479.37 228.309 479.55 228.553V227.792H480.908V233.13H479.55V232.349C479.376 232.6 479.136 232.808 478.827 232.975C478.525 233.136 478.175 233.216 477.777 233.216C477.328 233.216 476.916 233.101 476.544 232.87C476.178 232.638 475.886 232.314 475.667 231.896C475.455 231.473 475.349 230.988 475.349 230.442ZM479.55 230.461C479.55 230.133 479.486 229.854 479.357 229.623C479.229 229.385 479.055 229.205 478.837 229.083C478.619 228.955 478.384 228.891 478.134 228.891C477.883 228.891 477.652 228.952 477.44 229.074C477.228 229.196 477.055 229.375 476.92 229.613C476.791 229.844 476.727 230.121 476.727 230.442C476.727 230.763 476.791 231.045 476.92 231.289C477.055 231.527 477.228 231.71 477.44 231.839C477.658 231.967 477.89 232.031 478.134 232.031C478.384 232.031 478.619 231.97 478.837 231.848C479.055 231.72 479.229 231.54 479.357 231.309C479.486 231.071 479.55 230.789 479.55 230.461ZM486.002 227.715C486.638 227.715 487.152 227.917 487.544 228.322C487.936 228.72 488.131 229.279 488.131 229.998V233.13H486.783V230.182C486.783 229.758 486.677 229.433 486.465 229.208C486.253 228.977 485.964 228.862 485.598 228.862C485.225 228.862 484.93 228.977 484.711 229.208C484.499 229.433 484.393 229.758 484.393 230.182V233.13H483.045V227.792H484.393V228.457C484.573 228.226 484.801 228.046 485.077 227.917C485.36 227.783 485.668 227.715 486.002 227.715ZM489.886 230.442C489.886 229.902 489.992 229.424 490.204 229.006C490.422 228.589 490.715 228.268 491.081 228.043C491.453 227.818 491.868 227.706 492.324 227.706C492.722 227.706 493.069 227.786 493.364 227.946C493.666 228.107 493.907 228.309 494.087 228.553V227.792H495.445V233.13H494.087V232.349C493.913 232.6 493.672 232.808 493.364 232.975C493.062 233.136 492.712 233.216 492.314 233.216C491.864 233.216 491.453 233.101 491.081 232.87C490.715 232.638 490.422 232.314 490.204 231.896C489.992 231.473 489.886 230.988 489.886 230.442ZM494.087 230.461C494.087 230.133 494.022 229.854 493.894 229.623C493.766 229.385 493.592 229.205 493.374 229.083C493.155 228.955 492.921 228.891 492.67 228.891C492.42 228.891 492.189 228.952 491.977 229.074C491.765 229.196 491.591 229.375 491.457 229.613C491.328 229.844 491.264 230.121 491.264 230.442C491.264 230.763 491.328 231.045 491.457 231.289C491.591 231.527 491.765 231.71 491.977 231.839C492.195 231.967 492.426 232.031 492.67 232.031C492.921 232.031 493.155 231.97 493.374 231.848C493.592 231.72 493.766 231.54 493.894 231.309C494.022 231.071 494.087 230.789 494.087 230.461ZM499.672 227.706C500.07 227.706 500.42 227.786 500.722 227.946C501.024 228.101 501.262 228.303 501.435 228.553V227.792H502.794V233.168C502.794 233.663 502.694 234.103 502.495 234.488C502.296 234.88 501.997 235.188 501.599 235.413C501.201 235.644 500.719 235.76 500.154 235.76C499.396 235.76 498.773 235.583 498.285 235.23C497.803 234.877 497.53 234.395 497.466 233.785H498.805C498.876 234.029 499.027 234.222 499.258 234.363C499.495 234.511 499.781 234.584 500.115 234.584C500.507 234.584 500.825 234.466 501.069 234.228C501.313 233.997 501.435 233.643 501.435 233.168V232.34C501.262 232.59 501.021 232.799 500.713 232.966C500.411 233.133 500.064 233.216 499.672 233.216C499.222 233.216 498.811 233.101 498.439 232.87C498.066 232.638 497.771 232.314 497.552 231.896C497.341 231.473 497.235 230.988 497.235 230.442C497.235 229.902 497.341 229.424 497.552 229.006C497.771 228.589 498.063 228.268 498.429 228.043C498.802 227.818 499.216 227.706 499.672 227.706ZM501.435 230.461C501.435 230.133 501.371 229.854 501.242 229.623C501.114 229.385 500.941 229.205 500.722 229.083C500.504 228.955 500.269 228.891 500.019 228.891C499.768 228.891 499.537 228.952 499.325 229.074C499.113 229.196 498.94 229.375 498.805 229.613C498.676 229.844 498.612 230.121 498.612 230.442C498.612 230.763 498.676 231.045 498.805 231.289C498.94 231.527 499.113 231.71 499.325 231.839C499.544 231.967 499.775 232.031 500.019 232.031C500.269 232.031 500.504 231.97 500.722 231.848C500.941 231.72 501.114 231.54 501.242 231.309C501.371 231.071 501.435 230.789 501.435 230.461ZM509.891 230.345C509.891 230.538 509.879 230.711 509.853 230.866H505.951C505.983 231.251 506.118 231.553 506.356 231.771C506.593 231.99 506.886 232.099 507.232 232.099C507.733 232.099 508.09 231.884 508.302 231.453H509.757C509.602 231.967 509.307 232.391 508.87 232.725C508.433 233.053 507.897 233.216 507.261 233.216C506.747 233.216 506.285 233.104 505.874 232.879C505.469 232.648 505.151 232.324 504.92 231.906C504.695 231.489 504.583 231.007 504.583 230.461C504.583 229.909 504.695 229.424 504.92 229.006C505.145 228.589 505.46 228.268 505.864 228.043C506.269 227.818 506.735 227.706 507.261 227.706C507.769 227.706 508.221 227.815 508.62 228.033C509.024 228.251 509.336 228.563 509.554 228.968C509.779 229.366 509.891 229.825 509.891 230.345ZM508.494 229.96C508.488 229.613 508.363 229.337 508.119 229.131C507.875 228.919 507.576 228.813 507.223 228.813C506.889 228.813 506.606 228.916 506.375 229.122C506.15 229.321 506.012 229.6 505.961 229.96H508.494ZM518.323 227.715C518.978 227.715 519.505 227.917 519.903 228.322C520.308 228.72 520.51 229.279 520.51 229.998V233.13H519.161V230.182C519.161 229.764 519.055 229.446 518.843 229.228C518.632 229.003 518.343 228.891 517.976 228.891C517.61 228.891 517.318 229.003 517.1 229.228C516.888 229.446 516.782 229.764 516.782 230.182V233.13H515.433V230.182C515.433 229.764 515.327 229.446 515.115 229.228C514.903 229.003 514.614 228.891 514.248 228.891C513.875 228.891 513.58 229.003 513.362 229.228C513.15 229.446 513.044 229.764 513.044 230.182V233.13H511.695V227.792H513.044V228.438C513.217 228.213 513.439 228.036 513.708 227.908C513.985 227.779 514.286 227.715 514.614 227.715C515.032 227.715 515.404 227.805 515.732 227.985C516.059 228.158 516.313 228.409 516.493 228.736C516.666 228.428 516.917 228.181 517.244 227.995C517.578 227.808 517.938 227.715 518.323 227.715ZM527.571 230.345C527.571 230.538 527.558 230.711 527.532 230.866H523.63C523.662 231.251 523.797 231.553 524.035 231.771C524.273 231.99 524.565 232.099 524.912 232.099C525.413 232.099 525.769 231.884 525.981 231.453H527.436C527.282 231.967 526.986 232.391 526.549 232.725C526.113 233.053 525.576 233.216 524.941 233.216C524.427 233.216 523.964 233.104 523.553 232.879C523.149 232.648 522.831 232.324 522.599 231.906C522.375 231.489 522.262 231.007 522.262 230.461C522.262 229.909 522.375 229.424 522.599 229.006C522.824 228.589 523.139 228.268 523.544 228.043C523.948 227.818 524.414 227.706 524.941 227.706C525.448 227.706 525.901 227.815 526.299 228.033C526.704 228.251 527.015 228.563 527.234 228.968C527.458 229.366 527.571 229.825 527.571 230.345ZM526.174 229.96C526.167 229.613 526.042 229.337 525.798 229.131C525.554 228.919 525.255 228.813 524.902 228.813C524.568 228.813 524.285 228.916 524.054 229.122C523.829 229.321 523.691 229.6 523.64 229.96H526.174ZM532.332 227.715C532.968 227.715 533.482 227.917 533.873 228.322C534.265 228.72 534.461 229.279 534.461 229.998V233.13H533.112V230.182C533.112 229.758 533.006 229.433 532.794 229.208C532.582 228.977 532.293 228.862 531.927 228.862C531.555 228.862 531.259 228.977 531.041 229.208C530.829 229.433 530.723 229.758 530.723 230.182V233.13H529.374V227.792H530.723V228.457C530.903 228.226 531.131 228.046 531.407 227.917C531.69 227.783 531.998 227.715 532.332 227.715ZM538.133 228.9V231.482C538.133 231.662 538.175 231.794 538.258 231.877C538.348 231.954 538.496 231.993 538.701 231.993H539.328V233.13H538.48C537.343 233.13 536.775 232.577 536.775 231.473V228.9H536.139V227.792H536.775V226.472H538.133V227.792H539.328V228.9H538.133Z" fill="white"/>
<g id="ic:baseline-inventory">
<path id="Vector_9" d="M514.408 167.051H488.855C487.258 167.051 485.661 168.488 485.661 170.245V175.052C485.661 176.202 486.348 177.192 487.258 177.751V195.798C487.258 197.554 489.015 198.992 490.453 198.992H512.811C514.248 198.992 516.005 197.554 516.005 195.798V177.751C516.916 177.192 517.602 176.202 517.602 175.052V170.245C517.602 168.488 516.005 167.051 514.408 167.051ZM506.423 186.215H496.841V183.021H506.423V186.215ZM514.408 175.036H488.855V170.245L514.408 170.213V175.036Z" fill="white"/>
</g>
</g>
</g>
<g id="sales">
<circle id="Ellipse 17" cx="499.236" cy="372.271" r="59.41" fill="#003755" fill-opacity="0.9"/>
<g id="Group 27">
<path id="Sales Management" d="M485.889 390.473C485.42 390.473 484.996 390.393 484.617 390.232C484.244 390.072 483.949 389.84 483.731 389.538C483.512 389.237 483.4 388.88 483.393 388.469H484.839C484.858 388.745 484.954 388.964 485.128 389.124C485.307 389.285 485.551 389.365 485.86 389.365C486.174 389.365 486.422 389.291 486.602 389.143C486.781 388.989 486.871 388.79 486.871 388.546C486.871 388.347 486.81 388.183 486.688 388.055C486.566 387.926 486.412 387.827 486.226 387.756C486.046 387.679 485.796 387.596 485.474 387.506C485.038 387.377 484.681 387.252 484.405 387.13C484.135 387.001 483.901 386.812 483.702 386.561C483.509 386.305 483.413 385.964 483.413 385.54C483.413 385.142 483.512 384.795 483.711 384.5C483.91 384.204 484.19 383.979 484.55 383.825C484.909 383.665 485.32 383.584 485.783 383.584C486.476 383.584 487.038 383.755 487.469 384.095C487.905 384.429 488.146 384.898 488.191 385.502H486.708C486.695 385.27 486.595 385.081 486.409 384.933C486.229 384.779 485.988 384.702 485.686 384.702C485.423 384.702 485.211 384.769 485.05 384.904C484.896 385.039 484.819 385.235 484.819 385.492C484.819 385.672 484.877 385.823 484.993 385.945C485.115 386.06 485.262 386.157 485.436 386.234C485.616 386.305 485.866 386.388 486.187 386.484C486.624 386.613 486.981 386.741 487.257 386.87C487.533 386.998 487.771 387.191 487.97 387.448C488.169 387.705 488.268 388.042 488.268 388.459C488.268 388.819 488.175 389.153 487.989 389.461C487.803 389.77 487.53 390.017 487.17 390.203C486.81 390.383 486.383 390.473 485.889 390.473ZM489.91 387.718C489.91 387.178 490.016 386.7 490.228 386.282C490.446 385.865 490.738 385.543 491.104 385.319C491.477 385.094 491.891 384.981 492.347 384.981C492.745 384.981 493.092 385.062 493.388 385.222C493.69 385.383 493.93 385.585 494.11 385.829V385.068H495.469V390.406H494.11V389.625C493.937 389.876 493.696 390.084 493.388 390.251C493.086 390.412 492.736 390.492 492.338 390.492C491.888 390.492 491.477 390.377 491.104 390.145C490.738 389.914 490.446 389.59 490.228 389.172C490.016 388.748 489.91 388.263 489.91 387.718ZM494.11 387.737C494.11 387.409 494.046 387.13 493.918 386.899C493.789 386.661 493.616 386.481 493.397 386.359C493.179 386.231 492.945 386.166 492.694 386.166C492.444 386.166 492.212 386.227 492 386.349C491.788 386.472 491.615 386.651 491.48 386.889C491.352 387.12 491.287 387.396 491.287 387.718C491.287 388.039 491.352 388.321 491.48 388.565C491.615 388.803 491.788 388.986 492 389.115C492.219 389.243 492.45 389.307 492.694 389.307C492.945 389.307 493.179 389.246 493.397 389.124C493.616 388.996 493.789 388.816 493.918 388.585C494.046 388.347 494.11 388.064 494.11 387.737ZM498.954 383.276V390.406H497.605V383.276H498.954ZM506.067 387.621C506.067 387.814 506.054 387.987 506.028 388.141H502.127C502.159 388.527 502.294 388.829 502.531 389.047C502.769 389.265 503.061 389.375 503.408 389.375C503.909 389.375 504.265 389.159 504.477 388.729H505.932C505.778 389.243 505.483 389.667 505.046 390.001C504.609 390.328 504.073 390.492 503.437 390.492C502.923 390.492 502.461 390.38 502.05 390.155C501.645 389.924 501.327 389.599 501.096 389.182C500.871 388.764 500.759 388.283 500.759 387.737C500.759 387.184 500.871 386.7 501.096 386.282C501.321 385.865 501.635 385.543 502.04 385.319C502.445 385.094 502.91 384.981 503.437 384.981C503.944 384.981 504.397 385.091 504.795 385.309C505.2 385.527 505.511 385.839 505.73 386.244C505.955 386.642 506.067 387.101 506.067 387.621ZM504.67 387.236C504.664 386.889 504.538 386.613 504.294 386.407C504.05 386.195 503.752 386.089 503.398 386.089C503.064 386.089 502.782 386.192 502.55 386.398C502.326 386.597 502.188 386.876 502.136 387.236H504.67ZM509.913 390.492C509.476 390.492 509.084 390.415 508.738 390.261C508.391 390.1 508.114 389.885 507.909 389.616C507.71 389.346 507.601 389.047 507.581 388.72H508.94C508.966 388.925 509.065 389.095 509.238 389.23C509.418 389.365 509.64 389.432 509.903 389.432C510.16 389.432 510.359 389.381 510.501 389.278C510.648 389.176 510.722 389.044 510.722 388.883C510.722 388.71 510.632 388.581 510.452 388.498C510.279 388.408 510 388.312 509.614 388.209C509.216 388.113 508.888 388.013 508.632 387.91C508.381 387.807 508.163 387.65 507.976 387.438C507.797 387.226 507.707 386.94 507.707 386.581C507.707 386.285 507.79 386.015 507.957 385.771C508.131 385.527 508.375 385.335 508.689 385.193C509.01 385.052 509.386 384.981 509.817 384.981C510.452 384.981 510.96 385.142 511.339 385.463C511.718 385.778 511.926 386.205 511.965 386.744H510.674C510.655 386.533 510.565 386.366 510.404 386.244C510.25 386.115 510.041 386.051 509.778 386.051C509.534 386.051 509.344 386.096 509.21 386.186C509.081 386.276 509.017 386.401 509.017 386.561C509.017 386.741 509.107 386.879 509.287 386.976C509.467 387.066 509.746 387.159 510.125 387.255C510.51 387.351 510.828 387.451 511.079 387.554C511.329 387.657 511.544 387.817 511.724 388.035C511.91 388.247 512.007 388.53 512.013 388.883C512.013 389.192 511.926 389.468 511.753 389.712C511.586 389.956 511.342 390.149 511.021 390.29C510.706 390.425 510.337 390.492 509.913 390.492ZM470.19 399.681V406.406H468.841V402.032L467.039 406.406H466.018L464.207 402.032V406.406H462.858V399.681H464.39L466.529 404.681L468.667 399.681H470.19ZM471.995 403.718C471.995 403.178 472.101 402.7 472.313 402.282C472.532 401.865 472.824 401.543 473.19 401.319C473.562 401.094 473.977 400.981 474.433 400.981C474.831 400.981 475.178 401.062 475.473 401.222C475.775 401.383 476.016 401.585 476.196 401.829V401.068H477.554V406.406H476.196V405.625C476.022 405.876 475.782 406.084 475.473 406.251C475.171 406.412 474.821 406.492 474.423 406.492C473.974 406.492 473.562 406.377 473.19 406.145C472.824 405.914 472.532 405.59 472.313 405.172C472.101 404.748 471.995 404.263 471.995 403.718ZM476.196 403.737C476.196 403.409 476.132 403.13 476.003 402.899C475.875 402.661 475.701 402.481 475.483 402.359C475.265 402.231 475.03 402.166 474.78 402.166C474.529 402.166 474.298 402.227 474.086 402.349C473.874 402.472 473.701 402.651 473.566 402.889C473.437 403.12 473.373 403.396 473.373 403.718C473.373 404.039 473.437 404.321 473.566 404.565C473.701 404.803 473.874 404.986 474.086 405.115C474.304 405.243 474.536 405.307 474.78 405.307C475.03 405.307 475.265 405.246 475.483 405.124C475.701 404.996 475.875 404.816 476.003 404.585C476.132 404.347 476.196 404.064 476.196 403.737ZM482.648 400.991C483.284 400.991 483.798 401.193 484.19 401.598C484.582 401.996 484.777 402.555 484.777 403.274V406.406H483.429V403.457C483.429 403.034 483.323 402.709 483.111 402.484C482.899 402.253 482.61 402.138 482.244 402.138C481.871 402.138 481.576 402.253 481.357 402.484C481.145 402.709 481.039 403.034 481.039 403.457V406.406H479.691V401.068H481.039V401.733C481.219 401.502 481.447 401.322 481.723 401.193C482.006 401.058 482.314 400.991 482.648 400.991ZM486.532 403.718C486.532 403.178 486.638 402.7 486.85 402.282C487.068 401.865 487.361 401.543 487.727 401.319C488.099 401.094 488.514 400.981 488.97 400.981C489.368 400.981 489.715 401.062 490.01 401.222C490.312 401.383 490.553 401.585 490.733 401.829V401.068H492.091V406.406H490.733V405.625C490.559 405.876 490.318 406.084 490.01 406.251C489.708 406.412 489.358 406.492 488.96 406.492C488.51 406.492 488.099 406.377 487.727 406.145C487.361 405.914 487.068 405.59 486.85 405.172C486.638 404.748 486.532 404.263 486.532 403.718ZM490.733 403.737C490.733 403.409 490.668 403.13 490.54 402.899C490.412 402.661 490.238 402.481 490.02 402.359C489.801 402.231 489.567 402.166 489.316 402.166C489.066 402.166 488.835 402.227 488.623 402.349C488.411 402.472 488.237 402.651 488.103 402.889C487.974 403.12 487.91 403.396 487.91 403.718C487.91 404.039 487.974 404.321 488.103 404.565C488.237 404.803 488.411 404.986 488.623 405.115C488.841 405.243 489.072 405.307 489.316 405.307C489.567 405.307 489.801 405.246 490.02 405.124C490.238 404.996 490.412 404.816 490.54 404.585C490.668 404.347 490.733 404.064 490.733 403.737ZM496.318 400.981C496.716 400.981 497.066 401.062 497.368 401.222C497.67 401.376 497.908 401.579 498.081 401.829V401.068H499.44V406.444C499.44 406.939 499.34 407.379 499.141 407.764C498.942 408.156 498.643 408.464 498.245 408.689C497.847 408.92 497.365 409.036 496.8 409.036C496.042 409.036 495.419 408.859 494.931 408.506C494.449 408.153 494.176 407.671 494.112 407.061H495.451C495.522 407.305 495.673 407.497 495.904 407.639C496.141 407.786 496.427 407.86 496.761 407.86C497.153 407.86 497.471 407.741 497.715 407.504C497.959 407.273 498.081 406.919 498.081 406.444V405.616C497.908 405.866 497.667 406.075 497.359 406.242C497.057 406.409 496.71 406.492 496.318 406.492C495.868 406.492 495.457 406.377 495.085 406.145C494.712 405.914 494.417 405.59 494.198 405.172C493.987 404.748 493.881 404.263 493.881 403.718C493.881 403.178 493.987 402.7 494.198 402.282C494.417 401.865 494.709 401.543 495.075 401.319C495.448 401.094 495.862 400.981 496.318 400.981ZM498.081 403.737C498.081 403.409 498.017 403.13 497.888 402.899C497.76 402.661 497.587 402.481 497.368 402.359C497.15 402.231 496.915 402.166 496.665 402.166C496.414 402.166 496.183 402.227 495.971 402.349C495.759 402.472 495.586 402.651 495.451 402.889C495.322 403.12 495.258 403.396 495.258 403.718C495.258 404.039 495.322 404.321 495.451 404.565C495.586 404.803 495.759 404.986 495.971 405.115C496.19 405.243 496.421 405.307 496.665 405.307C496.915 405.307 497.15 405.246 497.368 405.124C497.587 404.996 497.76 404.816 497.888 404.585C498.017 404.347 498.081 404.064 498.081 403.737ZM506.537 403.621C506.537 403.814 506.525 403.987 506.499 404.141H502.597C502.629 404.527 502.764 404.829 503.002 405.047C503.239 405.265 503.532 405.375 503.878 405.375C504.379 405.375 504.736 405.159 504.948 404.729H506.403C506.248 405.243 505.953 405.667 505.516 406.001C505.079 406.328 504.543 406.492 503.907 406.492C503.393 406.492 502.931 406.38 502.52 406.155C502.115 405.924 501.797 405.599 501.566 405.182C501.341 404.764 501.229 404.283 501.229 403.737C501.229 403.184 501.341 402.7 501.566 402.282C501.791 401.865 502.106 401.543 502.51 401.319C502.915 401.094 503.381 400.981 503.907 400.981C504.415 400.981 504.867 401.091 505.266 401.309C505.67 401.527 505.982 401.839 506.2 402.244C506.425 402.642 506.537 403.101 506.537 403.621ZM505.14 403.236C505.134 402.889 505.009 402.613 504.765 402.407C504.521 402.195 504.222 402.089 503.869 402.089C503.535 402.089 503.252 402.192 503.021 402.398C502.796 402.597 502.658 402.876 502.607 403.236H505.14ZM514.969 400.991C515.624 400.991 516.151 401.193 516.549 401.598C516.954 401.996 517.156 402.555 517.156 403.274V406.406H515.807V403.457C515.807 403.04 515.701 402.722 515.489 402.504C515.278 402.279 514.989 402.166 514.622 402.166C514.256 402.166 513.964 402.279 513.746 402.504C513.534 402.722 513.428 403.04 513.428 403.457V406.406H512.079V403.457C512.079 403.04 511.973 402.722 511.761 402.504C511.549 402.279 511.26 402.166 510.894 402.166C510.521 402.166 510.226 402.279 510.008 402.504C509.796 402.722 509.69 403.04 509.69 403.457V406.406H508.341V401.068H509.69V401.714C509.863 401.489 510.085 401.312 510.354 401.184C510.631 401.055 510.932 400.991 511.26 400.991C511.678 400.991 512.05 401.081 512.378 401.261C512.705 401.434 512.959 401.685 513.139 402.012C513.312 401.704 513.563 401.457 513.89 401.27C514.224 401.084 514.584 400.991 514.969 400.991ZM524.217 403.621C524.217 403.814 524.204 403.987 524.178 404.141H520.276C520.308 404.527 520.443 404.829 520.681 405.047C520.919 405.265 521.211 405.375 521.558 405.375C522.059 405.375 522.415 405.159 522.627 404.729H524.082C523.928 405.243 523.632 405.667 523.195 406.001C522.759 406.328 522.222 406.492 521.587 406.492C521.073 406.492 520.61 406.38 520.199 406.155C519.795 405.924 519.477 405.599 519.245 405.182C519.021 404.764 518.908 404.283 518.908 403.737C518.908 403.184 519.021 402.7 519.245 402.282C519.47 401.865 519.785 401.543 520.19 401.319C520.594 401.094 521.06 400.981 521.587 400.981C522.094 400.981 522.547 401.091 522.945 401.309C523.35 401.527 523.661 401.839 523.88 402.244C524.104 402.642 524.217 403.101 524.217 403.621ZM522.82 403.236C522.813 402.889 522.688 402.613 522.444 402.407C522.2 402.195 521.901 402.089 521.548 402.089C521.214 402.089 520.931 402.192 520.7 402.398C520.475 402.597 520.337 402.876 520.286 403.236H522.82ZM528.978 400.991C529.614 400.991 530.128 401.193 530.519 401.598C530.911 401.996 531.107 402.555 531.107 403.274V406.406H529.758V403.457C529.758 403.034 529.652 402.709 529.44 402.484C529.228 402.253 528.939 402.138 528.573 402.138C528.201 402.138 527.905 402.253 527.687 402.484C527.475 402.709 527.369 403.034 527.369 403.457V406.406H526.02V401.068H527.369V401.733C527.549 401.502 527.777 401.322 528.053 401.193C528.336 401.058 528.644 400.991 528.978 400.991ZM534.779 402.176V404.758C534.779 404.938 534.821 405.07 534.904 405.153C534.994 405.23 535.142 405.269 535.347 405.269H535.974V406.406H535.126C533.989 406.406 533.421 405.853 533.421 404.748V402.176H532.785V401.068H533.421V399.748H534.779V401.068H535.974V402.176H534.779Z" fill="white"/>
<g id="gridicons:stats-up-alt">
<path id="Vector_10" d="M513.609 372.271H484.863V369.077H513.609V372.271ZM492.848 354.704H486.46V365.883H492.848V354.704ZM502.43 348.316H496.042V365.883H502.43V348.316ZM512.012 343.524H505.624V365.883H512.012V343.524Z" fill="white"/>
</g>
</g>
</g>
<g id="employee">
<circle id="Ellipse 18" cx="375.146" cy="494.924" r="59.41" fill="#003755" fill-opacity="0.9"/>
<g id="Group 31">
<path id="Employee Management" d="M350.142 509.349V511.035H352.406V512.105H350.142V513.887H352.695V514.985H348.793V508.251H352.695V509.349H350.142ZM361.368 509.571C362.023 509.571 362.55 509.773 362.948 510.178C363.352 510.576 363.555 511.135 363.555 511.854V514.985H362.206V512.037C362.206 511.62 362.1 511.302 361.888 511.083C361.676 510.859 361.387 510.746 361.021 510.746C360.655 510.746 360.363 510.859 360.144 511.083C359.932 511.302 359.826 511.62 359.826 512.037V514.985H358.477V512.037C358.477 511.62 358.371 511.302 358.159 511.083C357.948 510.859 357.659 510.746 357.292 510.746C356.92 510.746 356.624 510.859 356.406 511.083C356.194 511.302 356.088 511.62 356.088 512.037V514.985H354.739V509.648H356.088V510.293C356.262 510.069 356.483 509.892 356.753 509.764C357.029 509.635 357.331 509.571 357.659 509.571C358.076 509.571 358.449 509.661 358.776 509.841C359.104 510.014 359.357 510.265 359.537 510.592C359.711 510.284 359.961 510.037 360.289 509.85C360.623 509.664 360.982 509.571 361.368 509.571ZM367.002 510.419C367.176 510.175 367.413 509.972 367.715 509.812C368.024 509.645 368.374 509.561 368.765 509.561C369.221 509.561 369.632 509.674 369.999 509.898C370.371 510.123 370.663 510.444 370.875 510.862C371.094 511.273 371.203 511.751 371.203 512.297C371.203 512.843 371.094 513.328 370.875 513.752C370.663 514.17 370.371 514.494 369.999 514.725C369.632 514.956 369.221 515.072 368.765 515.072C368.374 515.072 368.027 514.992 367.725 514.831C367.429 514.671 367.189 514.468 367.002 514.224V517.529H365.654V509.648H367.002V510.419ZM369.825 512.297C369.825 511.976 369.758 511.7 369.623 511.469C369.494 511.231 369.321 511.051 369.103 510.929C368.891 510.807 368.659 510.746 368.409 510.746C368.165 510.746 367.934 510.81 367.715 510.939C367.503 511.061 367.33 511.241 367.195 511.478C367.067 511.716 367.002 511.996 367.002 512.317C367.002 512.638 367.067 512.917 367.195 513.155C367.33 513.392 367.503 513.576 367.715 513.704C367.934 513.826 368.165 513.887 368.409 513.887C368.659 513.887 368.891 513.823 369.103 513.694C369.321 513.566 369.494 513.383 369.623 513.145C369.758 512.908 369.825 512.625 369.825 512.297ZM374.351 507.856V514.985H373.002V507.856H374.351ZM378.872 515.072C378.358 515.072 377.896 514.96 377.485 514.735C377.074 514.504 376.75 514.179 376.512 513.762C376.281 513.344 376.165 512.863 376.165 512.317C376.165 511.771 376.284 511.289 376.522 510.872C376.766 510.454 377.096 510.133 377.514 509.908C377.931 509.677 378.397 509.561 378.911 509.561C379.425 509.561 379.89 509.677 380.308 509.908C380.725 510.133 381.053 510.454 381.29 510.872C381.535 511.289 381.657 511.771 381.657 512.317C381.657 512.863 381.531 513.344 381.281 513.762C381.037 514.179 380.703 514.504 380.279 514.735C379.861 514.96 379.393 515.072 378.872 515.072ZM378.872 513.897C379.116 513.897 379.344 513.839 379.556 513.723C379.775 513.601 379.948 513.421 380.077 513.184C380.205 512.946 380.269 512.657 380.269 512.317C380.269 511.809 380.134 511.421 379.865 511.151C379.601 510.875 379.277 510.737 378.892 510.737C378.506 510.737 378.182 510.875 377.918 511.151C377.662 511.421 377.533 511.809 377.533 512.317C377.533 512.824 377.658 513.216 377.909 513.492C378.166 513.762 378.487 513.897 378.872 513.897ZM388.571 509.648L385.267 517.51H383.831L384.987 514.85L382.848 509.648H384.361L385.739 513.376L387.136 509.648H388.571ZM395.079 512.201C395.079 512.394 395.066 512.567 395.04 512.721H391.138C391.17 513.107 391.305 513.409 391.543 513.627C391.781 513.845 392.073 513.954 392.42 513.954C392.921 513.954 393.277 513.739 393.489 513.309H394.944C394.79 513.823 394.494 514.247 394.057 514.581C393.621 514.908 393.084 515.072 392.449 515.072C391.935 515.072 391.472 514.96 391.061 514.735C390.657 514.504 390.339 514.179 390.107 513.762C389.883 513.344 389.77 512.863 389.77 512.317C389.77 511.764 389.883 511.279 390.107 510.862C390.332 510.444 390.647 510.123 391.052 509.898C391.456 509.674 391.922 509.561 392.449 509.561C392.956 509.561 393.409 509.67 393.807 509.889C394.212 510.107 394.523 510.419 394.742 510.823C394.966 511.222 395.079 511.681 395.079 512.201ZM393.682 511.816C393.675 511.469 393.55 511.193 393.306 510.987C393.062 510.775 392.763 510.669 392.41 510.669C392.076 510.669 391.793 510.772 391.562 510.977C391.337 511.177 391.199 511.456 391.148 511.816H393.682ZM401.844 512.201C401.844 512.394 401.831 512.567 401.805 512.721H397.903C397.935 513.107 398.07 513.409 398.308 513.627C398.546 513.845 398.838 513.954 399.185 513.954C399.686 513.954 400.042 513.739 400.254 513.309H401.709C401.555 513.823 401.259 514.247 400.823 514.581C400.386 514.908 399.85 515.072 399.214 515.072C398.7 515.072 398.237 514.96 397.826 514.735C397.422 514.504 397.104 514.179 396.873 513.762C396.648 513.344 396.535 512.863 396.535 512.317C396.535 511.764 396.648 511.279 396.873 510.862C397.097 510.444 397.412 510.123 397.817 509.898C398.221 509.674 398.687 509.561 399.214 509.561C399.721 509.561 400.174 509.67 400.572 509.889C400.977 510.107 401.288 510.419 401.507 510.823C401.731 511.222 401.844 511.681 401.844 512.201ZM400.447 511.816C400.44 511.469 400.315 511.193 400.071 510.987C399.827 510.775 399.528 510.669 399.175 510.669C398.841 510.669 398.559 510.772 398.327 510.977C398.102 511.177 397.964 511.456 397.913 511.816H400.447ZM346.099 524.261V530.985H344.751V526.611L342.949 530.985H341.928L340.116 526.611V530.985H338.768V524.261H340.3L342.438 529.261L344.577 524.261H346.099ZM347.905 528.297C347.905 527.758 348.011 527.279 348.223 526.862C348.441 526.444 348.734 526.123 349.1 525.898C349.472 525.674 349.886 525.561 350.342 525.561C350.741 525.561 351.087 525.642 351.383 525.802C351.685 525.963 351.926 526.165 352.106 526.409V525.648H353.464V530.985H352.106V530.205C351.932 530.455 351.691 530.664 351.383 530.831C351.081 530.992 350.731 531.072 350.333 531.072C349.883 531.072 349.472 530.956 349.1 530.725C348.734 530.494 348.441 530.17 348.223 529.752C348.011 529.328 347.905 528.843 347.905 528.297ZM352.106 528.317C352.106 527.989 352.041 527.71 351.913 527.478C351.784 527.241 351.611 527.061 351.393 526.939C351.174 526.81 350.94 526.746 350.689 526.746C350.439 526.746 350.208 526.807 349.996 526.929C349.784 527.051 349.61 527.231 349.475 527.469C349.347 527.7 349.283 527.976 349.283 528.297C349.283 528.619 349.347 528.901 349.475 529.145C349.61 529.383 349.784 529.566 349.996 529.694C350.214 529.823 350.445 529.887 350.689 529.887C350.94 529.887 351.174 529.826 351.393 529.704C351.611 529.576 351.784 529.396 351.913 529.164C352.041 528.927 352.106 528.644 352.106 528.317ZM358.558 525.571C359.194 525.571 359.708 525.773 360.099 526.178C360.491 526.576 360.687 527.135 360.687 527.854V530.985H359.338V528.037C359.338 527.613 359.232 527.289 359.02 527.064C358.808 526.833 358.519 526.717 358.153 526.717C357.781 526.717 357.485 526.833 357.267 527.064C357.055 527.289 356.949 527.613 356.949 528.037V530.985H355.6V525.648H356.949V526.313C357.129 526.082 357.357 525.902 357.633 525.773C357.916 525.638 358.224 525.571 358.558 525.571ZM362.442 528.297C362.442 527.758 362.548 527.279 362.76 526.862C362.978 526.444 363.27 526.123 363.636 525.898C364.009 525.674 364.423 525.561 364.879 525.561C365.278 525.561 365.624 525.642 365.92 525.802C366.222 525.963 366.463 526.165 366.642 526.409V525.648H368.001V530.985H366.642V530.205C366.469 530.455 366.228 530.664 365.92 530.831C365.618 530.992 365.268 531.072 364.87 531.072C364.42 531.072 364.009 530.956 363.636 530.725C363.27 530.494 362.978 530.17 362.76 529.752C362.548 529.328 362.442 528.843 362.442 528.297ZM366.642 528.317C366.642 527.989 366.578 527.71 366.45 527.478C366.321 527.241 366.148 527.061 365.929 526.939C365.711 526.81 365.477 526.746 365.226 526.746C364.976 526.746 364.744 526.807 364.532 526.929C364.32 527.051 364.147 527.231 364.012 527.469C363.884 527.7 363.82 527.976 363.82 528.297C363.82 528.619 363.884 528.901 364.012 529.145C364.147 529.383 364.32 529.566 364.532 529.694C364.751 529.823 364.982 529.887 365.226 529.887C365.477 529.887 365.711 529.826 365.929 529.704C366.148 529.576 366.321 529.396 366.45 529.164C366.578 528.927 366.642 528.644 366.642 528.317ZM372.228 525.561C372.626 525.561 372.976 525.642 373.278 525.802C373.58 525.956 373.817 526.159 373.991 526.409V525.648H375.349V531.024C375.349 531.518 375.25 531.958 375.051 532.344C374.851 532.736 374.553 533.044 374.155 533.269C373.756 533.5 373.275 533.616 372.709 533.616C371.952 533.616 371.328 533.439 370.84 533.086C370.359 532.732 370.086 532.251 370.021 531.64H371.361C371.431 531.885 371.582 532.077 371.813 532.219C372.051 532.366 372.337 532.44 372.671 532.44C373.063 532.44 373.381 532.321 373.625 532.084C373.869 531.852 373.991 531.499 373.991 531.024V530.195C373.817 530.446 373.576 530.655 373.268 530.822C372.966 530.989 372.619 531.072 372.228 531.072C371.778 531.072 371.367 530.956 370.994 530.725C370.622 530.494 370.327 530.17 370.108 529.752C369.896 529.328 369.79 528.843 369.79 528.297C369.79 527.758 369.896 527.279 370.108 526.862C370.327 526.444 370.619 526.123 370.985 525.898C371.357 525.674 371.772 525.561 372.228 525.561ZM373.991 528.317C373.991 527.989 373.927 527.71 373.798 527.478C373.67 527.241 373.496 527.061 373.278 526.939C373.059 526.81 372.825 526.746 372.575 526.746C372.324 526.746 372.093 526.807 371.881 526.929C371.669 527.051 371.495 527.231 371.361 527.469C371.232 527.7 371.168 527.976 371.168 528.297C371.168 528.619 371.232 528.901 371.361 529.145C371.495 529.383 371.669 529.566 371.881 529.694C372.099 529.823 372.33 529.887 372.575 529.887C372.825 529.887 373.059 529.826 373.278 529.704C373.496 529.576 373.67 529.396 373.798 529.164C373.927 528.927 373.991 528.644 373.991 528.317ZM382.447 528.201C382.447 528.394 382.434 528.567 382.409 528.721H378.507C378.539 529.107 378.674 529.409 378.911 529.627C379.149 529.845 379.441 529.954 379.788 529.954C380.289 529.954 380.645 529.739 380.857 529.309H382.312C382.158 529.823 381.863 530.247 381.426 530.581C380.989 530.908 380.453 531.072 379.817 531.072C379.303 531.072 378.841 530.96 378.43 530.735C378.025 530.504 377.707 530.179 377.476 529.762C377.251 529.344 377.139 528.863 377.139 528.317C377.139 527.764 377.251 527.279 377.476 526.862C377.701 526.444 378.015 526.123 378.42 525.898C378.825 525.674 379.29 525.561 379.817 525.561C380.324 525.561 380.777 525.67 381.175 525.889C381.58 526.107 381.892 526.419 382.11 526.823C382.335 527.222 382.447 527.681 382.447 528.201ZM381.05 527.816C381.044 527.469 380.918 527.193 380.674 526.987C380.43 526.775 380.132 526.669 379.778 526.669C379.444 526.669 379.162 526.772 378.931 526.977C378.706 527.177 378.568 527.456 378.516 527.816H381.05ZM390.879 525.571C391.534 525.571 392.061 525.773 392.459 526.178C392.864 526.576 393.066 527.135 393.066 527.854V530.985H391.717V528.037C391.717 527.62 391.611 527.302 391.399 527.083C391.187 526.859 390.898 526.746 390.532 526.746C390.166 526.746 389.874 526.859 389.655 527.083C389.443 527.302 389.337 527.62 389.337 528.037V530.985H387.989V528.037C387.989 527.62 387.883 527.302 387.671 527.083C387.459 526.859 387.17 526.746 386.804 526.746C386.431 526.746 386.136 526.859 385.917 527.083C385.705 527.302 385.599 527.62 385.599 528.037V530.985H384.251V525.648H385.599V526.293C385.773 526.069 385.994 525.892 386.264 525.764C386.54 525.635 386.842 525.571 387.17 525.571C387.587 525.571 387.96 525.661 388.287 525.841C388.615 526.014 388.869 526.265 389.048 526.592C389.222 526.284 389.472 526.037 389.8 525.85C390.134 525.664 390.494 525.571 390.879 525.571ZM400.126 528.201C400.126 528.394 400.114 528.567 400.088 528.721H396.186C396.218 529.107 396.353 529.409 396.591 529.627C396.828 529.845 397.12 529.954 397.467 529.954C397.968 529.954 398.325 529.739 398.537 529.309H399.992C399.837 529.823 399.542 530.247 399.105 530.581C398.668 530.908 398.132 531.072 397.496 531.072C396.982 531.072 396.52 530.96 396.109 530.735C395.704 530.504 395.386 530.179 395.155 529.762C394.93 529.344 394.818 528.863 394.818 528.317C394.818 527.764 394.93 527.279 395.155 526.862C395.38 526.444 395.695 526.123 396.099 525.898C396.504 525.674 396.97 525.561 397.496 525.561C398.004 525.561 398.456 525.67 398.855 525.889C399.259 526.107 399.571 526.419 399.789 526.823C400.014 527.222 400.126 527.681 400.126 528.201ZM398.729 527.816C398.723 527.469 398.598 527.193 398.354 526.987C398.11 526.775 397.811 526.669 397.458 526.669C397.124 526.669 396.841 526.772 396.61 526.977C396.385 527.177 396.247 527.456 396.196 527.816H398.729ZM404.888 525.571C405.523 525.571 406.037 525.773 406.429 526.178C406.821 526.576 407.017 527.135 407.017 527.854V530.985H405.668V528.037C405.668 527.613 405.562 527.289 405.35 527.064C405.138 526.833 404.849 526.717 404.483 526.717C404.11 526.717 403.815 526.833 403.597 527.064C403.385 527.289 403.279 527.613 403.279 528.037V530.985H401.93V525.648H403.279V526.313C403.458 526.082 403.686 525.902 403.963 525.773C404.245 525.638 404.554 525.571 404.888 525.571ZM410.689 526.756V529.338C410.689 529.518 410.73 529.649 410.814 529.733C410.904 529.81 411.052 529.849 411.257 529.849H411.883V530.985H411.035C409.899 530.985 409.33 530.433 409.33 529.328V526.756H408.694V525.648H409.33V524.328H410.689V525.648H411.883V526.756H410.689Z" fill="white"/>
<g id="clarity:employee-group-solid">
<g id="Layer 3">
<path id="Vector_11" d="M373.229 477.921C376.028 477.921 378.297 475.68 378.297 472.917C378.297 470.153 376.028 467.913 373.229 467.913C370.43 467.913 368.161 470.153 368.161 472.917C368.161 475.68 370.43 477.921 373.229 477.921Z" fill="white"/>
<path id="Vector_12" d="M365.542 473.417H366.053V472.959C366.056 471.628 366.432 470.324 367.137 469.195C367.843 468.066 368.85 467.157 370.046 466.571C369.692 465.756 369.124 465.052 368.402 464.534C367.68 464.016 366.832 463.703 365.946 463.629C365.061 463.554 364.172 463.721 363.374 464.111C362.576 464.501 361.898 465.1 361.413 465.845C360.928 466.589 360.653 467.451 360.619 468.339C360.584 469.226 360.791 470.107 361.216 470.887C361.642 471.667 362.271 472.317 363.036 472.768C363.802 473.219 364.675 473.454 365.563 473.449L365.542 473.417Z" fill="white"/>
<path id="Vector_13" d="M380.427 472.917V473.375H380.938C381.814 473.366 382.672 473.121 383.421 472.666C384.171 472.21 384.783 471.561 385.195 470.787C385.606 470.013 385.801 469.142 385.76 468.267C385.718 467.391 385.441 466.543 384.958 465.811C384.475 465.08 383.803 464.492 383.014 464.11C382.225 463.728 381.348 463.565 380.474 463.64C379.601 463.714 378.763 464.023 378.051 464.533C377.338 465.044 376.776 465.737 376.423 466.539C377.619 467.123 378.628 468.03 379.335 469.157C380.042 470.284 380.421 471.586 380.427 472.917V472.917Z" fill="white"/>
<path id="Vector_14" d="M377.797 478.421C379.914 478.84 381.961 479.557 383.876 480.551C384.146 480.699 384.391 480.889 384.6 481.115H390.264V477.474C390.265 477.334 390.228 477.197 390.157 477.077C390.086 476.957 389.983 476.858 389.86 476.792C387.1 475.349 384.031 474.6 380.916 474.61H380.214C379.845 476.11 378.996 477.448 377.797 478.421V478.421Z" fill="white"/>
<path id="Vector_15" d="M361.017 483.181C361.015 482.644 361.16 482.118 361.436 481.658C361.712 481.198 362.108 480.823 362.582 480.572C364.498 479.579 366.545 478.862 368.662 478.443C367.468 477.477 366.62 476.151 366.245 474.663H365.542C362.428 474.653 359.358 475.402 356.599 476.846C356.476 476.912 356.373 477.01 356.302 477.13C356.23 477.25 356.193 477.387 356.194 477.527V484.33H361.017V483.181Z" fill="white"/>
<path id="Vector_16" d="M376.913 489.324H383.259V490.814H376.913V489.324Z" fill="white"/>
<path id="Vector_17" d="M388.998 483.542H381.683V482.478C381.683 482.195 381.571 481.924 381.371 481.725C381.172 481.525 380.901 481.413 380.618 481.413C380.336 481.413 380.065 481.525 379.866 481.725C379.666 481.924 379.554 482.195 379.554 482.478V483.542H377.488V480.529C376.087 480.235 374.661 480.082 373.229 480.071C369.869 480.057 366.557 480.869 363.583 482.435C363.451 482.504 363.34 482.608 363.263 482.736C363.186 482.863 363.146 483.01 363.147 483.159V489.132H370.717V495.616C370.717 495.898 370.829 496.169 371.029 496.369C371.228 496.569 371.499 496.681 371.781 496.681H388.998C389.28 496.681 389.551 496.569 389.75 496.369C389.95 496.169 390.062 495.898 390.062 495.616V484.607C390.062 484.325 389.95 484.054 389.75 483.854C389.551 483.655 389.28 483.542 388.998 483.542ZM387.933 494.573H372.846V485.672H379.554V486.641C379.554 486.923 379.666 487.194 379.866 487.393C380.065 487.593 380.336 487.705 380.618 487.705C380.901 487.705 381.172 487.593 381.371 487.393C381.571 487.194 381.683 486.923 381.683 486.641V485.672H387.933V494.573Z" fill="white"/>
</g>
</g>
</g>
</g>
<g id="support">
<circle id="Ellipse 22" cx="196.437" cy="494.924" r="59.41" fill="#003755" fill-opacity="0.9"/>
<g id="Group 32">
<path id="24x7 Support" d="M160.991 523.046C161.608 522.532 162.099 522.105 162.465 521.764C162.831 521.417 163.136 521.058 163.38 520.685C163.624 520.313 163.747 519.947 163.747 519.587C163.747 519.259 163.669 519.002 163.515 518.816C163.361 518.63 163.124 518.537 162.802 518.537C162.481 518.537 162.234 518.646 162.061 518.864C161.887 519.076 161.797 519.369 161.791 519.741H160.481C160.506 518.97 160.734 518.386 161.165 517.988C161.601 517.589 162.154 517.39 162.822 517.39C163.554 517.39 164.116 517.586 164.508 517.978C164.899 518.363 165.095 518.874 165.095 519.51C165.095 520.011 164.96 520.489 164.691 520.945C164.421 521.401 164.113 521.8 163.766 522.14C163.419 522.474 162.966 522.879 162.407 523.354H165.249V524.472H160.49V523.47L160.991 523.046ZM166.861 523.2V522.14L170.011 517.631H171.581V522.024H172.429V523.2H171.581V524.568H170.233V523.2H166.861ZM170.319 519.076L168.344 522.024H170.319V519.076ZM177.209 524.568L176.111 522.911L175.138 524.568H173.692L175.436 521.89L173.673 519.23H175.195L176.284 520.878L177.267 519.23H178.712L176.959 521.89L178.731 524.568H177.209ZM184.599 518.566L182.036 524.568H180.668L183.25 518.72H179.955V517.564H184.599V518.566ZM191.816 524.635C191.347 524.635 190.923 524.555 190.545 524.394C190.172 524.234 189.877 524.003 189.658 523.701C189.44 523.399 189.327 523.042 189.321 522.631H190.766C190.785 522.908 190.882 523.126 191.055 523.287C191.235 523.447 191.479 523.527 191.787 523.527C192.102 523.527 192.349 523.454 192.529 523.306C192.709 523.152 192.799 522.953 192.799 522.708C192.799 522.509 192.738 522.346 192.616 522.217C192.494 522.089 192.34 521.989 192.153 521.918C191.974 521.841 191.723 521.758 191.402 521.668C190.965 521.539 190.609 521.414 190.333 521.292C190.063 521.164 189.828 520.974 189.629 520.724C189.437 520.467 189.34 520.126 189.34 519.703C189.34 519.304 189.44 518.958 189.639 518.662C189.838 518.367 190.117 518.142 190.477 517.988C190.837 517.827 191.248 517.747 191.71 517.747C192.404 517.747 192.966 517.917 193.396 518.257C193.833 518.591 194.074 519.06 194.119 519.664H192.635C192.622 519.433 192.523 519.243 192.336 519.096C192.157 518.941 191.916 518.864 191.614 518.864C191.351 518.864 191.139 518.932 190.978 519.067C190.824 519.202 190.747 519.397 190.747 519.654C190.747 519.834 190.805 519.985 190.92 520.107C191.042 520.223 191.19 520.319 191.363 520.396C191.543 520.467 191.794 520.55 192.115 520.647C192.552 520.775 192.908 520.904 193.184 521.032C193.46 521.161 193.698 521.353 193.897 521.61C194.096 521.867 194.196 522.204 194.196 522.622C194.196 522.981 194.103 523.315 193.917 523.624C193.73 523.932 193.457 524.179 193.098 524.366C192.738 524.545 192.311 524.635 191.816 524.635ZM201.223 519.23V524.568H199.864V523.893C199.691 524.125 199.463 524.308 199.18 524.443C198.904 524.571 198.602 524.635 198.275 524.635C197.857 524.635 197.488 524.549 197.167 524.375C196.846 524.195 196.592 523.935 196.406 523.595C196.226 523.248 196.136 522.837 196.136 522.362V519.23H197.485V522.169C197.485 522.593 197.591 522.92 197.803 523.152C198.015 523.376 198.304 523.489 198.67 523.489C199.042 523.489 199.335 523.376 199.547 523.152C199.758 522.92 199.864 522.593 199.864 522.169V519.23H201.223ZM204.721 520.001C204.895 519.757 205.132 519.555 205.434 519.394C205.743 519.227 206.093 519.144 206.485 519.144C206.941 519.144 207.352 519.256 207.718 519.481C208.09 519.706 208.382 520.027 208.594 520.444C208.813 520.855 208.922 521.334 208.922 521.88C208.922 522.426 208.813 522.911 208.594 523.335C208.382 523.752 208.09 524.077 207.718 524.308C207.352 524.539 206.941 524.655 206.485 524.655C206.093 524.655 205.746 524.574 205.444 524.414C205.149 524.253 204.908 524.051 204.721 523.807V527.111H203.373V519.23H204.721V520.001ZM207.544 521.88C207.544 521.559 207.477 521.283 207.342 521.051C207.213 520.814 207.04 520.634 206.822 520.512C206.61 520.39 206.379 520.329 206.128 520.329C205.884 520.329 205.653 520.393 205.434 520.521C205.222 520.644 205.049 520.823 204.914 521.061C204.786 521.299 204.721 521.578 204.721 521.899C204.721 522.22 204.786 522.5 204.914 522.737C205.049 522.975 205.222 523.158 205.434 523.287C205.653 523.409 205.884 523.47 206.128 523.47C206.379 523.47 206.61 523.405 206.822 523.277C207.04 523.148 207.213 522.965 207.342 522.728C207.477 522.49 207.544 522.207 207.544 521.88ZM212.07 520.001C212.243 519.757 212.481 519.555 212.783 519.394C213.091 519.227 213.441 519.144 213.833 519.144C214.289 519.144 214.7 519.256 215.066 519.481C215.439 519.706 215.731 520.027 215.943 520.444C216.161 520.855 216.27 521.334 216.27 521.88C216.27 522.426 216.161 522.911 215.943 523.335C215.731 523.752 215.439 524.077 215.066 524.308C214.7 524.539 214.289 524.655 213.833 524.655C213.441 524.655 213.094 524.574 212.792 524.414C212.497 524.253 212.256 524.051 212.07 523.807V527.111H210.721V519.23H212.07V520.001ZM214.893 521.88C214.893 521.559 214.825 521.283 214.69 521.051C214.562 520.814 214.388 520.634 214.17 520.512C213.958 520.39 213.727 520.329 213.476 520.329C213.232 520.329 213.001 520.393 212.783 520.521C212.571 520.644 212.397 520.823 212.263 521.061C212.134 521.299 212.07 521.578 212.07 521.899C212.07 522.22 212.134 522.5 212.263 522.737C212.397 522.975 212.571 523.158 212.783 523.287C213.001 523.409 213.232 523.47 213.476 523.47C213.727 523.47 213.958 523.405 214.17 523.277C214.388 523.148 214.562 522.965 214.69 522.728C214.825 522.49 214.893 522.207 214.893 521.88ZM220.439 524.655C219.926 524.655 219.463 524.542 219.052 524.317C218.641 524.086 218.317 523.762 218.079 523.344C217.848 522.927 217.732 522.445 217.732 521.899C217.732 521.353 217.851 520.872 218.089 520.454C218.333 520.037 218.664 519.715 219.081 519.491C219.499 519.259 219.964 519.144 220.478 519.144C220.992 519.144 221.457 519.259 221.875 519.491C222.292 519.715 222.62 520.037 222.858 520.454C223.102 520.872 223.224 521.353 223.224 521.899C223.224 522.445 223.099 522.927 222.848 523.344C222.604 523.762 222.27 524.086 221.846 524.317C221.429 524.542 220.96 524.655 220.439 524.655ZM220.439 523.479C220.684 523.479 220.912 523.421 221.123 523.306C221.342 523.184 221.515 523.004 221.644 522.766C221.772 522.529 221.836 522.24 221.836 521.899C221.836 521.392 221.702 521.003 221.432 520.733C221.168 520.457 220.844 520.319 220.459 520.319C220.073 520.319 219.749 520.457 219.486 520.733C219.229 521.003 219.1 521.392 219.1 521.899C219.1 522.407 219.226 522.798 219.476 523.075C219.733 523.344 220.054 523.479 220.439 523.479ZM226.381 520.059C226.554 519.776 226.779 519.555 227.055 519.394C227.338 519.234 227.659 519.153 228.019 519.153V520.57H227.662C227.238 520.57 226.917 520.669 226.699 520.868C226.487 521.067 226.381 521.414 226.381 521.909V524.568H225.032V519.23H226.381V520.059ZM231.316 520.338V522.92C231.316 523.1 231.358 523.232 231.442 523.315C231.532 523.392 231.679 523.431 231.885 523.431H232.511V524.568H231.663C230.526 524.568 229.958 524.016 229.958 522.911V520.338H229.322V519.23H229.958V517.911H231.316V519.23H232.511V520.338H231.316Z" fill="white"/>
<g id="ic:baseline-support">
<path id="Vector_18" d="M196.437 464.5C186.519 464.5 178.47 472.55 178.47 482.467C178.47 492.385 186.519 500.434 196.437 500.434C206.354 500.434 214.403 492.385 214.403 482.467C214.403 472.55 206.354 464.5 196.437 464.5ZM209.84 477.293L204.845 479.359C204.395 478.148 203.688 477.049 202.774 476.137C201.859 475.226 200.757 474.523 199.545 474.077L201.611 469.082C205.384 470.519 208.385 473.52 209.84 477.293V477.293ZM196.437 487.857C193.454 487.857 191.047 485.45 191.047 482.467C191.047 479.485 193.454 477.077 196.437 477.077C199.419 477.077 201.827 479.485 201.827 482.467C201.827 485.45 199.419 487.857 196.437 487.857ZM191.28 469.064L193.382 474.059C192.156 474.506 191.041 475.215 190.117 476.136C189.192 477.058 188.479 478.17 188.028 479.395L183.034 477.311C183.754 475.435 184.86 473.732 186.281 472.311C187.702 470.891 189.405 469.784 191.28 469.064V469.064ZM183.034 487.624L188.028 485.558C188.476 486.779 189.186 487.888 190.108 488.807C191.03 489.726 192.141 490.432 193.364 490.876L191.262 495.87C189.391 495.147 187.692 494.039 186.274 492.619C184.857 491.198 183.753 489.497 183.034 487.624V487.624ZM201.611 495.87L199.545 490.876C200.763 490.424 201.868 489.713 202.783 488.792C203.699 487.87 204.402 486.76 204.845 485.54L209.84 487.642C209.117 489.511 208.012 491.208 206.595 492.625C205.178 494.042 203.48 495.148 201.611 495.87V495.87Z" fill="white"/>
</g>
</g>
</g>
<g id="secure">
<circle id="Ellipse 21" cx="63.7223" cy="372.271" r="59.41" fill="#003755" fill-opacity="0.9"/>
<g id="Group 33">
<path id="Highly Secure" d="M31.4919 393.752V400.477H30.1431V397.616H27.2625V400.477H25.9137V393.752H27.2625V396.517H30.1431V393.752H31.4919ZM34.3224 394.504C34.0848 394.504 33.8857 394.43 33.7251 394.282C33.571 394.128 33.4939 393.939 33.4939 393.714C33.4939 393.489 33.571 393.303 33.7251 393.155C33.8857 393.001 34.0848 392.924 34.3224 392.924C34.5601 392.924 34.756 393.001 34.9101 393.155C35.0707 393.303 35.151 393.489 35.151 393.714C35.151 393.939 35.0707 394.128 34.9101 394.282C34.756 394.43 34.5601 394.504 34.3224 394.504ZM34.9872 395.14V400.477H33.6384V395.14H34.9872ZM39.2294 395.053C39.6276 395.053 39.9776 395.133 40.2795 395.294C40.5814 395.448 40.819 395.65 40.9925 395.901V395.14H42.3509V400.516C42.3509 401.01 42.2513 401.45 42.0522 401.835C41.8531 402.227 41.5545 402.536 41.1562 402.76C40.758 402.992 40.2763 403.107 39.7111 403.107C38.9532 403.107 38.3302 402.931 37.842 402.577C37.3603 402.224 37.0874 401.742 37.0231 401.132H38.3623C38.433 401.376 38.5839 401.569 38.8151 401.71C39.0528 401.858 39.3386 401.932 39.6726 401.932C40.0644 401.932 40.3823 401.813 40.6264 401.575C40.8704 401.344 40.9925 400.991 40.9925 400.516V399.687C40.819 399.938 40.5782 400.146 40.2699 400.313C39.968 400.48 39.6212 400.564 39.2294 400.564C38.7798 400.564 38.3687 400.448 37.9962 400.217C37.6237 399.986 37.3282 399.661 37.1098 399.244C36.8979 398.82 36.7919 398.335 36.7919 397.789C36.7919 397.25 36.8979 396.771 37.1098 396.354C37.3282 395.936 37.6205 395.615 37.9866 395.39C38.3591 395.165 38.7734 395.053 39.2294 395.053ZM40.9925 397.808C40.9925 397.481 40.9282 397.201 40.7998 396.97C40.6713 396.733 40.4979 396.553 40.2795 396.431C40.0611 396.302 39.8267 396.238 39.5762 396.238C39.3257 396.238 39.0945 396.299 38.8826 396.421C38.6706 396.543 38.4972 396.723 38.3623 396.961C38.2338 397.192 38.1696 397.468 38.1696 397.789C38.1696 398.11 38.2338 398.393 38.3623 398.637C38.4972 398.875 38.6706 399.058 38.8826 399.186C39.1009 399.315 39.3322 399.379 39.5762 399.379C39.8267 399.379 40.0611 399.318 40.2795 399.196C40.4979 399.067 40.6713 398.887 40.7998 398.656C40.9282 398.419 40.9925 398.136 40.9925 397.808ZM47.493 395.063C47.8977 395.063 48.2574 395.153 48.5721 395.332C48.8868 395.506 49.1309 395.766 49.3043 396.113C49.4841 396.453 49.574 396.864 49.574 397.346V400.477H48.2252V397.529C48.2252 397.105 48.1193 396.781 47.9073 396.556C47.6954 396.325 47.4063 396.209 47.0402 396.209C46.6677 396.209 46.3723 396.325 46.1539 396.556C45.9419 396.781 45.8359 397.105 45.8359 397.529V400.477H44.4871V393.348H45.8359V395.804C46.0094 395.573 46.2406 395.393 46.5296 395.265C46.8186 395.13 47.1398 395.063 47.493 395.063ZM53.0244 393.348V400.477H51.6756V393.348H53.0244ZM60.2821 395.14L56.9775 403.001H55.542L56.6981 400.342L54.5593 395.14H56.0719L57.4496 398.868L58.8466 395.14H60.2821ZM67.2645 400.544C66.7957 400.544 66.3718 400.464 65.9928 400.304C65.6203 400.143 65.3248 399.912 65.1065 399.61C64.8881 399.308 64.7757 398.952 64.7693 398.541H66.2144C66.2337 398.817 66.33 399.035 66.5034 399.196C66.6833 399.356 66.9273 399.437 67.2356 399.437C67.5504 399.437 67.7976 399.363 67.9775 399.215C68.1573 399.061 68.2472 398.862 68.2472 398.618C68.2472 398.419 68.1862 398.255 68.0642 398.126C67.9422 397.998 67.788 397.898 67.6017 397.828C67.4219 397.751 67.1714 397.667 66.8503 397.577C66.4135 397.449 66.057 397.323 65.7809 397.201C65.5111 397.073 65.2767 396.883 65.0776 396.633C64.8849 396.376 64.7885 396.036 64.7885 395.612C64.7885 395.214 64.8881 394.867 65.0872 394.571C65.2863 394.276 65.5657 394.051 65.9254 393.897C66.2851 393.736 66.6961 393.656 67.1586 393.656C67.8522 393.656 68.4142 393.826 68.8446 394.167C69.2813 394.501 69.5222 394.969 69.5671 395.573H68.0835C68.0706 395.342 67.9711 395.153 67.7848 395.005C67.605 394.851 67.3641 394.774 67.0622 394.774C66.7989 394.774 66.5869 394.841 66.4264 394.976C66.2722 395.111 66.1951 395.307 66.1951 395.564C66.1951 395.743 66.2529 395.894 66.3686 396.016C66.4906 396.132 66.6383 396.228 66.8117 396.305C66.9916 396.376 67.2421 396.46 67.5632 396.556C68 396.684 68.3564 396.813 68.6326 396.941C68.9088 397.07 69.1464 397.262 69.3455 397.519C69.5447 397.776 69.6442 398.113 69.6442 398.531C69.6442 398.891 69.5511 399.225 69.3648 399.533C69.1786 399.841 68.9056 400.088 68.5459 400.275C68.1862 400.455 67.7591 400.544 67.2645 400.544ZM76.5941 397.693C76.5941 397.885 76.5813 398.059 76.5556 398.213H72.6537C72.6858 398.598 72.8207 398.9 73.0584 399.119C73.296 399.337 73.5882 399.446 73.9351 399.446C74.4361 399.446 74.7925 399.231 75.0045 398.801H76.4593C76.3051 399.315 76.0097 399.738 75.5729 400.072C75.1362 400.4 74.5998 400.564 73.964 400.564C73.4502 400.564 72.9877 400.451 72.5766 400.227C72.172 399.995 71.8541 399.671 71.6229 399.253C71.3981 398.836 71.2857 398.354 71.2857 397.808C71.2857 397.256 71.3981 396.771 71.6229 396.354C71.8477 395.936 72.1624 395.615 72.567 395.39C72.9717 395.165 73.4373 395.053 73.964 395.053C74.4714 395.053 74.9242 395.162 75.3224 395.381C75.7271 395.599 76.0386 395.91 76.2569 396.315C76.4817 396.713 76.5941 397.172 76.5941 397.693ZM75.1972 397.307C75.1907 396.961 75.0655 396.684 74.8214 396.479C74.5774 396.267 74.2787 396.161 73.9254 396.161C73.5915 396.161 73.3089 396.264 73.0776 396.469C72.8528 396.668 72.7147 396.948 72.6634 397.307H75.1972ZM78.0507 397.808C78.0507 397.256 78.1631 396.774 78.3879 396.363C78.6127 395.946 78.9242 395.625 79.3225 395.4C79.7207 395.169 80.1767 395.053 80.6905 395.053C81.3521 395.053 81.898 395.22 82.3283 395.554C82.7651 395.881 83.0573 396.344 83.2051 396.941H81.7503C81.6732 396.71 81.5415 396.53 81.3553 396.402C81.1754 396.267 80.9506 396.199 80.6809 396.199C80.2955 396.199 79.9904 396.341 79.7656 396.623C79.5408 396.9 79.4284 397.295 79.4284 397.808C79.4284 398.316 79.5408 398.711 79.7656 398.993C79.9904 399.27 80.2955 399.408 80.6809 399.408C81.2268 399.408 81.5833 399.164 81.7503 398.675H83.2051C83.0573 399.253 82.7651 399.713 82.3283 400.053C81.8916 400.394 81.3457 400.564 80.6905 400.564C80.1767 400.564 79.7207 400.451 79.3225 400.227C78.9242 399.995 78.6127 399.674 78.3879 399.263C78.1631 398.846 78.0507 398.361 78.0507 397.808ZM90.0508 395.14V400.477H88.6924V399.803C88.519 400.034 88.291 400.217 88.0084 400.352C87.7322 400.48 87.4303 400.544 87.1027 400.544C86.6853 400.544 86.3159 400.458 85.9948 400.284C85.6737 400.105 85.42 399.844 85.2337 399.504C85.0538 399.157 84.9639 398.746 84.9639 398.271V395.14H86.3127V398.078C86.3127 398.502 86.4187 398.83 86.6307 399.061C86.8426 399.286 87.1316 399.398 87.4977 399.398C87.8703 399.398 88.1625 399.286 88.3745 399.061C88.5864 398.83 88.6924 398.502 88.6924 398.078V395.14H90.0508ZM93.5493 395.968C93.7228 395.686 93.9476 395.464 94.2237 395.303C94.5064 395.143 94.8275 395.063 95.1872 395.063V396.479H94.8307C94.4068 396.479 94.0857 396.578 93.8673 396.777C93.6553 396.977 93.5493 397.323 93.5493 397.818V400.477H92.2005V395.14H93.5493V395.968ZM101.876 397.693C101.876 397.885 101.863 398.059 101.838 398.213H97.9358C97.9679 398.598 98.1028 398.9 98.3405 399.119C98.5781 399.337 98.8703 399.446 99.2172 399.446C99.7182 399.446 100.075 399.231 100.287 398.801H101.741C101.587 399.315 101.292 399.738 100.855 400.072C100.418 400.4 99.8819 400.564 99.2461 400.564C98.7323 400.564 98.2698 400.451 97.8587 400.227C97.4541 399.995 97.1362 399.671 96.9049 399.253C96.6801 398.836 96.5677 398.354 96.5677 397.808C96.5677 397.256 96.6801 396.771 96.9049 396.354C97.1297 395.936 97.4445 395.615 97.8491 395.39C98.2537 395.165 98.7194 395.053 99.2461 395.053C99.7535 395.053 100.206 395.162 100.605 395.381C101.009 395.599 101.321 395.91 101.539 396.315C101.764 396.713 101.876 397.172 101.876 397.693ZM100.479 397.307C100.473 396.961 100.348 396.684 100.104 396.479C99.8595 396.267 99.5608 396.161 99.2075 396.161C98.8736 396.161 98.5909 396.264 98.3597 396.469C98.1349 396.668 97.9968 396.948 97.9455 397.307H100.479Z" fill="white"/>
<g id="bi:shield-lock-fill" clip-path="url(#clip1)">
<path id="Vector_19" fill-rule="evenodd" clip-rule="evenodd" d="M63.7226 341.608C62.0696 341.608 59.3076 342.242 56.7084 342.949C54.0493 343.668 51.3687 344.518 49.7924 345.033C49.1333 345.251 48.5491 345.65 48.1067 346.185C47.6643 346.72 47.3817 347.368 47.2914 348.057C45.8636 358.781 49.1767 366.73 53.1965 371.988C54.9011 374.238 56.9336 376.218 59.2261 377.865C60.1508 378.519 61.0084 379.019 61.7367 379.362C62.4074 379.678 63.1285 379.937 63.7226 379.937C64.3167 379.937 65.0354 379.678 65.7085 379.362C66.5864 378.935 67.4263 378.434 68.2191 377.865C70.5116 376.218 72.5441 374.238 74.2487 371.988C78.2685 366.73 81.5815 358.781 80.1538 348.057C80.0636 347.368 79.7812 346.719 79.3388 346.184C78.8964 345.649 78.312 345.249 77.6528 345.031C75.3646 344.281 73.0586 343.586 70.7368 342.947C68.1376 342.245 65.3755 341.608 63.7226 341.608ZM63.7226 353.585C64.5712 353.584 65.3929 353.883 66.0421 354.43C66.6913 354.976 67.1261 355.735 67.2696 356.571C67.413 357.408 67.2559 358.268 66.8259 359C66.3959 359.731 65.7209 360.287 64.9204 360.569L65.8427 365.336C65.8762 365.509 65.871 365.688 65.8274 365.859C65.7838 366.03 65.7029 366.189 65.5905 366.326C65.4781 366.462 65.337 366.572 65.1772 366.647C65.0175 366.722 64.843 366.761 64.6664 366.761H62.7787C62.6023 366.761 62.4282 366.722 62.2687 366.646C62.1092 366.571 61.9684 366.461 61.8563 366.325C61.7441 366.189 61.6634 366.029 61.62 365.858C61.5765 365.687 61.5714 365.509 61.6049 365.336L62.5248 360.569C61.7243 360.287 61.0493 359.731 60.6193 359C60.1893 358.268 60.0321 357.408 60.1756 356.571C60.3191 355.735 60.7539 354.976 61.4031 354.43C62.0523 353.883 62.874 353.584 63.7226 353.585V353.585Z" fill="white"/>
</g>
</g>
</g>
<g id="parking">
<circle id="Ellipse 20" cx="59.4103" cy="197.874" r="59.41" fill="#003755" fill-opacity="0.9"/>
<g id="Group 34">
<path id="Parking Management" d="M42.2186 210.896C42.2186 211.256 42.1319 211.593 41.9585 211.907C41.7915 212.222 41.5249 212.476 41.1588 212.669C40.7992 212.861 40.3431 212.958 39.7908 212.958H38.6636V215.54H37.3148V208.815H39.7908C40.311 208.815 40.7542 208.905 41.1203 209.085C41.4864 209.264 41.7594 209.512 41.9392 209.826C42.1255 210.141 42.2186 210.498 42.2186 210.896ZM39.733 211.869C40.1055 211.869 40.3817 211.785 40.5615 211.618C40.7414 211.445 40.8313 211.204 40.8313 210.896C40.8313 210.241 40.4652 209.913 39.733 209.913H38.6636V211.869H39.733ZM43.6483 212.852C43.6483 212.312 43.7543 211.834 43.9663 211.416C44.1846 210.999 44.4769 210.677 44.843 210.453C45.2155 210.228 45.6298 210.115 46.0858 210.115C46.484 210.115 46.8309 210.196 47.1263 210.356C47.4282 210.517 47.669 210.719 47.8489 210.963V210.202H49.2073V215.54H47.8489V214.759C47.6755 215.01 47.4346 215.218 47.1263 215.385C46.8244 215.546 46.4744 215.626 46.0762 215.626C45.6266 215.626 45.2155 215.511 44.843 215.279C44.4769 215.048 44.1846 214.724 43.9663 214.306C43.7543 213.882 43.6483 213.398 43.6483 212.852ZM47.8489 212.871C47.8489 212.543 47.7846 212.264 47.6562 212.033C47.5277 211.795 47.3543 211.615 47.1359 211.493C46.9176 211.365 46.6831 211.3 46.4326 211.3C46.1821 211.3 45.9509 211.361 45.739 211.484C45.527 211.606 45.3536 211.785 45.2187 212.023C45.0903 212.254 45.026 212.53 45.026 212.852C45.026 213.173 45.0903 213.455 45.2187 213.699C45.3536 213.937 45.527 214.12 45.739 214.249C45.9573 214.377 46.1886 214.441 46.4326 214.441C46.6831 214.441 46.9176 214.38 47.1359 214.258C47.3543 214.13 47.5277 213.95 47.6562 213.719C47.7846 213.481 47.8489 213.198 47.8489 212.871ZM52.6924 211.031C52.8658 210.748 53.0906 210.527 53.3668 210.366C53.6494 210.205 53.9705 210.125 54.3302 210.125V211.541H53.9737C53.5498 211.541 53.2287 211.641 53.0103 211.84C52.7983 212.039 52.6924 212.386 52.6924 212.88V215.54H51.3436V210.202H52.6924V211.031ZM59.2176 215.54L57.4064 213.266V215.54H56.0576V208.41H57.4064V212.466L59.1984 210.202H60.9518L58.601 212.88L60.9711 215.54H59.2176ZM63.1868 209.566C62.9492 209.566 62.7501 209.492 62.5895 209.345C62.4353 209.191 62.3583 209.001 62.3583 208.776C62.3583 208.551 62.4353 208.365 62.5895 208.217C62.7501 208.063 62.9492 207.986 63.1868 207.986C63.4245 207.986 63.6203 208.063 63.7745 208.217C63.9351 208.365 64.0154 208.551 64.0154 208.776C64.0154 209.001 63.9351 209.191 63.7745 209.345C63.6203 209.492 63.4245 209.566 63.1868 209.566ZM63.8516 210.202V215.54H62.5028V210.202H63.8516ZM68.9608 210.125C69.5967 210.125 70.1105 210.327 70.5023 210.732C70.8941 211.13 71.09 211.689 71.09 212.408V215.54H69.7412V212.591C69.7412 212.168 69.6352 211.843 69.4233 211.618C69.2113 211.387 68.9223 211.272 68.5562 211.272C68.1837 211.272 67.8882 211.387 67.6698 211.618C67.4579 211.843 67.3519 212.168 67.3519 212.591V215.54H66.0031V210.202H67.3519V210.867C67.5317 210.636 67.7597 210.456 68.0359 210.327C68.3185 210.193 68.6268 210.125 68.9608 210.125ZM75.2822 210.115C75.6804 210.115 76.0305 210.196 76.3323 210.356C76.6342 210.51 76.8718 210.713 77.0453 210.963V210.202H78.4037V215.578C78.4037 216.073 78.3041 216.513 78.105 216.898C77.9059 217.29 77.6073 217.598 77.209 217.823C76.8108 218.054 76.3291 218.17 75.7639 218.17C75.006 218.17 74.383 217.993 73.8949 217.64C73.4131 217.287 73.1402 216.805 73.0759 216.195H74.4151C74.4858 216.439 74.6367 216.631 74.8679 216.773C75.1056 216.92 75.3914 216.994 75.7254 216.994C76.1172 216.994 76.4351 216.876 76.6792 216.638C76.9232 216.407 77.0453 216.053 77.0453 215.578V214.75C76.8718 215 76.631 215.209 76.3227 215.376C76.0208 215.543 75.674 215.626 75.2822 215.626C74.8326 215.626 74.4215 215.511 74.049 215.279C73.6765 215.048 73.381 214.724 73.1626 214.306C72.9507 213.882 72.8447 213.398 72.8447 212.852C72.8447 212.312 72.9507 211.834 73.1626 211.416C73.381 210.999 73.6733 210.677 74.0394 210.453C74.4119 210.228 74.8262 210.115 75.2822 210.115ZM77.0453 212.871C77.0453 212.543 76.981 212.264 76.8526 212.033C76.7241 211.795 76.5507 211.615 76.3323 211.493C76.114 211.365 75.8795 211.3 75.629 211.3C75.3785 211.3 75.1473 211.361 74.9354 211.484C74.7234 211.606 74.55 211.785 74.4151 212.023C74.2866 212.254 74.2224 212.53 74.2224 212.852C74.2224 213.173 74.2866 213.455 74.4151 213.699C74.55 213.937 74.7234 214.12 74.9354 214.249C75.1537 214.377 75.385 214.441 75.629 214.441C75.8795 214.441 76.114 214.38 76.3323 214.258C76.5507 214.13 76.7241 213.95 76.8526 213.719C76.981 213.481 77.0453 213.198 77.0453 212.871ZM30.364 224.815V231.54H29.0152V227.166L27.2136 231.54H26.1924L24.3811 227.166V231.54H23.0323V224.815H24.5642L26.703 229.815L28.8418 224.815H30.364ZM32.1696 228.852C32.1696 228.312 32.2756 227.834 32.4875 227.416C32.7059 226.999 32.9982 226.677 33.3643 226.453C33.7368 226.228 34.1511 226.115 34.6071 226.115C35.0053 226.115 35.3521 226.196 35.6476 226.356C35.9495 226.517 36.1903 226.719 36.3702 226.963V226.202H37.7286V231.54H36.3702V230.759C36.1967 231.01 35.9559 231.218 35.6476 231.385C35.3457 231.546 34.9957 231.626 34.5974 231.626C34.1478 231.626 33.7368 231.511 33.3643 231.279C32.9982 231.048 32.7059 230.724 32.4875 230.306C32.2756 229.882 32.1696 229.398 32.1696 228.852ZM36.3702 228.871C36.3702 228.543 36.3059 228.264 36.1775 228.033C36.049 227.795 35.8756 227.615 35.6572 227.493C35.4388 227.365 35.2044 227.3 34.9539 227.3C34.7034 227.3 34.4722 227.361 34.2602 227.484C34.0483 227.606 33.8749 227.785 33.74 228.023C33.6115 228.254 33.5473 228.53 33.5473 228.852C33.5473 229.173 33.6115 229.455 33.74 229.699C33.8749 229.937 34.0483 230.12 34.2602 230.249C34.4786 230.377 34.7098 230.441 34.9539 230.441C35.2044 230.441 35.4388 230.38 35.6572 230.258C35.8756 230.13 36.049 229.95 36.1775 229.719C36.3059 229.481 36.3702 229.198 36.3702 228.871ZM42.8226 226.125C43.4584 226.125 43.9723 226.327 44.3641 226.732C44.7558 227.13 44.9517 227.689 44.9517 228.408V231.54H43.6029V228.591C43.6029 228.168 43.497 227.843 43.285 227.618C43.0731 227.387 42.784 227.272 42.4179 227.272C42.0454 227.272 41.7499 227.387 41.5316 227.618C41.3196 227.843 41.2136 228.168 41.2136 228.591V231.54H39.8648V226.202H41.2136V226.867C41.3935 226.636 41.6215 226.456 41.8977 226.327C42.1803 226.193 42.4886 226.125 42.8226 226.125ZM46.7065 228.852C46.7065 228.312 46.8124 227.834 47.0244 227.416C47.2428 226.999 47.535 226.677 47.9011 226.453C48.2736 226.228 48.6879 226.115 49.1439 226.115C49.5421 226.115 49.889 226.196 50.1844 226.356C50.4863 226.517 50.7272 226.719 50.907 226.963V226.202H52.2654V231.54H50.907V230.759C50.7336 231.01 50.4927 231.218 50.1844 231.385C49.8826 231.546 49.5325 231.626 49.1343 231.626C48.6847 231.626 48.2736 231.511 47.9011 231.279C47.535 231.048 47.2428 230.724 47.0244 230.306C46.8124 229.882 46.7065 229.398 46.7065 228.852ZM50.907 228.871C50.907 228.543 50.8428 228.264 50.7143 228.033C50.5859 227.795 50.4124 227.615 50.1941 227.493C49.9757 227.365 49.7413 227.3 49.4908 227.3C49.2403 227.3 49.0091 227.361 48.7971 227.484C48.5851 227.606 48.4117 227.785 48.2768 228.023C48.1484 228.254 48.0842 228.53 48.0842 228.852C48.0842 229.173 48.1484 229.455 48.2768 229.699C48.4117 229.937 48.5851 230.12 48.7971 230.249C49.0155 230.377 49.2467 230.441 49.4908 230.441C49.7413 230.441 49.9757 230.38 50.1941 230.258C50.4124 230.13 50.5859 229.95 50.7143 229.719C50.8428 229.481 50.907 229.198 50.907 228.871ZM56.4923 226.115C56.8905 226.115 57.2406 226.196 57.5425 226.356C57.8443 226.51 58.082 226.713 58.2554 226.963V226.202H59.6138V231.578C59.6138 232.073 59.5143 232.513 59.3152 232.898C59.1161 233.29 58.8174 233.598 58.4192 233.823C58.021 234.054 57.5393 234.17 56.974 234.17C56.2161 234.17 55.5931 233.993 55.105 233.64C54.6233 233.287 54.3503 232.805 54.2861 232.195H55.6252C55.6959 232.439 55.8468 232.631 56.0781 232.773C56.3157 232.92 56.6015 232.994 56.9355 232.994C57.3273 232.994 57.6452 232.876 57.8893 232.638C58.1334 232.407 58.2554 232.053 58.2554 231.578V230.75C58.082 231 57.8411 231.209 57.5328 231.376C57.231 231.543 56.8841 231.626 56.4923 231.626C56.0427 231.626 55.6317 231.511 55.2591 231.279C54.8866 231.048 54.5912 230.724 54.3728 230.306C54.1608 229.882 54.0549 229.398 54.0549 228.852C54.0549 228.312 54.1608 227.834 54.3728 227.416C54.5912 226.999 54.8834 226.677 55.2495 226.453C55.622 226.228 56.0363 226.115 56.4923 226.115ZM58.2554 228.871C58.2554 228.543 58.1912 228.264 58.0627 228.033C57.9343 227.795 57.7608 227.615 57.5425 227.493C57.3241 227.365 57.0897 227.3 56.8392 227.3C56.5887 227.3 56.3575 227.361 56.1455 227.484C55.9335 227.606 55.7601 227.785 55.6252 228.023C55.4968 228.254 55.4326 228.53 55.4326 228.852C55.4326 229.173 55.4968 229.455 55.6252 229.699C55.7601 229.937 55.9335 230.12 56.1455 230.249C56.3639 230.377 56.5951 230.441 56.8392 230.441C57.0897 230.441 57.3241 230.38 57.5425 230.258C57.7608 230.13 57.9343 229.95 58.0627 229.719C58.1912 229.481 58.2554 229.198 58.2554 228.871ZM66.7117 228.755C66.7117 228.948 66.6989 229.121 66.6732 229.275H62.7713C62.8034 229.661 62.9383 229.963 63.176 230.181C63.4136 230.399 63.7059 230.509 64.0527 230.509C64.5537 230.509 64.9101 230.294 65.1221 229.863H66.5769C66.4227 230.377 66.1273 230.801 65.6905 231.135C65.2538 231.462 64.7175 231.626 64.0816 231.626C63.5678 231.626 63.1053 231.514 62.6943 231.289C62.2896 231.058 61.9717 230.733 61.7405 230.316C61.5157 229.899 61.4033 229.417 61.4033 228.871C61.4033 228.318 61.5157 227.834 61.7405 227.416C61.9653 226.999 62.28 226.677 62.6846 226.453C63.0893 226.228 63.5549 226.115 64.0816 226.115C64.589 226.115 65.0418 226.225 65.44 226.443C65.8447 226.661 66.1562 226.973 66.3745 227.378C66.5993 227.776 66.7117 228.235 66.7117 228.755ZM65.3148 228.37C65.3084 228.023 65.1831 227.747 64.939 227.541C64.695 227.329 64.3963 227.223 64.0431 227.223C63.7091 227.223 63.4265 227.326 63.1952 227.532C62.9704 227.731 62.8323 228.01 62.781 228.37H65.3148ZM75.1436 226.125C75.7987 226.125 76.3254 226.327 76.7236 226.732C77.1282 227.13 77.3305 227.689 77.3305 228.408V231.54H75.9817V228.591C75.9817 228.174 75.8758 227.856 75.6638 227.638C75.4518 227.413 75.1628 227.3 74.7967 227.3C74.4306 227.3 74.1384 227.413 73.92 227.638C73.708 227.856 73.6021 228.174 73.6021 228.591V231.54H72.2533V228.591C72.2533 228.174 72.1473 227.856 71.9353 227.638C71.7234 227.413 71.4344 227.3 71.0682 227.3C70.6957 227.3 70.4003 227.413 70.1819 227.638C69.9699 227.856 69.864 228.174 69.864 228.591V231.54H68.5152V226.202H69.864V226.848C70.0374 226.623 70.259 226.446 70.5287 226.318C70.8049 226.189 71.1068 226.125 71.4344 226.125C71.8518 226.125 72.2244 226.215 72.5519 226.395C72.8795 226.568 73.1332 226.819 73.313 227.146C73.4865 226.838 73.7369 226.591 74.0645 226.404C74.3985 226.218 74.7582 226.125 75.1436 226.125ZM84.391 228.755C84.391 228.948 84.3782 229.121 84.3525 229.275H80.4506C80.4827 229.661 80.6176 229.963 80.8552 230.181C81.0929 230.399 81.3851 230.509 81.732 230.509C82.233 230.509 82.5894 230.294 82.8014 229.863H84.2562C84.102 230.377 83.8066 230.801 83.3698 231.135C82.933 231.462 82.3967 231.626 81.7609 231.626C81.247 231.626 80.7846 231.514 80.3735 231.289C79.9689 231.058 79.651 230.733 79.4197 230.316C79.1949 229.899 79.0825 229.417 79.0825 228.871C79.0825 228.318 79.1949 227.834 79.4197 227.416C79.6445 226.999 79.9593 226.677 80.3639 226.453C80.7685 226.228 81.2342 226.115 81.7609 226.115C82.2683 226.115 82.7211 226.225 83.1193 226.443C83.5239 226.661 83.8355 226.973 84.0538 227.378C84.2786 227.776 84.391 228.235 84.391 228.755ZM82.9941 228.37C82.9876 228.023 82.8624 227.747 82.6183 227.541C82.3743 227.329 82.0756 227.223 81.7223 227.223C81.3883 227.223 81.1057 227.326 80.8745 227.532C80.6497 227.731 80.5116 228.01 80.4602 228.37H82.9941ZM89.1522 226.125C89.788 226.125 90.3019 226.327 90.6937 226.732C91.0854 227.13 91.2813 227.689 91.2813 228.408V231.54H89.9325V228.591C89.9325 228.168 89.8266 227.843 89.6146 227.618C89.4027 227.387 89.1136 227.272 88.7475 227.272C88.375 227.272 88.0796 227.387 87.8612 227.618C87.6492 227.843 87.5432 228.168 87.5432 228.591V231.54H86.1944V226.202H87.5432V226.867C87.7231 226.636 87.9511 226.456 88.2273 226.327C88.5099 226.193 88.8182 226.125 89.1522 226.125ZM94.9533 227.31V229.892C94.9533 230.072 94.995 230.204 95.0785 230.287C95.1685 230.364 95.3162 230.403 95.5217 230.403H96.1479V231.54H95.3001C94.1633 231.54 93.5949 230.987 93.5949 229.882V227.31H92.959V226.202H93.5949V224.882H94.9533V226.202H96.1479V227.31H94.9533Z" fill="white"/>
<g id="ant-design:car-filled">
<path id="Vector_20" d="M76.1418 179.331L75.2547 177.781C75.2148 177.713 75.1495 177.663 75.0731 177.643C74.9966 177.622 74.9153 177.633 74.8467 177.672L72.949 178.78L70.0181 170.688C69.8634 170.205 69.5592 169.784 69.1495 169.485C68.7397 169.186 68.2457 169.025 67.7386 169.026H51.5199C50.221 169.026 49.0682 169.864 48.6677 171.103L45.8753 178.784L43.9738 177.676C43.9053 177.637 43.8239 177.626 43.7475 177.646C43.671 177.667 43.6057 177.716 43.5658 177.785L42.6787 179.331C42.5964 179.473 42.6451 179.652 42.7873 179.735L45.0481 181.052L44.5054 182.55C44.4604 182.669 44.438 182.797 44.438 182.924V195.957C44.438 196.545 44.8797 197.02 45.4224 197.02H47.9527C48.4131 197.02 48.8136 196.672 48.911 196.186L49.1992 194.774H69.6214L69.9096 196.186C70.0106 196.672 70.4074 197.02 70.8678 197.02H73.3981C73.9409 197.02 74.3826 196.545 74.3826 195.957V182.924C74.3826 182.797 74.3601 182.669 74.3152 182.55L73.7724 181.052L76.0295 179.735C76.0975 179.696 76.1473 179.631 76.1683 179.556C76.1893 179.48 76.1798 179.399 76.1418 179.331V179.331ZM50.1275 187.101C49.3002 187.101 48.6302 186.431 48.6302 185.604C48.6302 184.777 49.3002 184.107 50.1275 184.107C50.9547 184.107 51.6247 184.777 51.6247 185.604C51.6247 186.431 50.9547 187.101 50.1275 187.101ZM64.6506 189.908C64.6506 190.073 64.5158 190.208 64.3511 190.208H54.4694C54.3047 190.208 54.17 190.073 54.17 189.908V186.764C54.17 186.6 54.3047 186.465 54.4694 186.465H55.9666C56.1313 186.465 56.2661 186.6 56.2661 186.764V188.112H62.5544V186.764C62.5544 186.6 62.6892 186.465 62.8539 186.465H64.3511C64.5158 186.465 64.6506 186.6 64.6506 186.764V189.908ZM68.6931 187.101C67.8659 187.101 67.1959 186.431 67.1959 185.604C67.1959 184.777 67.8659 184.107 68.6931 184.107C69.5203 184.107 70.1903 184.777 70.1903 185.604C70.1903 186.431 69.5203 187.101 68.6931 187.101ZM48.4805 179.503L51.2017 172.02L51.2204 171.972L51.2354 171.923C51.2766 171.799 51.3889 171.717 51.5199 171.717H67.5252L70.3475 179.503H48.4805Z" fill="white"/>
</g>
</g>
</g>
<g id="logo">
<circle id="Logo" cx="281" cy="279" r="64" fill="#996EAB"/>
<g id="Group 41">
<path id="Vector_21" d="M303.221 252.079C303.595 252.077 303.964 252.15 304.309 252.294C304.653 252.438 304.965 252.65 305.226 252.918C305.486 253.186 305.691 253.503 305.827 253.852C305.962 254.201 306.027 254.573 306.016 254.948C306.008 255.692 305.707 256.402 305.179 256.925C304.65 257.447 303.938 257.738 303.196 257.735C302.823 257.74 302.453 257.669 302.108 257.527C301.762 257.385 301.449 257.174 301.187 256.907C300.924 256.641 300.718 256.324 300.58 255.976C300.443 255.628 300.376 255.255 300.385 254.881C300.376 254.507 300.443 254.134 300.583 253.787C300.723 253.44 300.932 253.125 301.198 252.863C301.464 252.6 301.781 252.395 302.129 252.26C302.477 252.125 302.849 252.064 303.221 252.079V252.079Z" fill="white"/>
<path id="Vector_22" d="M307.289 249.06C307.289 248.149 307.831 247.541 308.678 247.519C309.086 247.509 309.481 247.661 309.779 247.941C310.076 248.222 310.251 248.609 310.267 249.018C310.265 249.215 310.225 249.41 310.148 249.591C310.071 249.772 309.96 249.936 309.82 250.074C309.679 250.211 309.513 250.32 309.331 250.392C309.149 250.465 308.954 250.501 308.758 250.499C308.564 250.516 308.368 250.491 308.185 250.425C308.001 250.359 307.834 250.255 307.694 250.118C307.555 249.981 307.446 249.816 307.376 249.634C307.306 249.451 307.276 249.255 307.289 249.06V249.06Z" fill="white"/>
<path id="Vector_23" d="M305.985 270.569C304.762 267.108 302.742 263.985 300.088 261.456C296.055 257.598 291.199 255.602 285.685 255.078C282.337 254.755 278.967 254.721 275.613 254.975C273.299 255.151 270.96 255.22 268.719 255.903C262.961 257.665 258.533 263.686 258.516 269.736C258.516 276.317 258.516 282.899 258.516 289.478C258.498 291.199 258.788 292.91 259.372 294.529C260.738 298.253 264.719 301.292 268.655 301.389C271.502 301.459 274.349 301.403 277.199 301.403C280.263 301.554 283.334 301.5 286.391 301.242C288.86 301.049 291.277 300.431 293.538 299.416C297.474 297.64 300.546 294.836 303.088 291.382C305.925 287.569 307.404 282.911 307.288 278.154C307.276 275.571 306.836 273.007 305.985 270.569ZM284.391 290.727C282.705 292.416 279.788 292.38 278.027 290.64C275.152 287.802 272.297 284.945 269.416 282.121C268.649 281.371 267.93 280.616 267.672 279.54C267.261 277.836 267.622 276.298 268.835 275.04C271.895 271.881 274.975 268.736 278.077 265.604C278.468 265.193 278.944 264.872 279.472 264.664C280 264.457 280.567 264.367 281.133 264.403C283.021 264.403 284.652 265.445 285.299 267.101C286.016 268.947 285.738 270.656 284.385 272.086C283.033 273.516 281.652 274.873 280.277 276.267C279.56 276.992 279.191 277.825 279.444 278.862C279.61 279.509 280.063 279.955 280.519 280.401C281.824 281.686 283.138 282.963 284.424 284.268C284.854 284.689 285.194 285.192 285.426 285.748C285.657 286.305 285.775 286.902 285.772 287.504C285.769 288.107 285.645 288.703 285.407 289.256C285.17 289.81 284.825 290.31 284.391 290.727Z" fill="white"/>
</g>
</g>
</g>
<defs>
<clipPath id="clip0">
<rect width="55.5771" height="55.5771" fill="white" transform="translate(335.847 47.4441) rotate(-45)"/>
</clipPath>
<clipPath id="clip1">
<rect width="38.3291" height="38.3291" fill="white" transform="translate(44.5579 341.608)"/>
</clipPath>
</defs>
</svg>
