<svg width="258" height="623" viewBox="0 0 258 623" fill="none" xmlns="http://www.w3.org/2000/svg">
<path d="M148.911 29.7686V29.943C145.619 39.2218 139.247 61.3374 146.705 76.2672C143.204 79.5113 139.352 82.6508 135.606 85.7553C133.33 87.6739 131.054 89.5575 128.849 91.4761C126.816 73.827 121.206 56.7734 112.358 41.3496C112.079 40.949 111.749 40.5856 111.378 40.2683C108.854 36.1648 105.883 32.3512 102.52 28.8965C96.5508 22.0971 89.6008 16.2191 81.8977 11.4551C69.039 3.20354 53.7191 -0.381312 38.5178 1.30428C30.7102 2.31588 28.4344 6.5018 27.6641 8.80406C27.0981 11.0556 27.2201 13.4242 28.0142 15.6062C33.6161 34.1289 52.5226 48.5006 74.16 50.4889C78.6095 50.8299 83.0733 50.9463 87.5346 50.8377C92.8594 50.5987 98.1949 50.8791 103.465 51.6749C104.62 51.8789 105.796 51.9375 106.966 51.8493C129.234 96.0457 119.29 148.37 107.316 184.02C107.772 173.939 93.1365 156.288 92.9964 156.114C81.8976 143.277 63.9715 139.405 50.9821 136.579C49.9748 136.369 48.9267 136.474 47.9824 136.882C47.0381 137.29 46.2441 137.98 45.71 138.857C45.176 139.733 44.9281 140.754 45.0007 141.776C45.0734 142.799 45.4628 143.775 46.1154 144.568C49.6166 148.684 52.5226 153.079 55.7087 157.718C59.6593 163.839 64.0471 169.667 68.8382 175.16C69.0483 175.404 92.6463 200.031 104.515 190.264C104.958 189.88 105.368 189.46 105.741 189.008C104.095 193.613 102.45 197.903 100.874 201.775C94.537 217.298 87.1845 231.53 79.4118 246.6C65.4417 272.353 53.5695 299.183 43.9097 326.83C45.9273 298.977 44.5519 270.983 39.8133 243.46C33.3711 210.74 20.6967 179.52 5.88667 150.149C8.82768 152.835 13.1691 153.358 18.8061 151.614C34.9116 146.73 44.1548 131.452 49.0914 119.522C51.0521 114.743 52.5926 109.824 54.3432 104.941C56.6823 96.9213 59.8626 89.1694 63.8315 81.8136C63.9742 81.5413 64.1028 81.2619 64.2166 80.9764C64.489 80.2069 64.5664 79.3822 64.4419 78.5757C64.3173 77.7692 63.9948 77.0059 63.5028 76.3535C63.0108 75.7011 62.3647 75.18 61.6219 74.8363C60.8791 74.4926 60.0626 74.3371 59.2449 74.3836C49.0564 74.9766 38.938 80.1741 29.1696 89.8715C19.8917 99.1232 12.6638 110.21 7.95238 122.417L7.46219 123.708C4.48618 131.277 2.00033 138.568 2.84061 144.149C-5.42221 128.103 -14.2102 112.755 -22.7531 97.8247C-18.3372 94.5911 -14.7405 90.3746 -12.2495 85.5111C-10.823 82.9811 -9.65029 80.3171 -8.74834 77.5579C-8.11812 75.744 -7.55794 74.0696 -7.03276 72.1162C-0.905663 50.6633 -1.15075 33.7452 -7.83804 19.7921C-8.50719 18.2065 -9.59637 16.832 -10.9891 15.8155C-15.2256 12.9551 -20.6174 14.7341 -24.4337 20.3154C-32.4307 31.1436 -38.0495 43.5282 -40.9243 56.6631C-42.8238 66.5633 -42.0259 76.7898 -38.6136 86.2786C-42.3116 83.022 -46.2693 80.0705 -50.4476 77.4532C-69.4241 65.8373 -92.9872 66.2908 -111.929 66.6745C-112.849 66.6955 -113.746 66.9707 -114.519 67.4696C-115.291 67.9685 -115.91 68.6714 -116.305 69.5C-116.708 70.3259 -116.87 71.2484 -116.771 72.1616C-116.672 73.0748 -116.316 73.9417 -115.745 74.6626C-113.854 77.1044 -112.244 79.616 -110.353 82.1275C-107.682 86.1467 -104.771 90.0024 -101.635 93.6737C-91.0157 104.983 -77.4134 113.083 -62.3867 117.045L-60.2159 117.708C-47.5066 121.615 -33.3968 125.312 -26.3944 119.766C-25.1933 118.767 -24.2456 117.501 -23.6284 116.068C-5.14211 148.963 13.5193 184.508 24.303 221.972C9.46992 216.672 -4.889 210.138 -18.6217 202.438L-18.9018 202.124C-20.691 200.359 -22.5977 198.715 -24.6088 197.206C-22.8326 197.464 -21.0194 197.233 -19.3655 196.538C-17.7115 195.844 -16.2799 194.711 -15.2256 193.264C-14.7374 192.565 -14.3486 191.802 -14.0702 190.996C-9.7987 178.997 -24.5738 154.858 -26.0793 152.625C-32.9066 143.975 -40.7493 139.335 -48.802 139.196C-50.7769 139.085 -52.743 139.533 -54.474 140.486C-58.6054 142.893 -60.0059 147.881 -58.2903 154.23C-58.2903 154.509 -52.1982 175.857 -40.6092 188.31C-46.6699 185.961 -52.9953 184.356 -59.4457 183.532C-73.9826 181.922 -88.6865 182.712 -102.966 185.869C-111.579 187.543 -114.099 191.834 -114.66 195.148C-115.037 198.35 -114.131 201.571 -112.139 204.112C-105.583 213.295 -96.1872 220.083 -85.3895 223.437C-75.1308 226.595 -64.3892 227.907 -53.6687 227.309C-46.6267 227.5 -39.6269 226.167 -33.1517 223.403C-28.161 220.973 -24.1216 216.961 -21.6678 211.996C-6.36855 220.488 9.67477 227.575 26.2636 233.17C26.6457 233.238 27.037 233.238 27.419 233.17C28.3994 237.181 29.2747 241.158 30.0449 245.204C32.7348 259.875 34.2567 274.735 34.5965 289.645C29.2885 283.988 22.9265 279.415 15.8651 276.18C11.5022 274.089 6.69943 273.073 1.86028 273.215C-2.36731 273.624 -6.49693 274.732 -10.3589 276.494L-20.8625 280.575C-21.5597 280.833 -22.19 281.243 -22.707 281.776C-23.224 282.309 -23.6144 282.95 -23.8496 283.653C-24.0848 284.356 -24.1587 285.102 -24.0659 285.837C-23.9731 286.573 -23.7159 287.278 -23.3133 287.901C-20.1777 293.493 -15.9235 298.384 -10.814 302.272C-3.94006 306.29 3.94493 308.263 11.9087 307.958L15.4099 308.202C23.0425 308.865 29.1696 309.144 33.126 306.388C33.6434 306.028 34.1347 305.632 34.5965 305.202C33.9049 331.799 31.8599 358.344 28.4694 384.735C11.3438 374.948 -6.66023 366.774 -25.309 360.317C-21.1426 351.283 -23.3133 340.26 -25.9042 331.12C-27.982 322.116 -31.5304 313.514 -36.4078 305.656C-39.1613 301.348 -42.855 297.715 -47.2137 295.028C-51.5723 292.34 -56.4836 290.667 -61.5814 290.133C-66.8182 289.683 -72.0229 291.299 -76.0764 294.633C-79.0438 297.192 -81.167 300.584 -82.1684 304.365C-84.6193 313.888 -81.4332 324.807 -72.8903 335.76C-69.7137 339.955 -66.201 343.886 -62.3867 347.515C-76.207 344.627 -90.5447 345.384 -103.981 349.713C-110.267 351.654 -115.85 355.375 -120.051 360.422C-122.38 363.334 -123.849 366.834 -124.294 370.53C-124.739 374.227 -124.143 377.973 -122.572 381.351C-119.071 387.944 -111.789 391.816 -100.9 392.619C-88.4053 393.608 -75.8424 391.937 -64.0465 387.714C-52.2507 383.492 -41.4922 376.816 -32.4865 368.131C-11.9866 374.939 7.73975 383.872 26.3687 394.781C26.6583 394.922 26.9639 395.028 27.279 395.095C25.9835 406.362 24.7231 417.595 23.7778 428.792C23.1009 435.768 22.5173 443.082 22.0272 450.733C19.4594 447.535 16.5995 444.58 13.4843 441.908C4.42502 434.218 -6.06921 428.385 -17.3963 424.746C-51.2879 413.932 -87.4202 424.746 -111.579 433.675C-112.327 433.981 -112.995 434.455 -113.529 435.06C-114.063 435.665 -114.45 436.385 -114.66 437.164C-114.851 437.922 -114.862 438.714 -114.691 439.477C-114.521 440.24 -114.175 440.953 -113.679 441.559C-99.6744 457.64 -84.9344 474.244 -65.6078 485.302C-47.6197 495.307 -27.2793 500.352 -6.68263 499.918C3.06831 500.29 12.741 498.049 21.327 493.43C22.6224 533.615 -37.667 584.358 -14.139 620.357C-13.4193 621.458 -12.2902 622.229 -11 622.5C-9.70978 622.771 -8.36414 622.521 -7.25914 621.804C-6.15414 621.087 -5.38028 619.962 -5.10779 618.677C-4.8353 617.391 -5.08649 616.051 -5.80614 614.95C-30.3145 577.346 31.1303 523.638 30.8852 481.5C30.8852 480.976 31.2003 480.453 31.3404 479.93C32.1244 476.063 32.0287 472.07 31.0603 468.244C31.4104 456.524 32.1806 445.152 33.126 434.303C42.3691 439.152 57.6344 435.629 62.326 434.303C67.613 432.664 72.576 430.127 76.996 426.804C85.1244 421.157 92.399 414.379 98.5984 406.676C107.522 394.923 114.409 381.765 118.975 367.747C121.846 359.654 124.297 351.422 126.678 343.329C129.95 331.494 133.877 319.849 138.442 308.447C138.835 307.449 138.904 306.354 138.64 305.316C138.377 304.277 137.793 303.347 136.971 302.656C136.107 302.013 135.057 301.666 133.978 301.666C132.899 301.666 131.849 302.013 130.984 302.656C122.025 308.684 112.667 314.103 102.975 318.876C87.9547 326.69 72.4094 334.818 60.3303 347.48C53.4639 354.939 47.667 363.309 43.1044 372.352C41.914 374.584 40.7236 376.956 39.6032 379.328C48.5423 338.379 63.03 298.832 82.6679 261.773C82.878 261.773 83.1231 261.773 83.3331 261.46C107.983 243.006 137.24 231.64 167.922 228.6C166.592 234.46 169.918 240.774 172.264 245.134L172.754 246.041C182.417 264.18 199.223 275.203 211.617 281.238C219.753 285.731 229.013 287.802 238.296 287.203C242.181 286.823 245.887 285.387 249.01 283.052C251.64 280.988 253.62 278.215 254.717 275.064C255.75 271.717 256.106 268.199 255.763 264.714C255.42 261.228 254.386 257.846 252.721 254.762C247.547 245.696 239.526 238.576 229.893 234.495C222.228 231.187 214.22 228.73 206.015 227.17C216.869 224.559 227.171 220.048 236.44 213.845C244.179 209.114 250.464 202.357 254.612 194.31C256.835 189.874 257.832 184.927 257.5 179.98C257.168 175.032 255.518 170.262 252.721 166.16C252.14 165.442 251.52 164.755 250.865 164.102C250.841 163.808 250.71 163.533 250.497 163.328C250.285 163.123 250.005 163.001 249.71 162.986C245.758 159.769 241.053 157.599 236.034 156.678C231.015 155.757 225.844 156.115 221 157.718C210.707 160.858 202.584 167.904 195.336 175.16C188.055 181.93 181.772 189.693 176.675 198.217C172.992 204.571 170.612 211.59 169.673 218.868C169.323 218.833 168.972 218.833 168.622 218.868C141.453 221.23 115.187 229.762 91.8411 243.809C98.3533 231.146 104.48 218.798 109.942 205.438C111.623 201.357 113.443 196.857 115.054 192.008C123.457 168.323 131.44 136.405 129.864 103.755C130.122 103.612 130.368 103.449 130.599 103.266C134.1 100.022 138.057 96.7783 141.978 93.5342C145.9 90.2901 149.261 87.4646 152.797 84.2903C156.82 87.5217 161.672 89.5641 166.802 90.1854C174.01 91.1463 181.344 90.0543 187.955 87.0356C194.566 84.0169 200.184 79.195 204.159 73.1278C204.642 72.3827 205.041 71.5873 205.35 70.7558C205.674 69.8859 205.828 68.9624 205.805 68.0349C205.771 66.9231 205.515 65.8292 205.053 64.817C204.59 63.8048 203.929 62.8947 203.109 62.1397C199.958 58.8956 193.796 55.4771 182.277 57.5701C179.17 58.1275 176.105 58.8967 173.104 59.8723C173.629 58.8956 174.084 57.884 174.539 56.8724C178.698 46.2425 181.361 35.0907 182.452 23.7339C182.872 20.8735 183.818 14.0714 178.951 9.78078C177.34 8.57511 175.455 7.78495 173.464 7.48065C171.472 7.17635 169.436 7.36735 167.537 8.03664C156.718 11.2807 151.782 22.0944 148.911 29.7686ZM-48.697 151.858C-49.2222 149.974 -49.0471 148.998 -48.9771 149.312C-42.71 149.312 -37.3181 154.649 -33.8869 158.974C-29.8256 164.102 -21.1426 184.369 -23.0332 187.473C-24.048 187.585 -25.0744 187.429 -26.0092 187.02C-35.7426 184.09 -45.3008 164.311 -48.697 151.858ZM-60.7761 193.717C-49.658 195.016 -39.0673 199.163 -30.0356 205.752C-34.6788 208.447 -40.0022 209.755 -45.3709 209.519C-65.4744 209.976 -85.3869 205.546 -103.386 196.613C-102.633 196.345 -101.86 196.135 -101.075 195.985C-87.8534 193.063 -74.2438 192.297 -60.7761 193.717ZM-53.9488 217.856C-63.5117 218.374 -73.0907 217.192 -82.2385 214.368C-90.8851 211.709 -98.4457 206.353 -103.806 199.089C-85.6026 207.925 -65.5446 212.302 -45.3008 211.856C-40.6628 211.912 -36.059 211.058 -31.7512 209.345C-33.235 211.614 -35.3025 213.445 -37.7383 214.647C-42.8685 216.783 -48.3898 217.828 -53.9488 217.717V217.856ZM-62.2116 299.796C-58.6346 300.253 -55.2057 301.502 -52.1764 303.452C-49.1472 305.401 -46.5945 308.002 -44.7056 311.063C-40.4539 318.035 -37.3566 325.644 -35.5325 333.597C-33.5718 340.574 -31.8212 348.806 -33.992 354.945L-35.5325 354.143C-49.0651 338.648 -61.0602 321.884 -71.3497 304.086C-70.8912 303.253 -70.3 302.499 -69.5991 301.854C-67.4981 300.238 -64.8489 299.5 -62.2116 299.796ZM-64.8725 329.934C-69.4241 323.969 -74.3958 315.214 -72.4351 307.086C-63.3968 322.464 -53.0663 337.051 -41.5546 350.69C-50.5346 345.248 -58.4378 338.214 -64.8725 329.934ZM-111.859 366.631C-108.807 363.112 -104.811 360.534 -100.34 359.201C-85.8447 354.073 -69.8442 355.713 -54.544 359.445C-75.096 359.759 -95.403 365.619 -114.064 371.201C-113.98 370.774 -113.863 370.354 -113.714 369.945C-113.28 368.747 -112.653 367.628 -111.859 366.631ZM-99.6744 383.026C-104.681 382.607 -111.158 381.212 -113.399 376.956C-113.887 375.991 -114.162 374.932 -114.204 373.852C-92.532 367.329 -68.4087 360.282 -44.5306 362.201L-41.5546 363.143C-49.3908 370.198 -58.5812 375.597 -68.5706 379.015C-78.5599 382.432 -89.1409 383.797 -99.6744 383.026ZM215.958 272.413C204.93 266.971 189.945 257.239 181.507 241.437L180.982 240.495C179.473 237.957 178.297 235.237 177.48 232.402C181.682 234.356 185.918 236.239 190.19 238.123C206.085 245.1 222.471 252.355 235.425 263.971C239.003 266.854 241.646 270.725 243.023 275.099C243.023 275.099 243.023 275.099 242.813 275.343C241.093 276.535 239.088 277.257 237.001 277.436C231.189 278.168 224.501 276.564 215.958 272.413ZM225.727 243.495C233.351 246.683 239.728 252.253 243.898 259.367C245.029 261.38 245.708 263.614 245.889 265.914C246.07 268.215 245.75 270.527 244.948 272.692C243.244 268.62 240.563 265.026 237.141 262.227C223.906 250.367 207.311 243.041 191.275 235.96C187.389 234.251 183.537 232.472 179.686 230.763C184.342 231.53 188.922 232.697 193.376 234.251C196.072 235.088 198.453 235.821 200.098 236.17C208.882 237.681 217.475 240.137 225.727 243.495ZM245.439 190.229C242.04 196.636 236.957 202.001 230.734 205.752C218.404 214.024 204.108 218.92 189.279 219.949C188.032 220.017 186.781 220.017 185.533 219.949H184.518L187.634 218.589C202.479 212.1 217.849 205.438 231.224 195.706C237.705 191.215 243.138 185.385 247.154 178.613C247.718 182.569 247.123 186.603 245.439 190.229ZM185.148 202.926C189.801 195.195 195.517 188.15 202.129 181.997C208.501 175.718 215.503 169.578 223.731 167.067C230.734 164.939 240.047 165.986 244.738 172.055C245.368 172.93 245.885 173.879 246.279 174.881C242.509 182.377 236.866 188.78 229.893 193.473C216.385 202.531 201.935 210.11 186.794 216.077L179.581 219.182C180.406 213.465 182.294 207.953 185.148 202.926ZM195.266 68.4535C192.292 72.7289 188.192 76.1045 183.418 78.2092C178.643 80.3139 173.378 81.0662 168.202 80.3834C165.28 80.0308 162.484 78.9905 160.044 77.3486L160.324 77.0695C167.391 72.1494 175.441 68.806 183.923 67.2675C187.717 66.2058 191.776 66.6301 195.266 68.4535ZM172.544 22.3386C171.601 32.7806 169.246 43.0478 165.541 52.8609C162.769 58.7927 159.031 64.2264 154.477 68.9419C150.766 56.8027 156.228 39.0823 158.469 33.222C161.76 24.0129 165.471 19.0596 170.303 17.6643C171.04 17.4118 171.841 17.4118 172.579 17.6643C172.579 17.6643 173.139 18.2573 172.544 22.3386Z" fill="#E9E9E9"/>
</svg>
