<svg width="467" height="665" viewBox="0 0 467 665" fill="none" xmlns="http://www.w3.org/2000/svg">
<g clip-path="url(#clip0)">
<path d="M253.919 173.311C253.919 173.311 159.142 142.021 -88.8548 400.482L51.9411 553.692C51.9411 553.692 286.772 356.99 299.588 223.006L253.919 173.311Z" fill="#F9F9F9"/>
<path d="M-58.4798 432.836L-75.0936 448.104L-80.3347 442.4L-93.4752 454.476L-105.898 440.958L-112.083 446.643L4.00874 572.971L11.3522 566.223L-2.2301 551.443L8.40048 541.674L2.40854 535.154L20.3745 518.643L-58.4798 432.836Z" fill="#F9F9F9"/>
<path d="M90.3154 373.272C115.94 401.155 159.335 402.97 187.242 377.324C215.149 351.679 216.999 308.285 191.375 280.401C165.751 252.518 122.355 250.703 94.4484 276.349C66.5416 301.994 64.6912 345.388 90.3154 373.272Z" fill="#E9E9E9"/>
<path d="M97.8777 366.322C119.113 389.43 155.075 390.933 178.202 369.681C201.329 348.428 202.862 312.467 181.627 289.359C160.392 266.252 124.43 264.748 101.303 286.001C78.1761 307.254 76.6426 343.215 97.8777 366.322Z" fill="white"/>
<path d="M110.004 355.954C125.286 372.583 151.166 373.666 167.809 358.371C184.452 343.077 185.556 317.197 170.274 300.568C154.992 283.939 129.112 282.857 112.469 298.151C95.826 313.446 94.7224 339.325 110.004 355.954Z" fill="#E9E9E9"/>
<path d="M-56.9277 388.227L-128.794 310.024C-130.647 308.019 -132.042 305.635 -132.882 303.038C-133.722 300.44 -133.988 297.69 -133.66 294.978C-132.192 283.185 -125.034 265.087 -94.433 268.42C-49.6308 273.296 26.9096 304.274 26.9096 304.274L-56.9277 388.227Z" fill="#E9E9E9"/>
<path d="M68.8607 513.374L138.199 588.827C139.999 590.779 142.209 592.307 144.672 593.301C147.134 594.294 149.787 594.728 152.439 594.572C164.136 593.909 182.565 588.076 182.373 557.901C182.095 513.721 159.448 436.783 159.448 436.783L68.8607 513.374Z" fill="#E9E9E9"/>
<path d="M47.7859 420.368L43.1991 415.377C39.5203 411.373 33.2901 411.113 29.2836 414.795L-37.698 476.349C-41.7045 480.031 -41.9701 486.261 -38.2914 490.264L-33.7045 495.255C-30.0257 499.258 -23.7955 499.519 -19.789 495.837L47.1926 434.283C51.199 430.601 51.4647 424.371 47.7859 420.368Z" fill="#E9E9E9"/>
<path d="M226.828 174.154L293.356 246.549C293.612 246.804 293.931 246.988 294.28 247.082C294.63 247.175 294.998 247.175 295.348 247.082C295.697 246.989 296.017 246.805 296.273 246.55C296.53 246.295 296.715 245.976 296.81 245.627L321.489 160.353C321.593 160.037 321.613 159.7 321.548 159.374C321.483 159.049 321.334 158.745 321.117 158.494C320.9 158.243 320.621 158.053 320.308 157.941C319.996 157.83 319.659 157.801 319.332 157.859L228.125 170.739C227.752 170.786 227.399 170.933 227.104 171.165C226.808 171.397 226.582 171.706 226.448 172.057C226.315 172.408 226.28 172.789 226.347 173.158C226.413 173.528 226.58 173.872 226.828 174.154Z" fill="#E9E9E9"/>
</g>
<defs>
<clipPath id="clip0">
<rect width="430.09" height="513.873" fill="white" transform="translate(175.37) rotate(47.4179)"/>
</clipPath>
</defs>
</svg>
