<svg width="935" height="552" viewBox="0 0 935 552" fill="none" xmlns="http://www.w3.org/2000/svg">
<g clip-path="url(#clip0)">
<path opacity="0.2" d="M136.64 0.0632415C129.366 -0.14421 121.911 0.0632344 115.088 2.15578C96.5233 7.85618 87.7238 26.5087 90.5848 42.6268C93.4457 58.7448 105.214 72.7883 117.425 85.6232C129.636 98.4581 142.867 111.149 149.564 126.491C152.903 134.149 154.464 142.726 151.071 150.375C145.836 162.164 130.052 168.748 114.898 170.119C99.7452 171.49 84.5289 168.82 69.3216 167.927C62.9409 167.557 56.3797 167.512 50.3689 169.235C43.7716 171.111 38.2753 174.944 33.2213 178.94C13.5014 194.616 -2.28346 216.002 0.27064 238.47C3.15867 263.932 28.9163 284.055 57.1287 294.851C66.4697 298.459 76.3522 301.327 84.5741 306.432C106.234 319.899 111.099 345.154 108.942 367.441C106.785 389.728 99.4384 412.043 103.527 434.132C108.337 459.829 129.627 483.045 158.345 493.887C183.931 503.547 215.952 502.906 238.669 489.278C249.742 482.621 258.118 473.376 265.401 463.815C276.215 449.696 285.15 434.234 291.98 417.815C295.148 410.158 298.126 401.923 305.517 396.601C310.03 393.327 315.878 391.496 321.663 390.071C339.1 385.778 357.466 384.605 375.065 380.781C392.664 376.957 410.371 369.804 419.938 357.086C433.475 339.047 427.158 315.939 427.221 294.725C427.329 246.326 462.518 203.004 475.505 155.823C479.747 140.408 481.326 123.352 471.85 109.597C465.415 100.262 454.558 93.5244 443.15 88.3201C418.051 76.8742 389.523 71.7781 361.464 66.8174C322.467 59.9264 275.112 59.0334 244.887 36.737C215.88 15.3334 176.197 0.0632415 136.64 0.0632415Z" fill="#2AC2E5"/>
<path d="M515.333 552C747.109 552 935 501.716 935 439.688C935 377.659 747.109 327.375 515.333 327.375C283.557 327.375 95.666 377.659 95.666 439.688C95.666 501.716 283.557 552 515.333 552Z" fill="#F5F5F5"/>
<path d="M863.864 168.541C863.864 168.541 831.527 200.858 849.785 248.815C868.043 296.772 818.486 376.524 818.486 376.524C818.486 376.524 819.018 376.442 820.002 376.271C886.418 364.546 919.423 288.637 882.492 232.237C868.765 211.275 857.492 186.706 863.864 168.541Z" fill="#2AC2E5"/>
<path d="M863.864 168.541C863.864 168.541 845.606 208.155 863.864 240.472C882.122 272.789 866.996 363.49 818.486 376.524" stroke="#535461" stroke-width="2" stroke-miterlimit="10"/>
<path d="M921.462 299.262C921.462 299.262 884.559 293.39 881.201 326.438C877.844 359.485 810.246 364.067 810.246 364.067L811.51 364.906C867.321 401.517 920.713 388.231 912.591 339.651C909.64 321.54 909.883 303.383 921.462 299.262Z" fill="#2AC2E5"/>
<path opacity="0.2" d="M921.462 299.262C921.462 299.262 884.559 293.39 881.201 326.438C877.844 359.485 810.246 364.067 810.246 364.067L811.51 364.906C867.321 401.517 920.713 388.231 912.591 339.651C909.64 321.54 909.883 303.383 921.462 299.262Z" fill="#F5F5F5"/>
<path d="M921.462 299.262C921.462 299.262 892.817 305.575 895.172 331.57C897.528 357.564 852.637 388.799 810.246 364.041" stroke="#535461" stroke-width="2" stroke-miterlimit="10"/>
<path d="M836.058 378.751H778.081C779.415 376.07 780.107 373.115 780.102 370.12V106.242C780.102 101.096 778.057 96.1617 774.416 92.5233C770.776 88.8849 765.838 86.8408 760.689 86.8408H311.835C309.285 86.8396 306.76 87.3406 304.403 88.3151C302.047 89.2895 299.906 90.7184 298.102 92.5201C296.299 94.3218 294.868 96.461 293.892 98.8154C292.916 101.17 292.413 103.693 292.413 106.242V370.129C292.408 373.124 293.101 376.079 294.435 378.76H234.409C233.047 378.76 231.741 379.301 230.778 380.264C229.815 381.226 229.274 382.531 229.274 383.893V388.033C229.281 395.64 232.31 402.933 237.694 408.309C243.079 413.686 250.38 416.706 257.991 416.706H812.475C820.092 416.706 827.396 413.682 832.782 408.3C838.167 402.917 841.193 395.617 841.193 388.005V383.866C841.188 382.508 840.645 381.207 839.683 380.248C838.72 379.29 837.417 378.751 836.058 378.751ZM478.763 395.167L473.818 389.53H597.209L591.703 395.176L478.763 395.167Z" fill="url(#paint0_linear)"/>
<path d="M753.568 90.5747H318.92C307.326 90.5747 297.927 99.9676 297.927 111.554V365.429C297.927 377.016 307.326 386.409 318.92 386.409H753.568C765.162 386.409 774.561 377.016 774.561 365.429V111.554C774.561 99.9676 765.162 90.5747 753.568 90.5747Z" fill="#535461"/>
<path d="M763.514 133.698H307.954V375.378H763.514V133.698Z" fill="white"/>
<path d="M535.739 116.651C537.957 116.651 539.755 114.853 539.755 112.637C539.755 110.42 537.957 108.623 535.739 108.623C533.521 108.623 531.723 110.42 531.723 112.637C531.723 114.853 533.521 116.651 535.739 116.651Z" fill="white"/>
<path d="M606.08 375.874L590.422 391.92H480.045L465.903 375.874H241.232C239.901 375.874 238.625 376.402 237.684 377.343C236.743 378.283 236.214 379.559 236.214 380.889V384.93C236.214 392.369 239.171 399.504 244.435 404.765C249.699 410.025 256.838 412.981 264.282 412.981H806.194C813.638 412.981 820.777 410.025 826.041 404.765C831.305 399.504 834.262 392.369 834.262 384.93V380.889C834.262 379.559 833.733 378.283 832.792 377.343C831.851 376.402 830.575 375.874 829.244 375.874H606.08Z" fill="#535461"/>
<path d="M449.82 142.194H257.648C252.98 142.189 248.501 144.037 245.196 147.332C241.89 150.627 240.03 155.099 240.022 159.764V425.842C240.03 430.508 241.89 434.98 245.196 438.275C248.501 441.569 252.98 443.417 257.648 443.413H449.82C454.488 443.417 458.967 441.569 462.273 438.275C465.578 434.98 467.439 430.508 467.446 425.842V159.764C467.439 155.099 465.578 150.627 462.273 147.332C458.967 144.037 454.488 142.189 449.82 142.194Z" fill="url(#paint1_linear)"/>
<path d="M446.688 145.802H260.771C250.802 145.802 242.721 153.879 242.721 163.841V422.704C242.721 432.667 250.802 440.743 260.771 440.743H446.688C456.657 440.743 464.738 432.667 464.738 422.704V163.841C464.738 153.879 456.657 145.802 446.688 145.802Z" fill="#535461"/>
<path d="M453.457 173.7H254.002V412.846H453.457V173.7Z" fill="white"/>
<path d="M352.827 162.037C354.322 162.037 355.535 160.826 355.535 159.331C355.535 157.837 354.322 156.625 352.827 156.625C351.332 156.625 350.12 157.837 350.12 159.331C350.12 160.826 351.332 162.037 352.827 162.037Z" fill="white"/>
<path d="M352.827 434.43C357.313 434.43 360.95 430.795 360.95 426.312C360.95 421.829 357.313 418.194 352.827 418.194C348.341 418.194 344.705 421.829 344.705 426.312C344.705 430.795 348.341 434.43 352.827 434.43Z" fill="white"/>
<path d="M303.343 232.39H204.671C203.39 232.388 202.121 232.638 200.936 233.125C199.752 233.613 198.675 234.329 197.767 235.233C196.86 236.137 196.139 237.21 195.646 238.392C195.154 239.574 194.899 240.842 194.897 242.122V458.07C194.899 459.35 195.154 460.618 195.646 461.8C196.139 462.982 196.86 464.055 197.767 464.959C198.675 465.863 199.752 466.579 200.936 467.067C202.121 467.554 203.39 467.804 204.671 467.802H303.343C304.624 467.804 305.893 467.554 307.077 467.067C308.262 466.579 309.339 465.863 310.246 464.959C311.154 464.055 311.875 462.982 312.367 461.8C312.86 460.618 313.114 459.35 313.117 458.07V242.122C313.114 240.842 312.86 239.574 312.367 238.392C311.875 237.21 311.154 236.137 310.246 235.233C309.339 234.329 308.262 233.613 307.077 233.125C305.893 232.638 304.624 232.388 303.343 232.39Z" fill="url(#paint2_linear)"/>
<path d="M302.287 234.194H205.718C200.235 234.194 195.79 238.636 195.79 244.116V456.979C195.79 462.458 200.235 466.9 205.718 466.9H302.287C307.769 466.9 312.214 462.458 312.214 456.979V244.116C312.214 238.636 307.769 234.194 302.287 234.194Z" fill="#535461"/>
<path d="M303.64 255.841H204.364V445.253H303.64V255.841Z" fill="white"/>
<path d="M242.27 245.92C242.768 245.92 243.172 245.516 243.172 245.018C243.172 244.52 242.768 244.116 242.27 244.116C241.771 244.116 241.367 244.52 241.367 245.018C241.367 245.516 241.771 245.92 242.27 245.92Z" fill="white"/>
<path d="M265.735 244.116H247.685C247.186 244.116 246.782 244.52 246.782 245.018C246.782 245.516 247.186 245.92 247.685 245.92H265.735C266.233 245.92 266.637 245.516 266.637 245.018C266.637 244.52 266.233 244.116 265.735 244.116Z" fill="white"/>
<path d="M253.551 460.586C257.04 460.586 259.869 457.76 259.869 454.273C259.869 450.786 257.04 447.959 253.551 447.959C250.062 447.959 247.233 450.786 247.233 454.273C247.233 457.76 250.062 460.586 253.551 460.586Z" fill="white"/>
<path d="M183.868 483.677C183.868 483.677 171.901 443.088 186.116 413.197C192.166 400.703 193.997 386.584 191.332 372.961C190.015 366.508 188.108 360.189 185.637 354.083" stroke="#535461" stroke-width="2" stroke-miterlimit="10"/>
<path d="M194.446 335.196C194.446 340.175 185.421 354.597 185.421 354.597C185.421 354.597 176.396 340.166 176.396 335.196C176.396 332.804 177.346 330.51 179.039 328.818C180.731 327.127 183.027 326.176 185.421 326.176C187.814 326.176 190.11 327.127 191.802 328.818C193.495 330.51 194.446 332.804 194.446 335.196Z" fill="#2AC2E5"/>
<path d="M209.382 362.76C206.675 366.936 191.26 374.151 191.26 374.151C191.26 374.151 191.54 357.14 194.247 352.964C194.863 351.912 195.686 350.995 196.666 350.27C197.646 349.544 198.763 349.025 199.95 348.743C201.136 348.461 202.368 348.422 203.57 348.629C204.772 348.836 205.92 349.284 206.944 349.947C207.967 350.61 208.846 351.473 209.527 352.484C210.208 353.496 210.676 354.635 210.904 355.832C211.132 357.03 211.115 358.261 210.853 359.452C210.591 360.642 210.091 361.768 209.382 362.76Z" fill="#2AC2E5"/>
<path d="M208.696 409.851C204.247 412.088 187.298 410.546 187.298 410.546C187.298 410.546 196.133 396.006 200.574 393.769C202.694 392.812 205.102 392.71 207.296 393.484C209.49 394.259 211.3 395.85 212.348 397.926C213.396 400.002 213.601 402.403 212.92 404.626C212.24 406.85 210.727 408.725 208.696 409.86V409.851Z" fill="#2AC2E5"/>
<path d="M200.177 445.379C196.169 448.337 179.202 449.672 179.202 449.672C179.202 449.672 185.448 433.852 189.455 430.894C191.383 429.608 193.732 429.113 196.015 429.511C198.298 429.91 200.341 431.17 201.719 433.033C203.098 434.895 203.706 437.216 203.419 439.514C203.132 441.813 201.971 443.913 200.177 445.379Z" fill="#2AC2E5"/>
<path d="M172.298 375.116C175.908 378.58 192.505 382.179 192.505 382.179C192.505 382.179 188.435 365.664 184.861 362.2C184.026 361.31 183.019 360.598 181.901 360.108C180.783 359.617 179.577 359.359 178.356 359.348C177.136 359.337 175.925 359.574 174.798 360.044C173.672 360.514 172.652 361.207 171.801 362.083C170.951 362.958 170.287 363.997 169.849 365.136C169.412 366.275 169.21 367.491 169.257 368.71C169.303 369.93 169.596 371.127 170.119 372.229C170.642 373.332 171.383 374.317 172.298 375.125V375.116Z" fill="#2AC2E5"/>
<path d="M162.858 416.787C167.307 419.024 184.256 417.482 184.256 417.482C184.256 417.482 175.421 402.942 170.98 400.705C169.918 400.111 168.746 399.738 167.535 399.608C166.324 399.479 165.099 399.596 163.935 399.951C162.77 400.307 161.69 400.895 160.759 401.679C159.827 402.463 159.065 403.428 158.516 404.514C157.968 405.601 157.645 406.787 157.567 408.002C157.489 409.216 157.659 410.434 158.064 411.581C158.47 412.729 159.104 413.782 159.928 414.679C160.751 415.575 161.748 416.295 162.858 416.796V416.787Z" fill="#2AC2E5"/>
<path d="M159.248 458.548C163.255 461.506 180.222 462.841 180.222 462.841C180.222 462.841 173.977 447.021 169.97 444.063C168.042 442.777 165.693 442.282 163.409 442.68C161.126 443.078 159.084 444.339 157.705 446.202C156.327 448.064 155.718 450.385 156.005 452.683C156.293 454.982 157.454 457.082 159.248 458.548Z" fill="#2AC2E5"/>
<path d="M897.997 354.561C888.006 342.448 875.904 328.531 877.6 312.412C878.972 299.361 875.687 287.293 876.337 274.196C877.239 255.589 873.503 241.022 860.092 229.098C852.258 222.126 839.162 216.651 835.264 218.049C827.538 220.809 819.109 219.754 811.158 221.657C805.12 223.064 801.104 225.265 798.613 227.971C793.604 232.481 793.523 238.794 795.806 245.514C793.813 249.161 792.61 253.187 792.276 257.329C791.941 261.471 792.482 265.637 793.863 269.557C795.245 273.477 797.436 277.062 800.294 280.08C803.152 283.099 806.614 285.482 810.454 287.076C804.885 289.403 800.075 294.761 798.198 305.639C796.893 313.109 794.92 320.447 792.304 327.565C791.128 328.115 789.923 328.6 788.694 329.018C788.965 329.126 789.245 329.198 789.515 329.297C788.929 329.523 788.351 329.748 787.71 329.947C788.778 330.363 789.88 330.683 791.005 330.903C783.784 349.131 774.759 360.424 774.759 360.424C774.759 360.424 757.928 364.14 751.384 357.637C751.384 357.637 752.449 358.882 753.893 360.749C747.495 358.097 736.989 353.767 728.009 350.205C721.493 347.616 719.824 350.205 719.887 353.813C718.297 354.012 716.762 354.527 715.374 355.328C713.449 354.09 711.431 353.004 709.337 352.081C705.6 351.179 693.443 344.649 681.286 366.936C674.211 379.897 656.07 403.556 642.127 421.054C615.006 433.519 579.7 449.303 566.578 453.272H558.166C557.065 451.468 556.298 450.331 556.298 450.331L555.648 450.764L555.368 450.331C555.368 450.331 538.852 461.759 522.084 461.849C519.699 461.817 517.325 461.514 515.008 460.947C507.301 459.008 501.868 458.142 497.987 458.241C493.393 458.16 490.767 459.252 489.178 461.308C488.965 461.578 488.769 461.861 488.592 462.156C488.414 462.448 488.251 462.749 488.104 463.058C487.96 463.383 487.816 463.725 487.689 464.077C487.637 464.391 487.657 464.712 487.748 465.017C487.838 465.322 487.997 465.602 488.213 465.836C488.437 466.151 488.682 466.453 488.944 466.738L489.413 467.243C491.525 469.426 495.37 472.321 500.153 475.55C501.534 476.452 502.996 477.444 504.521 478.427L507.418 480.231L510.008 481.846L511.046 482.486L512.201 483.19L514.268 484.443L515.495 485.183L517.815 486.563L519.692 487.672C524.602 490.568 529.493 493.373 533.907 495.862L536.993 497.702L537.291 497.865L539.277 498.974L542.706 500.877L545.062 502.176L546.163 502.78L547.345 503.43L547.58 503.556L549.637 504.674C550.061 504.745 550.494 504.724 550.909 504.612C551.323 504.5 551.708 504.3 552.038 504.025C552.634 501.499 554.087 496.088 555.648 495.673C557.209 495.258 563.969 483.451 565.874 475.55H584.122C587.717 475.243 591.287 474.695 594.808 473.909C590.097 477.264 585.431 479.374 581.803 478.472C574.132 476.569 566.866 481.241 566.135 485.85C566.135 485.95 566.072 486.04 566.045 486.139C566.018 486.238 566 486.328 565.982 486.419C565.964 486.509 565.928 486.644 565.91 486.761C565.892 486.879 565.91 486.951 565.91 487.05C565.91 487.149 565.91 487.276 565.91 487.393C565.91 487.51 565.91 487.582 565.91 487.672C565.91 487.763 565.91 487.907 565.91 488.024C565.91 488.141 565.91 488.205 565.91 488.295C565.91 488.385 565.964 488.538 566 488.665C566.036 488.791 566 488.827 566.063 488.899C566.12 489.062 566.186 489.222 566.262 489.377L566.307 489.494C566.408 489.691 566.523 489.881 566.65 490.063L566.794 490.252C566.884 490.378 566.984 490.505 567.092 490.622L567.3 490.829C567.408 490.938 567.525 491.046 567.643 491.154L567.895 491.361L568.301 491.659L568.599 491.858L569.086 492.146L569.411 492.318L570.025 492.606L570.332 492.741C570.657 492.877 571 493.003 571.37 493.12C571.956 493.31 572.651 493.508 573.437 493.707L574.222 493.896L575.368 494.158L575.973 494.293C576.755 494.461 577.585 494.63 578.464 494.798L579.682 495.023L580.675 495.204L582.958 495.601C584.384 495.844 585.873 496.088 587.471 496.322L591.406 496.918L596.532 497.648L597.669 497.801L599.474 498.054L602.118 498.406L603.923 498.64L608.607 499.236L610.069 499.416L613.021 499.777C616.901 500.246 620.656 500.679 624.113 501.067L628.111 501.518L630.132 501.743L631.035 501.833L633.453 502.095L634.798 502.239L636.459 502.41L638.796 502.654H639.049L640.547 502.807C640.735 502.827 640.925 502.808 641.105 502.751C641.285 502.694 641.451 502.6 641.592 502.475C641.734 502.351 641.848 502.198 641.928 502.027C642.007 501.856 642.05 501.67 642.054 501.481C642.054 501.436 642.054 501.382 642.054 501.328C642.192 501.119 642.267 500.875 642.271 500.625C642.31 498.4 642.592 496.186 643.11 494.022C643.21 493.652 643.327 493.274 643.453 492.895L643.598 492.462C643.76 492.002 643.923 491.56 644.112 491.064C644.248 490.728 644.365 490.384 644.464 490.036C644.464 489.927 644.527 489.819 644.563 489.702C644.599 489.585 644.654 489.332 644.69 489.143C646.567 482.73 644.302 470.77 643.652 466.07C643.443 464.569 643.099 463.09 642.623 461.651C642.74 461.662 642.858 461.662 642.975 461.651C643.944 461.295 644.856 460.799 645.682 460.181C659.473 455.265 671.097 449.646 674.77 444.018C680.719 442.448 687.037 443.109 692.532 445.876C699.671 449.42 753.677 467.036 778.821 475.171C783.333 479.059 786.871 481.332 788.829 481.16C788.829 481.16 820.842 486.338 833.711 476.236C834.858 477.029 835.58 477.453 835.58 477.453C835.58 477.453 854.28 468.172 857.086 456.095C857.989 452.18 858.81 446.408 859.649 440.022C863.988 435.654 866.426 429.752 866.436 423.597C867.023 403.321 874.884 380.159 880.714 359.558C887.79 360.117 890.524 358.782 897.013 355.58L896.724 355.211C897.185 354.94 897.591 354.76 897.997 354.561ZM790.788 384.93L787.178 383.731C788.389 382.115 789.432 380.38 790.292 378.553L790.788 384.93ZM770.671 393.463L792.331 406.451L792.521 409.094C792.257 411.105 792.318 413.145 792.701 415.137C783.153 406.658 771.98 396.367 770.662 393.454L770.671 393.463ZM761.826 374.521C759.462 373.547 757.503 372.663 756.159 371.933C757.964 372.059 759.678 372.167 761.177 372.249C761.473 372.981 761.69 373.743 761.826 374.521ZM703.813 395.691C703.813 395.691 707.55 387.338 715.97 401.265C717.279 403.429 719.688 406.875 722.874 411.141L698.362 407.867C701.25 403.393 703.19 399.235 703.813 395.7V395.691Z" fill="url(#paint3_linear)"/>
<path d="M757.657 362.137C757.657 362.137 740.509 354.922 726.972 349.51C713.434 344.098 721.556 362.137 721.556 362.137C721.556 362.137 744.119 368.451 744.119 369.353C744.119 370.255 763.072 371.157 763.072 371.157L757.657 362.137Z" fill="#F7C4A7"/>
<path opacity="0.05" d="M757.657 362.137C757.657 362.137 740.509 354.922 726.972 349.51C713.434 344.098 721.556 362.137 721.556 362.137C721.556 362.137 744.119 368.451 744.119 369.353C744.119 370.255 763.072 371.157 763.072 371.157L757.657 362.137Z" fill="black"/>
<path d="M830.76 290.882C830.76 290.882 800.075 274.647 794.66 306.215C789.245 337.784 772.097 359.431 772.097 359.431C772.097 359.431 755.852 363.039 749.534 356.725C749.534 356.725 764.877 374.764 757.657 376.568C757.657 376.568 773.902 388.294 781.122 384.686C788.342 381.078 793.757 356.725 796.465 350.411C799.172 344.098 809.1 289.078 830.76 290.882Z" fill="#575988"/>
<path opacity="0.1" d="M830.76 290.882C830.76 290.882 800.075 274.647 794.66 306.215C789.245 337.784 772.097 359.431 772.097 359.431C772.097 359.431 755.852 363.039 749.534 356.725C749.534 356.725 764.877 374.764 757.657 376.568C757.657 376.568 773.902 388.294 781.122 384.686C788.342 381.078 793.757 356.725 796.465 350.411C799.172 344.098 809.1 289.078 830.76 290.882Z" fill="black"/>
<path d="M813.612 280.059C813.612 280.059 832.565 301.706 833.468 319.745C834.37 337.784 855.128 300.804 856.933 299.902C858.738 299 838.883 268.333 837.078 258.412C835.273 248.49 813.612 280.059 813.612 280.059Z" fill="#F7C4A7"/>
<path d="M826.699 289.304L814.741 300.127L820.381 322.902L835.724 308.47L833.919 294.039L826.699 289.304Z" fill="#F7C4A7"/>
<path d="M577.155 449.627H556.397L564.52 469.471L584.375 464.059L577.155 449.627Z" fill="#F7C4A7"/>
<path opacity="0.1" d="M561.199 446.768C561.199 446.768 539.701 461.732 521.335 457.077C502.969 452.423 497.978 454.164 495.839 460.171C493.862 465.7 547.137 494.942 555.63 499.56C555.762 499.632 555.908 499.673 556.058 499.679C556.209 499.685 556.358 499.656 556.495 499.595C556.632 499.534 556.753 499.442 556.849 499.326C556.945 499.211 557.013 499.075 557.047 498.928C557.625 496.475 559.024 491.217 560.522 490.811C562.471 490.288 571.352 473.674 570.864 467.143C570.377 460.613 561.199 446.768 561.199 446.768Z" fill="black"/>
<path d="M560.296 446.768C560.296 446.768 538.798 461.732 520.432 457.077C502.066 452.423 497.075 454.164 494.936 460.171C492.96 465.7 546.235 494.942 554.728 499.56C554.859 499.632 555.006 499.673 555.156 499.679C555.306 499.685 555.455 499.656 555.593 499.595C555.73 499.534 555.851 499.442 555.947 499.326C556.042 499.211 556.11 499.075 556.145 498.928C556.722 496.475 558.121 491.217 559.619 490.811C561.569 490.288 570.449 473.674 569.962 467.143C569.475 460.613 560.296 446.768 560.296 446.768Z" fill="#F3B5B7"/>
<path d="M737.802 410.843L677.334 402.726C677.334 402.726 578.96 449.628 567.227 450.529L569.935 471.275H587.985C595.205 471.275 665.601 455.941 675.529 440.608C681.272 439.082 687.377 439.724 692.676 442.412C701.701 446.922 788.342 474.882 788.342 474.882L737.802 410.843Z" fill="#575988"/>
<path opacity="0.1" d="M737.802 410.843L677.334 402.726C677.334 402.726 578.96 449.628 567.227 450.529L569.935 471.275H587.985C595.205 471.275 665.601 455.941 675.529 440.608C681.272 439.082 687.377 439.724 692.676 442.412C701.701 446.922 788.342 474.882 788.342 474.882L737.802 410.843Z" fill="black"/>
<path d="M630.403 438.804L620.475 451.431L630.403 456.843L644.843 446.019L630.403 438.804Z" fill="#F7C4A7"/>
<path d="M802.782 424.373C802.782 424.373 770.292 396.574 768.045 391.532C765.797 386.49 712.531 352.216 708.921 351.314C705.311 350.412 693.579 344.098 681.846 365.745C670.113 387.392 626.793 439.706 626.793 439.706C626.793 439.706 640.331 458.647 644.843 457.745C649.356 456.843 699.896 414.451 703.506 393.706C703.506 393.706 707.116 385.588 715.239 399.118C723.361 412.647 775.707 477.588 785.635 476.686C785.635 476.686 824.443 483 832.565 467.667C840.688 452.333 802.782 424.373 802.782 424.373Z" fill="#575988"/>
<path d="M821.284 292.235C821.284 292.235 810.002 297.196 809.1 317.941C808.197 338.686 788.342 373.863 788.342 373.863L790.147 415.353C790.147 415.353 811.807 437 813.612 450.529C815.418 464.059 830.76 473.078 830.76 473.078C830.76 473.078 848.81 464.059 851.518 452.333C854.225 440.608 856.03 411.745 860.543 400.922C865.056 390.098 862.348 322.451 862.348 322.451L848.81 299L841.59 290.882L822.638 312.529C822.638 312.529 812.259 298.549 821.284 292.235Z" fill="#DDDBE2"/>
<path opacity="0.1" d="M794.66 401.823C794.66 401.823 791.952 369.353 800.075 362.137L816.32 316.137C816.32 316.137 822.186 294.039 821.284 292.235C820.381 290.431 800.075 309.823 800.075 309.823L786.537 357.627L790.147 408.137L794.66 401.823Z" fill="black"/>
<path d="M793.757 401.824C793.757 401.824 791.05 369.353 799.172 362.137L815.417 316.137C815.417 316.137 821.735 293.588 820.832 291.784C819.93 289.98 799.172 309.824 799.172 309.824L785.635 357.628L789.245 408.137L793.757 401.824Z" fill="#575988"/>
<path d="M800.075 387.392C800.075 387.392 754.949 372.961 752.242 369.353C749.534 365.745 720.654 342.294 710.726 358.53C700.799 374.765 747.729 379.275 747.729 379.275L795.562 408.137L800.075 387.392Z" fill="#F7C4A7"/>
<path opacity="0.1" d="M632.361 451.35L619.004 448.951C619.004 448.951 597.127 476.957 585.729 474.116C574.33 471.275 563.843 483.532 575.882 487.465C586.758 491.019 633.724 495.988 642.668 496.908C642.849 496.927 643.032 496.908 643.206 496.853C643.379 496.797 643.539 496.707 643.675 496.586C643.812 496.466 643.922 496.319 643.999 496.154C644.075 495.989 644.117 495.81 644.121 495.628C644.19 492.141 644.893 488.697 646.197 485.463C648.607 479.555 646.197 466.864 645.529 462.012C645.161 459.167 644.271 456.415 642.903 453.894L632.361 451.35Z" fill="black"/>
<path d="M632.136 452.225L618.779 449.826C618.779 449.826 596.902 477.832 585.521 475C574.141 472.168 563.635 484.416 575.675 488.349C586.55 491.903 633.517 496.872 642.46 497.792C642.642 497.811 642.825 497.792 642.998 497.737C643.171 497.681 643.331 497.591 643.468 497.47C643.604 497.35 643.714 497.203 643.791 497.038C643.868 496.873 643.909 496.694 643.914 496.512C643.957 493.034 644.633 489.592 645.908 486.356C648.318 480.448 645.908 467.757 645.24 462.905C644.872 460.06 643.982 457.308 642.614 454.787L632.136 452.225Z" fill="#F3B5B7"/>
<path opacity="0.1" d="M820.381 290.432C836.331 290.432 849.262 277.509 849.262 261.569C849.262 245.628 836.331 232.706 820.381 232.706C804.431 232.706 791.501 245.628 791.501 261.569C791.501 277.509 804.431 290.432 820.381 290.432Z" fill="black"/>
<path d="M817.674 290.432C833.624 290.432 846.554 277.509 846.554 261.569C846.554 245.628 833.624 232.706 817.674 232.706C801.724 232.706 788.793 245.628 788.793 261.569C788.793 277.509 801.724 290.432 817.674 290.432Z" fill="#F7C4A7"/>
<path d="M846.103 289.98C846.103 289.98 880.398 301.706 880.398 326.059C880.398 350.412 861.445 389.196 860.543 420.765C859.64 452.333 810.002 447.824 810.002 447.824C810.002 447.824 802.782 341.392 810.002 333.275C817.223 325.157 849.713 293.588 846.103 289.98Z" fill="#575988"/>
<path opacity="0.1" d="M839.785 340.49C839.785 340.49 827.15 396.412 797.367 386.49C797.367 386.49 782.025 409.039 792.855 418.961C792.855 418.961 819.027 425.274 836.175 408.137C853.323 391 865.958 384.686 868.665 363.941C871.373 343.196 873.178 314.333 864.153 317.039C855.128 319.745 839.785 340.49 839.785 340.49Z" fill="black"/>
<path d="M840.688 339.588C840.688 339.588 828.053 395.51 798.27 385.588C798.27 385.588 782.927 408.137 793.757 418.059C793.757 418.059 819.93 424.372 837.078 407.235C854.225 390.098 866.86 383.784 869.568 363.039C872.276 342.294 874.081 313.431 865.055 316.137C856.03 318.843 840.688 339.588 840.688 339.588Z" fill="#575988"/>
<path d="M646.684 483.451C646.684 483.532 646.63 483.632 646.603 483.704C645.982 485.246 645.507 486.844 645.186 488.475C645.403 487.772 645.655 487.05 645.944 486.328C646.299 485.401 646.548 484.435 646.684 483.451Z" fill="#DDDBE2"/>
<path d="M576.334 485.715C572.615 484.497 571.054 482.495 570.991 480.384C569.457 483.325 570.422 486.626 575.675 488.34C586.55 491.893 633.526 496.863 642.461 497.783C642.642 497.802 642.826 497.783 643 497.727C643.174 497.671 643.334 497.579 643.471 497.458C643.608 497.337 643.718 497.188 643.794 497.022C643.87 496.856 643.911 496.676 643.914 496.493C643.92 496.162 643.802 495.841 643.583 495.592C643.365 495.343 643.061 495.185 642.731 495.149C632.93 494.103 587.065 489.214 576.334 485.715Z" fill="#DDDBE2"/>
<path d="M496.182 458.584C496.421 457.919 496.723 457.279 497.084 456.672C496.112 457.656 495.385 458.855 494.963 460.171C492.987 465.701 546.262 494.942 554.755 499.56C554.887 499.632 555.034 499.673 555.185 499.678C555.335 499.684 555.485 499.654 555.623 499.592C555.76 499.53 555.881 499.437 555.976 499.32C556.071 499.204 556.138 499.067 556.172 498.92C556.222 498.712 556.202 498.493 556.116 498.298C556.029 498.102 555.881 497.94 555.693 497.837C546.307 492.705 494.232 464.05 496.182 458.584Z" fill="#DDDBE2"/>
<path d="M560.856 489.233C560.377 489.359 559.908 489.999 559.466 490.874L559.61 490.82C560.007 490.712 560.684 489.918 561.505 488.746C561.33 488.957 561.107 489.123 560.856 489.233Z" fill="#DDDBE2"/>
<path opacity="0.1" d="M813.667 286.977C811.122 292.587 810.589 298.91 808.721 304.791C805.012 316.453 795.707 326.104 784.561 329.829C793.938 333.563 805.003 328.999 812.25 321.423C819.497 313.846 823.748 303.763 827.818 293.949C838.341 301.021 837.06 317.274 840.598 329.928C842.116 335.434 844.799 340.55 848.466 344.93C852.132 349.31 856.697 352.853 861.852 355.319C866.989 357.622 872.573 358.758 878.202 358.644C883.832 358.53 889.366 357.17 894.405 354.66C884.757 342.935 871.021 326.763 872.655 311.105C873.981 298.423 864.875 288.736 865.498 276.009C866.4 257.97 859.487 248.806 846.545 237.225C838.982 230.451 850.886 220.899 841.13 223.696C837.294 224.796 833.251 220.692 829.488 222.045C822.033 224.751 813.892 223.705 806.221 225.508C766.348 234.871 817.385 278.787 813.667 286.977Z" fill="black"/>
<path d="M814.569 286.075C812.024 291.685 811.492 298.008 809.623 303.889C805.914 315.551 796.609 325.202 785.463 328.927C794.84 332.661 805.905 328.097 813.152 320.521C820.399 312.944 824.65 302.86 828.72 293.047C839.244 300.118 837.962 316.372 841.5 329.026C843.018 334.532 845.701 339.648 849.368 344.028C853.035 348.408 857.6 351.951 862.754 354.417C867.891 356.72 873.476 357.856 879.105 357.742C884.734 357.628 890.268 356.268 895.308 353.758C885.66 342.033 872.826 328.566 874.46 312.908C875.786 300.227 873.81 287.193 874.46 274.476C875.362 256.437 866.509 239.011 853.558 227.429C845.995 220.656 834.181 219.79 830.408 221.116C822.953 223.822 814.813 222.775 807.142 224.579C767.251 233.969 818.287 277.885 814.569 286.075Z" fill="#FC6681"/>
</g>
<defs>
<linearGradient id="paint0_linear" x1="535.233" y1="416.724" x2="535.233" y2="86.8318" gradientUnits="userSpaceOnUse">
<stop stop-color="#808080" stop-opacity="0.25"/>
<stop offset="0.54" stop-color="#808080" stop-opacity="0.12"/>
<stop offset="1" stop-color="#808080" stop-opacity="0.1"/>
</linearGradient>
<linearGradient id="paint1_linear" x1="108025" y1="191612" x2="108025" y2="91004.9" gradientUnits="userSpaceOnUse">
<stop stop-color="#808080" stop-opacity="0.25"/>
<stop offset="0.54" stop-color="#808080" stop-opacity="0.12"/>
<stop offset="1" stop-color="#808080" stop-opacity="0.1"/>
</linearGradient>
<linearGradient id="paint2_linear" x1="43160.7" y1="156228" x2="43160.7" y2="94785.5" gradientUnits="userSpaceOnUse">
<stop stop-color="#808080" stop-opacity="0.25"/>
<stop offset="0.54" stop-color="#808080" stop-opacity="0.12"/>
<stop offset="1" stop-color="#808080" stop-opacity="0.1"/>
</linearGradient>
<linearGradient id="paint3_linear" x1="349142" y1="202088" x2="349142" y2="110812" gradientUnits="userSpaceOnUse">
<stop stop-color="#808080" stop-opacity="0.25"/>
<stop offset="0.54" stop-color="#808080" stop-opacity="0.12"/>
<stop offset="1" stop-color="#808080" stop-opacity="0.1"/>
</linearGradient>
<clipPath id="clip0">
<rect width="935" height="552" fill="white"/>
</clipPath>
</defs>
</svg>
