<?xml version="1.0" standalone="no"?>
<!DOCTYPE svg PUBLIC "-//W3C//DTD SVG 1.1//EN" "http://www.w3.org/Graphics/SVG/1.1/DTD/svg11.dtd" >
<svg xmlns="http://www.w3.org/2000/svg">
<metadata>Generated by IcoMoon</metadata>
<defs>
<font id="icomoon" horiz-adv-x="1024">
<font-face units-per-em="1024" ascent="1024" descent="0" />
<missing-glyph horiz-adv-x="1024" />
<glyph unicode="&#x20;" d="" />
<glyph unicode="&#xe718;" glyph-name="Avatar" d="M932 512l-0.482-20.246-1.43-20-2.356-19.731-3.261-19.441-4.143-19.13-5.003-18.796-5.842-18.441-6.658-18.064-7.453-17.666-8.226-17.246-8.976-16.804-9.705-16.341-10.411-15.855-11.096-15.349-11.759-14.82-12.399-14.27-2.9-3.1-0.1 0.3-7.475 15.819-8.269 15.375-9.038 14.902-9.781 14.4-10.498 13.87-11.189 13.31-11.855 12.721-12.495 12.103-13.109 11.456-13.697 10.78-14.26 10.075-14.796 9.341-15.307 8.579-15.793 7.787-16.252 6.966-16.686 6.116-9.3 2.9 7.6 4.9 9.226 6.647 8.799 7.174 8.35 7.679 7.877 8.16 7.38 8.618 6.861 9.053 6.318 9.465 5.752 9.854 5.162 10.22 4.55 10.562 3.914 10.881 3.254 11.178 2.572 11.451 1.866 11.701 1.136 11.927 0.384 12.131-0.246 9.71-0.731 9.584-1.204 9.447-1.665 9.297-2.114 9.135-2.551 8.962-2.976 8.776-3.389 8.579-3.79 8.369-4.179 8.148-4.557 7.915-4.922 7.669-10.891 14.554-12.208 13.429-13.429 12.208-14.554 10.891-7.669 4.922-7.915 4.557-8.148 4.179-8.369 3.79-8.579 3.389-8.776 2.976-8.962 2.551-9.135 2.114-9.297 1.665-9.447 1.204-9.584 0.731-9.71 0.246-9.71-0.246-9.584-0.731-9.447-1.204-9.297-1.665-9.135-2.114-8.962-2.551-8.776-2.976-8.579-3.389-8.369-3.79-8.148-4.179-7.915-4.557-7.669-4.922-14.554-10.891-13.429-12.208-12.208-13.429-10.891-14.554-4.922-7.669-4.557-7.915-4.179-8.148-3.79-8.369-3.389-8.579-2.976-8.776-2.551-8.962-2.114-9.135-1.665-9.297-1.204-9.447-0.731-9.584-0.246-9.71 0.384-12.114 1.137-11.915 1.866-11.692 2.572-11.446 3.254-11.175 3.914-10.882 4.55-10.564 5.162-10.224 5.752-9.859 6.318-9.471 6.861-9.060 7.38-8.624 7.877-8.165 8.35-7.683 8.799-7.177 9.226-6.648 7.6-4.9-9.2-2.9-16.669-6.116-16.24-6.966-15.784-7.787-15.302-8.579-14.794-9.341-14.26-10.075-13.7-10.78-13.113-11.456-12.5-12.103-11.861-12.721-11.196-13.31-10.504-13.87-9.786-14.4-9.042-14.902-8.272-15.375-7.476-15.819-0.1-0.3-2.9 3.1-12.417 14.27-11.774 14.82-11.109 15.349-10.423 15.855-9.714 16.341-8.984 16.804-8.232 17.246-7.458 17.666-6.663 18.064-5.845 18.441-5.006 18.796-4.145 19.13-3.261 19.441-2.357 19.731-1.43 20-0.482 20.246 0.548 21.581 1.625 21.302 2.676 20.995 3.7 20.663 4.697 20.303 5.668 19.917 6.613 19.504 7.53 19.065 8.422 18.599 9.286 18.107 10.124 17.588 10.936 17.042 11.721 16.47 12.479 15.871 13.211 15.246 13.916 14.594 14.594 13.916 15.246 13.211 15.871 12.479 16.47 11.721 17.042 10.936 17.588 10.124 18.107 9.286 18.599 8.422 19.065 7.53 19.504 6.613 19.917 5.668 20.303 4.697 20.663 3.7 20.995 2.676 21.302 1.625 21.582 0.548 21.581-0.548 21.302-1.625 20.995-2.676 20.663-3.7 20.303-4.697 19.917-5.668 19.504-6.613 19.065-7.53 18.599-8.422 18.107-9.286 17.588-10.124 17.042-10.936 16.47-11.721 15.871-12.479 15.246-13.211 14.594-13.916 13.916-14.594 13.211-15.246 12.479-15.871 11.721-16.47 10.936-17.042 10.124-17.588 9.286-18.107 8.422-18.599 7.53-19.065 6.613-19.504 5.668-19.917 4.697-20.303 3.7-20.663 2.676-20.995 1.625-21.302 0.548-21.581zM8 512l0.657-25.896 1.95-25.561 3.211-25.193 4.44-24.794 5.637-24.363 6.802-23.9 7.936-23.405 9.037-22.878 10.107-22.319 11.144-21.728 12.15-21.106 13.124-20.451 14.065-19.764 14.975-19.046 15.853-18.296 16.699-17.513 17.513-16.699 18.296-15.853 19.046-14.975 19.764-14.065 20.451-13.124 21.106-12.15 21.728-11.144 22.319-10.107 22.878-9.037 23.405-7.936 23.9-6.802 24.363-5.637 24.794-4.44 25.193-3.211 25.561-1.95 25.896-0.657 25.896 0.657 25.561 1.95 25.193 3.211 24.794 4.44 24.363 5.637 23.9 6.802 23.405 7.936 22.878 9.037 22.319 10.107 21.728 11.144 21.106 12.15 20.451 13.124 19.764 14.065 19.046 14.975 18.296 15.853 17.513 16.699 16.699 17.513 15.853 18.296 14.975 19.046 14.065 19.764 13.124 20.451 12.15 21.106 11.144 21.728 10.107 22.319 9.037 22.878 7.936 23.405 6.802 23.9 5.637 24.363 4.44 24.794 3.211 25.193 1.95 25.561 0.657 25.896-0.657 25.896-1.95 25.561-3.211 25.193-4.44 24.794-5.637 24.363-6.802 23.9-7.936 23.405-9.037 22.878-10.107 22.319-11.144 21.728-12.15 21.106-13.124 20.451-14.065 19.764-14.975 19.046-15.853 18.296-16.699 17.513-17.513 16.699-18.296 15.853-19.046 14.975-19.764 14.065-20.451 13.124-21.106 12.15-21.728 11.144-22.319 10.107-22.878 9.037-23.405 7.936-23.9 6.802-24.363 5.637-24.794 4.44-25.193 3.211-25.561 1.95-25.896 0.657-25.896-0.657-25.561-1.95-25.193-3.211-24.794-4.44-24.363-5.637-23.9-6.802-23.405-7.936-22.878-9.037-22.319-10.107-21.728-11.144-21.106-12.15-20.451-13.124-19.764-14.065-19.046-14.975-18.296-15.853-17.513-16.699-16.699-17.513-15.853-18.296-14.975-19.046-14.065-19.764-13.124-20.451-12.15-21.106-11.144-21.728-10.107-22.319-9.037-22.878-7.936-23.405-6.802-23.9-5.637-24.363-4.44-24.794-3.211-25.193-1.95-25.561-0.657-25.896z" />
<glyph unicode="&#xe73a;" glyph-name="sales" d="M575 8h126v293.6h-126v-293.6zM71 8h126v335.6h-126v-335.6zM323 8h126v461.4h-126v-461.4zM827 8h126v587.2h-126v-587.2zM739.2 930.8l55.1-55-245.6-245.3-213.1 212.8-306.6-306.2 60.3-60.1 246.3 246 213.1-212.8 305.9 305.5 55.1-55 85.3 255.3-255.8-85.2z" />
<glyph unicode="&#xe761;" glyph-name="staff" d="M932 512l-0.482-20.246-1.43-20-2.356-19.731-3.261-19.441-4.143-19.13-5.003-18.796-5.842-18.441-6.658-18.064-7.453-17.666-8.226-17.246-8.976-16.804-9.705-16.341-10.411-15.855-11.096-15.349-11.759-14.82-12.399-14.27-2.9-3.1-0.1 0.3-7.475 15.819-8.269 15.375-9.038 14.902-9.781 14.4-10.498 13.87-11.189 13.31-11.855 12.721-12.495 12.103-13.109 11.456-13.697 10.78-14.26 10.075-14.796 9.341-15.307 8.579-15.793 7.787-16.252 6.966-16.686 6.116-9.3 2.9 7.6 4.9 9.226 6.647 8.799 7.174 8.35 7.679 7.877 8.16 7.38 8.618 6.861 9.053 6.318 9.465 5.752 9.854 5.162 10.22 4.55 10.562 3.914 10.881 3.254 11.178 2.572 11.451 1.866 11.701 1.136 11.927 0.384 12.131-0.246 9.71-0.731 9.584-1.204 9.447-1.665 9.297-2.114 9.135-2.551 8.962-2.976 8.776-3.389 8.579-3.79 8.369-4.179 8.148-4.557 7.915-4.922 7.669-10.891 14.554-12.208 13.429-13.429 12.208-14.554 10.891-7.669 4.922-7.915 4.557-8.148 4.179-8.369 3.79-8.579 3.389-8.776 2.976-8.962 2.551-9.135 2.114-9.297 1.665-9.447 1.204-9.584 0.731-9.71 0.246-9.71-0.246-9.584-0.731-9.447-1.204-9.297-1.665-9.135-2.114-8.962-2.551-8.776-2.976-8.579-3.389-8.369-3.79-8.148-4.179-7.915-4.557-7.669-4.922-14.554-10.891-13.429-12.208-12.208-13.429-10.891-14.554-4.922-7.669-4.557-7.915-4.179-8.148-3.79-8.369-3.389-8.579-2.976-8.776-2.551-8.962-2.114-9.135-1.665-9.297-1.204-9.447-0.731-9.584-0.246-9.71 0.384-12.114 1.137-11.915 1.866-11.692 2.572-11.446 3.254-11.175 3.914-10.882 4.55-10.564 5.162-10.224 5.752-9.859 6.318-9.471 6.861-9.060 7.38-8.624 7.877-8.165 8.35-7.683 8.799-7.177 9.226-6.648 7.6-4.9-9.2-2.9-16.669-6.116-16.24-6.966-15.784-7.787-15.302-8.579-14.794-9.341-14.26-10.075-13.7-10.78-13.113-11.456-12.5-12.103-11.861-12.721-11.196-13.31-10.504-13.87-9.786-14.4-9.042-14.902-8.272-15.375-7.476-15.819-0.1-0.3-2.9 3.1-12.417 14.27-11.774 14.82-11.109 15.349-10.423 15.855-9.714 16.341-8.984 16.804-8.232 17.246-7.458 17.666-6.663 18.064-5.845 18.441-5.006 18.796-4.145 19.13-3.261 19.441-2.357 19.731-1.43 20-0.482 20.246 0.548 21.581 1.625 21.302 2.676 20.995 3.7 20.663 4.697 20.303 5.668 19.917 6.613 19.504 7.53 19.065 8.422 18.599 9.286 18.107 10.124 17.588 10.936 17.042 11.721 16.47 12.479 15.871 13.211 15.246 13.916 14.594 14.594 13.916 15.246 13.211 15.871 12.479 16.47 11.721 17.042 10.936 17.588 10.124 18.107 9.286 18.599 8.422 19.065 7.53 19.504 6.613 19.917 5.668 20.303 4.697 20.663 3.7 20.995 2.676 21.302 1.625 21.582 0.548 21.581-0.548 21.302-1.625 20.995-2.676 20.663-3.7 20.303-4.697 19.917-5.668 19.504-6.613 19.065-7.53 18.599-8.422 18.107-9.286 17.588-10.124 17.042-10.936 16.47-11.721 15.871-12.479 15.246-13.211 14.594-13.916 13.916-14.594 13.211-15.246 12.479-15.871 11.721-16.47 10.936-17.042 10.124-17.588 9.286-18.107 8.422-18.599 7.53-19.065 6.613-19.504 5.668-19.917 4.697-20.303 3.7-20.663 2.676-20.995 1.625-21.302 0.548-21.581zM8 512l0.657-25.896 1.95-25.561 3.211-25.193 4.44-24.794 5.637-24.363 6.802-23.9 7.936-23.405 9.037-22.878 10.107-22.319 11.144-21.728 12.15-21.106 13.124-20.451 14.065-19.764 14.975-19.046 15.853-18.296 16.699-17.513 17.513-16.699 18.296-15.853 19.046-14.975 19.764-14.065 20.451-13.124 21.106-12.15 21.728-11.144 22.319-10.107 22.878-9.037 23.405-7.936 23.9-6.802 24.363-5.637 24.794-4.44 25.193-3.211 25.561-1.95 25.896-0.657 25.896 0.657 25.561 1.95 25.193 3.211 24.794 4.44 24.363 5.637 23.9 6.802 23.405 7.936 22.878 9.037 22.319 10.107 21.728 11.144 21.106 12.15 20.451 13.124 19.764 14.065 19.046 14.975 18.296 15.853 17.513 16.699 16.699 17.513 15.853 18.296 14.975 19.046 14.065 19.764 13.124 20.451 12.15 21.106 11.144 21.728 10.107 22.319 9.037 22.878 7.936 23.405 6.802 23.9 5.637 24.363 4.44 24.794 3.211 25.193 1.95 25.561 0.657 25.896-0.657 25.896-1.95 25.561-3.211 25.193-4.44 24.794-5.637 24.363-6.802 23.9-7.936 23.405-9.037 22.878-10.107 22.319-11.144 21.728-12.15 21.106-13.124 20.451-14.065 19.764-14.975 19.046-15.853 18.296-16.699 17.513-17.513 16.699-18.296 15.853-19.046 14.975-19.764 14.065-20.451 13.124-21.106 12.15-21.728 11.144-22.319 10.107-22.878 9.037-23.405 7.936-23.9 6.802-24.363 5.637-24.794 4.44-25.193 3.211-25.561 1.95-25.896 0.657-25.896-0.657-25.561-1.95-25.193-3.211-24.794-4.44-24.363-5.637-23.9-6.802-23.405-7.936-22.878-9.037-22.319-10.107-21.728-11.144-21.106-12.15-20.451-13.124-19.764-14.065-19.046-14.975-18.296-15.853-17.513-16.699-16.699-17.513-15.853-18.296-14.975-19.046-14.065-19.764-13.124-20.451-12.15-21.106-11.144-21.728-10.107-22.319-9.037-22.878-7.936-23.405-6.802-23.9-5.637-24.363-4.44-24.794-3.211-25.193-1.95-25.561-0.657-25.896z" />
<glyph unicode="&#xe900;" glyph-name="rocket" d="M747.872 79.072c0 0 10.72 64.384-55.392 143.008 64.352 180.512 73.28 344.896 73.28 344.896s132.256-30.4 132.256-160.832c-0.032-223.392-150.144-327.072-150.144-327.072zM383.328 157.504c0 0-88.576 284.256-88.576 402.176 0 53.056 5.984 100.256 15.296 143.104h403.52c9.376-42.88 15.392-90.112 15.392-143.136 0-116.128-88.32-402.144-88.32-402.144h-257.312zM511.68 637.792c-45.376 0-82.176-36.8-82.176-82.208 0-45.376 36.8-82.208 82.176-82.208 45.408 0 82.208 36.8 82.208 82.208 0.032 45.408-36.8 82.208-82.208 82.208zM494.016 1004.928v111.936h32v-109.088c36.576-26.624 135.552-111.296 180.32-274.4h-389.12c43.264 158.624 137.472 242.368 176.8 271.552zM276.128 79.072c0 0-150.112 103.68-150.112 327.072 0 130.432 132.256 160.832 132.256 160.832s8.928-164.384 73.248-344.896c-66.144-78.656-55.392-143.008-55.392-143.008zM566.112 62.56l-26.816 26.816-28.576-89.376-33.984 89.376-23.232-46.432-33.984 84h184.064l-37.472-64.384z" />
<glyph unicode="&#xe901;" glyph-name="ticket" horiz-adv-x="1280" d="M1264 288h16v-32c-9.568 0-20.096 0-32 0-35.328 0-64-28.672-64-64 0-11.712 0-22.56 0-32h-1088c0 9.44 0 20.288 0 32 0 35.328-28.672 64-64 64-10.208 0-21.312 0-32 0v32h16c8.832 0 16 7.168 16 16s-7.168 16-16 16h-16v32h16c8.832 0 16 7.168 16 16s-7.168 16-16 16h-16v32h16c8.832 0 16 7.168 16 16s-7.168 16-16 16h-16v32h16c8.832 0 16 7.168 16 16s-7.168 16-16 16h-16v32h16c8.832 0 16 7.168 16 16s-7.168 16-16 16h-16v32h16c8.832 0 16 7.168 16 16s-7.168 16-16 16h-16v32h16c8.832 0 16 7.168 16 16s-7.168 16-16 16h-16v32c9.568 0 20.096 0 32 0 35.328 0 64 28.672 64 64 0 11.712 0 22.56 0 32h1088c0-9.44 0-20.288 0-32 0-35.328 28.672-64 64-64 11.904 0 22.432 0 32 0v-32h-16c-8.832 0-16-7.168-16-16s7.168-16 16-16h16v-32h-16c-8.832 0-16-7.168-16-16s7.168-16 16-16h16v-32h-16c-8.832 0-16-7.168-16-16s7.168-16 16-16h16v-32h-16c-8.832 0-16-7.168-16-16s7.168-16 16-16h16v-32h-16c-8.832 0-16-7.168-16-16s7.168-16 16-16h16v-32h-16c-8.832 0-16-7.168-16-16s7.168-16 16-16h16v-32h-16c-8.832 0-16-7.168-16-16s7.168-16 16-16zM1152 672c0 35.328-28.672 64-64 64h-896c-35.328 0-64-28.672-64-64v-352c0-35.328 28.672-64 64-64h896c35.328 0 64 28.672 64 64v352zM1088 288h-896c-17.696 0-32 14.336-32 32v352c0 17.696 14.304 32 32 32h896c17.664 0 32-14.304 32-32v-352c0-17.664-14.336-32-32-32zM364.384 576.384h-127.136v-18.88h52.864v-141.504h21.248v141.504h52.992v18.88zM408.576 576.384h-21.248v-160.384h21.248v160.384zM472.288 528.32c3.328 9.984 9.184 17.92 17.472 23.808 8.256 5.92 18.56 8.864 30.88 8.864 10.72 0 19.616-2.656 26.688-8 7.104-5.312 12.48-13.824 16.192-25.504l20.864 4.928c-4.288 14.784-11.904 26.272-22.848 34.432s-24.448 12.256-40.48 12.256c-14.144 0-27.104-3.232-38.88-9.696-11.776-6.432-20.832-15.904-27.264-28.352-6.368-12.448-9.568-27.008-9.568-43.68 0-15.328 2.848-29.664 8.512-43.008 5.632-13.376 13.888-23.552 24.672-30.592 10.848-7.040 24.896-10.56 42.176-10.56 16.672 0 30.816 4.576 42.368 13.728s19.552 22.432 24 39.872l-21.248 5.376c-2.912-13.504-8.512-23.68-16.704-30.56-8.256-6.848-18.272-10.272-30.176-10.272-9.76 0-18.848 2.528-27.232 7.552s-14.56 12.64-18.528 22.816-5.984 22.080-5.984 35.744c0.064 10.624 1.728 20.896 5.088 30.848zM747.616 576.384h-28.736l-79.616-79.36v79.36h-21.248v-160.384h21.248v55.616l26.304 25.44 57.056-81.056h28l-70.24 95.36 67.232 65.024zM894.016 434.88h-98.368v54.624h88.64v18.88h-88.64v49.12h94.624v18.88h-115.872v-160.384h119.616v18.88zM1044 576.384h-127.136v-18.88h52.864v-141.504h21.248v141.504h52.992v18.88z" />
<glyph unicode="&#xe902;" glyph-name="parking" horiz-adv-x="1170" d="M274.286 402.286c0 50.286-41.143 91.429-91.429 91.429s-91.429-41.143-91.429-91.429 41.143-91.429 91.429-91.429 91.429 41.143 91.429 91.429zM294.857 585.143h580.571l-50.857 204c-1.714 6.286-13.143 15.429-20 15.429h-438.857c-6.857 0-18.286-9.143-20-15.429zM1078.857 402.286c0 50.286-41.143 91.429-91.429 91.429s-91.429-41.143-91.429-91.429 41.143-91.429 91.429-91.429 91.429 41.143 91.429 91.429zM1170.286 457.143v-219.429c0-10.286-8-18.286-18.286-18.286h-54.857v-73.143c0-60.571-49.143-109.714-109.714-109.714s-109.714 49.143-109.714 109.714v73.143h-585.143v-73.143c0-60.571-49.143-109.714-109.714-109.714s-109.714 49.143-109.714 109.714v73.143h-54.857c-10.286 0-18.286 8-18.286 18.286v219.429c0 70.857 57.143 128 128 128h16l60 239.429c17.714 72 87.429 126.286 161.714 126.286h438.857c74.286 0 144-54.286 161.714-126.286l60-239.429h16c70.857 0 128-57.143 128-128z" />
<glyph unicode="&#xe903;" glyph-name="gamepad" horiz-adv-x="1097" d="M475.429 402.286v73.143c0 10.286-8 18.286-18.286 18.286h-109.714v109.714c0 10.286-8 18.286-18.286 18.286h-73.143c-10.286 0-18.286-8-18.286-18.286v-109.714h-109.714c-10.286 0-18.286-8-18.286-18.286v-73.143c0-10.286 8-18.286 18.286-18.286h109.714v-109.714c0-10.286 8-18.286 18.286-18.286h73.143c10.286 0 18.286 8 18.286 18.286v109.714h109.714c10.286 0 18.286 8 18.286 18.286zM804.571 365.714c0 40.571-32.571 73.143-73.143 73.143s-73.143-32.571-73.143-73.143 32.571-73.143 73.143-73.143 73.143 32.571 73.143 73.143zM950.857 512c0 40.571-32.571 73.143-73.143 73.143s-73.143-32.571-73.143-73.143 32.571-73.143 73.143-73.143 73.143 32.571 73.143 73.143zM1097.143 438.857c0-161.714-130.857-292.571-292.571-292.571-74.286 0-141.714 28-193.143 73.143h-125.714c-51.429-45.143-118.857-73.143-193.143-73.143-161.714 0-292.571 130.857-292.571 292.571s130.857 292.571 292.571 292.571h512c161.714 0 292.571-130.857 292.571-292.571z" />
<glyph unicode="&#xe904;" glyph-name="gamepad1" horiz-adv-x="1054" d="M736.448 881.312c-45.312 0-133.312-64-208-64-74.656 0-168 64-208 64-274.656 0-432-738.624-226.656-738.624 173.344 0 196.672 216 433.984 216 192 0 304.672-213.376 432.672-213.376 205.312 0 50.688 736-224 736zM304.416 465.312c-79.52 0-144 64.512-144 144 0 79.52 64.48 144 144 144s144-64.48 144-144c0-79.488-64.448-144-144-144zM686.432 545.312c-17.696 0-32 14.304-32 32s14.304 32 32 32 32-14.304 32-32-14.304-32-32-32zM784.448 449.312c-17.696 0-32 14.304-32 32s14.304 32 32 32 32-14.304 32-32-14.336-32-32-32zM784.448 641.312c-17.696 0-32 14.304-32 32s14.304 32 32 32 32-14.304 32-32-14.336-32-32-32zM880.448 545.312c-17.696 0-32 14.304-32 32s14.304 32 32 32 32-14.304 32-32-14.336-32-32-32zM304.416 689.312c-44.16 0-80-35.808-80-80s35.84-80 80-80c44.192 0 80 35.808 80 80s-35.808 80-80 80z" />
<glyph unicode="&#xe905;" glyph-name="security" d="M512 982l384-172v-256q0-178-110-325t-274-187q-164 40-274 187t-110 325v256zM512 512v-382q118 38 200 143t98 239h-298zM512 512v376l-298-132v-244h298z" />
<glyph unicode="&#xe906;" glyph-name="FB" d="M86 342h852v-86q0-34-25-60t-59-26h-684q-34 0-59 26t-25 60v86zM228 448q-22 0-48-16-44-26-94-26v84q22 0 48 16 46 28 94 28 46 0 92-28 26-16 50-16 22 0 48 16 46 28 94 28 46 0 92-28 26-16 50-16 22 0 48 16 46 28 94 28 46 0 92-28l50-16v-84q-48 0-92 26-26 16-50 16-22 0-48-16-44-26-94-26-48 0-92 26-26 16-50 16-22 0-48-16-44-26-94-26-48 0-92 26-26 16-50 16zM938 598h-852q-10 104 116 180t310 76 310-76 116-180z" />
<glyph unicode="&#xe907;" glyph-name="food" d="M921.6 460.8v-358.4c0-56.554-45.846-102.4-102.4-102.4s-102.4 45.846-102.4 102.4v0 256h-102.4v512c0 84.831 68.769 153.6 153.6 153.6v0h153.6v-563.2zM204.8 512c-56.554 0-102.4 45.846-102.4 102.4v0 358.4c0 28.277 22.923 51.2 51.2 51.2s51.2-22.923 51.2-51.2v0-204.8h51.2v204.8c0 28.277 22.923 51.2 51.2 51.2s51.2-22.923 51.2-51.2v0-204.8h51.2v204.8c0 28.277 22.923 51.2 51.2 51.2s51.2-22.923 51.2-51.2v0-358.4c0-56.554-45.846-102.4-102.4-102.4v0-409.6c0-56.554-45.846-102.4-102.4-102.4s-102.4 45.846-102.4 102.4v0 409.6z" />
<glyph unicode="&#xe908;" glyph-name="travel-car" d="M102.4 307.2v153.6h-51.2c-28.277 0-51.2 22.923-51.2 51.2v0c0 28.277 22.923 51.2 51.2 51.2v0h51.2l204.8 358.4h409.6l204.8-358.4h51.2c28.277 0 51.2-22.923 51.2-51.2v0c0-28.277-22.923-51.2-51.2-51.2v0h-51.2v-307.2c0-28.277-22.923-51.2-51.2-51.2v0h-51.2c-28.277 0-51.2 22.923-51.2 51.2v0 51.2h-512v-51.2c0-28.277-22.923-51.2-51.2-51.2v0h-51.2c-28.277 0-51.2 22.923-51.2 51.2v0 153.6zM812.032 563.2l-146.432 256h-307.2l-146.432-256h600.064zM281.6 307.2c42.415 0 76.8 34.385 76.8 76.8s-34.385 76.8-76.8 76.8v0c-42.415 0-76.8-34.385-76.8-76.8s34.385-76.8 76.8-76.8v0zM742.4 307.2c42.415 0 76.8 34.385 76.8 76.8s-34.385 76.8-76.8 76.8v0c-42.415 0-76.8-34.385-76.8-76.8s34.385-76.8 76.8-76.8v0z" />
<glyph unicode="&#xe909;" glyph-name="support" d="M512 1024c282.857 0 512-229.143 512-512s-229.143-512-512-512-512 229.143-512 512 229.143 512 512 512zM512 950.857c-74.286 0-144.571-18.857-206.286-51.429l110.857-110.857c30.286 10.286 62.286 16 95.429 16 33.714 0 65.143-5.714 95.429-16l110.857 110.857c-61.714 32.571-132 51.429-206.286 51.429zM124.571 305.714l110.857 110.857c-10.286 30.286-16 62.286-16 95.429 0 33.714 5.714 65.143 16 95.429l-110.857 110.857c-32.571-61.714-51.429-132-51.429-206.286s18.857-144.571 51.429-206.286zM512 73.143c74.286 0 144.571 18.857 206.286 51.429l-110.857 110.857c-30.286-10.286-61.714-16-95.429-16-33.143 0-65.143 5.714-95.429 16l-110.857-110.857c61.714-32.571 132-51.429 206.286-51.429zM512 292.571c121.143 0 219.429 98.286 219.429 219.429s-98.286 219.429-219.429 219.429-219.429-98.286-219.429-219.429 98.286-219.429 219.429-219.429zM788.571 416.571l110.857-110.857c32.571 61.714 51.429 132 51.429 206.286s-18.857 144.571-51.429 206.286l-110.857-110.857c10.286-30.286 16-62.286 16-95.429s-5.714-65.143-16-95.429z" />
<glyph unicode="&#xe90a;" glyph-name="right" d="M543.228 512l-104.229-104.229c-7.69-7.69-7.69-20.159 0-27.849s20.159-7.69 27.849 0l118.154 118.154c7.69 7.69 7.69 20.159 0 27.849l-118.154 118.154c-7.69 7.69-20.159 7.69-27.849 0s-7.69-20.159 0-27.849l104.229-104.229z" />
<glyph unicode="&#xe90b;" glyph-name="left" d="M480.772 512l104.229 104.229c7.69 7.69 7.69 20.159 0 27.849s-20.159 7.69-27.849 0l-118.154-118.154c-7.69-7.69-7.69-20.159 0-27.849l118.154-118.154c7.69-7.69 20.159-7.69 27.849 0s7.69 20.159 0 27.849l-104.229 104.229z" />
<glyph unicode="&#xe90c;" glyph-name="mail, email, letter, envelope, contact" d="M896 864h-768c-70.688 0-128-57.344-128-128v-416c0-70.688 57.312-128 128-128h768c70.688 0 128 57.312 128 128v416c0 70.656-57.312 128-128 128zM64 696l223.968-168-223.968-168v336zM960 320c0-35.328-28.736-64-64-64h-768c-35.296 0-64 28.672-64 64l250.624 188 139.776-104.864c17.056-12.736 37.312-19.2 57.6-19.2 20.256 0 40.512 6.432 57.568 19.2l139.808 104.864 250.624-188zM960 360l-224 168 224 168v-336zM550.368 428.736c-11.168-8.384-24.416-12.8-38.368-12.8s-27.232 4.448-38.4 12.8l-409.6 307.264c0 35.296 28.704 64 64 64h768c35.264 0 64-28.704 64-64l-409.632-307.264z" />
<glyph unicode="&#xe918;" glyph-name="inventary" d="M0 0h512v1024h-512v-1024zM320 896h128v-128h-128v128zM320 640h128v-128h-128v128zM320 384h128v-128h-128v128zM64 896h128v-128h-128v128zM64 640h128v-128h-128v128zM64 384h128v-128h-128v128zM576 704h448v-64h-448zM576 0h128v256h192v-256h128v576h-448z" />
<glyph unicode="&#xe923;" glyph-name="profile" d="M864 1024h-768c-52.8 0-96-43.2-96-96v-832c0-52.8 43.2-96 96-96h768c52.8 0 96 43.2 96 96v832c0 52.8-43.2 96-96 96zM832 128h-704v768h704v-768zM256 448h448v-64h-448zM256 320h448v-64h-448zM320 736c0 53.019 42.981 96 96 96s96-42.981 96-96c0-53.019-42.981-96-96-96s-96 42.981-96 96zM480 640h-128c-52.8 0-96-28.8-96-64v-64h320v64c0 35.2-43.2 64-96 64z" />
<glyph unicode="&#xe942;" glyph-name="phone" d="M704 384c-64-64-64-128-128-128s-128 64-192 128-128 128-128 192 64 64 128 128-128 256-192 256-192-192-192-192c0-128 131.5-387.5 256-512s384-256 512-256c0 0 192 128 192 192s-192 256-256 192z" />
<glyph unicode="&#xe964;" glyph-name="cloud" d="M512 1024c-282.77 0-512-71.634-512-160v-128c0-88.366 229.23-160 512-160s512 71.634 512 160v128c0 88.366-229.23 160-512 160zM512 480c-282.77 0-512 71.634-512 160v-192c0-88.366 229.23-160 512-160s512 71.634 512 160v192c0-88.366-229.23-160-512-160zM512 192c-282.77 0-512 71.634-512 160v-192c0-88.366 229.23-160 512-160s512 71.634 512 160v192c0-88.366-229.23-160-512-160z" />
<glyph unicode="&#xea91;" glyph-name="facebook1" d="M608 832h160v192h-160c-123.514 0-224-100.486-224-224v-96h-128v-192h128v-512h192v512h160l32 192h-192v96c0 17.346 14.654 32 32 32z" />
<glyph unicode="&#xea97;" glyph-name="twitter1" d="M1024 797.6c-37.6-16.8-78.2-28-120.6-33 43.4 26 76.6 67.2 92.4 116.2-40.6-24-85.6-41.6-133.4-51-38.4 40.8-93 66.2-153.4 66.2-116 0-210-94-210-210 0-16.4 1.8-32.4 5.4-47.8-174.6 8.8-329.4 92.4-433 219.6-18-31-28.4-67.2-28.4-105.6 0-72.8 37-137.2 93.4-174.8-34.4 1-66.8 10.6-95.2 26.2 0-0.8 0-1.8 0-2.6 0-101.8 72.4-186.8 168.6-206-17.6-4.8-36.2-7.4-55.4-7.4-13.6 0-26.6 1.4-39.6 3.8 26.8-83.4 104.4-144.2 196.2-146-72-56.4-162.4-90-261-90-17 0-33.6 1-50.2 3 93.2-59.8 203.6-94.4 322.2-94.4 386.4 0 597.8 320.2 597.8 597.8 0 9.2-0.2 18.2-0.6 27.2 41 29.4 76.6 66.4 104.8 108.6z" />
<glyph unicode="&#xea9e;" glyph-name="youtube1" d="M1013.8 716.8c0 0-10 70.6-40.8 101.6-39 40.8-82.6 41-102.6 43.4-143.2 10.4-358.2 10.4-358.2 10.4h-0.4c0 0-215 0-358.2-10.4-20-2.4-63.6-2.6-102.6-43.4-30.8-31-40.6-101.6-40.6-101.6s-10.2-82.8-10.2-165.8v-77.6c0-82.8 10.2-165.8 10.2-165.8s10-70.6 40.6-101.6c39-40.8 90.2-39.4 113-43.8 82-7.8 348.2-10.2 348.2-10.2s215.2 0.4 358.4 10.6c20 2.4 63.6 2.6 102.6 43.4 30.8 31 40.8 101.6 40.8 101.6s10.2 82.8 10.2 165.8v77.6c-0.2 82.8-10.4 165.8-10.4 165.8zM406.2 379.2v287.8l276.6-144.4-276.6-143.4z" />
<glyph unicode="&#xeacb;" glyph-name="linkedin21" d="M384 640h177.106v-90.782h2.532c24.64 44.194 84.958 90.782 174.842 90.782 186.946 0 221.52-116.376 221.52-267.734v-308.266h-184.61v273.278c0 65.184-1.334 149.026-96.028 149.026-96.148 0-110.82-70.986-110.82-144.292v-278.012h-184.542v576zM64 640h192v-576h-192v576zM256 800c0-53.019-42.981-96-96-96s-96 42.981-96 96c0 53.019 42.981 96 96 96s96-42.981 96-96z" />
<glyph unicode="&#x1f375;" glyph-name="pos" d="M554 260h210v168h-210v-168zM260 260h210v168h-210v-168zM554 512h210v168h-210v-168zM260 512h210v168h-210v-168zM932 806v-714h-840v714h840zM344 911l-0.427-4.233-1.223-3.942-1.936-3.567-2.564-3.108-3.108-2.564-3.567-1.936-3.942-1.223-4.233-0.427-4.233 0.427-3.942 1.223-3.567 1.936-3.108 2.564-2.564 3.108-1.936 3.567-1.223 3.942-0.427 4.233 0.427 4.233 1.223 3.942 1.936 3.567 2.564 3.108 3.108 2.564 3.567 1.936 3.942 1.223 4.233 0.427 4.233-0.427 3.942-1.223 3.567-1.936 3.108-2.564 2.564-3.108 1.936-3.567 1.223-3.942 0.427-4.233zM260 911l-0.427-4.233-1.223-3.942-1.936-3.567-2.564-3.108-3.108-2.564-3.567-1.936-3.942-1.223-4.233-0.427-4.233 0.427-3.942 1.223-3.567 1.936-3.108 2.564-2.564 3.108-1.936 3.567-1.223 3.942-0.427 4.233 0.427 4.233 1.223 3.942 1.936 3.567 2.564 3.108 3.108 2.564 3.567 1.936 3.942 1.223 4.233 0.427 4.233-0.427 3.942-1.223 3.567-1.936 3.108-2.564 2.564-3.108 1.936-3.567 1.223-3.942 0.427-4.233zM176 911l-0.427-4.233-1.223-3.942-1.936-3.567-2.564-3.108-3.108-2.564-3.567-1.936-3.942-1.223-4.233-0.427-4.233 0.427-3.942 1.223-3.567 1.936-3.108 2.564-2.564 3.108-1.936 3.567-1.223 3.942-0.427 4.233 0.427 4.233 1.223 3.942 1.936 3.567 2.564 3.108 3.108 2.564 3.567 1.936 3.942 1.223 4.233 0.427 4.233-0.427 3.942-1.223 3.567-1.936 3.108-2.564 2.564-3.108 1.936-3.567 1.223-3.942 0.427-4.233zM8 974v-924l0.218-4.295 0.639-4.171 1.039-4.025 1.418-3.859 3.884-7.134 5.139-6.216 6.222-5.128 7.133-3.872 3.854-1.412 4.017-1.035 4.158-0.636 4.278-0.217 932.466 0.853 4.025 1.035 3.859 1.412 7.134 3.872 6.216 5.128 5.128 6.216 3.872 7.134 1.412 3.859 1.035 4.025 0.636 4.171 0.217 4.295v924l-0.217 4.295-0.636 4.171-1.035 4.025-1.412 3.859-3.872 7.134-5.128 6.216-6.216 5.128-7.134 3.872-3.859 1.412-4.025 1.035-4.171 0.636-4.295 0.217-932.437-0.853-4.017-1.035-3.854-1.412-7.133-3.872-6.222-5.128-5.139-6.216-3.884-7.134-1.418-3.859-1.039-4.025-0.639-4.171-0.218-4.295z" />
</font>
</defs>
</svg>
