<svg width="144" height="47" viewBox="0 0 144 47" fill="none" xmlns="http://www.w3.org/2000/svg">
<path d="M49.875 17.25C49.875 15.5333 50.2583 14 51.025 12.65C51.8083 11.2833 52.8667 10.225 54.2 9.475C55.55 8.70833 57.0583 8.325 58.725 8.325C60.675 8.325 62.3833 8.825 63.85 9.825C65.3167 10.825 66.3417 12.2083 66.925 13.975H62.9C62.5 13.1417 61.9333 12.5167 61.2 12.1C60.4833 11.6833 59.65 11.475 58.7 11.475C57.6833 11.475 56.775 11.7167 55.975 12.2C55.1917 12.6667 54.575 13.3333 54.125 14.2C53.6917 15.0667 53.475 16.0833 53.475 17.25C53.475 18.4 53.6917 19.4167 54.125 20.3C54.575 21.1667 55.1917 21.8417 55.975 22.325C56.775 22.7917 57.6833 23.025 58.7 23.025C59.65 23.025 60.4833 22.8167 61.2 22.4C61.9333 21.9667 62.5 21.3333 62.9 20.5H66.925C66.3417 22.2833 65.3167 23.675 63.85 24.675C62.4 25.6583 60.6917 26.15 58.725 26.15C57.0583 26.15 55.55 25.775 54.2 25.025C52.8667 24.2583 51.8083 23.2 51.025 21.85C50.2583 20.5 49.875 18.9667 49.875 17.25ZM71.6895 10.5C71.0728 10.5 70.5561 10.3083 70.1395 9.925C69.7395 9.525 69.5395 9.03333 69.5395 8.45C69.5395 7.86667 69.7395 7.38333 70.1395 7C70.5561 6.6 71.0728 6.4 71.6895 6.4C72.3061 6.4 72.8145 6.6 73.2145 7C73.6311 7.38333 73.8395 7.86667 73.8395 8.45C73.8395 9.03333 73.6311 9.525 73.2145 9.925C72.8145 10.3083 72.3061 10.5 71.6895 10.5ZM73.4145 12.15V26H69.9145V12.15H73.4145ZM84.5475 11.95C86.1975 11.95 87.5308 12.475 88.5475 13.525C89.5641 14.5583 90.0725 16.0083 90.0725 17.875V26H86.5725V18.35C86.5725 17.25 86.2975 16.4083 85.7475 15.825C85.1975 15.225 84.4475 14.925 83.4975 14.925C82.5308 14.925 81.7641 15.225 81.1975 15.825C80.6475 16.4083 80.3725 17.25 80.3725 18.35V26H76.8725V12.15H80.3725V13.875C80.8391 13.275 81.4308 12.8083 82.1475 12.475C82.8808 12.125 83.6808 11.95 84.5475 11.95ZM95.1758 10.5C94.5591 10.5 94.0424 10.3083 93.6258 9.925C93.2258 9.525 93.0258 9.03333 93.0258 8.45C93.0258 7.86667 93.2258 7.38333 93.6258 7C94.0424 6.6 94.5591 6.4 95.1758 6.4C95.7924 6.4 96.3008 6.6 96.7008 7C97.1174 7.38333 97.3258 7.86667 97.3258 8.45C97.3258 9.03333 97.1174 9.525 96.7008 9.925C96.3008 10.3083 95.7924 10.5 95.1758 10.5ZM96.9008 12.15V26H93.4008V12.15H96.9008ZM103.859 14.175C104.309 13.5083 104.925 12.9667 105.709 12.55C106.509 12.1333 107.417 11.925 108.434 11.925C109.617 11.925 110.684 12.2167 111.634 12.8C112.6 13.3833 113.359 14.2167 113.909 15.3C114.475 16.3667 114.759 17.6083 114.759 19.025C114.759 20.4417 114.475 21.7 113.909 22.8C113.359 23.8833 112.6 24.725 111.634 25.325C110.684 25.925 109.617 26.225 108.434 26.225C107.4 26.225 106.492 26.025 105.709 25.625C104.942 25.2083 104.325 24.675 103.859 24.025V26H100.359V7.5H103.859V14.175ZM111.184 19.025C111.184 18.1917 111.009 17.475 110.659 16.875C110.325 16.2583 109.875 15.7917 109.309 15.475C108.759 15.1583 108.159 15 107.509 15C106.875 15 106.275 15.1667 105.709 15.5C105.159 15.8167 104.709 16.2833 104.359 16.9C104.025 17.5167 103.859 18.2417 103.859 19.075C103.859 19.9083 104.025 20.6333 104.359 21.25C104.709 21.8667 105.159 22.3417 105.709 22.675C106.275 22.9917 106.875 23.15 107.509 23.15C108.159 23.15 108.759 22.9833 109.309 22.65C109.875 22.3167 110.325 21.8417 110.659 21.225C111.009 20.6083 111.184 19.875 111.184 19.025ZM123.452 26.225C122.119 26.225 120.919 25.9333 119.852 25.35C118.785 24.75 117.944 23.9083 117.327 22.825C116.727 21.7417 116.427 20.4917 116.427 19.075C116.427 17.6583 116.735 16.4083 117.352 15.325C117.985 14.2417 118.844 13.4083 119.927 12.825C121.01 12.225 122.219 11.925 123.552 11.925C124.885 11.925 126.094 12.225 127.177 12.825C128.26 13.4083 129.11 14.2417 129.727 15.325C130.36 16.4083 130.677 17.6583 130.677 19.075C130.677 20.4917 130.352 21.7417 129.702 22.825C129.069 23.9083 128.202 24.75 127.102 25.35C126.019 25.9333 124.802 26.225 123.452 26.225ZM123.452 23.175C124.085 23.175 124.677 23.025 125.227 22.725C125.794 22.4083 126.244 21.9417 126.577 21.325C126.91 20.7083 127.077 19.9583 127.077 19.075C127.077 17.7583 126.727 16.75 126.027 16.05C125.344 15.3333 124.502 14.975 123.502 14.975C122.502 14.975 121.66 15.3333 120.977 16.05C120.31 16.75 119.977 17.7583 119.977 19.075C119.977 20.3917 120.302 21.4083 120.952 22.125C121.619 22.825 122.452 23.175 123.452 23.175ZM137.32 15.025V21.725C137.32 22.1917 137.428 22.5333 137.645 22.75C137.878 22.95 138.261 23.05 138.795 23.05H140.42V26H138.22C135.27 26 133.795 24.5667 133.795 21.7V15.025H132.145V12.15H133.795V8.725H137.32V12.15H140.42V15.025H137.32Z" fill="black"/>
<path d="M55.656 34.76V35.376H52.464V34.76H55.656ZM58.7023 34.76V35.376H55.5102V34.76H58.7023ZM61.7485 34.76V35.376H58.5565V34.76H61.7485ZM64.7948 34.76V35.376H61.6028V34.76H64.7948ZM67.841 34.76V35.376H64.649V34.76H67.841ZM70.8872 34.76V35.376H67.6952V34.76H70.8872ZM74.8871 35.208C74.8871 34.664 75.0098 34.176 75.2551 33.744C75.5005 33.3067 75.8338 32.9653 76.2551 32.72C76.6818 32.4747 77.1538 32.352 77.6711 32.352C78.2791 32.352 78.8098 32.4987 79.2631 32.792C79.7165 33.0853 80.0471 33.5013 80.2551 34.04H79.3831C79.2285 33.704 79.0045 33.4453 78.7111 33.264C78.4231 33.0827 78.0765 32.992 77.6711 32.992C77.2818 32.992 76.9325 33.0827 76.6231 33.264C76.3138 33.4453 76.0711 33.704 75.8951 34.04C75.7191 34.3707 75.6311 34.76 75.6311 35.208C75.6311 35.6507 75.7191 36.04 75.8951 36.376C76.0711 36.7067 76.3138 36.9627 76.6231 37.144C76.9325 37.3253 77.2818 37.416 77.6711 37.416C78.0765 37.416 78.4231 37.328 78.7111 37.152C79.0045 36.9707 79.2285 36.712 79.3831 36.376H80.2551C80.0471 36.9093 79.7165 37.3227 79.2631 37.616C78.8098 37.904 78.2791 38.048 77.6711 38.048C77.1538 38.048 76.6818 37.928 76.2551 37.688C75.8338 37.4427 75.5005 37.104 75.2551 36.672C75.0098 36.24 74.8871 35.752 74.8871 35.208ZM83.2508 38.072C82.8401 38.072 82.4668 37.9787 82.1308 37.792C81.8001 37.6053 81.5388 37.3413 81.3468 37C81.1601 36.6533 81.0668 36.2533 81.0668 35.8C81.0668 35.352 81.1628 34.9573 81.3548 34.616C81.5521 34.2693 81.8188 34.0053 82.1548 33.824C82.4908 33.6373 82.8668 33.544 83.2828 33.544C83.6988 33.544 84.0748 33.6373 84.4108 33.824C84.7468 34.0053 85.0108 34.2667 85.2028 34.608C85.4001 34.9493 85.4988 35.3467 85.4988 35.8C85.4988 36.2533 85.3975 36.6533 85.1948 37C84.9975 37.3413 84.7281 37.6053 84.3868 37.792C84.0455 37.9787 83.6668 38.072 83.2508 38.072ZM83.2508 37.432C83.5121 37.432 83.7575 37.3707 83.9868 37.248C84.2161 37.1253 84.4001 36.9413 84.5388 36.696C84.6828 36.4507 84.7548 36.152 84.7548 35.8C84.7548 35.448 84.6855 35.1493 84.5468 34.904C84.4081 34.6587 84.2268 34.4773 84.0028 34.36C83.7788 34.2373 83.5361 34.176 83.2748 34.176C83.0081 34.176 82.7628 34.2373 82.5388 34.36C82.3201 34.4773 82.1441 34.6587 82.0108 34.904C81.8775 35.1493 81.8108 35.448 81.8108 35.8C81.8108 36.1573 81.8748 36.4587 82.0028 36.704C82.1361 36.9493 82.3121 37.1333 82.5308 37.256C82.7495 37.3733 82.9895 37.432 83.2508 37.432ZM88.592 33.536C89.1253 33.536 89.5573 33.6987 89.888 34.024C90.2187 34.344 90.384 34.808 90.384 35.416V38H89.664V35.52C89.664 35.0827 89.5547 34.7493 89.336 34.52C89.1173 34.2853 88.8187 34.168 88.44 34.168C88.056 34.168 87.7493 34.288 87.52 34.528C87.296 34.768 87.184 35.1173 87.184 35.576V38H86.456V33.616H87.184V34.24C87.328 34.016 87.5227 33.8427 87.768 33.72C88.0187 33.5973 88.2933 33.536 88.592 33.536ZM91.3012 35.8C91.3012 35.3467 91.3919 34.952 91.5732 34.616C91.7545 34.2747 92.0052 34.0107 92.3252 33.824C92.6505 33.6373 93.0212 33.544 93.4372 33.544C93.9759 33.544 94.4185 33.6747 94.7652 33.936C95.1172 34.1973 95.3492 34.56 95.4612 35.024H94.6772C94.6025 34.7573 94.4559 34.5467 94.2372 34.392C94.0239 34.2373 93.7572 34.16 93.4372 34.16C93.0212 34.16 92.6852 34.304 92.4292 34.592C92.1732 34.8747 92.0452 35.2773 92.0452 35.8C92.0452 36.328 92.1732 36.736 92.4292 37.024C92.6852 37.312 93.0212 37.456 93.4372 37.456C93.7572 37.456 94.0239 37.3813 94.2372 37.232C94.4505 37.0827 94.5972 36.8693 94.6772 36.592H95.4612C95.3439 37.04 95.1092 37.4 94.7572 37.672C94.4052 37.9387 93.9652 38.072 93.4372 38.072C93.0212 38.072 92.6505 37.9787 92.3252 37.792C92.0052 37.6053 91.7545 37.3413 91.5732 37C91.3919 36.6587 91.3012 36.2587 91.3012 35.8ZM100.433 35.64C100.433 35.7787 100.425 35.9253 100.409 36.08H96.9046C96.9312 36.512 97.0779 36.8507 97.3446 37.096C97.6166 37.336 97.9446 37.456 98.3286 37.456C98.6432 37.456 98.9046 37.384 99.1126 37.24C99.3259 37.0907 99.4752 36.8933 99.5606 36.648H100.345C100.227 37.0693 99.9926 37.4133 99.6406 37.68C99.2886 37.9413 98.8512 38.072 98.3286 38.072C97.9126 38.072 97.5392 37.9787 97.2086 37.792C96.8832 37.6053 96.6272 37.3413 96.4406 37C96.2539 36.6533 96.1606 36.2533 96.1606 35.8C96.1606 35.3467 96.2512 34.9493 96.4326 34.608C96.6139 34.2667 96.8672 34.0053 97.1926 33.824C97.5232 33.6373 97.9019 33.544 98.3286 33.544C98.7446 33.544 99.1126 33.6347 99.4326 33.816C99.7526 33.9973 99.9979 34.248 100.169 34.568C100.345 34.8827 100.433 35.24 100.433 35.64ZM99.6806 35.488C99.6806 35.2107 99.6192 34.9733 99.4966 34.776C99.3739 34.5733 99.2059 34.4213 98.9926 34.32C98.7846 34.2133 98.5526 34.16 98.2966 34.16C97.9286 34.16 97.6139 34.2773 97.3526 34.512C97.0966 34.7467 96.9499 35.072 96.9126 35.488H99.6806ZM102.946 38.072C102.61 38.072 102.308 38.016 102.042 37.904C101.775 37.7867 101.564 37.6267 101.41 37.424C101.255 37.216 101.17 36.9787 101.154 36.712H101.906C101.927 36.9307 102.028 37.1093 102.21 37.248C102.396 37.3867 102.639 37.456 102.938 37.456C103.215 37.456 103.434 37.3947 103.594 37.272C103.754 37.1493 103.834 36.9947 103.834 36.808C103.834 36.616 103.748 36.4747 103.578 36.384C103.407 36.288 103.143 36.1947 102.786 36.104C102.46 36.0187 102.194 35.9333 101.986 35.848C101.783 35.7573 101.607 35.6267 101.458 35.456C101.314 35.28 101.242 35.0507 101.242 34.768C101.242 34.544 101.308 34.3387 101.442 34.152C101.575 33.9653 101.764 33.8187 102.01 33.712C102.255 33.6 102.535 33.544 102.85 33.544C103.335 33.544 103.727 33.6667 104.026 33.912C104.324 34.1573 104.484 34.4933 104.506 34.92H103.778C103.762 34.6907 103.668 34.5067 103.498 34.368C103.332 34.2293 103.108 34.16 102.826 34.16C102.564 34.16 102.356 34.216 102.202 34.328C102.047 34.44 101.97 34.5867 101.97 34.768C101.97 34.912 102.015 35.032 102.106 35.128C102.202 35.2187 102.319 35.2933 102.458 35.352C102.602 35.4053 102.799 35.4667 103.05 35.536C103.364 35.6213 103.62 35.7067 103.818 35.792C104.015 35.872 104.183 35.9947 104.322 36.16C104.466 36.3253 104.54 36.5413 104.546 36.808C104.546 37.048 104.479 37.264 104.346 37.456C104.212 37.648 104.023 37.8 103.778 37.912C103.538 38.0187 103.26 38.072 102.946 38.072ZM107.125 38.072C106.789 38.072 106.488 38.016 106.221 37.904C105.955 37.7867 105.744 37.6267 105.589 37.424C105.435 37.216 105.349 36.9787 105.333 36.712H106.085C106.107 36.9307 106.208 37.1093 106.389 37.248C106.576 37.3867 106.819 37.456 107.117 37.456C107.395 37.456 107.613 37.3947 107.773 37.272C107.933 37.1493 108.013 36.9947 108.013 36.808C108.013 36.616 107.928 36.4747 107.757 36.384C107.587 36.288 107.323 36.1947 106.965 36.104C106.64 36.0187 106.373 35.9333 106.165 35.848C105.963 35.7573 105.787 35.6267 105.637 35.456C105.493 35.28 105.421 35.0507 105.421 34.768C105.421 34.544 105.488 34.3387 105.621 34.152C105.755 33.9653 105.944 33.8187 106.189 33.712C106.435 33.6 106.715 33.544 107.029 33.544C107.515 33.544 107.907 33.6667 108.205 33.912C108.504 34.1573 108.664 34.4933 108.685 34.92H107.957C107.941 34.6907 107.848 34.5067 107.677 34.368C107.512 34.2293 107.288 34.16 107.005 34.16C106.744 34.16 106.536 34.216 106.381 34.328C106.227 34.44 106.149 34.5867 106.149 34.768C106.149 34.912 106.195 35.032 106.285 35.128C106.381 35.2187 106.499 35.2933 106.637 35.352C106.781 35.4053 106.979 35.4667 107.229 35.536C107.544 35.6213 107.8 35.7067 107.997 35.792C108.195 35.872 108.363 35.9947 108.501 36.16C108.645 36.3253 108.72 36.5413 108.725 36.808C108.725 37.048 108.659 37.264 108.525 37.456C108.392 37.648 108.203 37.8 107.957 37.912C107.717 38.0187 107.44 38.072 107.125 38.072ZM110.129 32.904C109.99 32.904 109.873 32.856 109.777 32.76C109.681 32.664 109.633 32.5467 109.633 32.408C109.633 32.2693 109.681 32.152 109.777 32.056C109.873 31.96 109.99 31.912 110.129 31.912C110.262 31.912 110.374 31.96 110.465 32.056C110.561 32.152 110.609 32.2693 110.609 32.408C110.609 32.5467 110.561 32.664 110.465 32.76C110.374 32.856 110.262 32.904 110.129 32.904ZM110.481 33.616V38H109.753V33.616H110.481ZM113.634 38.072C113.223 38.072 112.85 37.9787 112.514 37.792C112.183 37.6053 111.922 37.3413 111.73 37C111.543 36.6533 111.45 36.2533 111.45 35.8C111.45 35.352 111.546 34.9573 111.738 34.616C111.935 34.2693 112.202 34.0053 112.538 33.824C112.874 33.6373 113.25 33.544 113.666 33.544C114.082 33.544 114.458 33.6373 114.794 33.824C115.13 34.0053 115.394 34.2667 115.586 34.608C115.783 34.9493 115.882 35.3467 115.882 35.8C115.882 36.2533 115.78 36.6533 115.578 37C115.38 37.3413 115.111 37.6053 114.77 37.792C114.428 37.9787 114.05 38.072 113.634 38.072ZM113.634 37.432C113.895 37.432 114.14 37.3707 114.37 37.248C114.599 37.1253 114.783 36.9413 114.922 36.696C115.066 36.4507 115.138 36.152 115.138 35.8C115.138 35.448 115.068 35.1493 114.93 34.904C114.791 34.6587 114.61 34.4773 114.386 34.36C114.162 34.2373 113.919 34.176 113.658 34.176C113.391 34.176 113.146 34.2373 112.922 34.36C112.703 34.4773 112.527 34.6587 112.394 34.904C112.26 35.1493 112.194 35.448 112.194 35.8C112.194 36.1573 112.258 36.4587 112.386 36.704C112.519 36.9493 112.695 37.1333 112.914 37.256C113.132 37.3733 113.372 37.432 113.634 37.432ZM118.975 33.536C119.508 33.536 119.94 33.6987 120.271 34.024C120.601 34.344 120.767 34.808 120.767 35.416V38H120.047V35.52C120.047 35.0827 119.937 34.7493 119.719 34.52C119.5 34.2853 119.201 34.168 118.823 34.168C118.439 34.168 118.132 34.288 117.903 34.528C117.679 34.768 117.567 35.1173 117.567 35.576V38H116.839V33.616H117.567V34.24C117.711 34.016 117.905 33.8427 118.151 33.72C118.401 33.5973 118.676 33.536 118.975 33.536ZM127.129 34.76V35.376H123.937V34.76H127.129ZM130.175 34.76V35.376H126.983V34.76H130.175ZM133.221 34.76V35.376H130.029V34.76H133.221ZM136.268 34.76V35.376H133.076V34.76H136.268ZM139.314 34.76V35.376H136.122V34.76H139.314ZM142.36 34.76V35.376H139.168V34.76H142.36Z" fill="#929292"/>
<g clip-path="url(#clip0)">
<path d="M22.0354 0.0370405C24.6142 0.0370405 27.197 -0.0631376 29.7704 0.0672312C32.0982 0.185249 34.2016 1.12665 36.0592 2.57992C37.0516 3.35156 37.9391 4.25615 38.6981 5.26963C39.4326 6.25083 39.9294 7.36377 40.4236 8.47533C40.5678 8.80057 40.704 8.93917 41.0325 8.96525C41.3397 8.98995 41.6415 9.12032 41.946 9.12306C43.2614 9.13267 43.6821 10.0933 43.8384 11.1486C44.0667 12.6348 44.1215 14.1416 43.4644 15.5715C43.3215 15.8803 43.168 16.0751 42.8114 16.1506C42.1436 16.2879 41.3424 16.3304 40.8669 16.7435C40.4209 17.1346 40.3595 17.9676 40.0656 18.5769C38.0758 22.7775 34.8653 25.3423 30.3594 26.1135C28.4416 26.4415 26.4999 26.1973 24.5701 26.2508C23.7261 26.2741 22.8807 26.2508 22.0327 26.2425C21.8978 26.0894 21.8247 25.8892 21.8284 25.6826C21.807 24.4146 21.795 23.1466 21.8364 21.8772C21.8383 21.7172 21.8877 21.5616 21.9779 21.4312C22.245 21.2007 22.5642 21.2542 22.87 21.2528C24.7103 21.2528 26.5506 21.2528 28.3922 21.2528C28.6795 21.2765 28.9686 21.2552 29.2496 21.1897C33.029 20.7959 35.6773 17.748 36.1767 14.5876C36.9353 9.78451 33.9625 5.87345 29.5861 5.07888C29.2555 5.03454 28.9217 5.0203 28.5885 5.03634C24.315 5.03634 20.0535 5.03634 15.7867 5.02399C15.4555 5.02399 15.0188 5.22023 14.8104 4.72757C15.0775 4.4339 15.4207 4.49565 15.7453 4.49291C17.3852 4.4833 19.0265 4.49291 20.6678 4.49291C21.815 4.49291 21.815 4.49291 21.8163 3.34429C21.8163 2.54698 21.8163 1.74967 21.8163 0.952367C21.835 0.628503 21.8137 0.301895 22.0354 0.0370405Z" fill="#329CFE"/>
<path d="M22.0447 21.4573C22.0447 23.0529 22.0447 24.6484 22.0447 26.2439C19.8198 26.2439 17.5936 26.2947 15.3673 26.2357C12.1448 26.1492 9.3243 25.013 6.91376 22.7569C6.23801 22.1243 5.57828 21.4711 5.13357 20.6985C4.39104 19.403 3.54034 18.1391 3.20514 16.6323C2.707 15.8817 2.67095 15.0048 2.62554 14.1526C2.55476 12.6746 2.5828 11.1953 3.00615 9.7612C3.07548 9.49386 3.09764 9.21593 3.07159 8.94056C3.8662 8.80333 3.87288 8.03896 4.07854 7.50239C4.52993 6.3126 5.24842 5.31768 6.06039 4.40647C7.33627 2.95012 8.9034 1.79433 10.6544 1.01826C12.03 0.418562 13.4589 0.032945 14.968 0.0356896C17.3247 0.0356896 19.6841 0.0356896 22.0461 0.0356896C22.0461 1.38329 22.0194 2.73226 22.0541 4.07849C22.0661 4.60683 21.8912 4.73171 21.4037 4.72485C19.4472 4.69877 17.4908 4.70975 15.5343 4.71524C15.2966 4.71524 15.0415 4.63702 14.8291 4.8264C14.6382 5.10086 14.335 5.10086 14.0586 5.16673C10.4167 5.98325 7.96879 8.85548 7.67365 12.6801C7.61848 13.6396 7.75062 14.6008 8.06227 15.507C9.15603 19.0023 12.1502 21.2515 15.7359 21.2707C17.1636 21.2707 17.1943 21.3187 17.1409 22.7665C17.1302 23.0835 16.8951 23.5268 17.2891 23.6901C17.6096 23.8273 17.8019 23.4033 18.0183 23.1933C18.455 22.7706 18.8676 22.3233 19.295 21.8924C19.9667 21.2062 21.1419 21.0251 22.0447 21.4573Z" fill="#453F78"/>
<path d="M14.5701 29.4084C15.7106 28.9377 16.9165 28.7552 18.1224 28.596C19.9053 28.3614 21.7028 28.2132 23.4977 28.3381C25.5704 28.4753 27.6658 28.6523 29.6196 29.4126C32.1156 30.3842 33.9358 32.2313 35.2419 34.6012C36.2021 36.3454 37.1036 38.1226 37.4655 40.1248C37.4813 40.1674 37.4947 40.2109 37.5056 40.2551C37.5763 41.4765 37.7179 42.1091 36.0526 41.7715C34.465 41.4515 32.9401 40.863 31.54 40.0301C31.1954 39.8242 31.1393 39.9546 31.0472 40.2304C30.5197 41.7729 29.7625 43.1713 28.5806 44.2952C26.7336 46.049 24.6062 47.0755 22.0367 46.9698C21.7696 46.6377 21.8311 46.2342 21.8311 45.8514C21.8257 41.5067 21.8257 37.161 21.8311 32.8145C21.8311 32.54 21.8311 32.2656 21.8311 31.9911C21.7816 30.9715 21.3316 30.4816 20.33 30.4555C18.8836 30.4157 17.4373 30.4473 15.991 30.4418C15.6571 30.4418 15.3233 30.4665 14.9947 30.3759C14.4726 30.2332 14.3697 29.9848 14.5701 29.4084Z" fill="#329CFE"/>
<path d="M14.57 29.4084C14.4645 30.0699 14.8091 30.2428 15.3713 30.2318C16.9739 30.2181 18.5765 30.2318 20.1697 30.225C21.5052 30.225 22.0394 30.7519 22.0394 32.1078C22.0394 37.0609 22.0394 42.013 22.0394 46.9643C20.6934 47.0882 19.3407 46.8189 18.1371 46.1876C16.5158 45.3354 15.0348 44.1936 14.0545 42.5153C13.6953 41.9019 13.3107 41.3241 13.2279 40.5776C13.2108 40.4304 13.1495 40.2922 13.0526 40.1823C12.9557 40.0724 12.828 39.9962 12.687 39.9642C12.3945 38.2186 12.1074 36.4731 11.7963 34.663C10.6998 36.3454 10.6157 38.1459 10.8414 40.004C10.8734 40.2688 11.0297 40.5282 10.8347 40.789C9.83844 41.3571 8.72198 41.5684 7.64291 41.869C6.92443 42.0693 6.62395 41.7002 6.54115 40.9344C6.42095 39.8283 6.91107 38.8869 7.24494 37.9153C7.49909 37.1147 7.81159 36.3348 8.17978 35.5824C8.52872 34.8929 8.93064 34.233 9.38171 33.6091C10.6838 31.8594 12.2423 30.38 14.2535 29.4922C14.3571 29.4571 14.4628 29.4291 14.57 29.4084Z" fill="#453F78"/>
<path d="M3.07155 8.94055C3.39874 8.99956 3.36536 9.22462 3.29057 9.45654C2.81781 10.9441 2.77908 12.4756 2.80446 14.0236C2.81915 14.9169 3.10628 15.7554 3.2051 16.6309C2.49863 16.4676 1.78816 16.3304 1.08169 16.1547C0.994281 16.1369 0.912298 16.0978 0.842597 16.0408C0.772896 15.9837 0.717501 15.9103 0.681046 15.8268C-0.224408 13.8369 -0.21773 11.8471 0.615608 9.83392C0.717104 9.59789 0.839968 9.44144 1.06834 9.38929C1.73607 9.23285 2.40381 9.08876 3.07155 8.94055Z" fill="#191923"/>
<path d="M10.8308 40.7889C10.3981 39.4551 10.5236 38.102 10.6972 36.7461C10.8067 35.8665 11.3823 35.1858 11.6521 34.3748C11.662 34.3297 11.6886 34.2902 11.7261 34.2646C11.7637 34.239 11.8094 34.2294 11.8537 34.2376C11.9873 34.2568 12.0153 34.3748 12.026 34.4901C12.1769 36.1835 12.5602 37.8371 12.8099 39.5127C12.8313 39.6499 12.7325 39.8119 12.6898 39.9614C12.0997 40.3029 11.4767 40.5802 10.8308 40.7889V40.7889Z" fill="#191923"/>
<path d="M7.91141 15.5358C6.97658 12.5168 7.65767 9.84078 9.65688 7.50649C11.0177 5.91737 12.7966 5.09948 14.8238 4.82776C19.3574 4.82776 23.8913 4.82776 28.4257 4.82776C30.3321 4.8085 32.1826 5.48902 33.6441 6.74688C35.1057 8.00474 36.0824 9.75734 36.3985 11.6893C37.0729 15.6978 34.9989 19.3495 31.4158 20.8453C30.7841 21.1088 30.1271 21.3462 29.4206 21.3187C28.1613 21.445 26.8992 21.3517 25.6385 21.3722C24.6182 21.3887 23.5979 21.3722 22.579 21.3805C22.1877 21.3805 21.9112 21.2597 21.8805 20.8316C21.8485 20.2634 21.7016 19.7666 21.3063 19.3481C21.2232 19.2699 21.1681 19.1653 21.1497 19.0512C21.1313 18.937 21.1507 18.8197 21.2048 18.7182C21.4545 18.4561 21.7844 18.5439 22.0862 18.5096C23.2133 18.3806 24.056 17.8344 24.5194 16.7448C24.645 16.4512 24.7531 16.1424 24.5288 15.8391C23.9465 15.5976 23.3429 15.7678 22.7512 15.7321C21.9967 15.6868 21.8591 15.5811 21.8538 14.7934C21.8391 12.6252 21.8538 10.4569 21.8538 8.28733C21.8538 7.43514 21.8351 7.37887 21.0271 7.2979C19.6307 7.15595 18.2241 7.15319 16.8271 7.28967C15.728 7.39946 14.6195 7.30751 13.5204 7.60393C12.0233 8.01562 10.7159 8.76352 9.80111 9.96292C9.24422 10.666 8.77329 11.4366 8.39886 12.2574C8.04496 13.0808 8.01291 13.9824 8.14779 14.8799C8.18786 15.1461 8.2947 15.4329 7.91141 15.5358Z" fill="white"/>
<path d="M7.91132 15.5358C7.97323 15.4882 8.0199 15.4227 8.04536 15.3476C8.07082 15.2726 8.0739 15.1914 8.05421 15.1145C7.87332 14.5281 7.81975 13.908 7.89728 13.2979C7.9748 12.6879 8.18154 12.1027 8.50293 11.5836C8.7954 11.0937 9.17869 10.7218 9.36699 10.1056C9.47331 9.82038 9.64207 9.56409 9.86022 9.35658C10.0784 9.14908 10.34 8.99593 10.625 8.90899C10.7781 8.86986 10.9171 8.78653 11.0257 8.66883C11.9405 7.57922 13.2693 7.3473 14.4979 7.2238C16.5504 7.01262 18.6149 6.95163 20.6758 7.04128C21.027 7.05775 21.3743 7.14283 21.7255 7.17851C22.1542 7.21556 22.046 7.54492 22.0474 7.79468C22.054 10.0315 22.0474 12.2698 22.0474 14.5066C22.0474 15.6923 21.9138 15.5139 23.093 15.5592C23.6793 15.5811 24.2829 15.389 24.8519 15.6799C24.5941 15.9256 24.2723 15.8748 23.9651 15.8762C22.655 15.8762 21.3449 15.8762 20.0334 15.8762C19.3417 15.8762 19.2455 16.0463 19.4993 16.6996C19.7644 17.3611 20.2541 17.9013 20.8775 18.2201C21.0845 18.334 21.3529 18.382 21.421 18.6757C21.0604 18.9652 21.3489 19.1711 21.5359 19.3261C21.7326 19.4742 21.885 19.6761 21.9756 19.9087C22.0663 20.1414 22.0916 20.3955 22.0487 20.6422C21.9832 21.1527 22.2303 21.3132 22.7097 21.3105C24.948 21.2981 27.1876 21.3105 29.4259 21.3105C29.1588 21.482 28.8663 21.4271 28.5805 21.4285C26.4037 21.4386 24.2264 21.4459 22.0487 21.4505C22.006 21.4422 21.9605 21.4367 21.9151 21.4258C19.9974 20.9139 19.0372 22.3383 17.9474 23.5007C17.8833 23.5934 17.8113 23.6802 17.7324 23.76C17.5601 23.8849 17.4199 24.1237 17.1555 24.0016C16.8911 23.8794 16.8977 23.6516 16.8991 23.4183C16.8991 22.938 16.8831 22.4577 16.9218 21.9788C16.9578 21.5301 16.8176 21.386 16.3676 21.4079C14.7196 21.4875 13.133 21.2158 11.6814 20.3567C9.81304 19.2589 8.49759 17.7027 7.91132 15.5358Z" fill="white"/>
<path d="M15.6251 34.8318C15.6251 33.9439 16.0658 33.502 16.9326 33.5103C17.7071 33.5185 18.3108 34.0907 18.2894 34.7988C18.264 35.5646 17.6444 36.248 16.9686 36.2535C16.1593 36.2603 15.6251 35.6908 15.6251 34.8318Z" fill="#F39237"/>
<path d="M27.1102 12.875C27.1215 12.2282 27.3824 11.6126 27.8355 11.1635C28.2886 10.7144 28.8967 10.4686 29.5261 10.4803C30.1555 10.4919 30.7546 10.76 31.1916 11.2256C31.6287 11.6911 31.8678 12.316 31.8565 12.9628C31.8485 14.2459 30.744 15.3616 29.5047 15.3382C28.1318 15.3135 27.0982 14.25 27.1102 12.875Z" fill="#F39237"/>
<path d="M21.4157 18.6784C20.2646 18.2667 19.4232 17.5408 19.1454 16.2563C19.0559 15.8446 19.1107 15.6497 19.6062 15.6593C21.353 15.6909 23.1011 15.6744 24.8479 15.6758C24.9708 17.2347 23.7168 18.629 22.1476 18.6729C21.9018 18.6811 21.6588 18.677 21.4157 18.6784Z" fill="#329CFE"/>
<path d="M14.5728 15.3396C13.1825 15.3108 12.1475 14.2596 12.1609 12.89C12.1596 12.5645 12.2215 12.242 12.3429 11.9413C12.4643 11.6406 12.6428 11.3678 12.8679 11.1389C13.0931 10.9099 13.3604 10.7293 13.6543 10.6077C13.9482 10.4862 14.2627 10.426 14.5794 10.4307C14.8962 10.4355 15.2088 10.505 15.4991 10.6354C15.7894 10.7657 16.0515 10.9542 16.2701 11.1898C16.4887 11.4254 16.6594 11.7034 16.7722 12.0076C16.885 12.3118 16.9377 12.636 16.9272 12.9614C16.8992 14.2719 15.8148 15.3698 14.5728 15.3396Z" fill="#BF1363"/>
</g>
<defs>
<clipPath id="clip0">
<rect width="44" height="47" fill="white"/>
</clipPath>
</defs>
</svg>
