<svg width="188" height="73" viewBox="0 0 188 73" fill="none" xmlns="http://www.w3.org/2000/svg">
<path d="M24.4306 72.3388C20.7132 72.3388 16.979 72.413 13.2583 72.3219C8.11153 72.1903 2.89039 68.2435 1.11959 63.3994C0.356514 61.2944 -0.0223366 59.0699 0.00101748 56.8315C0.0348113 48.2699 0.00101748 39.7117 0.00101748 31.1535C0.0212938 23.3003 5.82031 15.4539 13.3394 13.1567C16.2727 12.2661 19.3345 12.1784 22.3556 11.949C26.7445 11.6157 31.1541 11.6609 35.5352 12.0839C42.7333 12.7788 49.0933 15.3595 54.3651 20.379C57.3276 23.1705 59.6901 26.5345 61.3087 30.2664C62.9272 33.9983 63.7681 38.0199 63.7801 42.0865C63.9347 48.2738 62.0006 54.3332 58.2886 59.2906C54.9667 63.7806 50.9486 67.4271 45.7849 69.748C42.8283 71.0659 39.6662 71.8647 36.4375 72.1094C32.4447 72.4518 28.4335 72.5285 24.4306 72.3388Z" fill="#2BC2E4"/>
<path d="M57.4507 5.93433C57.9388 5.92999 58.4228 6.02417 58.8735 6.21121C59.3242 6.39824 59.7325 6.67428 60.0737 7.02275C60.4149 7.37121 60.682 7.78491 60.859 8.23901C61.036 8.69311 61.1193 9.17823 61.1038 9.66525C61.094 10.6316 60.7021 11.5549 60.0134 12.2341C59.3248 12.9134 58.3951 13.2934 57.427 13.2916C56.9387 13.2995 56.4538 13.2087 56.0017 13.0244C55.5495 12.8402 55.1394 12.5664 54.7961 12.2197C54.4528 11.8729 54.1835 11.4603 54.0043 11.0068C53.8252 10.5533 53.7399 10.0682 53.7536 9.58092C53.7403 9.09469 53.8271 8.6109 54.0088 8.15955C54.1904 7.7082 54.463 7.29889 54.8096 6.95701C55.1563 6.61513 55.5695 6.34794 56.0238 6.17203C56.4781 5.99611 56.9638 5.9152 57.4507 5.93433Z" fill="#2BC2E4"/>
<path d="M62.78 2.00435C62.78 0.820308 63.4862 0.0309436 64.6082 0.00058345C65.1414 -0.012193 65.6583 0.185301 66.0467 0.550268C66.4351 0.915235 66.6637 1.41828 66.6831 1.95038C66.6814 2.20625 66.6289 2.45925 66.5288 2.69479C66.4286 2.93034 66.2828 3.14378 66.0997 3.32282C65.9166 3.50186 65.6997 3.64297 65.4617 3.738C65.2237 3.83304 64.9693 3.88013 64.713 3.87657C64.4579 3.90108 64.2006 3.86996 63.9589 3.78536C63.7171 3.70076 63.4966 3.56471 63.3128 3.38662C63.1289 3.20854 62.986 2.99268 62.894 2.754C62.802 2.51533 62.7631 2.25954 62.78 2.00435Z" fill="#29C3E4"/>
<path d="M29.5672 24.2314C32.0376 24.2314 34.17 25.5807 35.0249 27.743C35.9712 30.128 35.5927 32.3342 33.8286 34.2098C32.0646 36.0853 30.2533 37.8462 28.4554 39.6577C27.5193 40.6023 27.0361 41.6817 27.3842 43.0311C27.6038 43.871 28.1918 44.4513 28.7866 45.0315C30.4966 46.7013 32.2133 48.361 33.8928 50.0611C34.454 50.6098 34.8988 51.2657 35.2007 51.9896C35.5025 52.7135 35.6553 53.4907 35.65 54.2748C35.6446 55.0589 35.4812 55.8339 35.1694 56.5537C34.8577 57.2734 34.404 57.9231 33.8354 58.4642C31.6287 60.6602 27.8167 60.6164 25.512 58.3528C21.7541 54.6624 18.0199 50.9315 14.2417 47.2714C13.2279 46.2965 12.2986 45.3148 11.9607 43.9183C11.4233 41.6986 11.8965 39.6982 13.4848 38.0621C17.4837 33.9466 21.5119 29.8581 25.5694 25.7966C26.0804 25.2595 26.7033 24.841 27.3941 24.5705C28.0849 24.3001 28.8267 24.1843 29.5672 24.2314Z" fill="#F6F6F6"/>
<path d="M144.048 53.765C144.048 50.9449 144.075 48.1247 144.048 45.308C144.048 44.576 144.251 44.3972 144.964 44.4107C147.4 44.4545 149.84 44.4107 152.28 44.4107C156.362 44.4107 158.779 46.1817 159.782 50.1218C160.492 52.8664 160.394 55.7572 159.498 58.4472C158.403 61.7632 155.889 63.1058 152.506 63.2441C149.975 63.3487 147.437 63.2441 144.899 63.2846C144.197 63.2846 144.048 63.0417 144.055 62.4008C144.065 59.53 144.048 56.6492 144.048 53.765Z" fill="white"/>
<path d="M181.109 57.7388C180.991 59.5705 181.312 61.8172 180.927 64.0436C180.363 67.2955 178.561 67.9735 176.169 68.2637C174.288 68.4638 172.389 68.4036 170.525 68.0849C170.235 68.067 169.958 67.9573 169.734 67.7717C169.511 67.5861 169.352 67.3342 169.282 67.0526C169.109 66.3779 169.018 65.6594 169.42 65.0286C169.626 64.6913 169.995 64.7891 170.306 64.8228C172.055 65.0223 173.818 65.0787 175.577 64.9915C176.311 64.9476 177.037 64.8431 177.318 63.9458C177.51 63.3419 177.385 63.153 176.74 63.1496C175.466 63.1496 174.185 63.2778 172.921 62.954C169.826 62.168 168.65 60.8996 168.275 57.7152C168.101 56.1867 168.261 54.6388 168.744 53.178C169.315 51.4104 170.552 50.4523 172.266 50.0138C174.743 49.3762 177.226 49.7001 179.7 50.0712C180.805 50.2365 181.116 50.7458 181.12 51.8759C181.113 53.6874 181.109 55.5124 181.109 57.7388Z" fill="white"/>
<path d="M114.627 57.9918C114.627 59.1455 114.627 60.2992 114.627 61.4495C114.627 62.3029 114.239 62.9304 113.424 63.0586C110.721 63.487 108.017 63.7602 105.314 63.0889C102.948 62.502 101.846 60.7478 102.248 58.3662C102.502 56.8617 103.583 56.1162 104.881 55.6001C106.28 55.0435 107.791 54.9592 109.24 54.6252C109.463 54.5984 109.683 54.5556 109.899 54.497C110.237 54.3756 110.802 54.5172 110.788 53.9944C110.769 53.7513 110.658 53.5245 110.478 53.3594C110.298 53.1943 110.063 53.103 109.818 53.1038C109.212 53.0515 108.602 53.0346 107.993 53.0532C106.746 53.0735 105.499 52.9925 104.276 53.2725C103.664 53.4142 103.262 53.178 103.164 52.446C102.955 50.6885 103.374 49.9464 105.162 49.7676C107.034 49.582 108.946 49.491 110.812 49.8789C113.329 50.4051 114.556 51.9468 114.624 54.5409C114.651 55.6844 114.627 56.8314 114.627 57.9918Z" fill="white"/>
<path d="M93.8436 44.4343C92.5493 45.8073 91.4409 46.9879 90.3257 48.145C88.9131 49.6326 87.514 51.1338 86.0642 52.5809C85.6317 53.0127 85.6351 53.2792 85.9629 53.7616C88.0817 56.8617 90.1634 59.9855 92.3567 63.2441C90.6501 63.2441 89.0415 63.261 87.4329 63.2441C87.095 63.2441 86.9125 62.8865 86.7367 62.6268C84.6212 59.5132 82.526 56.3895 80.4004 53.2826C80.1875 52.9689 80.2416 52.8205 80.4747 52.5742C82.9124 50.0307 85.3422 47.4816 87.7641 44.9268C87.8997 44.7696 88.0678 44.6436 88.2568 44.5575C88.4458 44.4713 88.6512 44.427 88.859 44.4276C90.427 44.4377 91.9917 44.4343 93.8436 44.4343Z" fill="white"/>
<path d="M79.9443 53.4918C79.9443 56.2444 79.9443 58.9982 79.9443 61.7531C79.9443 62.9439 79.6064 63.2812 78.3999 63.2812C77.4098 63.2812 76.0749 63.6186 75.5241 63.1362C74.8921 62.5661 75.3348 61.2134 75.3314 60.2014C75.3145 55.5259 75.3314 50.8538 75.3314 46.1783C75.3314 44.8054 75.7066 44.4343 77.0955 44.4276C77.7342 44.4276 78.3797 44.4714 79.0184 44.4276C79.7348 44.3635 79.9916 44.5524 79.9747 45.3417C79.9105 48.0607 79.9443 50.7594 79.9443 53.4918Z" fill="white"/>
<path d="M127.932 53.5828C127.932 51.7882 127.932 49.9969 127.932 48.1855C127.932 46.7046 128.344 46.2863 129.797 46.293C131.649 46.293 131.683 45.9557 131.669 48.1551C131.669 49.8013 131.669 49.8013 133.322 49.8013H133.416C135.532 49.8013 135.88 50.2466 135.491 52.3718C135.489 52.4675 135.467 52.5618 135.426 52.6483C135.385 52.7348 135.326 52.8116 135.252 52.8735C135.179 52.9354 135.094 52.981 135.001 53.0074C134.909 53.0337 134.812 53.0401 134.717 53.0262C133.916 53.0262 133.112 53.0262 132.311 53.0262C131.902 53.0262 131.635 53.0701 131.659 53.5828C131.693 55.4078 131.7 57.2362 131.696 59.0611C131.696 59.7932 132.034 60.117 132.751 60.0731C133.393 60.0428 134.035 60.0124 134.677 60.0225C135.214 60.0225 135.809 60.0225 135.981 60.7208C136.255 61.8678 135.981 63.0046 135.248 63.1699C133.22 63.632 131.169 63.74 129.364 62.4412C128.266 61.6519 127.959 60.4172 127.942 59.1387C127.918 57.28 127.942 55.428 127.942 53.5626L127.932 53.5828Z" fill="white"/>
<path d="M99.1899 54.0011C99.1899 56.7234 99.1696 59.4457 99.1899 62.168C99.1899 62.9743 98.9973 63.3116 98.1152 63.3048C95.4861 63.2779 95.4861 63.3048 95.4861 60.6703C95.4861 55.9003 95.4861 51.1282 95.4861 46.3537C95.4861 44.9133 95.9254 44.4815 97.3583 44.4748C99.173 44.4748 99.173 44.4748 99.173 46.3133L99.1899 54.0011Z" fill="white"/>
<path d="M117.141 57.9682C117.236 56.6695 117.04 55.0739 117.249 53.4749C117.587 50.8707 119.442 49.889 121.274 49.6967C122.361 49.6276 123.451 49.6276 124.539 49.6967C125.103 49.6967 125.637 49.8958 125.843 50.4895C126.108 51.1843 126.098 51.9537 125.816 52.6417C125.684 52.9487 125.343 52.9082 125.049 52.9116C124.12 52.9116 123.19 52.9116 122.261 52.9487C121.332 52.9858 120.909 53.4412 120.909 54.4194C120.946 56.9461 120.926 59.4795 120.909 62.0061C120.909 63.2239 120.828 63.3049 119.601 63.2947C116.847 63.2745 117.138 63.686 117.128 60.8693C117.138 59.9922 117.141 59.1253 117.141 57.9682Z" fill="white"/>
<path d="M166.402 56.5581C166.402 58.4438 166.386 60.3295 166.402 62.2152C166.402 62.9675 166.193 63.3689 165.362 63.2947C164.819 63.2407 164.272 63.2407 163.729 63.2947C162.837 63.3925 162.635 62.9574 162.641 62.168C162.665 58.6496 162.641 55.1346 162.641 51.6162C162.641 50.0273 164.578 48.9984 165.977 49.808C166.392 50.0442 166.382 50.4152 166.382 50.8032L166.402 56.5581Z" fill="white"/>
<path d="M187.652 56.5986C187.652 58.4843 187.652 60.3734 187.652 62.2591C187.652 62.9675 187.446 63.3487 186.658 63.2914C186.019 63.2526 185.378 63.2526 184.739 63.2914C184.154 63.3217 183.904 63.0451 183.904 62.5054C183.904 58.7643 183.904 55.0199 183.904 51.2789C183.904 50.3411 184.479 49.8283 185.388 49.7001C185.707 49.668 186.028 49.6613 186.348 49.6799C187.47 49.6799 187.635 49.8418 187.639 50.9381C187.655 52.8238 187.652 54.7096 187.652 56.5986Z" fill="white"/>
<path d="M185.776 48.4756C184.394 48.4756 183.617 47.6862 183.614 46.2627C183.61 44.8391 184.496 43.9452 185.844 43.9013C187.084 43.8811 187.986 44.8492 188 46.2188C188.01 47.5513 187.213 48.6712 185.776 48.4756Z" fill="#2BC2E4"/>
<path d="M166.666 46.2121C166.666 47.7402 165.99 48.4722 164.55 48.4756C163.111 48.479 162.408 47.8009 162.405 46.3234C162.401 44.8458 163.239 43.9013 164.564 43.8979C165.767 43.8912 166.663 44.8762 166.666 46.2121Z" fill="#F9CD10"/>
<path d="M137.286 46.0805C137.962 44.1678 138.553 42.4643 139.155 40.7607C139.186 40.62 139.268 40.4957 139.385 40.4111C139.502 40.3266 139.646 40.2878 139.79 40.302C140.425 40.3256 141.064 40.302 141.868 40.302C140.932 42.1573 140.091 43.9216 139.165 45.6319C138.759 46.374 137.996 45.7466 137.286 46.0805Z" fill="white"/>
<path d="M148.556 52.8095C148.556 51.1228 148.576 49.4361 148.556 47.7258C148.556 47.1962 148.681 46.9972 149.232 47.0242C150.127 47.0714 151.026 47.0242 151.935 47.0478C153.676 47.1017 154.828 47.9687 155.298 49.6452C155.864 51.6892 155.857 53.8491 155.278 55.8893C154.818 57.576 153.395 58.561 151.641 58.588C150.841 58.588 150.04 58.5509 149.242 58.588C148.668 58.6251 148.566 58.4092 148.566 57.8864C148.573 56.1997 148.553 54.5029 148.556 52.8095Z" fill="#3E2F5B"/>
<path d="M177.433 55.3665C177.433 56.2604 177.433 57.1543 177.433 58.0651C177.433 58.3418 177.5 58.7196 177.095 58.7398C175.858 58.7398 174.608 58.9726 173.378 58.5509C173.074 58.453 172.804 58.2727 172.597 58.0302C172.391 57.7877 172.256 57.4926 172.208 57.178C171.961 55.952 171.974 54.688 172.245 53.4673C172.306 53.0845 172.5 52.7352 172.793 52.481C173.086 52.2267 173.459 52.0838 173.847 52.0774C174.861 51.9965 175.892 52.037 176.916 52.0167C177.342 52.0167 177.446 52.2191 177.436 52.6138C177.413 53.5145 177.433 54.432 177.433 55.3665Z" fill="#3E2F5B"/>
<path d="M108.581 59.1547C108.007 59.1196 107.436 59.0487 106.871 58.9422C106.415 58.8376 105.925 58.6049 105.965 57.9943C106.003 57.4411 106.425 57.2859 106.891 57.1982C108.047 56.9789 109.206 56.7765 110.352 56.5235C110.815 56.419 110.916 56.5674 110.899 56.9857C110.791 59.3841 111.457 58.9557 108.581 59.1547Z" fill="#3E2F5B"/>
<path d="M77.688 26.848C77.976 26.3467 78.4027 25.9307 78.968 25.6C79.544 25.2587 80.2107 25.088 80.968 25.088C81.7467 25.088 82.4507 25.2747 83.08 25.648C83.72 26.0213 84.2213 26.5493 84.584 27.232C84.9467 27.904 85.128 28.688 85.128 29.584C85.128 30.4693 84.9467 31.2587 84.584 31.952C84.2213 32.6453 83.72 33.184 83.08 33.568C82.4507 33.952 81.7467 34.144 80.968 34.144C80.2213 34.144 79.56 33.9787 78.984 33.648C78.4187 33.3067 77.9867 32.8853 77.688 32.384V38.16H76.232V25.232H77.688V26.848ZM83.64 29.584C83.64 28.9227 83.5067 28.3467 83.24 27.856C82.9733 27.3653 82.6107 26.992 82.152 26.736C81.704 26.48 81.208 26.352 80.664 26.352C80.1307 26.352 79.6347 26.4853 79.176 26.752C78.728 27.008 78.3653 27.3867 78.088 27.888C77.8213 28.3787 77.688 28.9493 77.688 29.6C77.688 30.2613 77.8213 30.8427 78.088 31.344C78.3653 31.8347 78.728 32.2133 79.176 32.48C79.6347 32.736 80.1307 32.864 80.664 32.864C81.208 32.864 81.704 32.736 82.152 32.48C82.6107 32.2133 82.9733 31.8347 83.24 31.344C83.5067 30.8427 83.64 30.256 83.64 29.584ZM90.8685 34.144C90.0472 34.144 89.3005 33.9573 88.6285 33.584C87.9672 33.2107 87.4445 32.6827 87.0605 32C86.6872 31.3067 86.5005 30.5067 86.5005 29.6C86.5005 28.704 86.6925 27.9147 87.0765 27.232C87.4712 26.5387 88.0045 26.0107 88.6765 25.648C89.3485 25.2747 90.1005 25.088 90.9325 25.088C91.7645 25.088 92.5165 25.2747 93.1885 25.648C93.8605 26.0107 94.3885 26.5333 94.7725 27.216C95.1672 27.8987 95.3645 28.6933 95.3645 29.6C95.3645 30.5067 95.1618 31.3067 94.7565 32C94.3618 32.6827 93.8232 33.2107 93.1405 33.584C92.4578 33.9573 91.7005 34.144 90.8685 34.144ZM90.8685 32.864C91.3912 32.864 91.8818 32.7413 92.3405 32.496C92.7992 32.2507 93.1672 31.8827 93.4445 31.392C93.7325 30.9013 93.8765 30.304 93.8765 29.6C93.8765 28.896 93.7378 28.2987 93.4605 27.808C93.1832 27.3173 92.8205 26.9547 92.3725 26.72C91.9245 26.4747 91.4392 26.352 90.9165 26.352C90.3832 26.352 89.8925 26.4747 89.4445 26.72C89.0072 26.9547 88.6552 27.3173 88.3885 27.808C88.1218 28.2987 87.9885 28.896 87.9885 29.6C87.9885 30.3147 88.1165 30.9173 88.3725 31.408C88.6392 31.8987 88.9912 32.2667 89.4285 32.512C89.8658 32.7467 90.3458 32.864 90.8685 32.864ZM108.959 25.232L106.223 34H104.719L102.607 27.04L100.495 34H98.9909L96.2389 25.232H97.7269L99.7429 32.592L101.919 25.232H103.407L105.535 32.608L107.519 25.232H108.959ZM118.404 29.28C118.404 29.5573 118.388 29.8507 118.356 30.16H111.348C111.401 31.024 111.695 31.7013 112.228 32.192C112.772 32.672 113.428 32.912 114.196 32.912C114.825 32.912 115.348 32.768 115.764 32.48C116.191 32.1813 116.489 31.7867 116.66 31.296H118.228C117.993 32.1387 117.524 32.8267 116.82 33.36C116.116 33.8827 115.241 34.144 114.196 34.144C113.364 34.144 112.617 33.9573 111.956 33.584C111.305 33.2107 110.793 32.6827 110.42 32C110.047 31.3067 109.86 30.5067 109.86 29.6C109.86 28.6933 110.041 27.8987 110.404 27.216C110.767 26.5333 111.273 26.0107 111.924 25.648C112.585 25.2747 113.343 25.088 114.196 25.088C115.028 25.088 115.764 25.2693 116.404 25.632C117.044 25.9947 117.535 26.496 117.876 27.136C118.228 27.7653 118.404 28.48 118.404 29.28ZM116.9 28.976C116.9 28.4213 116.777 27.9467 116.532 27.552C116.287 27.1467 115.951 26.8427 115.524 26.64C115.108 26.4267 114.644 26.32 114.132 26.32C113.396 26.32 112.767 26.5547 112.244 27.024C111.732 27.4933 111.439 28.144 111.364 28.976H116.9ZM121.782 26.656C122.038 26.1547 122.4 25.7653 122.87 25.488C123.35 25.2107 123.931 25.072 124.614 25.072V26.576H124.23C122.598 26.576 121.782 27.4613 121.782 29.232V34H120.326V25.232H121.782V26.656ZM134.295 29.28C134.295 29.5573 134.279 29.8507 134.247 30.16H127.239C127.292 31.024 127.585 31.7013 128.119 32.192C128.663 32.672 129.319 32.912 130.087 32.912C130.716 32.912 131.239 32.768 131.655 32.48C132.081 32.1813 132.38 31.7867 132.551 31.296H134.119C133.884 32.1387 133.415 32.8267 132.711 33.36C132.007 33.8827 131.132 34.144 130.087 34.144C129.255 34.144 128.508 33.9573 127.847 33.584C127.196 33.2107 126.684 32.6827 126.311 32C125.937 31.3067 125.751 30.5067 125.751 29.6C125.751 28.6933 125.932 27.8987 126.295 27.216C126.657 26.5333 127.164 26.0107 127.815 25.648C128.476 25.2747 129.233 25.088 130.087 25.088C130.919 25.088 131.655 25.2693 132.295 25.632C132.935 25.9947 133.425 26.496 133.767 27.136C134.119 27.7653 134.295 28.48 134.295 29.28ZM132.791 28.976C132.791 28.4213 132.668 27.9467 132.423 27.552C132.177 27.1467 131.841 26.8427 131.415 26.64C130.999 26.4267 130.535 26.32 130.023 26.32C129.287 26.32 128.657 26.5547 128.135 27.024C127.623 27.4933 127.329 28.144 127.255 28.976H132.791ZM135.672 29.584C135.672 28.688 135.854 27.904 136.216 27.232C136.579 26.5493 137.075 26.0213 137.704 25.648C138.344 25.2747 139.059 25.088 139.848 25.088C140.531 25.088 141.166 25.248 141.752 25.568C142.339 25.8773 142.787 26.288 143.096 26.8V22.16H144.568V34H143.096V32.352C142.808 32.8747 142.382 33.3067 141.816 33.648C141.251 33.9787 140.59 34.144 139.832 34.144C139.054 34.144 138.344 33.952 137.704 33.568C137.075 33.184 136.579 32.6453 136.216 31.952C135.854 31.2587 135.672 30.4693 135.672 29.584ZM143.096 29.6C143.096 28.9387 142.963 28.3627 142.696 27.872C142.43 27.3813 142.067 27.008 141.608 26.752C141.16 26.4853 140.664 26.352 140.12 26.352C139.576 26.352 139.08 26.48 138.632 26.736C138.184 26.992 137.827 27.3653 137.56 27.856C137.294 28.3467 137.16 28.9227 137.16 29.584C137.16 30.256 137.294 30.8427 137.56 31.344C137.827 31.8347 138.184 32.2133 138.632 32.48C139.08 32.736 139.576 32.864 140.12 32.864C140.664 32.864 141.16 32.736 141.608 32.48C142.067 32.2133 142.43 31.8347 142.696 31.344C142.963 30.8427 143.096 30.2613 143.096 29.6ZM152.751 26.864C153.049 26.3413 153.487 25.9147 154.062 25.584C154.639 25.2533 155.295 25.088 156.031 25.088C156.82 25.088 157.529 25.2747 158.159 25.648C158.788 26.0213 159.284 26.5493 159.647 27.232C160.009 27.904 160.191 28.688 160.191 29.584C160.191 30.4693 160.009 31.2587 159.647 31.952C159.284 32.6453 158.782 33.184 158.142 33.568C157.513 33.952 156.809 34.144 156.031 34.144C155.273 34.144 154.607 33.9787 154.031 33.648C153.465 33.3173 153.039 32.896 152.751 32.384V34H151.295V22.16H152.751V26.864ZM158.703 29.584C158.703 28.9227 158.569 28.3467 158.303 27.856C158.036 27.3653 157.673 26.992 157.215 26.736C156.767 26.48 156.271 26.352 155.727 26.352C155.193 26.352 154.697 26.4853 154.239 26.752C153.791 27.008 153.428 27.3867 153.151 27.888C152.884 28.3787 152.751 28.9493 152.751 29.6C152.751 30.2613 152.884 30.8427 153.151 31.344C153.428 31.8347 153.791 32.2133 154.239 32.48C154.697 32.736 155.193 32.864 155.727 32.864C156.271 32.864 156.767 32.736 157.215 32.48C157.673 32.2133 158.036 31.8347 158.303 31.344C158.569 30.8427 158.703 30.256 158.703 29.584ZM169.659 25.232L164.379 38.128H162.875L164.603 33.904L161.067 25.232H162.683L165.435 32.336L168.155 25.232H169.659Z" fill="white"/>
</svg>
