<svg
  width="226"
  height="84"
  viewBox="0 0 226 84"
  fill="none"
  xmlns="http://www.w3.org/2000/svg"
>
  <style>
    #progress {
      stroke-dasharray: 100;
      stroke-dashoffset: 200;
      animation: dash 1s linear infinite;
    }
    @keyframes dash {
      100% {
        stroke-dashoffset: 0;
      }
    }
  </style>

  <g id="KD-SVG-Dark 1" clip-path="url(#clip0)">
    <g id="Layer 2">
      <g id="Layer 1">
        <path
          id="Vector"
          d="M114 31.9903C112.458 33.6347 111.144 35.0275 109.814 36.4549C108.137 38.2339 106.474 40.0302 104.746 41.7614C104.232 42.2777 104.236 42.5987 104.629 43.1758C107.144 46.8855 109.624 50.6213 112.229 54.5219C110.203 54.5219 108.289 54.5219 106.375 54.5219C105.977 54.5219 105.757 54.088 105.545 53.7799C103.03 50.0572 100.538 46.3171 98.0101 42.5987C97.7552 42.2213 97.82 42.0434 98.0965 41.731C100.994 38.6851 103.885 35.6335 106.768 32.576C106.929 32.3893 107.128 32.2393 107.351 32.136C107.575 32.0328 107.818 31.9787 108.064 31.9773C109.935 31.999 111.797 31.9903 114 31.9903Z"
          fill="black"
        />
        <path
          id="Vector_2"
          d="M97.4657 42.833C97.4657 46.1277 97.4657 49.4223 97.4657 52.7169C97.4657 54.1401 97.0337 54.5479 95.6252 54.5436C94.45 54.5436 92.8601 54.9775 92.2034 54.37C91.4516 53.6888 91.983 52.0704 91.9787 50.8599C91.9528 45.2671 91.9787 39.6744 91.9787 34.0773C91.9787 32.4372 92.4108 31.9946 94.0785 31.9859C94.8389 31.9859 95.6079 32.038 96.364 31.9859C97.2281 31.9122 97.5262 32.1335 97.5046 33.0793C97.4268 36.3161 97.4657 39.5746 97.4657 42.833Z"
          fill="black"
        />
        <path
          id="Vector_3"
          d="M154.548 42.9545C154.548 40.7851 154.548 38.6591 154.548 36.5113C154.548 34.7411 155.04 34.2421 156.764 34.2508C158.972 34.2508 159.011 33.856 158.994 36.481C158.994 38.4508 158.994 38.4508 160.96 38.4508H161.072C163.586 38.4508 164.001 38.9845 163.543 41.5227C163.539 41.6372 163.512 41.7497 163.462 41.8528C163.412 41.9559 163.341 42.0474 163.254 42.1214C163.167 42.1954 163.066 42.2502 162.956 42.2824C162.847 42.3145 162.732 42.3233 162.619 42.308C161.664 42.308 160.709 42.308 159.758 42.308C159.275 42.308 158.968 42.3601 158.981 42.9762C159.024 45.1456 159.028 47.3454 159.024 49.5279C159.024 50.3956 159.421 50.7948 160.281 50.7514C161.046 50.7167 161.806 50.6777 162.571 50.6907C163.21 50.6907 163.919 50.6907 164.122 51.5281C164.45 52.9035 164.122 54.2616 163.258 54.4611C160.839 55.0122 158.406 55.138 156.259 53.5934C154.963 52.6475 154.582 51.181 154.565 49.6407C154.535 47.4149 154.565 45.1934 154.565 42.9675L154.548 42.9545Z"
          fill="black"
        />
        <path
          id="Vector_4"
          d="M120.36 43.4405C120.36 46.699 120.334 49.9488 120.36 53.2159C120.36 54.1791 120.127 54.5826 119.064 54.574C115.936 54.5436 115.936 54.574 115.936 51.424V34.2768C115.936 32.5413 116.459 32.0337 118.165 32.0293C120.325 32.0293 120.325 32.0293 120.325 34.2291L120.36 43.4405Z"
          fill="black"
        />
        <path
          id="Vector_5"
          d="M141.712 48.1872C141.824 46.6339 141.595 44.7161 141.841 42.8113C142.247 39.6917 144.434 38.5202 146.628 38.2903C147.923 38.2076 149.222 38.2076 150.517 38.2903C151.191 38.2903 151.813 38.5289 152.068 39.2405C152.383 40.0727 152.371 40.9943 152.033 41.8178C151.878 42.1822 151.472 42.1345 151.126 42.1388C150.02 42.1388 148.91 42.1388 147.808 42.1822C146.706 42.2256 146.188 42.7723 146.205 43.9178C146.248 46.9549 146.205 49.9921 146.205 52.999C146.205 54.4568 146.11 54.5566 144.65 54.5436C141.375 54.5175 141.72 55.0078 141.707 51.6409C141.712 50.6082 141.712 49.5756 141.712 48.1872Z"
          fill="black"
        />
        <path
          id="Vector_6"
          d="M200.31 46.4994C200.31 48.7556 200.289 51.0161 200.31 53.2723C200.31 54.1704 200.06 54.6521 199.07 54.574C198.426 54.5067 197.775 54.5067 197.131 54.574C196.068 54.6868 195.834 54.1661 195.834 53.2202C195.86 49.0116 195.834 44.8072 195.834 40.5985C195.834 38.6938 198.137 37.4616 199.805 38.4291C200.293 38.7155 200.284 39.158 200.284 39.6223C200.306 41.9089 200.31 44.2041 200.31 46.4994Z"
          fill="black"
        />
        <path
          id="Vector_7"
          d="M225.585 46.5471C225.585 48.8076 225.585 51.0638 225.585 53.3244C225.585 54.1704 225.339 54.626 224.406 54.5609C223.645 54.5132 222.881 54.5132 222.12 54.5609C221.425 54.5956 221.126 54.2615 221.126 53.6194C221.126 49.1417 221.126 44.6597 221.126 40.169C221.126 39.0452 221.809 38.4335 222.889 38.2816C223.268 38.2447 223.65 38.236 224.03 38.2556C225.369 38.2556 225.564 38.4508 225.568 39.7611C225.59 42.0347 225.585 44.2909 225.585 46.5471Z"
          fill="black"
        />
        <path
          id="Vector_8"
          d="M69.5338 7.09833C70.114 7.09459 70.6891 7.20827 71.2247 7.43258C71.7602 7.65689 72.2453 7.98725 72.6509 8.40393C73.0566 8.82061 73.3745 9.31508 73.5857 9.85784C73.7969 10.4006 73.897 10.9805 73.8802 11.563C73.8677 12.7211 73.3996 13.8272 72.578 14.6401C71.7565 15.4529 70.6482 15.9065 69.4949 15.9018C68.9144 15.909 68.3383 15.7986 67.8012 15.5772C67.2641 15.3558 66.7769 15.0279 66.3688 14.6132C65.9607 14.1985 65.64 13.7054 65.4259 13.1635C65.2118 12.6215 65.1086 12.0418 65.1226 11.4589C65.1079 10.8763 65.2125 10.2969 65.4299 9.75659C65.6473 9.21627 65.9728 8.72654 66.3864 8.31773C66.7999 7.90893 67.2927 7.58976 67.8341 7.38001C68.3755 7.17025 68.954 7.07438 69.5338 7.09833V7.09833Z"
          fill="#2AC2E5"
        />
        <path
          id="Vector_9"
          d="M223.369 36.8281C221.723 36.8281 220.777 35.8866 220.777 34.1814C220.777 32.4762 221.826 31.4045 223.429 31.3785C224.907 31.3481 225.983 32.5109 225.996 34.1467C226.009 35.7824 225.062 37.0624 223.369 36.8281Z"
          fill="#2BC2E4"
        />
        <path
          id="Vector_10"
          d="M200.626 34.1163C200.626 35.9516 199.818 36.8237 198.107 36.8281C196.396 36.8324 195.558 36.0124 195.554 34.2508C195.549 32.4892 196.547 31.3568 198.124 31.3481C199.554 31.3438 200.621 32.5413 200.626 34.1163Z"
          fill="#F9CD10"
        />
        <path
          id="Vector_11"
          d="M75.859 2.39937C75.859 0.980569 76.7015 0.0347016 78.0192 -9.14084e-06C78.654 -0.0152816 79.2692 0.221103 79.7318 0.657978C80.1943 1.09485 80.4669 1.69707 80.4906 2.33429C80.4883 2.6406 80.4257 2.94344 80.3064 3.22535C80.187 3.50725 80.0133 3.76265 79.7952 3.97682C79.5772 4.19099 79.319 4.3597 79.0357 4.47321C78.7524 4.58672 78.4495 4.6428 78.1445 4.63821C77.8425 4.66509 77.5382 4.62609 77.2526 4.52388C76.967 4.42167 76.7067 4.25867 76.4896 4.04604C76.2726 3.83341 76.1038 3.57618 75.995 3.29197C75.8861 3.00775 75.8398 2.70327 75.859 2.39937V2.39937Z"
          fill="#29C3E4"
        />
        <path
          id="Vector_12"
          d="M165.673 33.9645C166.472 31.6735 167.181 29.6256 167.898 27.5994C167.935 27.4309 168.033 27.2822 168.173 27.1813C168.312 27.0805 168.483 27.0347 168.654 27.0527C169.41 27.0787 170.171 27.0527 171.126 27.0527C170.011 29.2698 169.009 31.3915 167.898 33.4308C167.427 34.3029 166.516 33.5653 165.673 33.9645Z"
          fill="black"
        />
        <path
          id="Vector_13"
          d="M73.8327 35.8779C71.9309 30.4902 68.788 25.6301 64.6603 21.6942C58.387 15.6892 50.8348 12.5826 42.2586 11.7669C37.0507 11.2645 31.8096 11.2108 26.5926 11.6064C22.9936 11.8797 19.3557 11.9882 15.8691 13.0512C6.91277 15.7934 0.0259213 25.1653 -1.56944e-06 34.5806C-1.56944e-06 44.8246 -1.56944e-06 55.0686 -1.56944e-06 65.3083C-0.0284221 67.9878 0.422293 70.6506 1.33071 73.1702C3.45638 78.9669 9.64763 83.6963 15.7697 83.8481C20.1982 83.9566 24.6267 83.8698 29.0595 83.8698C33.8253 84.1049 38.6014 84.0208 43.356 83.6182C47.1964 83.3178 50.9567 82.3565 54.4726 80.7762C60.5947 78.0124 65.3732 73.6475 69.3264 68.2717C73.7398 62.3382 76.0403 55.0877 75.859 47.6839C75.8405 43.6629 75.1557 39.673 73.8327 35.8779ZM40.2453 67.2521C37.6227 69.8814 33.0862 69.825 30.347 67.1176C25.8754 62.7006 21.4339 58.2533 16.9536 53.858C15.7611 52.6909 14.6421 51.5151 14.2403 49.8403C13.6009 47.1892 14.1625 44.7942 16.0506 42.8374C20.8089 37.92 25.6003 33.0244 30.4248 28.1504C31.0334 27.5097 31.7741 27.0103 32.595 26.6873C33.416 26.3643 34.2973 26.2254 35.1773 26.2804C38.1153 26.2804 40.6514 27.9031 41.6581 30.4804C42.7727 33.3527 42.3407 36.0124 40.2366 38.2382C38.1326 40.464 35.9853 42.5771 33.8466 44.7465C32.732 45.8746 32.1573 47.1719 32.5505 48.7859C32.8097 49.7926 33.514 50.4868 34.2225 51.181C36.2531 53.1812 38.2967 55.1684 40.2971 57.199C40.965 57.8546 41.4947 58.6385 41.8547 59.5039C42.2148 60.3693 42.3978 61.2986 42.393 62.2365C42.3882 63.1745 42.1955 64.1018 41.8266 64.9634C41.4576 65.8251 40.9198 66.6034 40.2453 67.2521Z"
          fill="#2AC2E5"
        />
        <path
          id="Vector_14"
          d="M192.413 38.8196C191.22 34.1033 188.347 31.9859 183.491 31.9859C180.592 31.9859 177.688 32.0163 174.785 31.9859C173.921 31.9859 173.683 32.1812 173.696 33.0576C173.748 36.4332 173.718 39.8045 173.718 43.1801C173.718 46.6512 173.739 50.0832 173.718 53.5326C173.718 54.3006 173.891 54.6043 174.725 54.5913C177.749 54.5436 180.773 54.6694 183.772 54.5436C187.794 54.3787 190.788 52.7733 192.089 48.8033C193.156 45.5769 193.268 42.109 192.413 38.8196ZM187.077 46.9593C186.824 47.9066 186.26 48.7402 185.475 49.3241C184.691 49.908 183.732 50.2077 182.756 50.1744C181.801 50.1744 180.847 50.131 179.896 50.1744C179.218 50.2221 179.08 49.9617 179.093 49.337C179.127 47.3107 179.093 45.2845 179.093 43.2626C179.093 41.2407 179.118 39.2058 179.093 37.1882C179.093 36.5547 179.239 36.3204 179.905 36.3508C180.968 36.4072 182.039 36.3508 183.102 36.3768C185.171 36.4419 186.558 37.4789 187.098 39.4834C187.774 41.9302 187.766 44.5165 187.077 46.9593Z"
          fill="black"
        />
        <path
          id="Vector_15"
          d="M217.804 47.9138C217.804 45.2498 217.804 43.063 217.804 40.8806C217.804 39.5051 217.428 38.9194 216.119 38.7111C213.185 38.2773 210.23 37.8781 207.288 38.6374C205.244 39.1667 203.775 40.3122 203.097 42.4252C202.523 44.1743 202.331 46.0272 202.535 47.8574C202.967 51.6713 204.38 53.1812 208.066 54.1271C209.569 54.5132 211.09 54.3483 212.606 54.3613C213.376 54.3613 213.522 54.587 213.293 55.3116C212.961 56.3833 212.097 56.5134 211.224 56.5655C209.131 56.6668 207.033 56.5986 204.951 56.3616C204.583 56.3225 204.143 56.214 203.901 56.6045C203.421 57.3768 203.529 58.2316 203.732 59.0473C203.812 59.3911 204 59.6998 204.269 59.9274C204.537 60.1549 204.872 60.2891 205.223 60.3099C207.44 60.6939 209.7 60.7669 211.937 60.5268C214.775 60.1797 216.927 59.3684 217.597 55.4764C218.046 52.795 217.661 50.1049 217.804 47.9138ZM213.432 46.3301C213.432 47.4018 213.432 48.4692 213.432 49.5409C213.432 49.875 213.514 50.3262 213 50.3306C211.526 50.3306 210.04 50.6082 208.593 50.1093C208.232 49.9907 207.91 49.7738 207.665 49.4827C207.419 49.1916 207.259 48.8377 207.202 48.4605C206.911 46.9966 206.927 45.4878 207.249 44.0306C207.321 43.5723 207.552 43.1541 207.9 42.8494C208.248 42.5448 208.693 42.373 209.154 42.3644C210.364 42.269 211.587 42.3211 212.801 42.295C213.306 42.295 213.432 42.538 213.423 43.0066C213.406 44.113 213.432 45.2237 213.432 46.3301Z"
          fill="black"
        />
        <path
          id="Vector_16"
          d="M138.722 48.2176C138.722 46.8378 138.752 45.4537 138.722 44.074C138.64 40.9674 137.184 39.1277 134.185 38.4986C131.969 38.03 129.697 38.1384 127.467 38.364C125.341 38.5766 124.845 39.4661 125.091 41.5661C125.195 42.4339 125.683 42.7246 126.417 42.5554C127.886 42.2213 129.368 42.3167 130.85 42.295C131.571 42.273 132.292 42.2918 133.01 42.3514C133.301 42.3515 133.581 42.4614 133.794 42.6591C134.008 42.8568 134.14 43.128 134.164 43.4188C134.164 44.0479 133.494 43.8787 133.105 44.0219C132.848 44.0898 132.587 44.1419 132.323 44.1781C130.595 44.5773 128.802 44.6771 127.139 45.3409C125.592 45.9614 124.305 46.8552 124.006 48.6514C123.527 51.5151 124.871 53.6151 127.653 54.3136C130.859 55.1207 134.086 54.7952 137.292 54.2789C138.26 54.1271 138.735 53.3764 138.722 52.3568C138.713 50.9771 138.722 49.5973 138.722 48.2176ZM134.289 48.2696C134.16 51.1419 134.95 50.6256 131.533 50.8729C130.848 50.8308 130.167 50.7453 129.493 50.6169C128.953 50.4955 128.37 50.2221 128.422 49.4845C128.465 48.825 128.962 48.6167 129.519 48.53C130.893 48.2696 132.272 48.031 133.637 47.7229C134.185 47.5928 134.311 47.7663 134.289 48.2696Z"
          fill="black"
        />
      </g>
    </g>
    <line
      id="progress"
      x1="93.5"
      y1="67.5"
      x2="223.5"
      y2="67.5"
      stroke="#2AC2E5"
      stroke-width="3"
      stroke-linecap="round"
    />
  </g>
  <defs>
    <clipPath id="clip0">
      <rect width="226" height="84" fill="white" />
    </clipPath>
  </defs>
</svg>
