<svg width="64" height="24" viewBox="0 0 64 24" fill="none" xmlns="http://www.w3.org/2000/svg">
<g clip-path="url(#clip0)">
<path d="M32.2832 9.1401C31.8464 9.60994 31.4745 10.0079 31.0976 10.4157C30.6229 10.924 30.1519 11.4372 29.6625 11.9318C29.5169 12.0794 29.5181 12.1711 29.6294 12.336C30.3415 13.3959 31.0438 14.4632 31.7816 15.5777C31.2078 15.5777 30.6657 15.5777 30.1237 15.5777C30.0112 15.5777 29.9488 15.4537 29.8888 15.3657C29.1768 14.3021 28.4708 13.2335 27.755 12.1711C27.6829 12.0632 27.7012 12.0124 27.7795 11.9232C28.6001 11.0529 29.4186 10.181 30.2351 9.30746C30.2807 9.25411 30.3371 9.21125 30.4004 9.18175C30.4637 9.15225 30.5325 9.13678 30.6021 9.13638C31.1319 9.14258 31.6592 9.1401 32.2832 9.1401Z" fill="white"/>
<path d="M27.6009 12.238C27.6009 13.1793 27.6009 14.1207 27.6009 15.062C27.6009 15.4686 27.4786 15.5851 27.0797 15.5839C26.7469 15.5839 26.2967 15.7078 26.1107 15.5343C25.8978 15.3397 26.0483 14.8773 26.0471 14.5314C26.0397 12.9335 26.0471 11.3355 26.0471 9.73636C26.0471 9.26777 26.1694 9.14132 26.6417 9.13884C26.857 9.13884 27.0748 9.15372 27.2889 9.13884C27.5336 9.11777 27.618 9.18099 27.6119 9.45124C27.5899 10.376 27.6009 11.307 27.6009 12.238Z" fill="white"/>
<path d="M43.7657 12.2727C43.7657 11.6529 43.7657 11.0455 43.7657 10.4318C43.7657 9.92605 43.9052 9.78349 44.3934 9.78597C45.0186 9.78597 45.0296 9.67316 45.0247 10.4232C45.0247 10.986 45.0247 10.986 45.5814 10.986H45.6132C46.3253 10.986 46.4428 11.1384 46.3131 11.8637C46.312 11.8964 46.3041 11.9285 46.2901 11.958C46.276 11.9874 46.256 12.0136 46.2313 12.0347C46.2066 12.0558 46.1779 12.0715 46.1468 12.0807C46.1158 12.0899 46.0833 12.0924 46.0512 12.088C45.7808 12.088 45.5105 12.088 45.2413 12.088C45.1043 12.088 45.0174 12.1029 45.0211 12.2789C45.0333 12.8988 45.0345 13.5273 45.0333 14.1508C45.0333 14.3988 45.1459 14.5128 45.3893 14.5004C45.6059 14.4905 45.8212 14.4794 46.0378 14.4831C46.2189 14.4831 46.4195 14.4831 46.477 14.7223C46.57 15.1153 46.477 15.5033 46.2323 15.5603C45.5472 15.7178 44.8583 15.7537 44.2503 15.3124C43.8832 15.0422 43.7755 14.6232 43.7706 14.1831C43.7621 13.5471 43.7706 12.9124 43.7706 12.2765L43.7657 12.2727Z" fill="white"/>
<path d="M34.0842 12.4116C34.0842 13.3426 34.0768 14.2711 34.0842 15.2046C34.0842 15.4798 34.0181 15.595 33.7171 15.5926C32.8313 15.5839 32.8313 15.5926 32.8313 14.6926V9.79339C32.8313 9.29753 32.9793 9.15248 33.4626 9.15125C34.0744 9.15125 34.0744 9.15125 34.0744 9.77976L34.0842 12.4116Z" fill="white"/>
<path d="M40.1308 13.7678C40.1626 13.324 40.0977 12.776 40.1675 12.2318C40.2825 11.3405 40.9016 11.0058 41.5231 10.9401C41.8898 10.9165 42.2576 10.9165 42.6242 10.9401C42.8151 10.9401 42.9913 11.0083 43.0635 11.2116C43.1527 11.4493 43.1493 11.7127 43.0537 11.9479C43.0097 12.0521 42.8946 12.0384 42.7968 12.0397C42.4835 12.0397 42.1691 12.0397 41.8571 12.0521C41.5451 12.0645 41.3983 12.2207 41.4032 12.5479C41.4154 13.4157 41.4032 14.2835 41.4032 15.1426C41.4032 15.5591 41.3763 15.5876 40.9627 15.5839C40.0353 15.5764 40.1332 15.7165 40.1295 14.7545C40.1308 14.4595 40.1308 14.1645 40.1308 13.7678Z" fill="white"/>
<path d="M56.725 13.2855C56.725 13.9302 56.7189 14.576 56.725 15.2206C56.725 15.4773 56.654 15.6149 56.3739 15.5925C56.1912 15.5733 56.0071 15.5733 55.8245 15.5925C55.5235 15.6248 55.4575 15.476 55.4575 15.2058C55.4648 14.0033 55.4575 12.8021 55.4575 11.5996C55.4575 11.0554 56.1096 10.7033 56.5819 10.9797C56.7201 11.0616 56.7177 11.188 56.7177 11.3206C56.7238 11.974 56.725 12.6297 56.725 13.2855Z" fill="white"/>
<path d="M63.8825 13.2992C63.8825 13.945 63.8825 14.5897 63.8825 15.2355C63.8825 15.4773 63.8128 15.6074 63.5485 15.5888C63.333 15.5752 63.1168 15.5752 62.9013 15.5888C62.7043 15.5987 62.6199 15.5033 62.6199 15.3198C62.6199 14.0405 62.6199 12.7599 62.6199 11.4768C62.6199 11.1558 62.8132 10.981 63.1191 10.9376C63.2264 10.927 63.3344 10.9246 63.4421 10.9301C63.8214 10.9301 63.8764 10.9859 63.8776 11.3603C63.8838 12.0099 63.8825 12.6545 63.8825 13.2992Z" fill="white"/>
<path d="M63.2549 10.5223C62.7887 10.5223 62.5208 10.2533 62.5208 9.76611C62.5208 9.27892 62.8181 8.97272 63.272 8.96528C63.6904 8.95661 63.9951 9.28884 63.9987 9.75619C64.0024 10.2235 63.7345 10.5892 63.2549 10.5223Z" fill="#2BC2E4"/>
<path d="M56.8144 9.74751C56.8144 10.2719 56.5856 10.5211 56.1011 10.5223C55.6166 10.5235 55.3792 10.2893 55.378 9.78595C55.3768 9.28264 55.6594 8.95909 56.106 8.95661C56.511 8.95537 56.8132 9.29752 56.8144 9.74751Z" fill="#F9CD10"/>
<path d="M42.3575 19.8211C42.3575 19.9723 42.3575 20.1235 42.3575 20.2748C42.3575 20.4062 42.3844 20.5227 42.1727 20.5227C41.9611 20.5227 41.9439 20.4397 41.95 20.2748C41.9611 19.9785 41.95 19.6822 41.9574 19.3872C41.9574 19.293 41.884 19.1393 42.0443 19.1157C42.2045 19.0921 42.3673 19.0277 42.4823 19.2161C42.5973 19.4045 42.7404 19.6116 42.9203 19.8855C42.9203 19.6587 42.9203 19.5136 42.9203 19.3661C42.9203 19.2186 42.9007 19.0921 43.1246 19.0959C43.3485 19.0996 43.3118 19.2198 43.3106 19.35C43.3106 19.6562 43.3106 19.9636 43.3106 20.2698C43.3106 20.3516 43.384 20.4979 43.2396 20.5116C43.0952 20.5252 42.9362 20.5934 42.8285 20.4223C42.6952 20.214 42.5581 20.0083 42.4223 19.8025L42.3575 19.8211Z" fill="white"/>
<path d="M40.778 19.8111V20.2388C40.778 20.3864 40.8195 20.5277 40.5663 20.5289C40.313 20.5302 40.2996 20.4186 40.3216 20.2364C40.3509 20.0194 40.2873 19.9388 40.0487 19.9339C39.7832 19.9339 39.7686 20.0578 39.7906 20.2525C39.8126 20.4471 39.7832 20.5289 39.5581 20.5264C39.333 20.524 39.3501 20.4099 39.3526 20.2599C39.3526 19.9426 39.3611 19.624 39.3526 19.3066C39.3526 19.1504 39.3978 19.0921 39.5545 19.0983C39.7111 19.1045 39.8151 19.1045 39.7918 19.3041C39.7686 19.5037 39.771 19.6599 40.0622 19.6413C40.2751 19.6277 40.3558 19.5719 40.3216 19.3611C40.291 19.1715 40.3473 19.0909 40.5663 19.0934C40.7853 19.0959 40.7926 19.1876 40.7816 19.3512C40.7706 19.5149 40.778 19.6587 40.778 19.8111Z" fill="white"/>
<path d="M46.9163 9.70412C47.1426 9.04958 47.3433 8.46445 47.5464 7.88553C47.5569 7.83741 47.5846 7.79489 47.624 7.76609C47.6635 7.73729 47.7121 7.7242 47.7605 7.72933C47.9746 7.73677 48.1899 7.72933 48.4603 7.72933C48.1447 8.3628 47.8608 8.969 47.5464 9.55164C47.413 9.80082 47.1548 9.59007 46.9163 9.70412Z" fill="white"/>
<path d="M44.9207 20.1484C45.0271 20.5314 44.747 20.5128 44.5292 20.5488C43.9823 20.638 43.543 20.2649 43.5932 19.7529C43.6201 19.4876 43.7266 19.257 43.9872 19.1616C44.1235 19.1083 44.2692 19.0838 44.4153 19.0898C44.5613 19.0958 44.7046 19.132 44.8363 19.1963C44.9647 19.257 44.8705 19.3203 44.8522 19.3748C44.8155 19.4839 44.7739 19.567 44.6222 19.4752C44.5476 19.4284 44.4591 19.4102 44.3724 19.4239C44.2858 19.4375 44.2069 19.4821 44.1499 19.5496C44.0947 19.6165 44.0601 19.6983 44.0506 19.785C44.041 19.8716 44.0568 19.9592 44.0961 20.0368C44.12 20.0925 44.1607 20.1392 44.2123 20.1701C44.2639 20.201 44.3239 20.2147 44.3836 20.2091C44.5488 20.2091 44.4888 20.074 44.4925 19.9909C44.501 19.7641 44.6687 19.8422 44.7788 19.8409C45.032 19.8347 44.8803 20.0504 44.9207 20.1484Z" fill="white"/>
<path d="M52.2544 19.0984C52.3436 19.1083 52.432 19.1253 52.5186 19.1492C52.5896 19.1715 52.7168 19.1988 52.641 19.3203C52.5896 19.4008 52.6055 19.5855 52.4097 19.5087C52.2874 19.4616 52.1051 19.3525 52.0427 19.5087C51.9986 19.6327 52.2128 19.6649 52.3217 19.7194C52.5064 19.8124 52.6716 19.9327 52.6398 20.1583C52.608 20.3839 52.4526 20.4769 52.2421 20.5302C52.0409 20.5673 51.8333 20.5422 51.6463 20.4583C51.5239 20.4161 51.464 20.3641 51.5411 20.2265C51.601 20.1211 51.6279 19.9785 51.7858 20.1161C51.8228 20.1399 51.8646 20.1551 51.9081 20.1608C51.9999 20.1818 52.1186 20.2327 52.1602 20.1124C52.2018 19.9922 52.0672 19.9884 52.0023 19.9426C51.9924 19.9381 51.9822 19.9344 51.9717 19.9314C51.7393 19.8335 51.4701 19.7355 51.5582 19.412C51.6426 19.1269 51.9106 19.0909 52.2544 19.0984Z" fill="white"/>
<path d="M31.1062 19.7963C31.1062 19.0996 31.1062 19.0996 31.7914 19.1021C31.855 19.1021 31.9198 19.1021 31.9847 19.1021C32.107 19.1021 32.1156 19.1839 32.1193 19.2781C32.1229 19.3723 32.0752 19.4157 31.9834 19.4132C31.8917 19.4108 31.8097 19.4132 31.7241 19.4132C31.6384 19.4132 31.5454 19.4033 31.5405 19.5372C31.5356 19.6711 31.6348 19.6537 31.7179 19.6612C31.7608 19.6612 31.8048 19.6612 31.8476 19.6612C31.9431 19.6612 32.0116 19.6698 32.0104 19.7988C32.0091 19.9277 31.9455 19.9314 31.8501 19.9451C31.7339 19.9612 31.5161 19.8484 31.5491 20.0988C31.5736 20.2897 31.762 20.1558 31.8709 20.1917C31.9133 20.2004 31.957 20.2004 31.9994 20.1917C32.1217 20.1806 32.1462 20.2413 32.1425 20.3479C32.1388 20.4546 32.1425 20.5227 32.0202 20.5203C31.7608 20.5141 31.5026 20.5141 31.2432 20.5203C31.1209 20.5203 31.1086 20.4508 31.1111 20.3541C31.1086 20.1682 31.1062 19.9822 31.1062 19.7963Z" fill="white"/>
<path d="M53.5366 19.0909C53.6346 19.1046 53.7318 19.1236 53.8278 19.1479C53.9098 19.1727 53.9979 19.2211 53.933 19.3351C53.8853 19.4182 53.8804 19.5694 53.7165 19.5062C53.6887 19.4902 53.6591 19.4777 53.6284 19.469C53.5268 19.4603 53.3837 19.3748 53.3372 19.4938C53.2907 19.6128 53.4595 19.6488 53.5439 19.6884C53.7886 19.8 54.0138 19.9215 53.911 20.2401C53.8082 20.5587 53.5329 20.5612 53.2699 20.5463C53.1533 20.5299 53.0394 20.4982 52.931 20.4521C52.7964 20.4074 52.778 20.3281 52.8551 20.2041C52.9114 20.1149 52.9322 19.9822 53.0753 20.1099C53.1027 20.127 53.133 20.1387 53.1646 20.1446C53.2674 20.1793 53.4093 20.2376 53.4583 20.1298C53.5256 19.9872 53.3543 19.9723 53.2711 19.9326C53.0545 19.8285 52.7964 19.7442 52.8624 19.4368C52.9285 19.1293 53.2124 19.1033 53.5366 19.0909Z" fill="white"/>
<path d="M47.0802 20.5785C46.9823 20.5513 46.8575 20.519 46.7352 20.4818C46.6128 20.4446 46.5149 20.3951 46.6055 20.2339C46.6703 20.1099 46.7193 20.0318 46.8624 20.1372C46.9178 20.1713 46.9802 20.1921 47.0447 20.198C47.1059 20.2054 47.1867 20.224 47.2172 20.1484C47.2601 20.0467 47.1683 20.0244 47.1035 19.9885C47.0166 19.9451 46.9248 19.9116 46.8404 19.8645C46.6899 19.7802 46.581 19.6674 46.6092 19.4727C46.6217 19.3911 46.6593 19.3155 46.7166 19.2568C46.7739 19.198 46.8481 19.1591 46.9285 19.1455C47.1279 19.0837 47.3409 19.0837 47.5402 19.1455C47.6222 19.1703 47.7849 19.1727 47.6932 19.3488C47.6406 19.448 47.6198 19.5967 47.4485 19.5037C47.4187 19.4831 47.3849 19.4691 47.3494 19.4628C47.2601 19.4554 47.1389 19.3761 47.0973 19.5037C47.0619 19.6091 47.194 19.6277 47.2613 19.6674C47.2788 19.6802 47.2977 19.691 47.3176 19.6996C47.5439 19.7851 47.7495 19.9116 47.692 20.1893C47.6308 20.4942 47.3641 20.5351 47.0802 20.5785Z" fill="white"/>
<path d="M57.6451 19.8198C57.6451 19.0897 57.6451 19.0872 58.3792 19.1045C58.4942 19.1045 58.6557 19.0426 58.6508 19.2694C58.6459 19.4963 58.4709 19.3934 58.3669 19.4132C58.3028 19.4203 58.2381 19.4223 58.1736 19.4194C58.0892 19.4269 58.0733 19.4901 58.0745 19.5607C58.0758 19.6314 58.1186 19.655 58.1798 19.6562C58.2666 19.6562 58.3523 19.6562 58.4391 19.6562C58.526 19.6562 58.5615 19.7033 58.5615 19.7963C58.5615 19.8893 58.5382 19.9413 58.4391 19.9376C58.34 19.9339 58.2666 19.9376 58.1798 19.9376C58.0929 19.9376 58.077 19.9983 58.0721 20.0702C58.0672 20.1421 58.1125 20.1855 58.1883 20.1855C58.3107 20.1855 58.4257 20.1855 58.5444 20.1855C58.663 20.1855 58.6863 20.2438 58.6863 20.3467C58.6863 20.4496 58.6753 20.5153 58.5517 20.514C58.2923 20.514 58.0329 20.5078 57.7736 20.514C57.6402 20.514 57.6512 20.431 57.6512 20.3405C57.6463 20.1707 57.6451 19.9946 57.6451 19.8198Z" fill="white"/>
<path d="M34.4097 20.5178C33.8775 20.5178 33.8775 20.5178 33.8775 19.9711C33.8775 19.9153 33.8775 19.8607 33.8775 19.8062C33.8971 19.5806 33.7735 19.257 33.9301 19.1517C34.1491 19.0054 34.4733 19.1157 34.7523 19.1045C34.882 19.0983 34.8746 19.1913 34.8746 19.2818C34.8746 19.3723 34.8391 19.4194 34.7425 19.4157C34.6458 19.412 34.5271 19.4157 34.4195 19.4157C34.3461 19.4157 34.2971 19.443 34.2971 19.5273C34.2898 19.6326 34.3448 19.6612 34.4342 19.6587C34.4662 19.6537 34.4988 19.6537 34.5308 19.6587C34.625 19.6872 34.789 19.5719 34.7975 19.7826C34.8073 20.0207 34.6263 19.914 34.5198 19.9326C34.4134 19.9512 34.2849 19.9016 34.2984 20.0826C34.3094 20.245 34.4378 20.1744 34.5198 20.1855C34.6057 20.193 34.6921 20.193 34.778 20.1855C34.9003 20.1855 34.9101 20.2587 34.9138 20.3554C34.9174 20.4521 34.8832 20.5178 34.767 20.5116C34.6507 20.5054 34.5284 20.5165 34.4097 20.5178Z" fill="white"/>
<path d="M32.2697 19.138C32.9169 18.9223 32.7591 19.5397 32.9965 19.795C33.0576 19.6116 33.1188 19.4442 33.1714 19.2731C33.1947 19.2 33.202 19.1132 33.2938 19.1095C33.3855 19.1058 33.5311 19.0797 33.607 19.1306C33.7159 19.2012 33.5899 19.3041 33.5617 19.3859C33.4553 19.7033 33.328 20.0145 33.2143 20.3293C33.1702 20.4533 33.1188 20.5289 32.9696 20.5227C32.9124 20.5276 32.8556 20.5105 32.8103 20.4749C32.7649 20.4394 32.7345 20.3878 32.7249 20.3306C32.5866 19.9351 32.4227 19.5471 32.2697 19.138Z" fill="white"/>
<path d="M37.8061 19.1504C37.7199 19.3149 37.6226 19.4731 37.5149 19.624C37.3338 19.8459 37.3228 20.0988 37.3412 20.3616C37.3509 20.4992 37.2849 20.5413 37.1711 20.5153C37.0573 20.4893 36.8726 20.5996 36.8982 20.4075C36.9655 19.9116 36.7013 19.5397 36.4737 19.1455C36.8407 19.0116 37.0206 19.1579 37.1148 19.5397C37.2836 19.2707 37.3974 18.9459 37.8061 19.1504Z" fill="white"/>
<path d="M38.5402 19.0996C38.6809 19.0996 38.8216 19.0996 38.9623 19.0996C39.0699 19.0996 39.147 19.1145 39.1507 19.257C39.1544 19.3996 39.0858 19.4331 38.9721 19.417C38.7433 19.3823 38.7274 19.5199 38.7384 19.6934C38.7469 19.8905 38.7298 20.0889 38.7384 20.2847C38.7469 20.4806 38.6882 20.5227 38.5047 20.5327C38.3211 20.5426 38.2967 20.4484 38.3028 20.2984C38.3114 20.1236 38.3028 19.9475 38.3028 19.7727C38.3126 19.5645 38.3273 19.3649 38.0177 19.4207C37.9064 19.4405 37.9052 19.3537 37.9039 19.2719C37.9039 19.1703 37.926 19.1021 38.0459 19.1058C38.2123 19.1033 38.375 19.1008 38.5402 19.0996Z" fill="white"/>
<path d="M27.6963 19.9921C27.2008 19.9921 26.7053 19.9921 26.2098 19.9921C26.1204 19.9921 25.9785 20.0566 25.9822 19.8607C25.9822 19.6946 26.1045 19.7368 26.1877 19.7368C27.2008 19.7368 28.2138 19.7368 29.2269 19.7368C29.3211 19.7368 29.4251 19.7132 29.4214 19.8731C29.4178 20.033 29.2991 19.9971 29.2159 19.9971C28.7094 19.9934 28.2028 19.9921 27.6963 19.9921Z" fill="white"/>
<path d="M62.1329 19.9922C61.6362 19.9922 61.1394 19.9922 60.6427 19.9922C60.5632 19.9922 60.4371 20.0529 60.4298 19.8831C60.4225 19.7132 60.5522 19.7368 60.6476 19.7368C61.6411 19.7368 62.6341 19.7368 63.6268 19.7368C63.732 19.7368 63.8544 19.7095 63.8409 19.888C63.8275 20.0665 63.7014 19.9922 63.6219 19.9922C63.1252 19.9946 62.6284 19.9922 62.1329 19.9922Z" fill="white"/>
<path d="M56.4204 19.8062C56.4204 19.6537 56.429 19.5012 56.4204 19.3488C56.4119 19.1963 56.4314 19.0872 56.6382 19.0946C56.8229 19.0946 56.8829 19.1591 56.8694 19.3426C56.856 19.4839 56.8694 19.6264 56.8694 19.7678C56.856 20.0281 56.8327 20.2847 57.2291 20.1942C57.3515 20.1657 57.3931 20.2426 57.3919 20.3653C57.3906 20.488 57.3527 20.5264 57.2426 20.519C57.2104 20.5171 57.1781 20.5171 57.1459 20.519C56.4204 20.5351 56.4204 20.5351 56.4204 19.8062Z" fill="white"/>
<path d="M41.5585 19.8546C41.5585 19.9847 41.5585 20.1161 41.5585 20.2463C41.5585 20.4025 41.5818 20.5314 41.3395 20.5277C41.0973 20.524 41.1107 20.4124 41.1144 20.2463C41.1205 19.9302 41.1254 19.6128 41.1144 19.2979C41.1058 19.0959 41.2208 19.1046 41.3591 19.0971C41.4974 19.0897 41.572 19.1393 41.5622 19.2992C41.55 19.4827 41.5585 19.6686 41.5585 19.8546Z" fill="white"/>
<path d="M45.8592 19.7987C45.8592 19.6463 45.8689 19.4925 45.8592 19.3401C45.8432 19.1566 45.9044 19.0921 46.0928 19.0921C46.2813 19.0921 46.2984 19.1826 46.2947 19.3401C46.2874 19.6673 46.2849 19.9958 46.2947 20.3231C46.2947 20.4793 46.2543 20.5363 46.0965 20.5277C45.957 20.5202 45.8384 20.5277 45.8518 20.3281C45.8702 20.1496 45.8579 19.9735 45.8592 19.7987Z" fill="white"/>
<path d="M54.2169 19.8186C54.2169 19.6661 54.2169 19.5124 54.2169 19.3587C54.2169 19.2049 54.2169 19.0884 54.4298 19.0921C54.6231 19.0921 54.6647 19.1715 54.6586 19.3475C54.6476 19.676 54.6463 20.0058 54.6586 20.3392C54.6659 20.5202 54.5741 20.5301 54.4396 20.5264C54.305 20.5227 54.1949 20.5438 54.2157 20.3504C54.2279 20.1706 54.2169 19.9946 54.2169 19.8186Z" fill="white"/>
<path d="M19.691 2.0281C19.8553 2.02703 20.0181 2.05951 20.1698 2.1236C20.3215 2.18769 20.4588 2.28207 20.5737 2.40112C20.6886 2.52018 20.7786 2.66145 20.8384 2.81653C20.8982 2.9716 20.9266 3.13729 20.9218 3.30372C20.9183 3.63461 20.7857 3.95064 20.5531 4.18288C20.3204 4.41512 20.0066 4.54472 19.68 4.54339C19.5156 4.54543 19.3524 4.51389 19.2003 4.45063C19.0482 4.38737 18.9103 4.2937 18.7947 4.17521C18.6791 4.05672 18.5883 3.91584 18.5277 3.761C18.467 3.60615 18.4378 3.44051 18.4418 3.27396C18.4376 3.10752 18.4673 2.94198 18.5288 2.7876C18.5904 2.63322 18.6826 2.4933 18.7997 2.3765C18.9168 2.2597 19.0563 2.16851 19.2096 2.10858C19.363 2.04865 19.5268 2.02125 19.691 2.0281Z" fill="#2AC2E5"/>
<path d="M21.4822 0.685553C21.4822 0.280181 21.7207 0.00993327 22.0939 1.59169e-05C22.2737 -0.00434766 22.4479 0.0631907 22.5789 0.188012C22.7099 0.312834 22.787 0.484897 22.7938 0.666958C22.7931 0.754476 22.7754 0.841002 22.7416 0.921547C22.7078 1.00209 22.6586 1.07506 22.5968 1.13625C22.5351 1.19744 22.462 1.24565 22.3818 1.27808C22.3015 1.31051 22.2158 1.32653 22.1294 1.32522C22.0439 1.3329 21.9577 1.32176 21.8768 1.29256C21.7959 1.26335 21.7222 1.21678 21.6607 1.15603C21.5993 1.09528 21.5515 1.02179 21.5207 0.940581C21.4898 0.859377 21.4767 0.772381 21.4822 0.685553Z" fill="#29C3E4"/>
<rect x="3" y="7" width="11" height="13" fill="white"/>
<path d="M20.9084 10.2508C20.3698 8.71147 19.4798 7.3229 18.3109 6.19834C16.5344 4.48264 14.3957 3.59504 11.967 3.36198C10.4922 3.21842 9.00801 3.20308 7.53063 3.31611C6.51145 3.39421 5.48127 3.4252 4.4939 3.72892C1.95759 4.51239 0.00733299 7.19008 -8.00635e-06 9.88016C-8.00635e-06 12.807 -8.00635e-06 15.7339 -8.00635e-06 18.6595C-0.0080563 19.4251 0.11958 20.1859 0.37683 20.9058C0.978791 22.562 2.73206 23.9132 4.46576 23.9566C5.71985 23.9876 6.97394 23.9628 8.22925 23.9628C9.57884 24.03 10.9314 24.006 12.2778 23.8909C13.3653 23.8051 14.4302 23.5304 15.4259 23.0789C17.1596 22.2893 18.5128 21.0421 19.6323 19.5062C20.882 17.8109 21.5335 15.7394 21.4822 13.624C21.477 12.4751 21.283 11.3352 20.9084 10.2508ZM11.3969 19.2149C10.6542 19.9661 9.36954 19.95 8.59385 19.1764C7.32753 17.9145 6.06977 16.6438 4.801 15.388C4.46332 15.0545 4.14643 14.7186 4.03264 14.2401C3.85157 13.4826 4.01062 12.7983 4.54529 12.2393C5.89277 10.8343 7.24963 9.43553 8.61587 8.04297C8.78821 7.8599 8.99796 7.71723 9.23045 7.62493C9.46293 7.53264 9.71251 7.49296 9.96172 7.50867C10.7937 7.50867 11.5119 7.97231 11.797 8.70867C12.1126 9.52933 11.9903 10.2893 11.3944 10.9252C10.7986 11.5612 10.1905 12.1649 9.58488 12.7847C9.26922 13.107 9.10649 13.4777 9.21783 13.9388C9.29124 14.2264 9.49067 14.4248 9.69133 14.6231C10.2664 15.1946 10.8451 15.7624 11.4116 16.3426C11.6007 16.5299 11.7507 16.7538 11.8527 17.0011C11.9546 17.2484 12.0065 17.5139 12.0051 17.7819C12.0037 18.0498 11.9492 18.3148 11.8447 18.561C11.7402 18.8072 11.5879 19.0295 11.3969 19.2149Z" fill="#2AC2E5"/>
<path d="M54.4885 11.0913C54.1508 9.74381 53.3372 9.13885 51.962 9.13885C51.141 9.13885 50.3188 9.14753 49.4966 9.13885C49.2519 9.13885 49.1846 9.19464 49.1883 9.44505C49.203 10.4095 49.1944 11.3727 49.1944 12.3372C49.1944 13.3289 49.2005 14.3095 49.1944 15.2951C49.1944 15.5145 49.2434 15.6013 49.4795 15.5975C50.336 15.5839 51.1924 15.6198 52.0415 15.5839C53.1806 15.5368 54.0285 15.0781 54.3968 13.9438C54.6989 13.022 54.7308 12.0312 54.4885 11.0913ZM52.9775 13.417C52.906 13.6876 52.7462 13.9258 52.524 14.0926C52.3018 14.2594 52.0304 14.3451 51.754 14.3356C51.4836 14.3356 51.2132 14.3232 50.944 14.3356C50.7519 14.3492 50.7128 14.2748 50.7165 14.0963C50.7263 13.5174 50.7165 12.9384 50.7165 12.3608C50.7165 11.7831 50.7238 11.2017 50.7165 10.6252C50.7165 10.4442 50.7581 10.3773 50.9465 10.386C51.2475 10.4021 51.5509 10.386 51.8519 10.3934C52.4379 10.412 52.8307 10.7083 52.9836 11.281C53.1749 11.9801 53.1728 12.719 52.9775 13.417Z" fill="white"/>
<path d="M61.679 13.6897C61.679 12.9285 61.679 12.3037 61.679 11.6802C61.679 11.2872 61.5725 11.1198 61.2018 11.0603C60.371 10.9364 59.5342 10.8223 58.701 11.0393C58.1222 11.1905 57.7063 11.5178 57.5142 12.1215C57.3516 12.6212 57.2973 13.1506 57.3551 13.6736C57.4775 14.7632 57.8775 15.1946 58.9212 15.4649C59.347 15.5752 59.7776 15.5281 60.2071 15.5318C60.4249 15.5318 60.4665 15.5963 60.4016 15.8033C60.3074 16.1095 60.0627 16.1467 59.8156 16.1616C59.2228 16.1905 58.6287 16.171 58.039 16.1033C57.935 16.0921 57.8102 16.0612 57.7417 16.1727C57.6059 16.3934 57.6365 16.6376 57.694 16.8707C57.7165 16.9689 57.7698 17.0571 57.8459 17.1221C57.922 17.1871 58.0168 17.2255 58.1161 17.2314C58.744 17.3411 59.3839 17.362 60.0174 17.2934C60.8213 17.1942 61.4306 16.9624 61.6202 15.8504C61.7475 15.0843 61.6386 14.3157 61.679 13.6897ZM60.4408 13.2372C60.4408 13.5434 60.4408 13.8483 60.4408 14.1545C60.4408 14.25 60.464 14.3789 60.3184 14.3802C59.9012 14.3802 59.4803 14.4595 59.0705 14.3169C58.9682 14.2831 58.8772 14.2211 58.8076 14.1379C58.7381 14.0547 58.6927 13.9536 58.6765 13.8459C58.5941 13.4276 58.5986 12.9965 58.6899 12.5802C58.7103 12.4492 58.7756 12.3297 58.8743 12.2427C58.9729 12.1556 59.0987 12.1066 59.2295 12.1041C59.5721 12.0769 59.9183 12.0917 60.2621 12.0843C60.4053 12.0843 60.4408 12.1537 60.4383 12.2876C60.4334 12.6037 60.4408 12.9211 60.4408 13.2372Z" fill="white"/>
<path d="M39.2841 13.7765C39.2841 13.3822 39.2926 12.9868 39.2841 12.5926C39.2608 11.705 38.8485 11.1793 37.9994 10.9996C37.3717 10.8657 36.7282 10.8967 36.0969 10.9612C35.4949 11.0219 35.3542 11.276 35.4239 11.876C35.4533 12.124 35.5915 12.207 35.7995 12.1587C36.2155 12.0632 36.6352 12.0905 37.0548 12.0843C37.2589 12.078 37.4631 12.0834 37.6666 12.1004C37.7489 12.1005 37.8281 12.1318 37.8887 12.1883C37.9492 12.2448 37.9865 12.3223 37.9933 12.4054C37.9933 12.5851 37.8036 12.5368 37.6935 12.5777C37.6207 12.5971 37.5467 12.612 37.4721 12.6223C36.9827 12.7364 36.4749 12.7649 36.0039 12.9546C35.5659 13.1318 35.2012 13.3872 35.1168 13.9004C34.981 14.7186 35.3615 15.3186 36.1495 15.5182C37.0573 15.7488 37.9712 15.6558 38.8791 15.5083C39.1531 15.4649 39.2877 15.2504 39.2841 14.9591C39.2816 14.5649 39.2841 14.1707 39.2841 13.7765ZM38.0288 13.7913C37.9921 14.612 38.2159 14.4645 37.2482 14.5351C37.0543 14.5231 36.8615 14.4987 36.6707 14.462C36.5177 14.4273 36.3526 14.3492 36.3672 14.1384C36.3795 13.95 36.5202 13.8905 36.678 13.8657C37.0671 13.7913 37.4574 13.7231 37.844 13.6351C37.9994 13.5979 38.0349 13.6475 38.0288 13.7913Z" fill="white"/>
<path d="M50.6136 19.0996C50.1401 19.0884 49.822 19.3611 49.8049 19.7913C49.8033 19.895 49.8226 19.9979 49.8617 20.0937C49.9007 20.1895 49.9587 20.2762 50.032 20.3486C50.1054 20.4209 50.1925 20.4773 50.2881 20.5142C50.3837 20.5512 50.4857 20.568 50.5879 20.5636C50.7835 20.5673 50.9725 20.4927 51.1141 20.356C51.2557 20.2193 51.3383 20.0315 51.3441 19.8335C51.3502 19.4033 51.0565 19.1095 50.6136 19.0996ZM50.5745 20.1942C50.32 20.1942 50.3029 19.9996 50.2637 19.8434C50.2821 19.6227 50.3506 19.4343 50.5708 19.433C50.791 19.4318 50.9048 19.624 50.8963 19.8335C50.8901 20.0194 50.8192 20.1942 50.5745 20.1942Z" fill="white"/>
<path d="M56.1488 20.2153C56.0818 19.9192 56.0595 19.6145 56.0827 19.3116C56.0827 19.2694 56.0032 19.2112 55.9481 19.1876C55.6718 19.0576 55.3565 19.0412 55.0684 19.1417C54.9057 19.2 55.0317 19.4975 55.0048 19.6859C55.0018 19.7293 55.0018 19.7728 55.0048 19.8161C55.0048 20.5921 55.0342 20.6207 55.7389 20.5153C55.8131 20.5031 55.8857 20.4827 55.9555 20.4545C56.0631 20.4099 56.1733 20.3033 56.1488 20.2153ZM55.5566 19.4058C55.6374 19.412 55.6545 19.4764 55.679 19.5297C55.6728 19.614 55.641 19.6624 55.564 19.6711C55.4869 19.6797 55.4416 19.6438 55.4489 19.5607C55.4563 19.4777 55.4367 19.3959 55.5566 19.4058ZM55.564 20.1992C55.4551 20.2079 55.4526 20.1359 55.4514 20.0566C55.4502 19.9773 55.4746 19.9128 55.5737 19.9215C55.5919 19.9197 55.6102 19.9221 55.6274 19.9284C55.6445 19.9347 55.6601 19.9448 55.6729 19.958C55.6856 19.9712 55.6954 19.9871 55.7013 20.0046C55.7072 20.0221 55.7092 20.0407 55.7071 20.0591C55.7075 20.078 55.704 20.0968 55.6968 20.1143C55.6897 20.1318 55.6791 20.1476 55.6657 20.1607C55.6522 20.1739 55.6363 20.1841 55.6188 20.1907C55.6013 20.1973 55.5826 20.2002 55.564 20.1992Z" fill="white"/>
<path d="M36.2889 20.3231C36.1666 20.1372 36.0185 19.9934 36.2535 19.7392C36.4541 19.5198 36.2755 19.1876 35.9647 19.1355C35.7751 19.1033 35.5781 19.1194 35.3848 19.1008C35.2159 19.0847 35.1902 19.169 35.1939 19.314C35.2012 19.6425 35.2037 19.9711 35.1939 20.2996C35.1878 20.4632 35.2257 20.5339 35.4043 20.5227C35.5512 20.514 35.6601 20.5103 35.6344 20.3144C35.6345 20.2094 35.6431 20.1045 35.6601 20.0008C35.824 20.364 35.9537 20.6541 36.3795 20.4768C36.3379 20.4149 36.3171 20.3677 36.2889 20.3231ZM35.7139 19.7194C35.6001 19.7058 35.6331 19.6091 35.6319 19.5409C35.6307 19.4727 35.6478 19.4095 35.7384 19.4169C35.7568 19.4203 35.7744 19.4274 35.7901 19.4379C35.8057 19.4484 35.8191 19.462 35.8294 19.4779C35.8397 19.4938 35.8467 19.5116 35.85 19.5303C35.8533 19.5491 35.8528 19.5682 35.8485 19.5868C35.8485 19.6785 35.8044 19.7293 35.7139 19.7194Z" fill="white"/>
<path d="M49.4892 19.2149C49.3615 19.1428 49.2205 19.0983 49.0751 19.084C48.9296 19.0697 48.7828 19.086 48.6438 19.1318C48.4358 19.1913 48.5973 19.4777 48.5569 19.6574C48.5508 19.7118 48.5508 19.7667 48.5569 19.8211C48.5569 20.007 48.5569 20.193 48.5569 20.3777C48.5569 20.4954 48.6034 20.5426 48.7086 20.519C48.8139 20.4954 48.9852 20.5946 48.9631 20.4335C48.9142 20.0901 49.1638 20.1198 49.3461 20.0616C49.4294 20.0342 49.5038 19.9843 49.5613 19.9172C49.6187 19.8502 49.6571 19.7686 49.6722 19.6811C49.6873 19.5937 49.6785 19.5037 49.647 19.4209C49.6154 19.3381 49.5621 19.2656 49.4929 19.2112L49.4892 19.2149ZM49.0622 19.7988C48.9325 19.7888 48.9827 19.6748 48.9692 19.6004C48.9754 19.5198 48.9509 19.4107 49.0794 19.4157C49.2078 19.4207 49.2323 19.5087 49.2299 19.6165C49.2274 19.7244 49.1846 19.8087 49.0622 19.7988Z" fill="white"/>
</g>
<defs>
<clipPath id="clip0">
<rect width="64" height="24" fill="white"/>
</clipPath>
</defs>
</svg>
